%TF.GenerationSoftware,KiCad,Pcbnew,9.0.4*%
%TF.CreationDate,2025-09-10T23:34:52+05:30*%
%TF.ProjectId,LMR51450,4c4d5235-3134-4353-902e-6b696361645f,rev?*%
%TF.SameCoordinates,Original*%
%TF.FileFunction,Paste,Top*%
%TF.FilePolarity,Positive*%
%FSLAX46Y46*%
G04 Gerber Fmt 4.6, Leading zero omitted, Abs format (unit mm)*
G04 Created by KiCad (PCBNEW 9.0.4) date 2025-09-10 23:34:52*
%MOMM*%
%LPD*%
G01*
G04 APERTURE LIST*
G04 Aperture macros list*
%AMRoundRect*
0 Rectangle with rounded corners*
0 $1 Rounding radius*
0 $2 $3 $4 $5 $6 $7 $8 $9 X,Y pos of 4 corners*
0 Add a 4 corners polygon primitive as box body*
4,1,4,$2,$3,$4,$5,$6,$7,$8,$9,$2,$3,0*
0 Add four circle primitives for the rounded corners*
1,1,$1+$1,$2,$3*
1,1,$1+$1,$4,$5*
1,1,$1+$1,$6,$7*
1,1,$1+$1,$8,$9*
0 Add four rect primitives between the rounded corners*
20,1,$1+$1,$2,$3,$4,$5,0*
20,1,$1+$1,$4,$5,$6,$7,0*
20,1,$1+$1,$6,$7,$8,$9,0*
20,1,$1+$1,$8,$9,$2,$3,0*%
G04 Aperture macros list end*
%ADD10C,0.000000*%
%ADD11RoundRect,0.250000X-0.475000X0.337500X-0.475000X-0.337500X0.475000X-0.337500X0.475000X0.337500X0*%
%ADD12RoundRect,0.250000X0.475000X-0.337500X0.475000X0.337500X-0.475000X0.337500X-0.475000X-0.337500X0*%
%ADD13RoundRect,0.250000X-0.450000X0.350000X-0.450000X-0.350000X0.450000X-0.350000X0.450000X0.350000X0*%
%ADD14RoundRect,0.250000X0.350000X0.450000X-0.350000X0.450000X-0.350000X-0.450000X0.350000X-0.450000X0*%
%ADD15R,0.812800X0.254000*%
%ADD16R,1.397000X2.590800*%
%ADD17RoundRect,0.250000X-0.350000X-0.450000X0.350000X-0.450000X0.350000X0.450000X-0.350000X0.450000X0*%
%ADD18RoundRect,0.250001X-0.899999X0.612499X-0.899999X-0.612499X0.899999X-0.612499X0.899999X0.612499X0*%
G04 APERTURE END LIST*
D10*
%TO.C,U1*%
G36*
X179033500Y-74195000D02*
G01*
X177836500Y-74195000D01*
X177836500Y-73099600D01*
X179033500Y-73099600D01*
X179033500Y-74195000D01*
G37*
G36*
X179033500Y-75490400D02*
G01*
X177836500Y-75490400D01*
X177836500Y-74395000D01*
X179033500Y-74395000D01*
X179033500Y-75490400D01*
G37*
%TD*%
D11*
%TO.C,Cff1*%
X184150000Y-75162500D03*
X184150000Y-77237500D03*
%TD*%
D12*
%TO.C,Cboot1*%
X169545000Y-79777500D03*
X169545000Y-77702500D03*
%TD*%
%TO.C,C2*%
X170180000Y-75332500D03*
X170180000Y-73257500D03*
%TD*%
D13*
%TO.C,Rff1*%
X184150000Y-80280000D03*
X184150000Y-82280000D03*
%TD*%
D14*
%TO.C,RFDB1*%
X181705000Y-78105000D03*
X179705000Y-78105000D03*
%TD*%
D15*
%TO.C,U1*%
X176987200Y-73044685D03*
X176987200Y-73544811D03*
X176987200Y-74044937D03*
X176987200Y-74545063D03*
X176987200Y-75045189D03*
X176987200Y-75545315D03*
X179882800Y-75545315D03*
X179882800Y-75045189D03*
X179882800Y-74545063D03*
X179882800Y-74044937D03*
X179882800Y-73544811D03*
X179882800Y-73044685D03*
D16*
X178435000Y-74295000D03*
%TD*%
D17*
%TO.C,RFBT1*%
X179705000Y-81280000D03*
X181705000Y-81280000D03*
%TD*%
D12*
%TO.C,C1*%
X167005000Y-75332500D03*
X167005000Y-73257500D03*
%TD*%
D18*
%TO.C,Cout1*%
X187325000Y-72767500D03*
X187325000Y-77092500D03*
%TD*%
D12*
%TO.C,C3*%
X173355000Y-75332500D03*
X173355000Y-73257500D03*
%TD*%
M02*
