%TF.GenerationSoftware,KiCad,Pcbnew,9.0.4*%
%TF.CreationDate,2025-09-10T23:34:52+05:30*%
%TF.ProjectId,LMR51450,4c4d5235-3134-4353-902e-6b696361645f,rev?*%
%TF.SameCoordinates,Original*%
%TF.FileFunction,Copper,L1,Top*%
%TF.FilePolarity,Positive*%
%FSLAX46Y46*%
G04 Gerber Fmt 4.6, Leading zero omitted, Abs format (unit mm)*
G04 Created by KiCad (PCBNEW 9.0.4) date 2025-09-10 23:34:52*
%MOMM*%
%LPD*%
G01*
G04 APERTURE LIST*
G04 Aperture macros list*
%AMRoundRect*
0 Rectangle with rounded corners*
0 $1 Rounding radius*
0 $2 $3 $4 $5 $6 $7 $8 $9 X,Y pos of 4 corners*
0 Add a 4 corners polygon primitive as box body*
4,1,4,$2,$3,$4,$5,$6,$7,$8,$9,$2,$3,0*
0 Add four circle primitives for the rounded corners*
1,1,$1+$1,$2,$3*
1,1,$1+$1,$4,$5*
1,1,$1+$1,$6,$7*
1,1,$1+$1,$8,$9*
0 Add four rect primitives between the rounded corners*
20,1,$1+$1,$2,$3,$4,$5,0*
20,1,$1+$1,$4,$5,$6,$7,0*
20,1,$1+$1,$6,$7,$8,$9,0*
20,1,$1+$1,$8,$9,$2,$3,0*%
G04 Aperture macros list end*
%TA.AperFunction,SMDPad,CuDef*%
%ADD10RoundRect,0.250000X-0.475000X0.337500X-0.475000X-0.337500X0.475000X-0.337500X0.475000X0.337500X0*%
%TD*%
%TA.AperFunction,SMDPad,CuDef*%
%ADD11RoundRect,0.250000X0.475000X-0.337500X0.475000X0.337500X-0.475000X0.337500X-0.475000X-0.337500X0*%
%TD*%
%TA.AperFunction,ComponentPad*%
%ADD12RoundRect,0.250000X-1.050000X1.050000X-1.050000X-1.050000X1.050000X-1.050000X1.050000X1.050000X0*%
%TD*%
%TA.AperFunction,ComponentPad*%
%ADD13C,2.600000*%
%TD*%
%TA.AperFunction,SMDPad,CuDef*%
%ADD14RoundRect,0.250000X-0.450000X0.350000X-0.450000X-0.350000X0.450000X-0.350000X0.450000X0.350000X0*%
%TD*%
%TA.AperFunction,SMDPad,CuDef*%
%ADD15RoundRect,0.250000X0.350000X0.450000X-0.350000X0.450000X-0.350000X-0.450000X0.350000X-0.450000X0*%
%TD*%
%TA.AperFunction,SMDPad,CuDef*%
%ADD16R,0.812800X0.254000*%
%TD*%
%TA.AperFunction,SMDPad,CuDef*%
%ADD17R,1.397000X2.590800*%
%TD*%
%TA.AperFunction,SMDPad,CuDef*%
%ADD18RoundRect,0.250000X-0.350000X-0.450000X0.350000X-0.450000X0.350000X0.450000X-0.350000X0.450000X0*%
%TD*%
%TA.AperFunction,ComponentPad*%
%ADD19RoundRect,0.250000X1.050000X-1.050000X1.050000X1.050000X-1.050000X1.050000X-1.050000X-1.050000X0*%
%TD*%
%TA.AperFunction,ComponentPad*%
%ADD20C,2.000000*%
%TD*%
%TA.AperFunction,SMDPad,CuDef*%
%ADD21RoundRect,0.250001X-0.899999X0.612499X-0.899999X-0.612499X0.899999X-0.612499X0.899999X0.612499X0*%
%TD*%
%TA.AperFunction,Conductor*%
%ADD22C,0.450000*%
%TD*%
%TA.AperFunction,Conductor*%
%ADD23C,0.150000*%
%TD*%
G04 APERTURE END LIST*
D10*
%TO.P,Cff1,1*%
%TO.N,Net-(U1-FB)*%
X184150000Y-75162500D03*
%TO.P,Cff1,2*%
%TO.N,Net-(Cff1-Pad2)*%
X184150000Y-77237500D03*
%TD*%
D11*
%TO.P,Cboot1,1*%
%TO.N,Net-(U1-BOOT)*%
X169545000Y-79777500D03*
%TO.P,Cboot1,2*%
%TO.N,Net-(Cboot1-Pad2)*%
X169545000Y-77702500D03*
%TD*%
%TO.P,C2,1*%
%TO.N,GND*%
X170180000Y-75332500D03*
%TO.P,C2,2*%
%TO.N,VCC*%
X170180000Y-73257500D03*
%TD*%
D12*
%TO.P,J1,1,Pin_1*%
%TO.N,VCC*%
X158577500Y-77465000D03*
D13*
%TO.P,J1,2,Pin_2*%
%TO.N,GND*%
X158577500Y-82545000D03*
%TD*%
D14*
%TO.P,Rff1,1*%
%TO.N,Net-(Cff1-Pad2)*%
X184150000Y-80280000D03*
%TO.P,Rff1,2*%
%TO.N,/Vout*%
X184150000Y-82280000D03*
%TD*%
D15*
%TO.P,RFDB1,1*%
%TO.N,GND*%
X181705000Y-78105000D03*
%TO.P,RFDB1,2*%
%TO.N,Net-(U1-FB)*%
X179705000Y-78105000D03*
%TD*%
D16*
%TO.P,U1,1,SW*%
%TO.N,Net-(Cboot1-Pad2)*%
X176987200Y-73044685D03*
%TO.P,U1,2,SW*%
X176987200Y-73544811D03*
%TO.P,U1,3,SW*%
X176987200Y-74044937D03*
%TO.P,U1,4,BOOT*%
%TO.N,Net-(U1-BOOT)*%
X176987200Y-74545063D03*
%TO.P,U1,5,PG*%
%TO.N,unconnected-(U1-PG-Pad5)*%
X176987200Y-75045189D03*
%TO.P,U1,6,RT*%
%TO.N,unconnected-(U1-RT-Pad6)*%
X176987200Y-75545315D03*
%TO.P,U1,7,FB*%
%TO.N,Net-(U1-FB)*%
X179882800Y-75545315D03*
%TO.P,U1,8,AGND*%
%TO.N,GND*%
X179882800Y-75045189D03*
%TO.P,U1,9,EN*%
%TO.N,VCC*%
X179882800Y-74545063D03*
%TO.P,U1,10,VIN*%
X179882800Y-74044937D03*
%TO.P,U1,11,VIN*%
X179882800Y-73544811D03*
%TO.P,U1,12,VIN*%
X179882800Y-73044685D03*
D17*
%TO.P,U1,13,PGND*%
%TO.N,GND*%
X178435000Y-74295000D03*
%TD*%
D18*
%TO.P,RFBT1,1*%
%TO.N,Net-(U1-FB)*%
X179705000Y-81280000D03*
%TO.P,RFBT1,2*%
%TO.N,/Vout*%
X181705000Y-81280000D03*
%TD*%
D19*
%TO.P,J2,1,Pin_1*%
%TO.N,/Vout*%
X194482500Y-82555000D03*
D13*
%TO.P,J2,2,Pin_2*%
%TO.N,GND*%
X194482500Y-77475000D03*
%TD*%
D11*
%TO.P,C1,1*%
%TO.N,GND*%
X167005000Y-75332500D03*
%TO.P,C1,2*%
%TO.N,VCC*%
X167005000Y-73257500D03*
%TD*%
D20*
%TO.P,Lout1,1,1*%
%TO.N,Net-(Cboot1-Pad2)*%
X166365000Y-85725000D03*
%TO.P,Lout1,2,2*%
%TO.N,/Vout*%
X181605000Y-85725000D03*
%TD*%
D21*
%TO.P,Cout1,1*%
%TO.N,GND*%
X187325000Y-72767500D03*
%TO.P,Cout1,2*%
%TO.N,/Vout*%
X187325000Y-77092500D03*
%TD*%
D11*
%TO.P,C3,1*%
%TO.N,GND*%
X173355000Y-75332500D03*
%TO.P,C3,2*%
%TO.N,VCC*%
X173355000Y-73257500D03*
%TD*%
D22*
%TO.N,VCC*%
X173355000Y-73257500D02*
X170180000Y-73257500D01*
X173355000Y-73257500D02*
X174679700Y-71932800D01*
X174679700Y-71932800D02*
X180898800Y-71932800D01*
X179882800Y-73544811D02*
X179882800Y-74492189D01*
X181356000Y-72390000D02*
X180701315Y-73044685D01*
X158577500Y-74492900D02*
X159812900Y-73257500D01*
X180701315Y-73044685D02*
X179882800Y-73044685D01*
X179882800Y-73044685D02*
X179882800Y-73544811D01*
X180898800Y-71932800D02*
X181356000Y-72390000D01*
X158577500Y-77465000D02*
X158577500Y-74492900D01*
X170180000Y-73257500D02*
X167005000Y-73257500D01*
X159812900Y-73257500D02*
X167005000Y-73257500D01*
D23*
%TO.N,Net-(U1-BOOT)*%
X171169489Y-79777500D02*
X176401926Y-74545063D01*
X169545000Y-79777500D02*
X171169489Y-79777500D01*
X176401926Y-74545063D02*
X176987200Y-74545063D01*
%TO.N,Net-(Cboot1-Pad2)*%
X172548304Y-77702500D02*
X176205867Y-74044937D01*
X176987200Y-73544811D02*
X176987200Y-73044685D01*
X166365000Y-80882500D02*
X169545000Y-77702500D01*
X176205867Y-74044937D02*
X176987200Y-74044937D01*
X166365000Y-85725000D02*
X166365000Y-80882500D01*
X176987200Y-74044937D02*
X176987200Y-73544811D01*
X169545000Y-77702500D02*
X172548304Y-77702500D01*
%TO.N,Net-(U1-FB)*%
X179705000Y-81280000D02*
X179705000Y-78105000D01*
X183767185Y-75545315D02*
X179882800Y-75545315D01*
X184150000Y-75162500D02*
X183767185Y-75545315D01*
X179705000Y-75723115D02*
X179882800Y-75545315D01*
X179705000Y-78105000D02*
X179705000Y-75723115D01*
%TO.N,Net-(Cff1-Pad2)*%
X184150000Y-77237500D02*
X184150000Y-80280000D01*
D22*
%TO.N,/Vout*%
X182705000Y-82280000D02*
X181705000Y-81280000D01*
X181605000Y-84825000D02*
X184150000Y-82280000D01*
X181605000Y-85725000D02*
X181605000Y-84825000D01*
X184150000Y-82280000D02*
X187325000Y-79105000D01*
X187325000Y-79105000D02*
X187325000Y-77092500D01*
X184150000Y-82280000D02*
X182705000Y-82280000D01*
X194482500Y-82555000D02*
X192787500Y-82555000D01*
X192787500Y-82555000D02*
X187325000Y-77092500D01*
%TD*%
%TA.AperFunction,Conductor*%
%TO.N,GND*%
G36*
X173726165Y-71647685D02*
G01*
X173771920Y-71700489D01*
X173781864Y-71769647D01*
X173752839Y-71833203D01*
X173746807Y-71839681D01*
X173453306Y-72133181D01*
X173391983Y-72166666D01*
X173365625Y-72169500D01*
X172829998Y-72169500D01*
X172829980Y-72169501D01*
X172727203Y-72180000D01*
X172727200Y-72180001D01*
X172560668Y-72235185D01*
X172560663Y-72235187D01*
X172411342Y-72327289D01*
X172287288Y-72451343D01*
X172287285Y-72451347D01*
X172273870Y-72473097D01*
X172221922Y-72519822D01*
X172168332Y-72532000D01*
X171366668Y-72532000D01*
X171299629Y-72512315D01*
X171261130Y-72473097D01*
X171247714Y-72451347D01*
X171247711Y-72451343D01*
X171123657Y-72327289D01*
X171123656Y-72327288D01*
X171020034Y-72263374D01*
X170974336Y-72235187D01*
X170974331Y-72235185D01*
X170972862Y-72234698D01*
X170807797Y-72180001D01*
X170807795Y-72180000D01*
X170705010Y-72169500D01*
X169654998Y-72169500D01*
X169654980Y-72169501D01*
X169552203Y-72180000D01*
X169552200Y-72180001D01*
X169385668Y-72235185D01*
X169385663Y-72235187D01*
X169236342Y-72327289D01*
X169112288Y-72451343D01*
X169112285Y-72451347D01*
X169098870Y-72473097D01*
X169046922Y-72519822D01*
X168993332Y-72532000D01*
X168191668Y-72532000D01*
X168124629Y-72512315D01*
X168086130Y-72473097D01*
X168072714Y-72451347D01*
X168072711Y-72451343D01*
X167948657Y-72327289D01*
X167948656Y-72327288D01*
X167845034Y-72263374D01*
X167799336Y-72235187D01*
X167799331Y-72235185D01*
X167797862Y-72234698D01*
X167632797Y-72180001D01*
X167632795Y-72180000D01*
X167530010Y-72169500D01*
X166479998Y-72169500D01*
X166479980Y-72169501D01*
X166377203Y-72180000D01*
X166377200Y-72180001D01*
X166210668Y-72235185D01*
X166210663Y-72235187D01*
X166061342Y-72327289D01*
X165937288Y-72451343D01*
X165937285Y-72451347D01*
X165923870Y-72473097D01*
X165871922Y-72519822D01*
X165818332Y-72532000D01*
X159741443Y-72532000D01*
X159601285Y-72559879D01*
X159601279Y-72559881D01*
X159469248Y-72614570D01*
X159350417Y-72693969D01*
X158013967Y-74030419D01*
X157953904Y-74120312D01*
X157934571Y-74149245D01*
X157879881Y-74281279D01*
X157879879Y-74281285D01*
X157852000Y-74421442D01*
X157852000Y-75540500D01*
X157832315Y-75607539D01*
X157779511Y-75653294D01*
X157728000Y-75664500D01*
X157477499Y-75664500D01*
X157477480Y-75664501D01*
X157374703Y-75675000D01*
X157374700Y-75675001D01*
X157208168Y-75730185D01*
X157208163Y-75730187D01*
X157058842Y-75822289D01*
X156934789Y-75946342D01*
X156842687Y-76095663D01*
X156842685Y-76095668D01*
X156827829Y-76140500D01*
X156787501Y-76262203D01*
X156787501Y-76262204D01*
X156787500Y-76262204D01*
X156777000Y-76364983D01*
X156777000Y-78565001D01*
X156777001Y-78565018D01*
X156787500Y-78667796D01*
X156787501Y-78667799D01*
X156842685Y-78834331D01*
X156842687Y-78834336D01*
X156867356Y-78874331D01*
X156934788Y-78983656D01*
X157058844Y-79107712D01*
X157208166Y-79199814D01*
X157374703Y-79254999D01*
X157477491Y-79265500D01*
X159677508Y-79265499D01*
X159780297Y-79254999D01*
X159946834Y-79199814D01*
X160096156Y-79107712D01*
X160220212Y-78983656D01*
X160312314Y-78834334D01*
X160367499Y-78667797D01*
X160378000Y-78565009D01*
X160377999Y-76364992D01*
X160372104Y-76307288D01*
X160367499Y-76262203D01*
X160367498Y-76262200D01*
X160351919Y-76215186D01*
X160312314Y-76095666D01*
X160220212Y-75946344D01*
X160096156Y-75822288D01*
X159946834Y-75730186D01*
X159916052Y-75719986D01*
X165780001Y-75719986D01*
X165790494Y-75822697D01*
X165845641Y-75989119D01*
X165845643Y-75989124D01*
X165937684Y-76138345D01*
X166061654Y-76262315D01*
X166210875Y-76354356D01*
X166210880Y-76354358D01*
X166377302Y-76409505D01*
X166377309Y-76409506D01*
X166480019Y-76419999D01*
X166754999Y-76419999D01*
X167255000Y-76419999D01*
X167529972Y-76419999D01*
X167529986Y-76419998D01*
X167632697Y-76409505D01*
X167799119Y-76354358D01*
X167799124Y-76354356D01*
X167948345Y-76262315D01*
X168072315Y-76138345D01*
X168164356Y-75989124D01*
X168164358Y-75989119D01*
X168219505Y-75822697D01*
X168219506Y-75822690D01*
X168229999Y-75719986D01*
X168230000Y-75719973D01*
X168230000Y-75582500D01*
X167255000Y-75582500D01*
X167255000Y-76419999D01*
X166754999Y-76419999D01*
X166755000Y-76419998D01*
X166755000Y-75582500D01*
X165780001Y-75582500D01*
X165780001Y-75719986D01*
X159916052Y-75719986D01*
X159780297Y-75675001D01*
X159780295Y-75675000D01*
X159677516Y-75664500D01*
X159677509Y-75664500D01*
X159427000Y-75664500D01*
X159418314Y-75661949D01*
X159409353Y-75663238D01*
X159385312Y-75652259D01*
X159359961Y-75644815D01*
X159354033Y-75637974D01*
X159345797Y-75634213D01*
X159331507Y-75611978D01*
X159314206Y-75592011D01*
X159311918Y-75581496D01*
X159308023Y-75575435D01*
X159303000Y-75540500D01*
X159303000Y-74844774D01*
X159322685Y-74777735D01*
X159339319Y-74757093D01*
X160077093Y-74019319D01*
X160138416Y-73985834D01*
X160164774Y-73983000D01*
X165818332Y-73983000D01*
X165885371Y-74002685D01*
X165923870Y-74041903D01*
X165937285Y-74063652D01*
X165937288Y-74063656D01*
X166061344Y-74187712D01*
X166064628Y-74189737D01*
X166064653Y-74189753D01*
X166066445Y-74191746D01*
X166067011Y-74192193D01*
X166066934Y-74192289D01*
X166111379Y-74241699D01*
X166122603Y-74310661D01*
X166094761Y-74374744D01*
X166064665Y-74400826D01*
X166061660Y-74402679D01*
X166061655Y-74402683D01*
X165937684Y-74526654D01*
X165845643Y-74675875D01*
X165845641Y-74675880D01*
X165790494Y-74842302D01*
X165790493Y-74842309D01*
X165780000Y-74945013D01*
X165780000Y-75082500D01*
X168229999Y-75082500D01*
X168229999Y-74945028D01*
X168229998Y-74945013D01*
X168219505Y-74842302D01*
X168164358Y-74675880D01*
X168164356Y-74675875D01*
X168072315Y-74526654D01*
X167948344Y-74402683D01*
X167948341Y-74402681D01*
X167945339Y-74400829D01*
X167943713Y-74399021D01*
X167942677Y-74398202D01*
X167942817Y-74398024D01*
X167898617Y-74348880D01*
X167887397Y-74279917D01*
X167915243Y-74215836D01*
X167945344Y-74189754D01*
X167948656Y-74187712D01*
X168072712Y-74063656D01*
X168078337Y-74054534D01*
X168086130Y-74041903D01*
X168138078Y-73995178D01*
X168191668Y-73983000D01*
X168993332Y-73983000D01*
X169060371Y-74002685D01*
X169098870Y-74041903D01*
X169112285Y-74063652D01*
X169112288Y-74063656D01*
X169236344Y-74187712D01*
X169239628Y-74189737D01*
X169239653Y-74189753D01*
X169241445Y-74191746D01*
X169242011Y-74192193D01*
X169241934Y-74192289D01*
X169286379Y-74241699D01*
X169297603Y-74310661D01*
X169269761Y-74374744D01*
X169239665Y-74400826D01*
X169236660Y-74402679D01*
X169236655Y-74402683D01*
X169112684Y-74526654D01*
X169020643Y-74675875D01*
X169020641Y-74675880D01*
X168965494Y-74842302D01*
X168965493Y-74842309D01*
X168955000Y-74945013D01*
X168955000Y-75082500D01*
X171404999Y-75082500D01*
X171404999Y-74945028D01*
X171404998Y-74945013D01*
X171394505Y-74842302D01*
X171339358Y-74675880D01*
X171339356Y-74675875D01*
X171247315Y-74526654D01*
X171123344Y-74402683D01*
X171123341Y-74402681D01*
X171120339Y-74400829D01*
X171118713Y-74399021D01*
X171117677Y-74398202D01*
X171117817Y-74398024D01*
X171073617Y-74348880D01*
X171062397Y-74279917D01*
X171090243Y-74215836D01*
X171120344Y-74189754D01*
X171123656Y-74187712D01*
X171247712Y-74063656D01*
X171253337Y-74054534D01*
X171261130Y-74041903D01*
X171313078Y-73995178D01*
X171366668Y-73983000D01*
X172168332Y-73983000D01*
X172235371Y-74002685D01*
X172273870Y-74041903D01*
X172287285Y-74063652D01*
X172287288Y-74063656D01*
X172411344Y-74187712D01*
X172414628Y-74189737D01*
X172414653Y-74189753D01*
X172416445Y-74191746D01*
X172417011Y-74192193D01*
X172416934Y-74192289D01*
X172461379Y-74241699D01*
X172472603Y-74310661D01*
X172444761Y-74374744D01*
X172414665Y-74400826D01*
X172411660Y-74402679D01*
X172411655Y-74402683D01*
X172287684Y-74526654D01*
X172195643Y-74675875D01*
X172195641Y-74675880D01*
X172140494Y-74842302D01*
X172140493Y-74842309D01*
X172130000Y-74945013D01*
X172130000Y-75082500D01*
X173231000Y-75082500D01*
X173298039Y-75102185D01*
X173343794Y-75154989D01*
X173355000Y-75206500D01*
X173355000Y-75458500D01*
X173335315Y-75525539D01*
X173282511Y-75571294D01*
X173231000Y-75582500D01*
X172130001Y-75582500D01*
X172130001Y-75719986D01*
X172140494Y-75822697D01*
X172195641Y-75989119D01*
X172195643Y-75989124D01*
X172287684Y-76138345D01*
X172411654Y-76262315D01*
X172560875Y-76354356D01*
X172560880Y-76354358D01*
X172727302Y-76409505D01*
X172727310Y-76409506D01*
X172740000Y-76410803D01*
X172804692Y-76437198D01*
X172844844Y-76494378D01*
X172847708Y-76564189D01*
X172815080Y-76621842D01*
X172346243Y-77090681D01*
X172284920Y-77124166D01*
X172258562Y-77127000D01*
X170821307Y-77127000D01*
X170754268Y-77107315D01*
X170708513Y-77054511D01*
X170706238Y-77048718D01*
X170704817Y-77045671D01*
X170704812Y-77045663D01*
X170612712Y-76896344D01*
X170488656Y-76772288D01*
X170339334Y-76680186D01*
X170283559Y-76661704D01*
X170226116Y-76621932D01*
X170199293Y-76557416D01*
X170211608Y-76488641D01*
X170259151Y-76437441D01*
X170322565Y-76419999D01*
X170704971Y-76419999D01*
X170704987Y-76419998D01*
X170807697Y-76409505D01*
X170974119Y-76354358D01*
X170974124Y-76354356D01*
X171123345Y-76262315D01*
X171247315Y-76138345D01*
X171339356Y-75989124D01*
X171339358Y-75989119D01*
X171394505Y-75822697D01*
X171394506Y-75822690D01*
X171404999Y-75719986D01*
X171405000Y-75719973D01*
X171405000Y-75582500D01*
X168955001Y-75582500D01*
X168955001Y-75719986D01*
X168965494Y-75822697D01*
X169020641Y-75989119D01*
X169020643Y-75989124D01*
X169112684Y-76138345D01*
X169236654Y-76262315D01*
X169385875Y-76354356D01*
X169385882Y-76354359D01*
X169441516Y-76372794D01*
X169498961Y-76412566D01*
X169525785Y-76477082D01*
X169513470Y-76545857D01*
X169465928Y-76597058D01*
X169402513Y-76614500D01*
X169019998Y-76614500D01*
X169019980Y-76614501D01*
X168917203Y-76625000D01*
X168917200Y-76625001D01*
X168750668Y-76680185D01*
X168750663Y-76680187D01*
X168601342Y-76772289D01*
X168477289Y-76896342D01*
X168385187Y-77045663D01*
X168385185Y-77045668D01*
X168360075Y-77121446D01*
X168330001Y-77212203D01*
X168330001Y-77212204D01*
X168330000Y-77212204D01*
X168319500Y-77314983D01*
X168319500Y-78062756D01*
X168299815Y-78129795D01*
X168283181Y-78150437D01*
X166011635Y-80421985D01*
X165904487Y-80529132D01*
X165904485Y-80529135D01*
X165828719Y-80660363D01*
X165789500Y-80806734D01*
X165789500Y-84258193D01*
X165769815Y-84325232D01*
X165721795Y-84368678D01*
X165578566Y-84441657D01*
X165469550Y-84520862D01*
X165387490Y-84580483D01*
X165387488Y-84580485D01*
X165387487Y-84580485D01*
X165220485Y-84747487D01*
X165220485Y-84747488D01*
X165220483Y-84747490D01*
X165160862Y-84829550D01*
X165081657Y-84938566D01*
X164974433Y-85149003D01*
X164901446Y-85373631D01*
X164864500Y-85606902D01*
X164864500Y-85843097D01*
X164901446Y-86076368D01*
X164974433Y-86300996D01*
X165055448Y-86459995D01*
X165081657Y-86511433D01*
X165220483Y-86702510D01*
X165387490Y-86869517D01*
X165578567Y-87008343D01*
X165677991Y-87059002D01*
X165789003Y-87115566D01*
X165789005Y-87115566D01*
X165789008Y-87115568D01*
X165880720Y-87145367D01*
X166013631Y-87188553D01*
X166246903Y-87225500D01*
X166246908Y-87225500D01*
X166483097Y-87225500D01*
X166716368Y-87188553D01*
X166940992Y-87115568D01*
X167151433Y-87008343D01*
X167342510Y-86869517D01*
X167509517Y-86702510D01*
X167648343Y-86511433D01*
X167755568Y-86300992D01*
X167828553Y-86076368D01*
X167865500Y-85843097D01*
X167865500Y-85606902D01*
X167828553Y-85373631D01*
X167755566Y-85149003D01*
X167648342Y-84938566D01*
X167509517Y-84747490D01*
X167342510Y-84580483D01*
X167151433Y-84441657D01*
X167008205Y-84368678D01*
X166957409Y-84320703D01*
X166940500Y-84258193D01*
X166940500Y-81172241D01*
X166960185Y-81105202D01*
X166976814Y-81084565D01*
X168107821Y-79953557D01*
X168169142Y-79920074D01*
X168238834Y-79925058D01*
X168294767Y-79966930D01*
X168319184Y-80032394D01*
X168319500Y-80041239D01*
X168319500Y-80165000D01*
X168319501Y-80165019D01*
X168330000Y-80267796D01*
X168330001Y-80267799D01*
X168385185Y-80434331D01*
X168385187Y-80434336D01*
X168412415Y-80478479D01*
X168477288Y-80583656D01*
X168601344Y-80707712D01*
X168750666Y-80799814D01*
X168917203Y-80854999D01*
X169019991Y-80865500D01*
X170070008Y-80865499D01*
X170070016Y-80865498D01*
X170070019Y-80865498D01*
X170126302Y-80859748D01*
X170172797Y-80854999D01*
X170339334Y-80799814D01*
X170488656Y-80707712D01*
X170612712Y-80583656D01*
X170704814Y-80434334D01*
X170704814Y-80434331D01*
X170704817Y-80434328D01*
X170707869Y-80427784D01*
X170709987Y-80428771D01*
X170743372Y-80380552D01*
X170807887Y-80353728D01*
X170821307Y-80353000D01*
X171245253Y-80353000D01*
X171245255Y-80353000D01*
X171391624Y-80313781D01*
X171522854Y-80238015D01*
X175921578Y-75839289D01*
X175982899Y-75805806D01*
X176052591Y-75810790D01*
X176108524Y-75852662D01*
X176125439Y-75883640D01*
X176137001Y-75914641D01*
X176137006Y-75914650D01*
X176223252Y-76029859D01*
X176223255Y-76029862D01*
X176338464Y-76116108D01*
X176338471Y-76116112D01*
X176473317Y-76166406D01*
X176473316Y-76166406D01*
X176480244Y-76167150D01*
X176532927Y-76172815D01*
X177441472Y-76172814D01*
X177501083Y-76166406D01*
X177635931Y-76116111D01*
X177636771Y-76115482D01*
X177637238Y-76115133D01*
X177638764Y-76114563D01*
X177643722Y-76111857D01*
X177644111Y-76112569D01*
X177702702Y-76090716D01*
X177711549Y-76090400D01*
X178185000Y-76090400D01*
X178185000Y-74419000D01*
X178204685Y-74351961D01*
X178257489Y-74306206D01*
X178309000Y-74295000D01*
X178561000Y-74295000D01*
X178628039Y-74314685D01*
X178673794Y-74367489D01*
X178685000Y-74419000D01*
X178685000Y-76090400D01*
X179005500Y-76090400D01*
X179072539Y-76110085D01*
X179118294Y-76162889D01*
X179129500Y-76214400D01*
X179129500Y-76849551D01*
X179109815Y-76916590D01*
X179057011Y-76962345D01*
X179044507Y-76967256D01*
X179035667Y-76970185D01*
X178886342Y-77062289D01*
X178762289Y-77186342D01*
X178670187Y-77335663D01*
X178670186Y-77335666D01*
X178615001Y-77502203D01*
X178615001Y-77502204D01*
X178615000Y-77502204D01*
X178604500Y-77604983D01*
X178604500Y-78605001D01*
X178604501Y-78605019D01*
X178615000Y-78707796D01*
X178615001Y-78707799D01*
X178670185Y-78874331D01*
X178670187Y-78874336D01*
X178705069Y-78930888D01*
X178762288Y-79023656D01*
X178886344Y-79147712D01*
X179035666Y-79239814D01*
X179044498Y-79242740D01*
X179101944Y-79282508D01*
X179128771Y-79347022D01*
X179129500Y-79360448D01*
X179129500Y-80024551D01*
X179109815Y-80091590D01*
X179057011Y-80137345D01*
X179044507Y-80142256D01*
X179035667Y-80145185D01*
X178886342Y-80237289D01*
X178762289Y-80361342D01*
X178670187Y-80510663D01*
X178670186Y-80510666D01*
X178615001Y-80677203D01*
X178615001Y-80677204D01*
X178615000Y-80677204D01*
X178604500Y-80779983D01*
X178604500Y-81780001D01*
X178604501Y-81780019D01*
X178615000Y-81882796D01*
X178615001Y-81882799D01*
X178667130Y-82040112D01*
X178670186Y-82049334D01*
X178762288Y-82198656D01*
X178886344Y-82322712D01*
X179035666Y-82414814D01*
X179202203Y-82469999D01*
X179304991Y-82480500D01*
X180105008Y-82480499D01*
X180105016Y-82480498D01*
X180105019Y-82480498D01*
X180161302Y-82474748D01*
X180207797Y-82469999D01*
X180374334Y-82414814D01*
X180523656Y-82322712D01*
X180617319Y-82229049D01*
X180678642Y-82195564D01*
X180748334Y-82200548D01*
X180792681Y-82229049D01*
X180886344Y-82322712D01*
X181035666Y-82414814D01*
X181202203Y-82469999D01*
X181304991Y-82480500D01*
X181828124Y-82480499D01*
X181895163Y-82500183D01*
X181915805Y-82516818D01*
X182242516Y-82843529D01*
X182242519Y-82843531D01*
X182242521Y-82843533D01*
X182307478Y-82886935D01*
X182352283Y-82940546D01*
X182360990Y-83009871D01*
X182330836Y-83072899D01*
X182326268Y-83077718D01*
X181110121Y-84293865D01*
X181060760Y-84324114D01*
X181029015Y-84334429D01*
X181029014Y-84334429D01*
X180818566Y-84441657D01*
X180709550Y-84520862D01*
X180627490Y-84580483D01*
X180627488Y-84580485D01*
X180627487Y-84580485D01*
X180460485Y-84747487D01*
X180460485Y-84747488D01*
X180460483Y-84747490D01*
X180400862Y-84829550D01*
X180321657Y-84938566D01*
X180214433Y-85149003D01*
X180141446Y-85373631D01*
X180104500Y-85606902D01*
X180104500Y-85843097D01*
X180141446Y-86076368D01*
X180214433Y-86300996D01*
X180295448Y-86459995D01*
X180321657Y-86511433D01*
X180460483Y-86702510D01*
X180627490Y-86869517D01*
X180818567Y-87008343D01*
X180917991Y-87059002D01*
X181029003Y-87115566D01*
X181029005Y-87115566D01*
X181029008Y-87115568D01*
X181120720Y-87145367D01*
X181253631Y-87188553D01*
X181486903Y-87225500D01*
X181486908Y-87225500D01*
X181723097Y-87225500D01*
X181956368Y-87188553D01*
X182180992Y-87115568D01*
X182391433Y-87008343D01*
X182582510Y-86869517D01*
X182749517Y-86702510D01*
X182888343Y-86511433D01*
X182995568Y-86300992D01*
X183068553Y-86076368D01*
X183105500Y-85843097D01*
X183105500Y-85606902D01*
X183068553Y-85373631D01*
X182995566Y-85149003D01*
X182888342Y-84938566D01*
X182794514Y-84809423D01*
X182771035Y-84743619D01*
X182786860Y-84675565D01*
X182807148Y-84648862D01*
X184039193Y-83416818D01*
X184100516Y-83383333D01*
X184126874Y-83380499D01*
X184650002Y-83380499D01*
X184650008Y-83380499D01*
X184752797Y-83369999D01*
X184919334Y-83314814D01*
X185068656Y-83222712D01*
X185192712Y-83098656D01*
X185284814Y-82949334D01*
X185339999Y-82782797D01*
X185350500Y-82680009D01*
X185350499Y-82156872D01*
X185370183Y-82089834D01*
X185386813Y-82069197D01*
X187888532Y-79567480D01*
X187967929Y-79448653D01*
X188022619Y-79316620D01*
X188028470Y-79287203D01*
X188050500Y-79176455D01*
X188050500Y-79134415D01*
X188051789Y-79125544D01*
X188062765Y-79101603D01*
X188070185Y-79076335D01*
X188077095Y-79070346D01*
X188080908Y-79062032D01*
X188103087Y-79047824D01*
X188122989Y-79030580D01*
X188132041Y-79029278D01*
X188139743Y-79024345D01*
X188166079Y-79024384D01*
X188192147Y-79020636D01*
X188200466Y-79024435D01*
X188209612Y-79024449D01*
X188231745Y-79038720D01*
X188255703Y-79049661D01*
X188262181Y-79055693D01*
X192325015Y-83118528D01*
X192325022Y-83118534D01*
X192443844Y-83197928D01*
X192482516Y-83213946D01*
X192575880Y-83252619D01*
X192582185Y-83253873D01*
X192644096Y-83286253D01*
X192678675Y-83346966D01*
X192682000Y-83375491D01*
X192682000Y-83655000D01*
X192682001Y-83655019D01*
X192692500Y-83757796D01*
X192692501Y-83757799D01*
X192747685Y-83924331D01*
X192747686Y-83924334D01*
X192839788Y-84073656D01*
X192963844Y-84197712D01*
X193113166Y-84289814D01*
X193279703Y-84344999D01*
X193382491Y-84355500D01*
X195582508Y-84355499D01*
X195685297Y-84344999D01*
X195851834Y-84289814D01*
X196001156Y-84197712D01*
X196125212Y-84073656D01*
X196217314Y-83924334D01*
X196272499Y-83757797D01*
X196283000Y-83655009D01*
X196282999Y-81454992D01*
X196272499Y-81352203D01*
X196217314Y-81185666D01*
X196125212Y-81036344D01*
X196001156Y-80912288D01*
X195851834Y-80820186D01*
X195685297Y-80765001D01*
X195685295Y-80765000D01*
X195582510Y-80754500D01*
X193382498Y-80754500D01*
X193382481Y-80754501D01*
X193279703Y-80765000D01*
X193279700Y-80765001D01*
X193113168Y-80820185D01*
X193113163Y-80820187D01*
X192963842Y-80912289D01*
X192839789Y-81036342D01*
X192747687Y-81185663D01*
X192747685Y-81185668D01*
X192735380Y-81222804D01*
X192695607Y-81280249D01*
X192631091Y-81307072D01*
X192562315Y-81294757D01*
X192529993Y-81271481D01*
X189011819Y-77753307D01*
X188978334Y-77691984D01*
X188975500Y-77665626D01*
X188975500Y-77357014D01*
X192682500Y-77357014D01*
X192682500Y-77592985D01*
X192713299Y-77826914D01*
X192774370Y-78054837D01*
X192864660Y-78272819D01*
X192864665Y-78272828D01*
X192982644Y-78477171D01*
X192982645Y-78477172D01*
X193045221Y-78558723D01*
X193881458Y-77722487D01*
X193906478Y-77782890D01*
X193977612Y-77889351D01*
X194068149Y-77979888D01*
X194174610Y-78051022D01*
X194235011Y-78076041D01*
X193398775Y-78912277D01*
X193480327Y-78974854D01*
X193480328Y-78974855D01*
X193684671Y-79092834D01*
X193684680Y-79092839D01*
X193902663Y-79183129D01*
X193902661Y-79183129D01*
X194130585Y-79244200D01*
X194364514Y-79274999D01*
X194364529Y-79275000D01*
X194600471Y-79275000D01*
X194600485Y-79274999D01*
X194834414Y-79244200D01*
X195062337Y-79183129D01*
X195280319Y-79092839D01*
X195280328Y-79092834D01*
X195484681Y-78974850D01*
X195566223Y-78912279D01*
X195566223Y-78912276D01*
X194729987Y-78076041D01*
X194790390Y-78051022D01*
X194896851Y-77979888D01*
X194987388Y-77889351D01*
X195058522Y-77782890D01*
X195083541Y-77722488D01*
X195919776Y-78558723D01*
X195919779Y-78558723D01*
X195982350Y-78477181D01*
X196100334Y-78272828D01*
X196100339Y-78272819D01*
X196190629Y-78054837D01*
X196251700Y-77826914D01*
X196282499Y-77592985D01*
X196282500Y-77592971D01*
X196282500Y-77357028D01*
X196282499Y-77357014D01*
X196251700Y-77123085D01*
X196190629Y-76895162D01*
X196100339Y-76677180D01*
X196100334Y-76677171D01*
X195982355Y-76472828D01*
X195982354Y-76472827D01*
X195919777Y-76391275D01*
X195083541Y-77227511D01*
X195058522Y-77167110D01*
X194987388Y-77060649D01*
X194896851Y-76970112D01*
X194790390Y-76898978D01*
X194729988Y-76873958D01*
X195566223Y-76037721D01*
X195484672Y-75975145D01*
X195484671Y-75975144D01*
X195280328Y-75857165D01*
X195280319Y-75857160D01*
X195062336Y-75766870D01*
X195062338Y-75766870D01*
X194834414Y-75705799D01*
X194600485Y-75675000D01*
X194364514Y-75675000D01*
X194130585Y-75705799D01*
X193902662Y-75766870D01*
X193684680Y-75857160D01*
X193684671Y-75857165D01*
X193480328Y-75975144D01*
X193480318Y-75975150D01*
X193398775Y-76037720D01*
X193398775Y-76037721D01*
X194235012Y-76873958D01*
X194174610Y-76898978D01*
X194068149Y-76970112D01*
X193977612Y-77060649D01*
X193906478Y-77167110D01*
X193881458Y-77227511D01*
X193045221Y-76391275D01*
X193045220Y-76391275D01*
X192982650Y-76472818D01*
X192982644Y-76472828D01*
X192864665Y-76677171D01*
X192864660Y-76677180D01*
X192774370Y-76895162D01*
X192713299Y-77123085D01*
X192682500Y-77357014D01*
X188975500Y-77357014D01*
X188975500Y-76429997D01*
X188975499Y-76429984D01*
X188973539Y-76410803D01*
X188964999Y-76327203D01*
X188909814Y-76160666D01*
X188833980Y-76037721D01*
X188817713Y-76011348D01*
X188817710Y-76011344D01*
X188693655Y-75887289D01*
X188693651Y-75887286D01*
X188544337Y-75795187D01*
X188544335Y-75795186D01*
X188458882Y-75766870D01*
X188377797Y-75740001D01*
X188377795Y-75740000D01*
X188275015Y-75729500D01*
X188275008Y-75729500D01*
X186374992Y-75729500D01*
X186374984Y-75729500D01*
X186272204Y-75740000D01*
X186272203Y-75740001D01*
X186105664Y-75795186D01*
X186105662Y-75795187D01*
X185956348Y-75887286D01*
X185956344Y-75887289D01*
X185832289Y-76011344D01*
X185832286Y-76011348D01*
X185740187Y-76160662D01*
X185740186Y-76160664D01*
X185685001Y-76327203D01*
X185685000Y-76327204D01*
X185674500Y-76429984D01*
X185674500Y-77755015D01*
X185685000Y-77857795D01*
X185685001Y-77857797D01*
X185695457Y-77889351D01*
X185740186Y-78024335D01*
X185740187Y-78024337D01*
X185832286Y-78173651D01*
X185832289Y-78173655D01*
X185956344Y-78297710D01*
X185956348Y-78297713D01*
X186105662Y-78389812D01*
X186105664Y-78389813D01*
X186105666Y-78389814D01*
X186272203Y-78444999D01*
X186374992Y-78455500D01*
X186475500Y-78455500D01*
X186484185Y-78458050D01*
X186493147Y-78456762D01*
X186517187Y-78467740D01*
X186542539Y-78475185D01*
X186548466Y-78482025D01*
X186556703Y-78485787D01*
X186570992Y-78508021D01*
X186588294Y-78527989D01*
X186590581Y-78538503D01*
X186594477Y-78544565D01*
X186599500Y-78579500D01*
X186599500Y-78753125D01*
X186579815Y-78820164D01*
X186563181Y-78840806D01*
X185551099Y-79852887D01*
X185489776Y-79886372D01*
X185420084Y-79881388D01*
X185364151Y-79839516D01*
X185342333Y-79783622D01*
X185341415Y-79783819D01*
X185340207Y-79778175D01*
X185340059Y-79777797D01*
X185339999Y-79777203D01*
X185284814Y-79610666D01*
X185192712Y-79461344D01*
X185068656Y-79337288D01*
X184975888Y-79280069D01*
X184919336Y-79245187D01*
X184919335Y-79245186D01*
X184919334Y-79245186D01*
X184858301Y-79224961D01*
X184810495Y-79209120D01*
X184753050Y-79169347D01*
X184726228Y-79104831D01*
X184725500Y-79091414D01*
X184725500Y-78421869D01*
X184745185Y-78354830D01*
X184797989Y-78309075D01*
X184810486Y-78304166D01*
X184944334Y-78259814D01*
X185093656Y-78167712D01*
X185217712Y-78043656D01*
X185309814Y-77894334D01*
X185364999Y-77727797D01*
X185375500Y-77625009D01*
X185375499Y-76849992D01*
X185367561Y-76772288D01*
X185364999Y-76747203D01*
X185364998Y-76747200D01*
X185342792Y-76680187D01*
X185309814Y-76580666D01*
X185217712Y-76431344D01*
X185093656Y-76307288D01*
X185090819Y-76305538D01*
X185089283Y-76303830D01*
X185087989Y-76302807D01*
X185088163Y-76302585D01*
X185044096Y-76253594D01*
X185032872Y-76184632D01*
X185060713Y-76120549D01*
X185090817Y-76094462D01*
X185093656Y-76092712D01*
X185217712Y-75968656D01*
X185309814Y-75819334D01*
X185364999Y-75652797D01*
X185375500Y-75550009D01*
X185375499Y-74774992D01*
X185364999Y-74672203D01*
X185309814Y-74505666D01*
X185217712Y-74356344D01*
X185093656Y-74232288D01*
X185000888Y-74175069D01*
X184944336Y-74140187D01*
X184944331Y-74140185D01*
X184942862Y-74139698D01*
X184777797Y-74085001D01*
X184777795Y-74085000D01*
X184675010Y-74074500D01*
X183624998Y-74074500D01*
X183624980Y-74074501D01*
X183522203Y-74085000D01*
X183522200Y-74085001D01*
X183355668Y-74140185D01*
X183355663Y-74140187D01*
X183206342Y-74232289D01*
X183082289Y-74356342D01*
X182990187Y-74505663D01*
X182990186Y-74505666D01*
X182935001Y-74672203D01*
X182935001Y-74672204D01*
X182935000Y-74672204D01*
X182924500Y-74774983D01*
X182924500Y-74845815D01*
X182904815Y-74912854D01*
X182852011Y-74958609D01*
X182800500Y-74969815D01*
X180911276Y-74969815D01*
X180909074Y-74969168D01*
X180906852Y-74969736D01*
X180875712Y-74959372D01*
X180844237Y-74950130D01*
X180842735Y-74948396D01*
X180840557Y-74947672D01*
X180819960Y-74922113D01*
X180798482Y-74897326D01*
X180797706Y-74894497D01*
X180796716Y-74893269D01*
X180787987Y-74859071D01*
X180782789Y-74810728D01*
X180782788Y-74784217D01*
X180783289Y-74779549D01*
X180783291Y-74779546D01*
X180789700Y-74719936D01*
X180789699Y-74370191D01*
X180783291Y-74310580D01*
X180783290Y-74310577D01*
X180783040Y-74308250D01*
X180783041Y-74281740D01*
X180783290Y-74279422D01*
X180783291Y-74279420D01*
X180789700Y-74219810D01*
X180789699Y-73870065D01*
X180789699Y-73870064D01*
X180789699Y-73868581D01*
X180809383Y-73801542D01*
X180862187Y-73755787D01*
X180889503Y-73746964D01*
X180912935Y-73742304D01*
X181044968Y-73687614D01*
X181108731Y-73645009D01*
X181163795Y-73608217D01*
X181342027Y-73429985D01*
X185675000Y-73429985D01*
X185685493Y-73532689D01*
X185685494Y-73532696D01*
X185740641Y-73699118D01*
X185740643Y-73699123D01*
X185832684Y-73848344D01*
X185956655Y-73972315D01*
X186105876Y-74064356D01*
X186105881Y-74064358D01*
X186272303Y-74119505D01*
X186272310Y-74119506D01*
X186375014Y-74129999D01*
X186375027Y-74130000D01*
X187075000Y-74130000D01*
X187575000Y-74130000D01*
X188274973Y-74130000D01*
X188274985Y-74129999D01*
X188377689Y-74119506D01*
X188377696Y-74119505D01*
X188544118Y-74064358D01*
X188544123Y-74064356D01*
X188693344Y-73972315D01*
X188817315Y-73848344D01*
X188909356Y-73699123D01*
X188909358Y-73699118D01*
X188964505Y-73532696D01*
X188964506Y-73532689D01*
X188974999Y-73429985D01*
X188975000Y-73429972D01*
X188975000Y-73017500D01*
X187575000Y-73017500D01*
X187575000Y-74130000D01*
X187075000Y-74130000D01*
X187075000Y-73017500D01*
X185675000Y-73017500D01*
X185675000Y-73429985D01*
X181342027Y-73429985D01*
X181492844Y-73279168D01*
X181893556Y-72878457D01*
X181919529Y-72852483D01*
X181919530Y-72852482D01*
X181919532Y-72852480D01*
X181998929Y-72733653D01*
X182053619Y-72601620D01*
X182081499Y-72461456D01*
X182081499Y-72318545D01*
X182070524Y-72263371D01*
X182053619Y-72178380D01*
X182018818Y-72094362D01*
X181998932Y-72046352D01*
X181998925Y-72046339D01*
X181919532Y-71927520D01*
X181919529Y-71927516D01*
X181831694Y-71839681D01*
X181798209Y-71778358D01*
X181803193Y-71708666D01*
X181845065Y-71652733D01*
X181910529Y-71628316D01*
X181919375Y-71628000D01*
X185646688Y-71628000D01*
X185713727Y-71647685D01*
X185759482Y-71700489D01*
X185769426Y-71769647D01*
X185752227Y-71817096D01*
X185740646Y-71835872D01*
X185740641Y-71835881D01*
X185685494Y-72002303D01*
X185685493Y-72002310D01*
X185675000Y-72105014D01*
X185675000Y-72517500D01*
X188975000Y-72517500D01*
X188975000Y-72105027D01*
X188974999Y-72105014D01*
X188964506Y-72002310D01*
X188964505Y-72002303D01*
X188909358Y-71835881D01*
X188909353Y-71835872D01*
X188897773Y-71817096D01*
X188879333Y-71749703D01*
X188900256Y-71683040D01*
X188953899Y-71638271D01*
X189003312Y-71628000D01*
X196888971Y-71628000D01*
X196956010Y-71647685D01*
X197001765Y-71700489D01*
X197011709Y-71769647D01*
X196999456Y-71808295D01*
X196949995Y-71905367D01*
X196949993Y-71905370D01*
X196888587Y-72094362D01*
X196857500Y-72290639D01*
X196857500Y-72489360D01*
X196888587Y-72685637D01*
X196949993Y-72874629D01*
X196949994Y-72874632D01*
X197022790Y-73017500D01*
X197040213Y-73051694D01*
X197157019Y-73212464D01*
X197297536Y-73352981D01*
X197458306Y-73469787D01*
X197534590Y-73508656D01*
X197635367Y-73560005D01*
X197635370Y-73560006D01*
X197729866Y-73590709D01*
X197824364Y-73621413D01*
X198020639Y-73652500D01*
X198020640Y-73652500D01*
X198219360Y-73652500D01*
X198219361Y-73652500D01*
X198415636Y-73621413D01*
X198604632Y-73560005D01*
X198709205Y-73506721D01*
X198777874Y-73493826D01*
X198842614Y-73520102D01*
X198882872Y-73577208D01*
X198889500Y-73617207D01*
X198889500Y-86402792D01*
X198869815Y-86469831D01*
X198817011Y-86515586D01*
X198747853Y-86525530D01*
X198709206Y-86513277D01*
X198604637Y-86459997D01*
X198604629Y-86459993D01*
X198415637Y-86398587D01*
X198317498Y-86383043D01*
X198219361Y-86367500D01*
X198020639Y-86367500D01*
X197955214Y-86377862D01*
X197824362Y-86398587D01*
X197635370Y-86459993D01*
X197635367Y-86459994D01*
X197458305Y-86550213D01*
X197297533Y-86667021D01*
X197157021Y-86807533D01*
X197040213Y-86968305D01*
X196949994Y-87145367D01*
X196949993Y-87145370D01*
X196888587Y-87334362D01*
X196857500Y-87530639D01*
X196857500Y-87729360D01*
X196888587Y-87925637D01*
X196949993Y-88114629D01*
X196949995Y-88114632D01*
X196999456Y-88211705D01*
X197012352Y-88280374D01*
X196986076Y-88345115D01*
X196928969Y-88385372D01*
X196888971Y-88392000D01*
X156171029Y-88392000D01*
X156103990Y-88372315D01*
X156058235Y-88319511D01*
X156048291Y-88250353D01*
X156060544Y-88211705D01*
X156074316Y-88184674D01*
X156110005Y-88114632D01*
X156171413Y-87925636D01*
X156202500Y-87729361D01*
X156202500Y-87530639D01*
X156171413Y-87334364D01*
X156110005Y-87145368D01*
X156110005Y-87145367D01*
X156019786Y-86968305D01*
X155902981Y-86807536D01*
X155762464Y-86667019D01*
X155601694Y-86550213D01*
X155424632Y-86459994D01*
X155424629Y-86459993D01*
X155235637Y-86398587D01*
X155137498Y-86383043D01*
X155039361Y-86367500D01*
X154840639Y-86367500D01*
X154775214Y-86377862D01*
X154644362Y-86398587D01*
X154455370Y-86459993D01*
X154455362Y-86459997D01*
X154350794Y-86513277D01*
X154282125Y-86526173D01*
X154217385Y-86499896D01*
X154177128Y-86442790D01*
X154170500Y-86402792D01*
X154170500Y-82427014D01*
X156777500Y-82427014D01*
X156777500Y-82662985D01*
X156808299Y-82896914D01*
X156869370Y-83124837D01*
X156959660Y-83342819D01*
X156959665Y-83342828D01*
X157077644Y-83547171D01*
X157077645Y-83547172D01*
X157140221Y-83628723D01*
X157976458Y-82792487D01*
X158001478Y-82852890D01*
X158072612Y-82959351D01*
X158163149Y-83049888D01*
X158269610Y-83121022D01*
X158330011Y-83146041D01*
X157493775Y-83982277D01*
X157575327Y-84044854D01*
X157575328Y-84044855D01*
X157779671Y-84162834D01*
X157779680Y-84162839D01*
X157997663Y-84253129D01*
X157997661Y-84253129D01*
X158225585Y-84314200D01*
X158459514Y-84344999D01*
X158459529Y-84345000D01*
X158695471Y-84345000D01*
X158695485Y-84344999D01*
X158929414Y-84314200D01*
X159157337Y-84253129D01*
X159375319Y-84162839D01*
X159375328Y-84162834D01*
X159579681Y-84044850D01*
X159661223Y-83982279D01*
X159661223Y-83982276D01*
X158824987Y-83146041D01*
X158885390Y-83121022D01*
X158991851Y-83049888D01*
X159082388Y-82959351D01*
X159153522Y-82852890D01*
X159178541Y-82792487D01*
X160014776Y-83628723D01*
X160014779Y-83628723D01*
X160077350Y-83547181D01*
X160195334Y-83342828D01*
X160195339Y-83342819D01*
X160285629Y-83124837D01*
X160346700Y-82896914D01*
X160377499Y-82662985D01*
X160377500Y-82662971D01*
X160377500Y-82427028D01*
X160377499Y-82427014D01*
X160346700Y-82193085D01*
X160285629Y-81965162D01*
X160195339Y-81747180D01*
X160195334Y-81747171D01*
X160077355Y-81542828D01*
X160077354Y-81542827D01*
X160014777Y-81461275D01*
X159178541Y-82297511D01*
X159153522Y-82237110D01*
X159082388Y-82130649D01*
X158991851Y-82040112D01*
X158885390Y-81968978D01*
X158824988Y-81943958D01*
X159661223Y-81107721D01*
X159579672Y-81045145D01*
X159579671Y-81045144D01*
X159375328Y-80927165D01*
X159375319Y-80927160D01*
X159157336Y-80836870D01*
X159157338Y-80836870D01*
X158929414Y-80775799D01*
X158695485Y-80745000D01*
X158459514Y-80745000D01*
X158225585Y-80775799D01*
X157997662Y-80836870D01*
X157779680Y-80927160D01*
X157779671Y-80927165D01*
X157575328Y-81045144D01*
X157575318Y-81045150D01*
X157493775Y-81107720D01*
X157493775Y-81107721D01*
X158330012Y-81943958D01*
X158269610Y-81968978D01*
X158163149Y-82040112D01*
X158072612Y-82130649D01*
X158001478Y-82237110D01*
X157976458Y-82297512D01*
X157140221Y-81461275D01*
X157140220Y-81461275D01*
X157077650Y-81542818D01*
X157077644Y-81542828D01*
X156959665Y-81747171D01*
X156959660Y-81747180D01*
X156869370Y-81965162D01*
X156808299Y-82193085D01*
X156777500Y-82427014D01*
X154170500Y-82427014D01*
X154170500Y-73617207D01*
X154190185Y-73550168D01*
X154242989Y-73504413D01*
X154312147Y-73494469D01*
X154350794Y-73506721D01*
X154375313Y-73519215D01*
X154455367Y-73560005D01*
X154455370Y-73560006D01*
X154549866Y-73590709D01*
X154644364Y-73621413D01*
X154840639Y-73652500D01*
X154840640Y-73652500D01*
X155039360Y-73652500D01*
X155039361Y-73652500D01*
X155235636Y-73621413D01*
X155424632Y-73560005D01*
X155601694Y-73469787D01*
X155762464Y-73352981D01*
X155902981Y-73212464D01*
X156019787Y-73051694D01*
X156110005Y-72874632D01*
X156171413Y-72685636D01*
X156202500Y-72489361D01*
X156202500Y-72290639D01*
X156171413Y-72094364D01*
X156117203Y-71927520D01*
X156110006Y-71905370D01*
X156110004Y-71905367D01*
X156060544Y-71808295D01*
X156047648Y-71739626D01*
X156073924Y-71674885D01*
X156131031Y-71634628D01*
X156171029Y-71628000D01*
X173659126Y-71628000D01*
X173726165Y-71647685D01*
G37*
%TD.AperFunction*%
%TA.AperFunction,Conductor*%
G36*
X183160494Y-76140500D02*
G01*
X183206249Y-76193304D01*
X183216193Y-76262462D01*
X183187168Y-76326018D01*
X183181136Y-76332496D01*
X183082289Y-76431342D01*
X182990187Y-76580663D01*
X182990185Y-76580668D01*
X182976512Y-76621932D01*
X182935001Y-76747203D01*
X182935001Y-76747204D01*
X182935000Y-76747204D01*
X182924500Y-76849983D01*
X182924500Y-77198803D01*
X182904815Y-77265842D01*
X182852011Y-77311597D01*
X182782853Y-77321541D01*
X182719297Y-77292516D01*
X182694961Y-77263900D01*
X182647315Y-77186654D01*
X182523345Y-77062684D01*
X182374124Y-76970643D01*
X182374119Y-76970641D01*
X182207697Y-76915494D01*
X182207690Y-76915493D01*
X182104986Y-76905000D01*
X181955000Y-76905000D01*
X181955000Y-77855000D01*
X182814441Y-77855000D01*
X182854960Y-77832873D01*
X182924652Y-77837856D01*
X182980587Y-77879727D01*
X182986860Y-77888942D01*
X182990186Y-77894334D01*
X183082288Y-78043656D01*
X183206344Y-78167712D01*
X183355666Y-78259814D01*
X183489505Y-78304164D01*
X183546949Y-78343936D01*
X183573772Y-78408451D01*
X183574500Y-78421869D01*
X183574500Y-79091414D01*
X183554815Y-79158453D01*
X183502011Y-79204208D01*
X183489505Y-79209120D01*
X183380666Y-79245186D01*
X183380663Y-79245187D01*
X183231342Y-79337289D01*
X183107289Y-79461342D01*
X183015187Y-79610663D01*
X183015186Y-79610666D01*
X182960001Y-79777203D01*
X182960001Y-79777204D01*
X182960000Y-79777204D01*
X182949500Y-79879983D01*
X182949500Y-80413383D01*
X182929815Y-80480422D01*
X182877011Y-80526177D01*
X182807853Y-80536121D01*
X182744297Y-80507096D01*
X182719961Y-80478479D01*
X182647712Y-80361344D01*
X182523657Y-80237289D01*
X182523656Y-80237288D01*
X182374334Y-80145186D01*
X182207797Y-80090001D01*
X182207795Y-80090000D01*
X182105010Y-80079500D01*
X181304998Y-80079500D01*
X181304980Y-80079501D01*
X181202203Y-80090000D01*
X181202200Y-80090001D01*
X181035668Y-80145185D01*
X181035663Y-80145187D01*
X180886342Y-80237289D01*
X180792681Y-80330951D01*
X180731358Y-80364436D01*
X180661666Y-80359452D01*
X180617319Y-80330951D01*
X180523657Y-80237289D01*
X180523656Y-80237288D01*
X180374334Y-80145186D01*
X180374333Y-80145185D01*
X180374332Y-80145185D01*
X180365493Y-80142256D01*
X180308049Y-80102482D01*
X180281228Y-80037965D01*
X180280500Y-80024551D01*
X180280500Y-79360448D01*
X180300185Y-79293409D01*
X180352989Y-79247654D01*
X180365488Y-79242744D01*
X180374334Y-79239814D01*
X180523656Y-79147712D01*
X180617675Y-79053692D01*
X180678994Y-79020210D01*
X180748686Y-79025194D01*
X180793034Y-79053695D01*
X180886654Y-79147315D01*
X181035875Y-79239356D01*
X181035880Y-79239358D01*
X181202302Y-79294505D01*
X181202309Y-79294506D01*
X181305019Y-79304999D01*
X181454999Y-79304999D01*
X181955000Y-79304999D01*
X182104972Y-79304999D01*
X182104986Y-79304998D01*
X182207697Y-79294505D01*
X182374119Y-79239358D01*
X182374124Y-79239356D01*
X182523345Y-79147315D01*
X182647315Y-79023345D01*
X182739356Y-78874124D01*
X182739358Y-78874119D01*
X182794505Y-78707697D01*
X182794506Y-78707690D01*
X182804999Y-78604986D01*
X182805000Y-78604973D01*
X182805000Y-78355000D01*
X181955000Y-78355000D01*
X181955000Y-79304999D01*
X181454999Y-79304999D01*
X181455000Y-79304998D01*
X181455000Y-76905000D01*
X181305027Y-76905000D01*
X181305012Y-76905001D01*
X181202302Y-76915494D01*
X181035880Y-76970641D01*
X181035875Y-76970643D01*
X180886657Y-77062682D01*
X180793034Y-77156305D01*
X180731710Y-77189789D01*
X180662019Y-77184805D01*
X180617672Y-77156304D01*
X180523657Y-77062289D01*
X180523656Y-77062288D01*
X180374334Y-76970186D01*
X180374333Y-76970185D01*
X180374332Y-76970185D01*
X180365493Y-76967256D01*
X180308049Y-76927482D01*
X180281228Y-76862965D01*
X180280500Y-76849551D01*
X180280500Y-76290280D01*
X180300185Y-76223241D01*
X180352989Y-76177486D01*
X180365390Y-76172609D01*
X180378015Y-76168412D01*
X180396683Y-76166406D01*
X180500059Y-76127849D01*
X180502181Y-76127144D01*
X180507191Y-76126967D01*
X180541291Y-76120815D01*
X183093455Y-76120815D01*
X183160494Y-76140500D01*
G37*
%TD.AperFunction*%
%TD*%
M02*
