%TF.GenerationSoftware,KiCad,Pcbnew,8.0.6*%
%TF.CreationDate,2024-11-16T21:35:11+05:30*%
%TF.ProjectId,LED Torch,4c454420-546f-4726-9368-2e6b69636164,1*%
%TF.SameCoordinates,Original*%
%TF.FileFunction,Legend,Bot*%
%TF.FilePolarity,Positive*%
%FSLAX46Y46*%
G04 Gerber Fmt 4.6, Leading zero omitted, Abs format (unit mm)*
G04 Created by KiCad (PCBNEW 8.0.6) date 2024-11-16 21:35:11*
%MOMM*%
%LPD*%
G01*
G04 APERTURE LIST*
%ADD10C,0.100000*%
%ADD11C,0.010000*%
G04 APERTURE END LIST*
D10*
X158238972Y-119272419D02*
X157905639Y-120272419D01*
X157905639Y-120272419D02*
X157572306Y-119272419D01*
X156858020Y-120224800D02*
X156953258Y-120272419D01*
X156953258Y-120272419D02*
X157143734Y-120272419D01*
X157143734Y-120272419D02*
X157238972Y-120224800D01*
X157238972Y-120224800D02*
X157286591Y-120129561D01*
X157286591Y-120129561D02*
X157286591Y-119748609D01*
X157286591Y-119748609D02*
X157238972Y-119653371D01*
X157238972Y-119653371D02*
X157143734Y-119605752D01*
X157143734Y-119605752D02*
X156953258Y-119605752D01*
X156953258Y-119605752D02*
X156858020Y-119653371D01*
X156858020Y-119653371D02*
X156810401Y-119748609D01*
X156810401Y-119748609D02*
X156810401Y-119843847D01*
X156810401Y-119843847D02*
X157286591Y-119939085D01*
X156381829Y-120272419D02*
X156381829Y-119605752D01*
X156381829Y-119796228D02*
X156334210Y-119700990D01*
X156334210Y-119700990D02*
X156286591Y-119653371D01*
X156286591Y-119653371D02*
X156191353Y-119605752D01*
X156191353Y-119605752D02*
X156096115Y-119605752D01*
X155810400Y-120224800D02*
X155715162Y-120272419D01*
X155715162Y-120272419D02*
X155524686Y-120272419D01*
X155524686Y-120272419D02*
X155429448Y-120224800D01*
X155429448Y-120224800D02*
X155381829Y-120129561D01*
X155381829Y-120129561D02*
X155381829Y-120081942D01*
X155381829Y-120081942D02*
X155429448Y-119986704D01*
X155429448Y-119986704D02*
X155524686Y-119939085D01*
X155524686Y-119939085D02*
X155667543Y-119939085D01*
X155667543Y-119939085D02*
X155762781Y-119891466D01*
X155762781Y-119891466D02*
X155810400Y-119796228D01*
X155810400Y-119796228D02*
X155810400Y-119748609D01*
X155810400Y-119748609D02*
X155762781Y-119653371D01*
X155762781Y-119653371D02*
X155667543Y-119605752D01*
X155667543Y-119605752D02*
X155524686Y-119605752D01*
X155524686Y-119605752D02*
X155429448Y-119653371D01*
X154953257Y-120272419D02*
X154953257Y-119605752D01*
X154953257Y-119272419D02*
X155000876Y-119320038D01*
X155000876Y-119320038D02*
X154953257Y-119367657D01*
X154953257Y-119367657D02*
X154905638Y-119320038D01*
X154905638Y-119320038D02*
X154953257Y-119272419D01*
X154953257Y-119272419D02*
X154953257Y-119367657D01*
X154334210Y-120272419D02*
X154429448Y-120224800D01*
X154429448Y-120224800D02*
X154477067Y-120177180D01*
X154477067Y-120177180D02*
X154524686Y-120081942D01*
X154524686Y-120081942D02*
X154524686Y-119796228D01*
X154524686Y-119796228D02*
X154477067Y-119700990D01*
X154477067Y-119700990D02*
X154429448Y-119653371D01*
X154429448Y-119653371D02*
X154334210Y-119605752D01*
X154334210Y-119605752D02*
X154191353Y-119605752D01*
X154191353Y-119605752D02*
X154096115Y-119653371D01*
X154096115Y-119653371D02*
X154048496Y-119700990D01*
X154048496Y-119700990D02*
X154000877Y-119796228D01*
X154000877Y-119796228D02*
X154000877Y-120081942D01*
X154000877Y-120081942D02*
X154048496Y-120177180D01*
X154048496Y-120177180D02*
X154096115Y-120224800D01*
X154096115Y-120224800D02*
X154191353Y-120272419D01*
X154191353Y-120272419D02*
X154334210Y-120272419D01*
X153572305Y-119605752D02*
X153572305Y-120272419D01*
X153572305Y-119700990D02*
X153524686Y-119653371D01*
X153524686Y-119653371D02*
X153429448Y-119605752D01*
X153429448Y-119605752D02*
X153286591Y-119605752D01*
X153286591Y-119605752D02*
X153191353Y-119653371D01*
X153191353Y-119653371D02*
X153143734Y-119748609D01*
X153143734Y-119748609D02*
X153143734Y-120272419D01*
X151381829Y-120272419D02*
X151953257Y-120272419D01*
X151667543Y-120272419D02*
X151667543Y-119272419D01*
X151667543Y-119272419D02*
X151762781Y-119415276D01*
X151762781Y-119415276D02*
X151858019Y-119510514D01*
X151858019Y-119510514D02*
X151953257Y-119558133D01*
X150953257Y-120177180D02*
X150905638Y-120224800D01*
X150905638Y-120224800D02*
X150953257Y-120272419D01*
X150953257Y-120272419D02*
X151000876Y-120224800D01*
X151000876Y-120224800D02*
X150953257Y-120177180D01*
X150953257Y-120177180D02*
X150953257Y-120272419D01*
X150286591Y-119272419D02*
X150191353Y-119272419D01*
X150191353Y-119272419D02*
X150096115Y-119320038D01*
X150096115Y-119320038D02*
X150048496Y-119367657D01*
X150048496Y-119367657D02*
X150000877Y-119462895D01*
X150000877Y-119462895D02*
X149953258Y-119653371D01*
X149953258Y-119653371D02*
X149953258Y-119891466D01*
X149953258Y-119891466D02*
X150000877Y-120081942D01*
X150000877Y-120081942D02*
X150048496Y-120177180D01*
X150048496Y-120177180D02*
X150096115Y-120224800D01*
X150096115Y-120224800D02*
X150191353Y-120272419D01*
X150191353Y-120272419D02*
X150286591Y-120272419D01*
X150286591Y-120272419D02*
X150381829Y-120224800D01*
X150381829Y-120224800D02*
X150429448Y-120177180D01*
X150429448Y-120177180D02*
X150477067Y-120081942D01*
X150477067Y-120081942D02*
X150524686Y-119891466D01*
X150524686Y-119891466D02*
X150524686Y-119653371D01*
X150524686Y-119653371D02*
X150477067Y-119462895D01*
X150477067Y-119462895D02*
X150429448Y-119367657D01*
X150429448Y-119367657D02*
X150381829Y-119320038D01*
X150381829Y-119320038D02*
X150286591Y-119272419D01*
D11*
%TO.C,REF\u002A\u002A*%
X150033406Y-115304949D02*
X150059127Y-115320647D01*
X150085778Y-115342227D01*
X150085778Y-115989684D01*
X150059127Y-116011264D01*
X150027767Y-116028739D01*
X149991966Y-116029575D01*
X149960528Y-116009082D01*
X149956652Y-116004416D01*
X149951186Y-115994949D01*
X149946979Y-115981267D01*
X149943867Y-115960748D01*
X149941687Y-115930768D01*
X149940276Y-115888704D01*
X149939471Y-115831932D01*
X149939107Y-115757830D01*
X149939022Y-115663773D01*
X149939022Y-115342227D01*
X149965673Y-115320647D01*
X149989386Y-115305877D01*
X150012400Y-115299067D01*
X150033406Y-115304949D01*
G36*
X150033406Y-115304949D02*
G01*
X150059127Y-115320647D01*
X150085778Y-115342227D01*
X150085778Y-115989684D01*
X150059127Y-116011264D01*
X150027767Y-116028739D01*
X149991966Y-116029575D01*
X149960528Y-116009082D01*
X149956652Y-116004416D01*
X149951186Y-115994949D01*
X149946979Y-115981267D01*
X149943867Y-115960748D01*
X149941687Y-115930768D01*
X149940276Y-115888704D01*
X149939471Y-115831932D01*
X149939107Y-115757830D01*
X149939022Y-115663773D01*
X149939022Y-115342227D01*
X149965673Y-115320647D01*
X149989386Y-115305877D01*
X150012400Y-115299067D01*
X150033406Y-115304949D01*
G37*
X157164137Y-115303463D02*
X157198291Y-115326776D01*
X157226000Y-115354485D01*
X157226000Y-115667537D01*
X157225959Y-115751567D01*
X157225701Y-115825789D01*
X157225030Y-115882541D01*
X157223752Y-115924512D01*
X157221673Y-115954389D01*
X157218599Y-115974861D01*
X157214334Y-115988614D01*
X157208684Y-115998337D01*
X157201455Y-116006717D01*
X157169991Y-116028181D01*
X157134826Y-116029947D01*
X157101822Y-116010267D01*
X157096516Y-116004398D01*
X157091066Y-115995314D01*
X157086900Y-115981973D01*
X157083846Y-115961757D01*
X157081732Y-115932049D01*
X157080386Y-115890232D01*
X157079638Y-115833689D01*
X157079314Y-115759802D01*
X157079245Y-115665956D01*
X157079284Y-115590294D01*
X157079539Y-115512385D01*
X157080183Y-115452375D01*
X157081387Y-115407648D01*
X157083324Y-115375585D01*
X157086164Y-115353571D01*
X157090079Y-115338987D01*
X157095242Y-115329218D01*
X157101822Y-115321645D01*
X157131006Y-115302623D01*
X157164137Y-115303463D01*
G36*
X157164137Y-115303463D02*
G01*
X157198291Y-115326776D01*
X157226000Y-115354485D01*
X157226000Y-115667537D01*
X157225959Y-115751567D01*
X157225701Y-115825789D01*
X157225030Y-115882541D01*
X157223752Y-115924512D01*
X157221673Y-115954389D01*
X157218599Y-115974861D01*
X157214334Y-115988614D01*
X157208684Y-115998337D01*
X157201455Y-116006717D01*
X157169991Y-116028181D01*
X157134826Y-116029947D01*
X157101822Y-116010267D01*
X157096516Y-116004398D01*
X157091066Y-115995314D01*
X157086900Y-115981973D01*
X157083846Y-115961757D01*
X157081732Y-115932049D01*
X157080386Y-115890232D01*
X157079638Y-115833689D01*
X157079314Y-115759802D01*
X157079245Y-115665956D01*
X157079284Y-115590294D01*
X157079539Y-115512385D01*
X157080183Y-115452375D01*
X157081387Y-115407648D01*
X157083324Y-115375585D01*
X157086164Y-115353571D01*
X157090079Y-115338987D01*
X157095242Y-115329218D01*
X157101822Y-115321645D01*
X157131006Y-115302623D01*
X157164137Y-115303463D01*
G37*
X156632562Y-110062850D02*
X156715313Y-110090053D01*
X156790406Y-110135484D01*
X156862298Y-110201302D01*
X156900846Y-110245567D01*
X156940256Y-110303961D01*
X156965446Y-110364586D01*
X156978861Y-110433865D01*
X156982948Y-110518222D01*
X156982669Y-110564307D01*
X156980460Y-110605450D01*
X156974894Y-110637582D01*
X156964586Y-110668122D01*
X156948148Y-110704489D01*
X156934200Y-110731728D01*
X156875665Y-110817429D01*
X156803619Y-110886617D01*
X156719947Y-110937741D01*
X156626531Y-110969250D01*
X156593434Y-110976225D01*
X156552960Y-110983094D01*
X156519999Y-110984919D01*
X156485698Y-110981947D01*
X156441200Y-110974426D01*
X156389934Y-110962002D01*
X156299434Y-110924112D01*
X156220345Y-110869836D01*
X156154528Y-110801770D01*
X156103840Y-110722511D01*
X156070140Y-110634654D01*
X156055286Y-110540795D01*
X156061136Y-110443530D01*
X156087399Y-110347220D01*
X156132418Y-110258494D01*
X156193373Y-110183419D01*
X156268184Y-110123641D01*
X156354768Y-110080809D01*
X156451043Y-110056571D01*
X156554928Y-110052576D01*
X156632562Y-110062850D01*
G36*
X156632562Y-110062850D02*
G01*
X156715313Y-110090053D01*
X156790406Y-110135484D01*
X156862298Y-110201302D01*
X156900846Y-110245567D01*
X156940256Y-110303961D01*
X156965446Y-110364586D01*
X156978861Y-110433865D01*
X156982948Y-110518222D01*
X156982669Y-110564307D01*
X156980460Y-110605450D01*
X156974894Y-110637582D01*
X156964586Y-110668122D01*
X156948148Y-110704489D01*
X156934200Y-110731728D01*
X156875665Y-110817429D01*
X156803619Y-110886617D01*
X156719947Y-110937741D01*
X156626531Y-110969250D01*
X156593434Y-110976225D01*
X156552960Y-110983094D01*
X156519999Y-110984919D01*
X156485698Y-110981947D01*
X156441200Y-110974426D01*
X156389934Y-110962002D01*
X156299434Y-110924112D01*
X156220345Y-110869836D01*
X156154528Y-110801770D01*
X156103840Y-110722511D01*
X156070140Y-110634654D01*
X156055286Y-110540795D01*
X156061136Y-110443530D01*
X156087399Y-110347220D01*
X156132418Y-110258494D01*
X156193373Y-110183419D01*
X156268184Y-110123641D01*
X156354768Y-110080809D01*
X156451043Y-110056571D01*
X156554928Y-110052576D01*
X156632562Y-110062850D01*
G37*
X149333767Y-115299068D02*
X149427890Y-115299158D01*
X149502405Y-115299498D01*
X149559811Y-115300239D01*
X149602611Y-115301535D01*
X149633304Y-115303537D01*
X149654391Y-115306396D01*
X149668373Y-115310266D01*
X149677750Y-115315298D01*
X149685022Y-115321645D01*
X149703828Y-115354362D01*
X149705275Y-115391939D01*
X149688917Y-115425178D01*
X149687557Y-115426631D01*
X149676354Y-115434992D01*
X149659252Y-115440547D01*
X149632082Y-115443840D01*
X149590678Y-115445418D01*
X149530873Y-115445822D01*
X149391511Y-115445822D01*
X149391511Y-115709589D01*
X149391436Y-115785417D01*
X149391028Y-115852083D01*
X149390046Y-115901867D01*
X149388250Y-115937784D01*
X149385399Y-115962850D01*
X149381253Y-115980081D01*
X149375571Y-115992492D01*
X149368114Y-116003100D01*
X149365824Y-116005906D01*
X149334646Y-116028548D01*
X149300266Y-116030112D01*
X149267334Y-116010267D01*
X149260355Y-116002191D01*
X149254883Y-115991593D01*
X149250863Y-115975749D01*
X149248072Y-115951773D01*
X149246288Y-115916774D01*
X149245289Y-115867864D01*
X149244852Y-115802154D01*
X149244756Y-115716756D01*
X149244756Y-115445822D01*
X149098820Y-115445822D01*
X149087720Y-115445821D01*
X149031202Y-115445596D01*
X148992358Y-115444457D01*
X148966965Y-115441657D01*
X148950804Y-115436450D01*
X148939652Y-115428089D01*
X148929289Y-115415826D01*
X148913441Y-115385138D01*
X148916543Y-115351358D01*
X148942187Y-115318822D01*
X148947129Y-115315105D01*
X148957338Y-115310269D01*
X148972764Y-115306506D01*
X148995886Y-115303683D01*
X149029183Y-115301670D01*
X149075137Y-115300333D01*
X149136228Y-115299542D01*
X149214935Y-115299163D01*
X149313740Y-115299067D01*
X149333767Y-115299068D01*
G36*
X149333767Y-115299068D02*
G01*
X149427890Y-115299158D01*
X149502405Y-115299498D01*
X149559811Y-115300239D01*
X149602611Y-115301535D01*
X149633304Y-115303537D01*
X149654391Y-115306396D01*
X149668373Y-115310266D01*
X149677750Y-115315298D01*
X149685022Y-115321645D01*
X149703828Y-115354362D01*
X149705275Y-115391939D01*
X149688917Y-115425178D01*
X149687557Y-115426631D01*
X149676354Y-115434992D01*
X149659252Y-115440547D01*
X149632082Y-115443840D01*
X149590678Y-115445418D01*
X149530873Y-115445822D01*
X149391511Y-115445822D01*
X149391511Y-115709589D01*
X149391436Y-115785417D01*
X149391028Y-115852083D01*
X149390046Y-115901867D01*
X149388250Y-115937784D01*
X149385399Y-115962850D01*
X149381253Y-115980081D01*
X149375571Y-115992492D01*
X149368114Y-116003100D01*
X149365824Y-116005906D01*
X149334646Y-116028548D01*
X149300266Y-116030112D01*
X149267334Y-116010267D01*
X149260355Y-116002191D01*
X149254883Y-115991593D01*
X149250863Y-115975749D01*
X149248072Y-115951773D01*
X149246288Y-115916774D01*
X149245289Y-115867864D01*
X149244852Y-115802154D01*
X149244756Y-115716756D01*
X149244756Y-115445822D01*
X149098820Y-115445822D01*
X149087720Y-115445821D01*
X149031202Y-115445596D01*
X148992358Y-115444457D01*
X148966965Y-115441657D01*
X148950804Y-115436450D01*
X148939652Y-115428089D01*
X148929289Y-115415826D01*
X148913441Y-115385138D01*
X148916543Y-115351358D01*
X148942187Y-115318822D01*
X148947129Y-115315105D01*
X148957338Y-115310269D01*
X148972764Y-115306506D01*
X148995886Y-115303683D01*
X149029183Y-115301670D01*
X149075137Y-115300333D01*
X149136228Y-115299542D01*
X149214935Y-115299163D01*
X149313740Y-115299067D01*
X149333767Y-115299068D01*
G37*
X148657734Y-115321645D02*
X148663366Y-115327835D01*
X148668456Y-115336041D01*
X148672543Y-115347817D01*
X148675721Y-115365276D01*
X148678087Y-115390530D01*
X148679738Y-115425690D01*
X148680769Y-115472869D01*
X148681277Y-115534177D01*
X148681359Y-115611727D01*
X148681109Y-115707631D01*
X148680625Y-115824000D01*
X148680557Y-115838175D01*
X148679971Y-115899937D01*
X148678648Y-115943620D01*
X148676103Y-115973001D01*
X148671848Y-115991855D01*
X148665396Y-116003959D01*
X148656262Y-116013089D01*
X148622804Y-116030506D01*
X148587856Y-116027604D01*
X148556953Y-116003100D01*
X148547944Y-115989897D01*
X148540492Y-115971361D01*
X148536124Y-115945333D01*
X148534069Y-115906787D01*
X148533556Y-115850700D01*
X148533556Y-115728045D01*
X148036845Y-115728045D01*
X148036845Y-115862871D01*
X148036772Y-115898662D01*
X148036009Y-115944992D01*
X148033833Y-115975526D01*
X148029536Y-115994557D01*
X148022412Y-116006374D01*
X148011755Y-116015271D01*
X147979504Y-116030341D01*
X147944217Y-116027673D01*
X147913486Y-116003100D01*
X147908831Y-115996845D01*
X147902895Y-115986321D01*
X147898364Y-115972391D01*
X147895048Y-115952317D01*
X147892759Y-115923360D01*
X147891308Y-115882780D01*
X147890505Y-115827840D01*
X147890162Y-115755799D01*
X147890089Y-115663920D01*
X147890089Y-115354485D01*
X147917798Y-115326776D01*
X147949177Y-115304533D01*
X147982406Y-115301844D01*
X148014267Y-115321645D01*
X148022553Y-115331415D01*
X148029965Y-115347307D01*
X148034302Y-115371275D01*
X148036338Y-115408148D01*
X148036845Y-115462756D01*
X148036845Y-115581289D01*
X148533556Y-115581289D01*
X148533556Y-115465776D01*
X148533994Y-115414078D01*
X148535958Y-115379554D01*
X148540474Y-115356978D01*
X148548567Y-115341126D01*
X148561265Y-115326776D01*
X148592643Y-115304533D01*
X148625872Y-115301844D01*
X148657734Y-115321645D01*
G36*
X148657734Y-115321645D02*
G01*
X148663366Y-115327835D01*
X148668456Y-115336041D01*
X148672543Y-115347817D01*
X148675721Y-115365276D01*
X148678087Y-115390530D01*
X148679738Y-115425690D01*
X148680769Y-115472869D01*
X148681277Y-115534177D01*
X148681359Y-115611727D01*
X148681109Y-115707631D01*
X148680625Y-115824000D01*
X148680557Y-115838175D01*
X148679971Y-115899937D01*
X148678648Y-115943620D01*
X148676103Y-115973001D01*
X148671848Y-115991855D01*
X148665396Y-116003959D01*
X148656262Y-116013089D01*
X148622804Y-116030506D01*
X148587856Y-116027604D01*
X148556953Y-116003100D01*
X148547944Y-115989897D01*
X148540492Y-115971361D01*
X148536124Y-115945333D01*
X148534069Y-115906787D01*
X148533556Y-115850700D01*
X148533556Y-115728045D01*
X148036845Y-115728045D01*
X148036845Y-115862871D01*
X148036772Y-115898662D01*
X148036009Y-115944992D01*
X148033833Y-115975526D01*
X148029536Y-115994557D01*
X148022412Y-116006374D01*
X148011755Y-116015271D01*
X147979504Y-116030341D01*
X147944217Y-116027673D01*
X147913486Y-116003100D01*
X147908831Y-115996845D01*
X147902895Y-115986321D01*
X147898364Y-115972391D01*
X147895048Y-115952317D01*
X147892759Y-115923360D01*
X147891308Y-115882780D01*
X147890505Y-115827840D01*
X147890162Y-115755799D01*
X147890089Y-115663920D01*
X147890089Y-115354485D01*
X147917798Y-115326776D01*
X147949177Y-115304533D01*
X147982406Y-115301844D01*
X148014267Y-115321645D01*
X148022553Y-115331415D01*
X148029965Y-115347307D01*
X148034302Y-115371275D01*
X148036338Y-115408148D01*
X148036845Y-115462756D01*
X148036845Y-115581289D01*
X148533556Y-115581289D01*
X148533556Y-115465776D01*
X148533994Y-115414078D01*
X148535958Y-115379554D01*
X148540474Y-115356978D01*
X148548567Y-115341126D01*
X148561265Y-115326776D01*
X148592643Y-115304533D01*
X148625872Y-115301844D01*
X148657734Y-115321645D01*
G37*
X153363133Y-115910396D02*
X153361163Y-115943175D01*
X153358235Y-115966095D01*
X153354158Y-115981897D01*
X153348743Y-115993319D01*
X153341803Y-116003100D01*
X153318406Y-116032845D01*
X153152714Y-116032251D01*
X153117918Y-116031953D01*
X153019435Y-116028522D01*
X152938473Y-116020839D01*
X152871379Y-116008282D01*
X152814496Y-115990227D01*
X152764169Y-115966052D01*
X152760810Y-115964135D01*
X152702998Y-115927417D01*
X152660644Y-115890451D01*
X152627828Y-115846966D01*
X152598628Y-115790689D01*
X152594346Y-115781073D01*
X152571769Y-115717887D01*
X152566034Y-115672333D01*
X152715279Y-115672333D01*
X152720892Y-115697061D01*
X152726618Y-115712939D01*
X152759548Y-115772847D01*
X152806886Y-115818600D01*
X152870652Y-115851736D01*
X152952861Y-115873790D01*
X152955655Y-115874292D01*
X153001940Y-115880255D01*
X153058336Y-115884483D01*
X153113274Y-115886089D01*
X153207156Y-115886089D01*
X153207156Y-115445822D01*
X153119667Y-115446270D01*
X153052747Y-115448746D01*
X152960349Y-115459998D01*
X152881034Y-115479537D01*
X152819060Y-115506511D01*
X152788120Y-115527240D01*
X152760000Y-115557006D01*
X152736660Y-115599434D01*
X152729533Y-115615400D01*
X152717709Y-115647902D01*
X152715279Y-115672333D01*
X152566034Y-115672333D01*
X152564797Y-115662509D01*
X152573399Y-115607483D01*
X152597541Y-115545351D01*
X152598337Y-115543658D01*
X152638788Y-115474236D01*
X152689473Y-115417638D01*
X152752198Y-115373070D01*
X152828774Y-115339741D01*
X152921009Y-115316861D01*
X153030712Y-115303636D01*
X153159691Y-115299275D01*
X153163263Y-115299270D01*
X153223283Y-115299410D01*
X153265214Y-115300446D01*
X153293328Y-115303040D01*
X153311897Y-115307853D01*
X153325194Y-115315544D01*
X153337491Y-115326776D01*
X153365200Y-115354485D01*
X153365200Y-115663920D01*
X153365175Y-115725526D01*
X153364950Y-115804311D01*
X153364332Y-115865021D01*
X153363775Y-115886089D01*
X153363133Y-115910396D01*
G36*
X153363133Y-115910396D02*
G01*
X153361163Y-115943175D01*
X153358235Y-115966095D01*
X153354158Y-115981897D01*
X153348743Y-115993319D01*
X153341803Y-116003100D01*
X153318406Y-116032845D01*
X153152714Y-116032251D01*
X153117918Y-116031953D01*
X153019435Y-116028522D01*
X152938473Y-116020839D01*
X152871379Y-116008282D01*
X152814496Y-115990227D01*
X152764169Y-115966052D01*
X152760810Y-115964135D01*
X152702998Y-115927417D01*
X152660644Y-115890451D01*
X152627828Y-115846966D01*
X152598628Y-115790689D01*
X152594346Y-115781073D01*
X152571769Y-115717887D01*
X152566034Y-115672333D01*
X152715279Y-115672333D01*
X152720892Y-115697061D01*
X152726618Y-115712939D01*
X152759548Y-115772847D01*
X152806886Y-115818600D01*
X152870652Y-115851736D01*
X152952861Y-115873790D01*
X152955655Y-115874292D01*
X153001940Y-115880255D01*
X153058336Y-115884483D01*
X153113274Y-115886089D01*
X153207156Y-115886089D01*
X153207156Y-115445822D01*
X153119667Y-115446270D01*
X153052747Y-115448746D01*
X152960349Y-115459998D01*
X152881034Y-115479537D01*
X152819060Y-115506511D01*
X152788120Y-115527240D01*
X152760000Y-115557006D01*
X152736660Y-115599434D01*
X152729533Y-115615400D01*
X152717709Y-115647902D01*
X152715279Y-115672333D01*
X152566034Y-115672333D01*
X152564797Y-115662509D01*
X152573399Y-115607483D01*
X152597541Y-115545351D01*
X152598337Y-115543658D01*
X152638788Y-115474236D01*
X152689473Y-115417638D01*
X152752198Y-115373070D01*
X152828774Y-115339741D01*
X152921009Y-115316861D01*
X153030712Y-115303636D01*
X153159691Y-115299275D01*
X153163263Y-115299270D01*
X153223283Y-115299410D01*
X153265214Y-115300446D01*
X153293328Y-115303040D01*
X153311897Y-115307853D01*
X153325194Y-115315544D01*
X153337491Y-115326776D01*
X153365200Y-115354485D01*
X153365200Y-115663920D01*
X153365175Y-115725526D01*
X153364950Y-115804311D01*
X153364332Y-115865021D01*
X153363775Y-115886089D01*
X153363133Y-115910396D01*
G37*
X160454817Y-115484427D02*
X160454870Y-115565041D01*
X160454622Y-115665956D01*
X160454583Y-115741617D01*
X160454328Y-115819526D01*
X160453684Y-115879536D01*
X160452480Y-115924264D01*
X160450543Y-115956326D01*
X160447703Y-115978340D01*
X160443788Y-115992924D01*
X160438626Y-116002694D01*
X160432045Y-116010267D01*
X160425077Y-116016501D01*
X160412079Y-116023801D01*
X160392931Y-116028554D01*
X160363528Y-116031292D01*
X160319762Y-116032545D01*
X160257528Y-116032845D01*
X160208582Y-116032469D01*
X160101722Y-116028041D01*
X160012494Y-116017953D01*
X159937696Y-116001365D01*
X159874125Y-115977435D01*
X159818579Y-115945321D01*
X159767854Y-115904182D01*
X159761866Y-115898330D01*
X159724999Y-115849821D01*
X159693899Y-115789013D01*
X159672417Y-115724769D01*
X159667136Y-115686026D01*
X159814353Y-115686026D01*
X159832635Y-115736961D01*
X159862305Y-115782878D01*
X159909002Y-115825287D01*
X159970392Y-115855090D01*
X160049538Y-115874226D01*
X160051028Y-115874464D01*
X160099999Y-115880256D01*
X160158693Y-115884396D01*
X160214734Y-115886004D01*
X160307867Y-115886089D01*
X160307867Y-115445822D01*
X160231667Y-115445808D01*
X160228639Y-115445817D01*
X160177519Y-115447782D01*
X160117416Y-115452507D01*
X160060708Y-115459035D01*
X160010750Y-115468331D01*
X159935998Y-115494600D01*
X159878489Y-115533899D01*
X159836988Y-115586933D01*
X159815771Y-115638200D01*
X159814353Y-115686026D01*
X159667136Y-115686026D01*
X159664400Y-115665956D01*
X159665679Y-115644739D01*
X159677991Y-115587323D01*
X159700520Y-115527413D01*
X159729750Y-115473363D01*
X159762167Y-115433532D01*
X159781708Y-115416510D01*
X159836420Y-115377322D01*
X159896723Y-115347193D01*
X159965919Y-115325232D01*
X160047311Y-115310550D01*
X160144200Y-115302259D01*
X160259889Y-115299467D01*
X160299371Y-115299066D01*
X160345082Y-115298653D01*
X160380883Y-115300457D01*
X160407974Y-115306739D01*
X160427556Y-115319759D01*
X160440830Y-115341778D01*
X160448998Y-115375055D01*
X160453260Y-115421851D01*
X160453857Y-115445822D01*
X160454817Y-115484427D01*
G36*
X160454817Y-115484427D02*
G01*
X160454870Y-115565041D01*
X160454622Y-115665956D01*
X160454583Y-115741617D01*
X160454328Y-115819526D01*
X160453684Y-115879536D01*
X160452480Y-115924264D01*
X160450543Y-115956326D01*
X160447703Y-115978340D01*
X160443788Y-115992924D01*
X160438626Y-116002694D01*
X160432045Y-116010267D01*
X160425077Y-116016501D01*
X160412079Y-116023801D01*
X160392931Y-116028554D01*
X160363528Y-116031292D01*
X160319762Y-116032545D01*
X160257528Y-116032845D01*
X160208582Y-116032469D01*
X160101722Y-116028041D01*
X160012494Y-116017953D01*
X159937696Y-116001365D01*
X159874125Y-115977435D01*
X159818579Y-115945321D01*
X159767854Y-115904182D01*
X159761866Y-115898330D01*
X159724999Y-115849821D01*
X159693899Y-115789013D01*
X159672417Y-115724769D01*
X159667136Y-115686026D01*
X159814353Y-115686026D01*
X159832635Y-115736961D01*
X159862305Y-115782878D01*
X159909002Y-115825287D01*
X159970392Y-115855090D01*
X160049538Y-115874226D01*
X160051028Y-115874464D01*
X160099999Y-115880256D01*
X160158693Y-115884396D01*
X160214734Y-115886004D01*
X160307867Y-115886089D01*
X160307867Y-115445822D01*
X160231667Y-115445808D01*
X160228639Y-115445817D01*
X160177519Y-115447782D01*
X160117416Y-115452507D01*
X160060708Y-115459035D01*
X160010750Y-115468331D01*
X159935998Y-115494600D01*
X159878489Y-115533899D01*
X159836988Y-115586933D01*
X159815771Y-115638200D01*
X159814353Y-115686026D01*
X159667136Y-115686026D01*
X159664400Y-115665956D01*
X159665679Y-115644739D01*
X159677991Y-115587323D01*
X159700520Y-115527413D01*
X159729750Y-115473363D01*
X159762167Y-115433532D01*
X159781708Y-115416510D01*
X159836420Y-115377322D01*
X159896723Y-115347193D01*
X159965919Y-115325232D01*
X160047311Y-115310550D01*
X160144200Y-115302259D01*
X160259889Y-115299467D01*
X160299371Y-115299066D01*
X160345082Y-115298653D01*
X160380883Y-115300457D01*
X160407974Y-115306739D01*
X160427556Y-115319759D01*
X160440830Y-115341778D01*
X160448998Y-115375055D01*
X160453260Y-115421851D01*
X160453857Y-115445822D01*
X160454817Y-115484427D01*
G37*
X155509893Y-115297892D02*
X155521301Y-115304029D01*
X155531850Y-115314691D01*
X155543136Y-115328811D01*
X155547589Y-115334772D01*
X155553588Y-115345268D01*
X155558167Y-115359093D01*
X155561519Y-115378998D01*
X155563833Y-115407732D01*
X155565301Y-115448045D01*
X155566113Y-115502687D01*
X155566460Y-115574407D01*
X155566534Y-115665956D01*
X155566511Y-115724486D01*
X155566292Y-115803573D01*
X155565683Y-115864516D01*
X155564492Y-115910062D01*
X155562529Y-115942963D01*
X155559603Y-115965968D01*
X155555523Y-115981826D01*
X155550097Y-115993286D01*
X155543136Y-116003100D01*
X155512708Y-116027493D01*
X155477765Y-116030372D01*
X155440784Y-116011282D01*
X155436600Y-116007807D01*
X155428424Y-115999279D01*
X155422364Y-115987728D01*
X155417981Y-115969896D01*
X155414839Y-115942524D01*
X155412502Y-115902354D01*
X155410531Y-115846128D01*
X155408489Y-115770589D01*
X155402845Y-115551458D01*
X155137556Y-115792099D01*
X155063722Y-115858875D01*
X154998542Y-115916991D01*
X154946348Y-115961949D01*
X154905273Y-115994871D01*
X154873455Y-116016879D01*
X154849026Y-116029094D01*
X154830124Y-116032639D01*
X154814883Y-116028636D01*
X154801439Y-116018207D01*
X154787927Y-116002474D01*
X154781682Y-115993991D01*
X154776050Y-115983413D01*
X154771839Y-115969255D01*
X154768887Y-115948803D01*
X154767032Y-115919342D01*
X154766113Y-115878161D01*
X154765968Y-115822544D01*
X154766435Y-115749779D01*
X154767352Y-115657151D01*
X154770667Y-115342199D01*
X154797318Y-115320633D01*
X154823383Y-115304441D01*
X154856241Y-115301670D01*
X154890772Y-115320623D01*
X154895084Y-115324208D01*
X154903216Y-115332737D01*
X154909245Y-115344329D01*
X154913606Y-115362235D01*
X154916734Y-115389706D01*
X154919063Y-115429994D01*
X154921029Y-115486351D01*
X154923067Y-115562029D01*
X154928711Y-115781878D01*
X155109334Y-115618084D01*
X155196072Y-115539451D01*
X155271843Y-115471058D01*
X155333980Y-115415708D01*
X155384078Y-115372338D01*
X155423735Y-115339881D01*
X155454548Y-115317273D01*
X155478114Y-115303448D01*
X155496030Y-115297343D01*
X155509893Y-115297892D01*
G36*
X155509893Y-115297892D02*
G01*
X155521301Y-115304029D01*
X155531850Y-115314691D01*
X155543136Y-115328811D01*
X155547589Y-115334772D01*
X155553588Y-115345268D01*
X155558167Y-115359093D01*
X155561519Y-115378998D01*
X155563833Y-115407732D01*
X155565301Y-115448045D01*
X155566113Y-115502687D01*
X155566460Y-115574407D01*
X155566534Y-115665956D01*
X155566511Y-115724486D01*
X155566292Y-115803573D01*
X155565683Y-115864516D01*
X155564492Y-115910062D01*
X155562529Y-115942963D01*
X155559603Y-115965968D01*
X155555523Y-115981826D01*
X155550097Y-115993286D01*
X155543136Y-116003100D01*
X155512708Y-116027493D01*
X155477765Y-116030372D01*
X155440784Y-116011282D01*
X155436600Y-116007807D01*
X155428424Y-115999279D01*
X155422364Y-115987728D01*
X155417981Y-115969896D01*
X155414839Y-115942524D01*
X155412502Y-115902354D01*
X155410531Y-115846128D01*
X155408489Y-115770589D01*
X155402845Y-115551458D01*
X155137556Y-115792099D01*
X155063722Y-115858875D01*
X154998542Y-115916991D01*
X154946348Y-115961949D01*
X154905273Y-115994871D01*
X154873455Y-116016879D01*
X154849026Y-116029094D01*
X154830124Y-116032639D01*
X154814883Y-116028636D01*
X154801439Y-116018207D01*
X154787927Y-116002474D01*
X154781682Y-115993991D01*
X154776050Y-115983413D01*
X154771839Y-115969255D01*
X154768887Y-115948803D01*
X154767032Y-115919342D01*
X154766113Y-115878161D01*
X154765968Y-115822544D01*
X154766435Y-115749779D01*
X154767352Y-115657151D01*
X154770667Y-115342199D01*
X154797318Y-115320633D01*
X154823383Y-115304441D01*
X154856241Y-115301670D01*
X154890772Y-115320623D01*
X154895084Y-115324208D01*
X154903216Y-115332737D01*
X154909245Y-115344329D01*
X154913606Y-115362235D01*
X154916734Y-115389706D01*
X154919063Y-115429994D01*
X154921029Y-115486351D01*
X154923067Y-115562029D01*
X154928711Y-115781878D01*
X155109334Y-115618084D01*
X155196072Y-115539451D01*
X155271843Y-115471058D01*
X155333980Y-115415708D01*
X155384078Y-115372338D01*
X155423735Y-115339881D01*
X155454548Y-115317273D01*
X155478114Y-115303448D01*
X155496030Y-115297343D01*
X155509893Y-115297892D01*
G37*
X156307150Y-115304179D02*
X156413157Y-115320494D01*
X156506969Y-115348545D01*
X156585765Y-115387452D01*
X156646719Y-115436334D01*
X156672789Y-115469195D01*
X156702297Y-115518394D01*
X156727568Y-115572252D01*
X156745218Y-115623419D01*
X156751858Y-115664544D01*
X156750298Y-115684259D01*
X156737357Y-115735592D01*
X156714194Y-115792118D01*
X156684302Y-115846035D01*
X156651173Y-115889539D01*
X156640977Y-115899887D01*
X156573892Y-115951662D01*
X156493766Y-115991554D01*
X156407556Y-116015956D01*
X156352592Y-116024068D01*
X156259139Y-116030673D01*
X156169358Y-116028586D01*
X156086869Y-116018340D01*
X156015286Y-116000470D01*
X155958228Y-115975508D01*
X155919311Y-115943988D01*
X155917936Y-115942012D01*
X155910848Y-115916786D01*
X155906609Y-115869535D01*
X155905200Y-115800071D01*
X155906060Y-115737838D01*
X155910780Y-115690456D01*
X155922470Y-115658353D01*
X155944239Y-115638800D01*
X155979198Y-115629070D01*
X156030456Y-115626433D01*
X156101123Y-115628161D01*
X156149743Y-115631173D01*
X156199939Y-115639366D01*
X156232433Y-115653419D01*
X156249892Y-115674654D01*
X156254983Y-115704394D01*
X156254877Y-115708936D01*
X156246175Y-115743730D01*
X156222165Y-115767147D01*
X156180900Y-115780347D01*
X156120431Y-115784489D01*
X156051956Y-115784489D01*
X156051956Y-115822841D01*
X156052006Y-115831976D01*
X156054227Y-115849227D01*
X156063494Y-115859521D01*
X156084875Y-115866459D01*
X156123436Y-115873641D01*
X156128910Y-115874575D01*
X156225860Y-115884478D01*
X156315852Y-115881559D01*
X156396760Y-115866829D01*
X156466459Y-115841299D01*
X156522824Y-115805978D01*
X156563729Y-115761879D01*
X156587051Y-115710012D01*
X156590663Y-115651388D01*
X156585145Y-115622494D01*
X156558461Y-115566604D01*
X156512273Y-115520945D01*
X156447291Y-115486108D01*
X156364229Y-115462690D01*
X156339555Y-115458241D01*
X156250226Y-115447742D01*
X156170419Y-115448971D01*
X156092326Y-115461906D01*
X156057183Y-115468696D01*
X156011745Y-115469713D01*
X155980430Y-115457182D01*
X155960277Y-115430395D01*
X155953893Y-115402148D01*
X155963379Y-115370924D01*
X155972708Y-115357499D01*
X156006943Y-115333967D01*
X156059565Y-115316095D01*
X156128081Y-115304599D01*
X156210000Y-115300192D01*
X156307150Y-115304179D01*
G36*
X156307150Y-115304179D02*
G01*
X156413157Y-115320494D01*
X156506969Y-115348545D01*
X156585765Y-115387452D01*
X156646719Y-115436334D01*
X156672789Y-115469195D01*
X156702297Y-115518394D01*
X156727568Y-115572252D01*
X156745218Y-115623419D01*
X156751858Y-115664544D01*
X156750298Y-115684259D01*
X156737357Y-115735592D01*
X156714194Y-115792118D01*
X156684302Y-115846035D01*
X156651173Y-115889539D01*
X156640977Y-115899887D01*
X156573892Y-115951662D01*
X156493766Y-115991554D01*
X156407556Y-116015956D01*
X156352592Y-116024068D01*
X156259139Y-116030673D01*
X156169358Y-116028586D01*
X156086869Y-116018340D01*
X156015286Y-116000470D01*
X155958228Y-115975508D01*
X155919311Y-115943988D01*
X155917936Y-115942012D01*
X155910848Y-115916786D01*
X155906609Y-115869535D01*
X155905200Y-115800071D01*
X155906060Y-115737838D01*
X155910780Y-115690456D01*
X155922470Y-115658353D01*
X155944239Y-115638800D01*
X155979198Y-115629070D01*
X156030456Y-115626433D01*
X156101123Y-115628161D01*
X156149743Y-115631173D01*
X156199939Y-115639366D01*
X156232433Y-115653419D01*
X156249892Y-115674654D01*
X156254983Y-115704394D01*
X156254877Y-115708936D01*
X156246175Y-115743730D01*
X156222165Y-115767147D01*
X156180900Y-115780347D01*
X156120431Y-115784489D01*
X156051956Y-115784489D01*
X156051956Y-115822841D01*
X156052006Y-115831976D01*
X156054227Y-115849227D01*
X156063494Y-115859521D01*
X156084875Y-115866459D01*
X156123436Y-115873641D01*
X156128910Y-115874575D01*
X156225860Y-115884478D01*
X156315852Y-115881559D01*
X156396760Y-115866829D01*
X156466459Y-115841299D01*
X156522824Y-115805978D01*
X156563729Y-115761879D01*
X156587051Y-115710012D01*
X156590663Y-115651388D01*
X156585145Y-115622494D01*
X156558461Y-115566604D01*
X156512273Y-115520945D01*
X156447291Y-115486108D01*
X156364229Y-115462690D01*
X156339555Y-115458241D01*
X156250226Y-115447742D01*
X156170419Y-115448971D01*
X156092326Y-115461906D01*
X156057183Y-115468696D01*
X156011745Y-115469713D01*
X155980430Y-115457182D01*
X155960277Y-115430395D01*
X155953893Y-115402148D01*
X155963379Y-115370924D01*
X155972708Y-115357499D01*
X156006943Y-115333967D01*
X156059565Y-115316095D01*
X156128081Y-115304599D01*
X156210000Y-115300192D01*
X156307150Y-115304179D01*
G37*
X154357803Y-115328811D02*
X154362752Y-115335495D01*
X154368596Y-115346066D01*
X154373057Y-115360153D01*
X154376321Y-115380478D01*
X154378574Y-115409765D01*
X154380002Y-115450737D01*
X154380792Y-115506117D01*
X154381129Y-115578628D01*
X154381200Y-115670994D01*
X154381171Y-115736911D01*
X154380939Y-115815228D01*
X154380319Y-115875496D01*
X154379126Y-115920393D01*
X154377179Y-115952602D01*
X154374294Y-115974800D01*
X154370288Y-115989669D01*
X154364979Y-115999889D01*
X154358183Y-116008138D01*
X154353668Y-116012795D01*
X154345438Y-116019282D01*
X154334078Y-116024194D01*
X154316810Y-116027749D01*
X154290855Y-116030167D01*
X154253436Y-116031667D01*
X154201773Y-116032467D01*
X154133089Y-116032787D01*
X154044606Y-116032845D01*
X154024931Y-116032838D01*
X153937906Y-116032572D01*
X153870254Y-116031806D01*
X153819299Y-116030392D01*
X153782367Y-116028180D01*
X153756783Y-116025022D01*
X153739871Y-116020769D01*
X153728957Y-116015271D01*
X153718464Y-116005285D01*
X153705203Y-115974168D01*
X153706386Y-115938280D01*
X153722550Y-115906733D01*
X153724739Y-115904457D01*
X153733427Y-115898189D01*
X153746769Y-115893523D01*
X153767752Y-115890227D01*
X153799363Y-115888068D01*
X153844590Y-115886814D01*
X153906420Y-115886231D01*
X153987839Y-115886089D01*
X154234445Y-115886089D01*
X154234445Y-115728045D01*
X154072006Y-115728045D01*
X154036338Y-115727964D01*
X153980568Y-115727167D01*
X153941430Y-115725162D01*
X153914976Y-115721521D01*
X153897259Y-115715812D01*
X153884329Y-115707607D01*
X153880686Y-115704423D01*
X153862278Y-115673448D01*
X153861644Y-115637112D01*
X153879183Y-115603493D01*
X153879245Y-115603424D01*
X153888916Y-115594798D01*
X153902209Y-115588742D01*
X153922917Y-115584811D01*
X153954828Y-115582556D01*
X154001734Y-115581531D01*
X154067424Y-115581289D01*
X154235571Y-115581289D01*
X154232186Y-115516378D01*
X154228800Y-115451467D01*
X153986723Y-115448414D01*
X153961707Y-115448086D01*
X153880087Y-115446606D01*
X153817768Y-115444222D01*
X153772154Y-115440227D01*
X153740652Y-115433913D01*
X153720667Y-115424574D01*
X153709604Y-115411503D01*
X153704869Y-115393992D01*
X153703867Y-115371335D01*
X153703873Y-115368970D01*
X153705027Y-115348939D01*
X153709824Y-115333146D01*
X153720632Y-115321090D01*
X153739817Y-115312267D01*
X153769745Y-115306175D01*
X153812783Y-115302311D01*
X153871299Y-115300174D01*
X153947657Y-115299260D01*
X154044226Y-115299067D01*
X154334406Y-115299067D01*
X154357803Y-115328811D01*
G36*
X154357803Y-115328811D02*
G01*
X154362752Y-115335495D01*
X154368596Y-115346066D01*
X154373057Y-115360153D01*
X154376321Y-115380478D01*
X154378574Y-115409765D01*
X154380002Y-115450737D01*
X154380792Y-115506117D01*
X154381129Y-115578628D01*
X154381200Y-115670994D01*
X154381171Y-115736911D01*
X154380939Y-115815228D01*
X154380319Y-115875496D01*
X154379126Y-115920393D01*
X154377179Y-115952602D01*
X154374294Y-115974800D01*
X154370288Y-115989669D01*
X154364979Y-115999889D01*
X154358183Y-116008138D01*
X154353668Y-116012795D01*
X154345438Y-116019282D01*
X154334078Y-116024194D01*
X154316810Y-116027749D01*
X154290855Y-116030167D01*
X154253436Y-116031667D01*
X154201773Y-116032467D01*
X154133089Y-116032787D01*
X154044606Y-116032845D01*
X154024931Y-116032838D01*
X153937906Y-116032572D01*
X153870254Y-116031806D01*
X153819299Y-116030392D01*
X153782367Y-116028180D01*
X153756783Y-116025022D01*
X153739871Y-116020769D01*
X153728957Y-116015271D01*
X153718464Y-116005285D01*
X153705203Y-115974168D01*
X153706386Y-115938280D01*
X153722550Y-115906733D01*
X153724739Y-115904457D01*
X153733427Y-115898189D01*
X153746769Y-115893523D01*
X153767752Y-115890227D01*
X153799363Y-115888068D01*
X153844590Y-115886814D01*
X153906420Y-115886231D01*
X153987839Y-115886089D01*
X154234445Y-115886089D01*
X154234445Y-115728045D01*
X154072006Y-115728045D01*
X154036338Y-115727964D01*
X153980568Y-115727167D01*
X153941430Y-115725162D01*
X153914976Y-115721521D01*
X153897259Y-115715812D01*
X153884329Y-115707607D01*
X153880686Y-115704423D01*
X153862278Y-115673448D01*
X153861644Y-115637112D01*
X153879183Y-115603493D01*
X153879245Y-115603424D01*
X153888916Y-115594798D01*
X153902209Y-115588742D01*
X153922917Y-115584811D01*
X153954828Y-115582556D01*
X154001734Y-115581531D01*
X154067424Y-115581289D01*
X154235571Y-115581289D01*
X154232186Y-115516378D01*
X154228800Y-115451467D01*
X153986723Y-115448414D01*
X153961707Y-115448086D01*
X153880087Y-115446606D01*
X153817768Y-115444222D01*
X153772154Y-115440227D01*
X153740652Y-115433913D01*
X153720667Y-115424574D01*
X153709604Y-115411503D01*
X153704869Y-115393992D01*
X153703867Y-115371335D01*
X153703873Y-115368970D01*
X153705027Y-115348939D01*
X153709824Y-115333146D01*
X153720632Y-115321090D01*
X153739817Y-115312267D01*
X153769745Y-115306175D01*
X153812783Y-115302311D01*
X153871299Y-115300174D01*
X153947657Y-115299260D01*
X154044226Y-115299067D01*
X154334406Y-115299067D01*
X154357803Y-115328811D01*
G37*
X159034734Y-115299083D02*
X159111831Y-115299275D01*
X159170777Y-115299860D01*
X159214364Y-115301051D01*
X159245383Y-115303064D01*
X159266625Y-115306112D01*
X159280882Y-115310409D01*
X159290945Y-115316172D01*
X159299606Y-115323612D01*
X159301391Y-115325293D01*
X159308635Y-115332832D01*
X159314277Y-115341850D01*
X159318517Y-115354984D01*
X159321556Y-115374872D01*
X159323594Y-115404151D01*
X159324830Y-115445458D01*
X159325465Y-115501431D01*
X159325700Y-115574707D01*
X159325734Y-115667923D01*
X159325697Y-115740713D01*
X159325448Y-115818889D01*
X159324812Y-115879103D01*
X159323615Y-115923982D01*
X159321684Y-115956152D01*
X159318846Y-115978239D01*
X159314927Y-115992870D01*
X159309755Y-116002670D01*
X159303156Y-116010267D01*
X159299822Y-116013444D01*
X159291300Y-116019554D01*
X159279298Y-116024229D01*
X159261087Y-116027659D01*
X159233940Y-116030036D01*
X159195129Y-116031552D01*
X159141924Y-116032398D01*
X159071598Y-116032765D01*
X158981422Y-116032845D01*
X158939314Y-116032833D01*
X158858167Y-116032651D01*
X158795675Y-116032098D01*
X158749109Y-116030982D01*
X158715741Y-116029113D01*
X158692844Y-116026298D01*
X158677688Y-116022346D01*
X158667546Y-116017066D01*
X158659689Y-116010267D01*
X158644963Y-115988667D01*
X158637111Y-115959467D01*
X158642610Y-115935560D01*
X158659689Y-115908667D01*
X158664668Y-115904059D01*
X158674443Y-115897772D01*
X158688559Y-115893146D01*
X158710054Y-115889930D01*
X158741968Y-115887870D01*
X158787342Y-115886712D01*
X158849213Y-115886202D01*
X158930622Y-115886089D01*
X159178978Y-115886089D01*
X159178978Y-115728045D01*
X159017801Y-115728045D01*
X158981983Y-115727899D01*
X158916359Y-115726176D01*
X158869118Y-115721741D01*
X158837383Y-115713637D01*
X158818277Y-115700906D01*
X158808923Y-115682592D01*
X158806445Y-115657738D01*
X158807242Y-115637482D01*
X158812494Y-115615656D01*
X158825288Y-115600304D01*
X158848628Y-115590309D01*
X158885517Y-115584553D01*
X158938959Y-115581919D01*
X159011958Y-115581289D01*
X159180105Y-115581289D01*
X159176719Y-115516378D01*
X159173334Y-115451467D01*
X158925617Y-115448418D01*
X158863026Y-115447539D01*
X158794565Y-115446095D01*
X158743661Y-115444164D01*
X158707408Y-115441514D01*
X158682901Y-115437910D01*
X158667235Y-115433121D01*
X158657506Y-115426913D01*
X158651491Y-115420510D01*
X158638482Y-115388828D01*
X158642043Y-115353142D01*
X158661818Y-115322084D01*
X158665069Y-115319161D01*
X158674049Y-115312810D01*
X158686153Y-115307957D01*
X158704159Y-115304403D01*
X158730847Y-115301946D01*
X158768997Y-115300385D01*
X158821386Y-115299518D01*
X158890794Y-115299146D01*
X158980001Y-115299067D01*
X159034734Y-115299083D01*
G36*
X159034734Y-115299083D02*
G01*
X159111831Y-115299275D01*
X159170777Y-115299860D01*
X159214364Y-115301051D01*
X159245383Y-115303064D01*
X159266625Y-115306112D01*
X159280882Y-115310409D01*
X159290945Y-115316172D01*
X159299606Y-115323612D01*
X159301391Y-115325293D01*
X159308635Y-115332832D01*
X159314277Y-115341850D01*
X159318517Y-115354984D01*
X159321556Y-115374872D01*
X159323594Y-115404151D01*
X159324830Y-115445458D01*
X159325465Y-115501431D01*
X159325700Y-115574707D01*
X159325734Y-115667923D01*
X159325697Y-115740713D01*
X159325448Y-115818889D01*
X159324812Y-115879103D01*
X159323615Y-115923982D01*
X159321684Y-115956152D01*
X159318846Y-115978239D01*
X159314927Y-115992870D01*
X159309755Y-116002670D01*
X159303156Y-116010267D01*
X159299822Y-116013444D01*
X159291300Y-116019554D01*
X159279298Y-116024229D01*
X159261087Y-116027659D01*
X159233940Y-116030036D01*
X159195129Y-116031552D01*
X159141924Y-116032398D01*
X159071598Y-116032765D01*
X158981422Y-116032845D01*
X158939314Y-116032833D01*
X158858167Y-116032651D01*
X158795675Y-116032098D01*
X158749109Y-116030982D01*
X158715741Y-116029113D01*
X158692844Y-116026298D01*
X158677688Y-116022346D01*
X158667546Y-116017066D01*
X158659689Y-116010267D01*
X158644963Y-115988667D01*
X158637111Y-115959467D01*
X158642610Y-115935560D01*
X158659689Y-115908667D01*
X158664668Y-115904059D01*
X158674443Y-115897772D01*
X158688559Y-115893146D01*
X158710054Y-115889930D01*
X158741968Y-115887870D01*
X158787342Y-115886712D01*
X158849213Y-115886202D01*
X158930622Y-115886089D01*
X159178978Y-115886089D01*
X159178978Y-115728045D01*
X159017801Y-115728045D01*
X158981983Y-115727899D01*
X158916359Y-115726176D01*
X158869118Y-115721741D01*
X158837383Y-115713637D01*
X158818277Y-115700906D01*
X158808923Y-115682592D01*
X158806445Y-115657738D01*
X158807242Y-115637482D01*
X158812494Y-115615656D01*
X158825288Y-115600304D01*
X158848628Y-115590309D01*
X158885517Y-115584553D01*
X158938959Y-115581919D01*
X159011958Y-115581289D01*
X159180105Y-115581289D01*
X159176719Y-115516378D01*
X159173334Y-115451467D01*
X158925617Y-115448418D01*
X158863026Y-115447539D01*
X158794565Y-115446095D01*
X158743661Y-115444164D01*
X158707408Y-115441514D01*
X158682901Y-115437910D01*
X158667235Y-115433121D01*
X158657506Y-115426913D01*
X158651491Y-115420510D01*
X158638482Y-115388828D01*
X158642043Y-115353142D01*
X158661818Y-115322084D01*
X158665069Y-115319161D01*
X158674049Y-115312810D01*
X158686153Y-115307957D01*
X158704159Y-115304403D01*
X158730847Y-115301946D01*
X158768997Y-115300385D01*
X158821386Y-115299518D01*
X158890794Y-115299146D01*
X158980001Y-115299067D01*
X159034734Y-115299083D01*
G37*
X150467702Y-115308478D02*
X150485663Y-115326989D01*
X150506263Y-115358071D01*
X150531095Y-115403756D01*
X150561750Y-115466078D01*
X150599820Y-115547071D01*
X150614454Y-115578454D01*
X150644203Y-115641638D01*
X150670297Y-115696244D01*
X150691292Y-115739290D01*
X150705739Y-115767793D01*
X150712191Y-115778770D01*
X150713550Y-115778189D01*
X150723542Y-115764242D01*
X150740833Y-115734704D01*
X150763430Y-115693087D01*
X150789338Y-115642903D01*
X150805311Y-115611414D01*
X150834261Y-115556061D01*
X150856749Y-115517044D01*
X150874965Y-115491566D01*
X150891096Y-115476831D01*
X150907330Y-115470042D01*
X150925857Y-115468400D01*
X150936360Y-115468875D01*
X150952476Y-115473082D01*
X150967790Y-115483946D01*
X150984388Y-115504219D01*
X151004357Y-115536654D01*
X151029783Y-115584004D01*
X151062752Y-115649022D01*
X151072485Y-115668277D01*
X151096943Y-115714946D01*
X151117178Y-115751109D01*
X151131311Y-115773497D01*
X151137460Y-115778845D01*
X151138827Y-115775573D01*
X151148202Y-115754664D01*
X151165062Y-115717725D01*
X151187979Y-115667874D01*
X151215520Y-115608226D01*
X151246255Y-115541898D01*
X151272970Y-115484677D01*
X151302593Y-115422688D01*
X151325664Y-115376949D01*
X151343643Y-115344908D01*
X151357990Y-115324014D01*
X151370166Y-115311718D01*
X151381632Y-115305466D01*
X151391042Y-115302574D01*
X151416147Y-115302425D01*
X151443290Y-115317768D01*
X151444590Y-115318753D01*
X151466674Y-115341388D01*
X151477723Y-115363613D01*
X151477769Y-115364253D01*
X151473228Y-115381915D01*
X151460364Y-115416481D01*
X151440605Y-115464826D01*
X151415381Y-115523825D01*
X151386119Y-115590355D01*
X151354250Y-115661291D01*
X151321201Y-115733507D01*
X151288401Y-115803880D01*
X151257280Y-115869285D01*
X151229265Y-115926597D01*
X151205786Y-115972692D01*
X151188272Y-116004446D01*
X151178151Y-116018733D01*
X151143743Y-116032102D01*
X151102046Y-116025741D01*
X151096681Y-116021044D01*
X151080852Y-115998893D01*
X151058650Y-115962132D01*
X151032233Y-115914415D01*
X151003760Y-115859393D01*
X150923986Y-115700150D01*
X150850799Y-115846742D01*
X150841103Y-115866032D01*
X150814125Y-115918380D01*
X150790096Y-115963170D01*
X150771332Y-115996154D01*
X150760146Y-116013089D01*
X150759000Y-116014332D01*
X150730879Y-116029619D01*
X150695817Y-116031302D01*
X150664776Y-116018733D01*
X150662350Y-116015884D01*
X150650090Y-115995259D01*
X150630352Y-115957708D01*
X150604448Y-115905880D01*
X150573685Y-115842423D01*
X150539375Y-115769985D01*
X150502825Y-115691216D01*
X150482585Y-115647093D01*
X150445812Y-115566365D01*
X150417355Y-115502687D01*
X150396331Y-115453752D01*
X150381854Y-115417257D01*
X150373039Y-115390895D01*
X150369004Y-115372361D01*
X150368862Y-115359352D01*
X150371730Y-115349561D01*
X150386387Y-115328678D01*
X150412990Y-115308377D01*
X150413745Y-115308035D01*
X150433335Y-115301034D01*
X150450790Y-115300504D01*
X150467702Y-115308478D01*
G36*
X150467702Y-115308478D02*
G01*
X150485663Y-115326989D01*
X150506263Y-115358071D01*
X150531095Y-115403756D01*
X150561750Y-115466078D01*
X150599820Y-115547071D01*
X150614454Y-115578454D01*
X150644203Y-115641638D01*
X150670297Y-115696244D01*
X150691292Y-115739290D01*
X150705739Y-115767793D01*
X150712191Y-115778770D01*
X150713550Y-115778189D01*
X150723542Y-115764242D01*
X150740833Y-115734704D01*
X150763430Y-115693087D01*
X150789338Y-115642903D01*
X150805311Y-115611414D01*
X150834261Y-115556061D01*
X150856749Y-115517044D01*
X150874965Y-115491566D01*
X150891096Y-115476831D01*
X150907330Y-115470042D01*
X150925857Y-115468400D01*
X150936360Y-115468875D01*
X150952476Y-115473082D01*
X150967790Y-115483946D01*
X150984388Y-115504219D01*
X151004357Y-115536654D01*
X151029783Y-115584004D01*
X151062752Y-115649022D01*
X151072485Y-115668277D01*
X151096943Y-115714946D01*
X151117178Y-115751109D01*
X151131311Y-115773497D01*
X151137460Y-115778845D01*
X151138827Y-115775573D01*
X151148202Y-115754664D01*
X151165062Y-115717725D01*
X151187979Y-115667874D01*
X151215520Y-115608226D01*
X151246255Y-115541898D01*
X151272970Y-115484677D01*
X151302593Y-115422688D01*
X151325664Y-115376949D01*
X151343643Y-115344908D01*
X151357990Y-115324014D01*
X151370166Y-115311718D01*
X151381632Y-115305466D01*
X151391042Y-115302574D01*
X151416147Y-115302425D01*
X151443290Y-115317768D01*
X151444590Y-115318753D01*
X151466674Y-115341388D01*
X151477723Y-115363613D01*
X151477769Y-115364253D01*
X151473228Y-115381915D01*
X151460364Y-115416481D01*
X151440605Y-115464826D01*
X151415381Y-115523825D01*
X151386119Y-115590355D01*
X151354250Y-115661291D01*
X151321201Y-115733507D01*
X151288401Y-115803880D01*
X151257280Y-115869285D01*
X151229265Y-115926597D01*
X151205786Y-115972692D01*
X151188272Y-116004446D01*
X151178151Y-116018733D01*
X151143743Y-116032102D01*
X151102046Y-116025741D01*
X151096681Y-116021044D01*
X151080852Y-115998893D01*
X151058650Y-115962132D01*
X151032233Y-115914415D01*
X151003760Y-115859393D01*
X150923986Y-115700150D01*
X150850799Y-115846742D01*
X150841103Y-115866032D01*
X150814125Y-115918380D01*
X150790096Y-115963170D01*
X150771332Y-115996154D01*
X150760146Y-116013089D01*
X150759000Y-116014332D01*
X150730879Y-116029619D01*
X150695817Y-116031302D01*
X150664776Y-116018733D01*
X150662350Y-116015884D01*
X150650090Y-115995259D01*
X150630352Y-115957708D01*
X150604448Y-115905880D01*
X150573685Y-115842423D01*
X150539375Y-115769985D01*
X150502825Y-115691216D01*
X150482585Y-115647093D01*
X150445812Y-115566365D01*
X150417355Y-115502687D01*
X150396331Y-115453752D01*
X150381854Y-115417257D01*
X150373039Y-115390895D01*
X150369004Y-115372361D01*
X150368862Y-115359352D01*
X150371730Y-115349561D01*
X150386387Y-115328678D01*
X150412990Y-115308377D01*
X150413745Y-115308035D01*
X150433335Y-115301034D01*
X150450790Y-115300504D01*
X150467702Y-115308478D01*
G37*
X158018853Y-115299936D02*
X158085100Y-115305366D01*
X158140400Y-115314964D01*
X158191283Y-115329825D01*
X158262595Y-115362958D01*
X158313752Y-115405640D01*
X158344575Y-115457705D01*
X158354889Y-115518983D01*
X158353952Y-115550232D01*
X158348160Y-115575029D01*
X158333353Y-115596699D01*
X158305380Y-115624049D01*
X158297402Y-115631378D01*
X158273692Y-115652281D01*
X158251298Y-115669251D01*
X158227265Y-115683205D01*
X158198637Y-115695056D01*
X158162460Y-115705720D01*
X158115780Y-115716111D01*
X158055641Y-115727146D01*
X157979090Y-115739738D01*
X157883171Y-115754804D01*
X157864808Y-115757838D01*
X157802478Y-115771458D01*
X157757260Y-115787192D01*
X157730976Y-115804263D01*
X157725447Y-115821897D01*
X157728068Y-115826168D01*
X157746000Y-115841233D01*
X157774126Y-115857867D01*
X157786926Y-115863857D01*
X157808224Y-115871050D01*
X157834610Y-115875827D01*
X157870454Y-115878646D01*
X157920128Y-115879964D01*
X157988000Y-115880237D01*
X158005785Y-115880164D01*
X158073406Y-115879053D01*
X158138345Y-115876828D01*
X158193970Y-115873762D01*
X158233651Y-115870127D01*
X158269162Y-115866059D01*
X158298415Y-115865276D01*
X158317315Y-115869876D01*
X158332429Y-115880551D01*
X158336085Y-115884144D01*
X158352427Y-115915918D01*
X158351107Y-115951572D01*
X158332150Y-115982190D01*
X158311780Y-115993796D01*
X158275796Y-116006491D01*
X158233372Y-116016541D01*
X158229922Y-116017140D01*
X158187252Y-116022356D01*
X158129866Y-116026730D01*
X158064849Y-116029818D01*
X157999289Y-116031177D01*
X157983057Y-116031218D01*
X157884744Y-116028741D01*
X157804692Y-116020735D01*
X157739513Y-116006203D01*
X157685817Y-115984149D01*
X157640216Y-115953576D01*
X157599323Y-115913486D01*
X157579202Y-115887259D01*
X157567576Y-115857712D01*
X157564667Y-115817995D01*
X157564808Y-115806026D01*
X157568681Y-115773345D01*
X157581065Y-115746819D01*
X157606230Y-115715971D01*
X157627442Y-115693831D01*
X157653838Y-115671285D01*
X157683555Y-115652917D01*
X157719785Y-115637661D01*
X157765717Y-115624449D01*
X157824544Y-115612214D01*
X157899456Y-115599889D01*
X157993645Y-115586406D01*
X158038957Y-115579396D01*
X158106911Y-115564837D01*
X158156047Y-115548337D01*
X158185614Y-115530439D01*
X158194864Y-115511685D01*
X158183048Y-115492615D01*
X158149416Y-115473771D01*
X158146370Y-115472557D01*
X158100011Y-115460479D01*
X158037361Y-115452279D01*
X157963927Y-115448119D01*
X157885217Y-115448161D01*
X157806739Y-115452569D01*
X157734000Y-115461505D01*
X157730073Y-115462154D01*
X157681257Y-115469861D01*
X157649005Y-115473473D01*
X157628008Y-115472876D01*
X157612954Y-115467954D01*
X157598534Y-115458596D01*
X157597364Y-115457725D01*
X157572847Y-115427351D01*
X157568054Y-115391850D01*
X157583860Y-115357269D01*
X157588406Y-115352813D01*
X157618020Y-115337673D01*
X157665002Y-115324550D01*
X157725306Y-115313750D01*
X157794888Y-115305581D01*
X157869703Y-115300351D01*
X157945706Y-115298367D01*
X158018853Y-115299936D01*
G36*
X158018853Y-115299936D02*
G01*
X158085100Y-115305366D01*
X158140400Y-115314964D01*
X158191283Y-115329825D01*
X158262595Y-115362958D01*
X158313752Y-115405640D01*
X158344575Y-115457705D01*
X158354889Y-115518983D01*
X158353952Y-115550232D01*
X158348160Y-115575029D01*
X158333353Y-115596699D01*
X158305380Y-115624049D01*
X158297402Y-115631378D01*
X158273692Y-115652281D01*
X158251298Y-115669251D01*
X158227265Y-115683205D01*
X158198637Y-115695056D01*
X158162460Y-115705720D01*
X158115780Y-115716111D01*
X158055641Y-115727146D01*
X157979090Y-115739738D01*
X157883171Y-115754804D01*
X157864808Y-115757838D01*
X157802478Y-115771458D01*
X157757260Y-115787192D01*
X157730976Y-115804263D01*
X157725447Y-115821897D01*
X157728068Y-115826168D01*
X157746000Y-115841233D01*
X157774126Y-115857867D01*
X157786926Y-115863857D01*
X157808224Y-115871050D01*
X157834610Y-115875827D01*
X157870454Y-115878646D01*
X157920128Y-115879964D01*
X157988000Y-115880237D01*
X158005785Y-115880164D01*
X158073406Y-115879053D01*
X158138345Y-115876828D01*
X158193970Y-115873762D01*
X158233651Y-115870127D01*
X158269162Y-115866059D01*
X158298415Y-115865276D01*
X158317315Y-115869876D01*
X158332429Y-115880551D01*
X158336085Y-115884144D01*
X158352427Y-115915918D01*
X158351107Y-115951572D01*
X158332150Y-115982190D01*
X158311780Y-115993796D01*
X158275796Y-116006491D01*
X158233372Y-116016541D01*
X158229922Y-116017140D01*
X158187252Y-116022356D01*
X158129866Y-116026730D01*
X158064849Y-116029818D01*
X157999289Y-116031177D01*
X157983057Y-116031218D01*
X157884744Y-116028741D01*
X157804692Y-116020735D01*
X157739513Y-116006203D01*
X157685817Y-115984149D01*
X157640216Y-115953576D01*
X157599323Y-115913486D01*
X157579202Y-115887259D01*
X157567576Y-115857712D01*
X157564667Y-115817995D01*
X157564808Y-115806026D01*
X157568681Y-115773345D01*
X157581065Y-115746819D01*
X157606230Y-115715971D01*
X157627442Y-115693831D01*
X157653838Y-115671285D01*
X157683555Y-115652917D01*
X157719785Y-115637661D01*
X157765717Y-115624449D01*
X157824544Y-115612214D01*
X157899456Y-115599889D01*
X157993645Y-115586406D01*
X158038957Y-115579396D01*
X158106911Y-115564837D01*
X158156047Y-115548337D01*
X158185614Y-115530439D01*
X158194864Y-115511685D01*
X158183048Y-115492615D01*
X158149416Y-115473771D01*
X158146370Y-115472557D01*
X158100011Y-115460479D01*
X158037361Y-115452279D01*
X157963927Y-115448119D01*
X157885217Y-115448161D01*
X157806739Y-115452569D01*
X157734000Y-115461505D01*
X157730073Y-115462154D01*
X157681257Y-115469861D01*
X157649005Y-115473473D01*
X157628008Y-115472876D01*
X157612954Y-115467954D01*
X157598534Y-115458596D01*
X157597364Y-115457725D01*
X157572847Y-115427351D01*
X157568054Y-115391850D01*
X157583860Y-115357269D01*
X157588406Y-115352813D01*
X157618020Y-115337673D01*
X157665002Y-115324550D01*
X157725306Y-115313750D01*
X157794888Y-115305581D01*
X157869703Y-115300351D01*
X157945706Y-115298367D01*
X158018853Y-115299936D01*
G37*
X154166711Y-110992033D02*
X154262268Y-111009523D01*
X154426558Y-111054564D01*
X154580589Y-111117656D01*
X154726509Y-111199915D01*
X154866466Y-111302457D01*
X155002608Y-111426399D01*
X155046473Y-111471661D01*
X155158758Y-111603865D01*
X155251972Y-111741832D01*
X155328719Y-111889750D01*
X155391603Y-112051803D01*
X155395420Y-112063391D01*
X155445507Y-112249392D01*
X155478899Y-112445521D01*
X155495584Y-112647568D01*
X155495551Y-112851325D01*
X155478791Y-113052581D01*
X155445292Y-113247128D01*
X155395044Y-113430756D01*
X155351190Y-113548053D01*
X155273348Y-113710951D01*
X155179828Y-113864866D01*
X155072822Y-114006671D01*
X154954519Y-114133239D01*
X154827111Y-114241441D01*
X154749606Y-114294120D01*
X154622725Y-114363750D01*
X154485243Y-114422468D01*
X154343716Y-114467587D01*
X154204702Y-114496422D01*
X154190597Y-114498106D01*
X154147153Y-114501434D01*
X154089723Y-114504275D01*
X154024122Y-114506373D01*
X153956167Y-114507468D01*
X153829378Y-114505140D01*
X153681673Y-114492136D01*
X153543779Y-114467133D01*
X153410014Y-114429318D01*
X153386562Y-114420889D01*
X153338612Y-114401408D01*
X153282140Y-114376473D01*
X153220379Y-114347722D01*
X153156563Y-114316790D01*
X153093926Y-114285315D01*
X153035703Y-114254934D01*
X152985127Y-114227283D01*
X152945433Y-114203999D01*
X152919854Y-114186718D01*
X152911625Y-114177079D01*
X152913076Y-114173984D01*
X152924250Y-114154079D01*
X152945134Y-114118420D01*
X152974265Y-114069459D01*
X153010181Y-114009646D01*
X153051420Y-113941433D01*
X153096517Y-113867271D01*
X153277785Y-113570008D01*
X153324315Y-113614539D01*
X153415723Y-113692865D01*
X153529334Y-113767439D01*
X153647122Y-113821474D01*
X153767559Y-113854290D01*
X153889117Y-113865211D01*
X153930585Y-113863868D01*
X154048080Y-113845612D01*
X154158089Y-113806617D01*
X154259430Y-113747670D01*
X154350921Y-113669557D01*
X154431380Y-113573064D01*
X154499627Y-113458978D01*
X154515908Y-113424724D01*
X154561982Y-113301240D01*
X154597106Y-113162918D01*
X154621197Y-113013561D01*
X154634173Y-112856973D01*
X154635949Y-112696956D01*
X154626443Y-112537314D01*
X154605572Y-112381850D01*
X154573252Y-112234366D01*
X154529399Y-112098667D01*
X154491982Y-112012076D01*
X154427185Y-111898688D01*
X154351772Y-111805070D01*
X154265418Y-111730959D01*
X154167795Y-111676094D01*
X154058577Y-111640212D01*
X153937439Y-111623051D01*
X153868038Y-111621880D01*
X153745168Y-111636141D01*
X153629664Y-111671241D01*
X153522953Y-111726682D01*
X153426464Y-111801964D01*
X153410720Y-111816440D01*
X153380150Y-111842962D01*
X153357809Y-111860138D01*
X153347691Y-111864787D01*
X153345706Y-111862597D01*
X153331241Y-111843721D01*
X153307400Y-111810397D01*
X153276029Y-111765380D01*
X153238974Y-111711425D01*
X153198083Y-111651285D01*
X153155202Y-111587718D01*
X153112178Y-111523476D01*
X153070857Y-111461315D01*
X153033086Y-111403991D01*
X153000712Y-111354257D01*
X152975582Y-111314868D01*
X152959542Y-111288580D01*
X152954439Y-111278147D01*
X152959050Y-111273941D01*
X152978267Y-111268933D01*
X152987838Y-111266386D01*
X153015809Y-111255249D01*
X153057448Y-111236802D01*
X153108995Y-111212725D01*
X153166690Y-111184699D01*
X153177957Y-111179154D01*
X153355687Y-111099889D01*
X153525490Y-111040385D01*
X153689430Y-111000245D01*
X153849571Y-110979071D01*
X154007977Y-110976466D01*
X154166711Y-110992033D01*
G36*
X154166711Y-110992033D02*
G01*
X154262268Y-111009523D01*
X154426558Y-111054564D01*
X154580589Y-111117656D01*
X154726509Y-111199915D01*
X154866466Y-111302457D01*
X155002608Y-111426399D01*
X155046473Y-111471661D01*
X155158758Y-111603865D01*
X155251972Y-111741832D01*
X155328719Y-111889750D01*
X155391603Y-112051803D01*
X155395420Y-112063391D01*
X155445507Y-112249392D01*
X155478899Y-112445521D01*
X155495584Y-112647568D01*
X155495551Y-112851325D01*
X155478791Y-113052581D01*
X155445292Y-113247128D01*
X155395044Y-113430756D01*
X155351190Y-113548053D01*
X155273348Y-113710951D01*
X155179828Y-113864866D01*
X155072822Y-114006671D01*
X154954519Y-114133239D01*
X154827111Y-114241441D01*
X154749606Y-114294120D01*
X154622725Y-114363750D01*
X154485243Y-114422468D01*
X154343716Y-114467587D01*
X154204702Y-114496422D01*
X154190597Y-114498106D01*
X154147153Y-114501434D01*
X154089723Y-114504275D01*
X154024122Y-114506373D01*
X153956167Y-114507468D01*
X153829378Y-114505140D01*
X153681673Y-114492136D01*
X153543779Y-114467133D01*
X153410014Y-114429318D01*
X153386562Y-114420889D01*
X153338612Y-114401408D01*
X153282140Y-114376473D01*
X153220379Y-114347722D01*
X153156563Y-114316790D01*
X153093926Y-114285315D01*
X153035703Y-114254934D01*
X152985127Y-114227283D01*
X152945433Y-114203999D01*
X152919854Y-114186718D01*
X152911625Y-114177079D01*
X152913076Y-114173984D01*
X152924250Y-114154079D01*
X152945134Y-114118420D01*
X152974265Y-114069459D01*
X153010181Y-114009646D01*
X153051420Y-113941433D01*
X153096517Y-113867271D01*
X153277785Y-113570008D01*
X153324315Y-113614539D01*
X153415723Y-113692865D01*
X153529334Y-113767439D01*
X153647122Y-113821474D01*
X153767559Y-113854290D01*
X153889117Y-113865211D01*
X153930585Y-113863868D01*
X154048080Y-113845612D01*
X154158089Y-113806617D01*
X154259430Y-113747670D01*
X154350921Y-113669557D01*
X154431380Y-113573064D01*
X154499627Y-113458978D01*
X154515908Y-113424724D01*
X154561982Y-113301240D01*
X154597106Y-113162918D01*
X154621197Y-113013561D01*
X154634173Y-112856973D01*
X154635949Y-112696956D01*
X154626443Y-112537314D01*
X154605572Y-112381850D01*
X154573252Y-112234366D01*
X154529399Y-112098667D01*
X154491982Y-112012076D01*
X154427185Y-111898688D01*
X154351772Y-111805070D01*
X154265418Y-111730959D01*
X154167795Y-111676094D01*
X154058577Y-111640212D01*
X153937439Y-111623051D01*
X153868038Y-111621880D01*
X153745168Y-111636141D01*
X153629664Y-111671241D01*
X153522953Y-111726682D01*
X153426464Y-111801964D01*
X153410720Y-111816440D01*
X153380150Y-111842962D01*
X153357809Y-111860138D01*
X153347691Y-111864787D01*
X153345706Y-111862597D01*
X153331241Y-111843721D01*
X153307400Y-111810397D01*
X153276029Y-111765380D01*
X153238974Y-111711425D01*
X153198083Y-111651285D01*
X153155202Y-111587718D01*
X153112178Y-111523476D01*
X153070857Y-111461315D01*
X153033086Y-111403991D01*
X153000712Y-111354257D01*
X152975582Y-111314868D01*
X152959542Y-111288580D01*
X152954439Y-111278147D01*
X152959050Y-111273941D01*
X152978267Y-111268933D01*
X152987838Y-111266386D01*
X153015809Y-111255249D01*
X153057448Y-111236802D01*
X153108995Y-111212725D01*
X153166690Y-111184699D01*
X153177957Y-111179154D01*
X153355687Y-111099889D01*
X153525490Y-111040385D01*
X153689430Y-111000245D01*
X153849571Y-110979071D01*
X154007977Y-110976466D01*
X154166711Y-110992033D01*
G37*
X150363994Y-113272711D02*
X150363268Y-113350158D01*
X150354689Y-113501594D01*
X150335833Y-113638283D01*
X150305837Y-113764276D01*
X150263836Y-113883625D01*
X150208969Y-114000381D01*
X150142167Y-114111179D01*
X150051363Y-114224739D01*
X149947708Y-114320211D01*
X149831887Y-114397073D01*
X149704586Y-114454797D01*
X149566489Y-114492858D01*
X149528793Y-114498666D01*
X149449752Y-114504396D01*
X149361629Y-114504583D01*
X149272236Y-114499539D01*
X149189384Y-114489578D01*
X149120887Y-114475012D01*
X149090035Y-114465364D01*
X149012730Y-114435123D01*
X148935679Y-114397617D01*
X148866200Y-114356614D01*
X148811615Y-114315879D01*
X148788916Y-114296505D01*
X148766201Y-114278662D01*
X148754779Y-114271778D01*
X148753537Y-114273424D01*
X148750728Y-114291205D01*
X148748776Y-114324370D01*
X148748045Y-114367733D01*
X148748045Y-114463689D01*
X147889896Y-114463689D01*
X147924161Y-114402974D01*
X147929355Y-114393868D01*
X147937715Y-114379249D01*
X147945288Y-114365173D01*
X147952112Y-114350540D01*
X147958227Y-114334249D01*
X147963673Y-114315198D01*
X147968487Y-114292286D01*
X147972708Y-114264413D01*
X147976377Y-114230478D01*
X147979531Y-114189379D01*
X147982211Y-114140015D01*
X147984454Y-114081286D01*
X147986299Y-114012090D01*
X147987787Y-113931326D01*
X147988955Y-113837894D01*
X147989844Y-113730692D01*
X147990491Y-113608620D01*
X147990936Y-113470576D01*
X147991218Y-113315459D01*
X147991375Y-113142168D01*
X147991448Y-112949603D01*
X147991474Y-112736662D01*
X147991485Y-112600530D01*
X148793200Y-112600530D01*
X148793200Y-113750721D01*
X148863756Y-113797089D01*
X148904417Y-113820791D01*
X148958546Y-113846639D01*
X149007689Y-113864829D01*
X149071165Y-113880551D01*
X149167331Y-113891541D01*
X149251900Y-113883365D01*
X149325219Y-113855805D01*
X149387637Y-113808642D01*
X149439502Y-113741658D01*
X149481160Y-113654633D01*
X149512962Y-113547350D01*
X149515545Y-113535009D01*
X149524000Y-113473772D01*
X149529663Y-113396692D01*
X149532576Y-113309002D01*
X149532783Y-113215934D01*
X149530330Y-113122720D01*
X149525261Y-113034594D01*
X149517619Y-112956788D01*
X149507448Y-112894533D01*
X149506167Y-112888666D01*
X149477126Y-112778121D01*
X149442610Y-112687575D01*
X149401456Y-112614953D01*
X149352499Y-112558181D01*
X149294574Y-112515184D01*
X149262620Y-112499615D01*
X149189784Y-112480722D01*
X149108443Y-112477465D01*
X149023319Y-112489389D01*
X148939133Y-112516040D01*
X148860608Y-112556962D01*
X148793200Y-112600530D01*
X147991485Y-112600530D01*
X147991493Y-112502245D01*
X147991689Y-110817378D01*
X148897017Y-110817378D01*
X148872585Y-110854067D01*
X148866318Y-110863647D01*
X148840208Y-110909981D01*
X148822469Y-110957102D01*
X148810908Y-111012251D01*
X148803331Y-111082667D01*
X148802839Y-111089650D01*
X148801062Y-111127641D01*
X148799444Y-111181576D01*
X148797999Y-111248703D01*
X148796740Y-111326271D01*
X148795680Y-111411528D01*
X148794829Y-111501724D01*
X148794203Y-111594107D01*
X148793812Y-111685925D01*
X148793670Y-111774427D01*
X148793790Y-111856862D01*
X148794183Y-111930479D01*
X148794862Y-111992526D01*
X148795841Y-112040251D01*
X148797132Y-112070904D01*
X148798747Y-112081733D01*
X148806957Y-112077333D01*
X148828647Y-112062362D01*
X148858014Y-112040448D01*
X148906879Y-112006236D01*
X148995125Y-111959714D01*
X149093916Y-111926046D01*
X149206510Y-111904231D01*
X149336164Y-111893265D01*
X149428670Y-111892219D01*
X149550011Y-111902014D01*
X149660099Y-111926174D01*
X149763389Y-111965785D01*
X149864338Y-112021932D01*
X149909503Y-112052883D01*
X150014911Y-112144115D01*
X150106538Y-112253106D01*
X150184332Y-112379726D01*
X150248241Y-112523845D01*
X150298214Y-112685332D01*
X150334198Y-112864059D01*
X150356143Y-113059895D01*
X150361900Y-113215934D01*
X150363994Y-113272711D01*
G36*
X150363994Y-113272711D02*
G01*
X150363268Y-113350158D01*
X150354689Y-113501594D01*
X150335833Y-113638283D01*
X150305837Y-113764276D01*
X150263836Y-113883625D01*
X150208969Y-114000381D01*
X150142167Y-114111179D01*
X150051363Y-114224739D01*
X149947708Y-114320211D01*
X149831887Y-114397073D01*
X149704586Y-114454797D01*
X149566489Y-114492858D01*
X149528793Y-114498666D01*
X149449752Y-114504396D01*
X149361629Y-114504583D01*
X149272236Y-114499539D01*
X149189384Y-114489578D01*
X149120887Y-114475012D01*
X149090035Y-114465364D01*
X149012730Y-114435123D01*
X148935679Y-114397617D01*
X148866200Y-114356614D01*
X148811615Y-114315879D01*
X148788916Y-114296505D01*
X148766201Y-114278662D01*
X148754779Y-114271778D01*
X148753537Y-114273424D01*
X148750728Y-114291205D01*
X148748776Y-114324370D01*
X148748045Y-114367733D01*
X148748045Y-114463689D01*
X147889896Y-114463689D01*
X147924161Y-114402974D01*
X147929355Y-114393868D01*
X147937715Y-114379249D01*
X147945288Y-114365173D01*
X147952112Y-114350540D01*
X147958227Y-114334249D01*
X147963673Y-114315198D01*
X147968487Y-114292286D01*
X147972708Y-114264413D01*
X147976377Y-114230478D01*
X147979531Y-114189379D01*
X147982211Y-114140015D01*
X147984454Y-114081286D01*
X147986299Y-114012090D01*
X147987787Y-113931326D01*
X147988955Y-113837894D01*
X147989844Y-113730692D01*
X147990491Y-113608620D01*
X147990936Y-113470576D01*
X147991218Y-113315459D01*
X147991375Y-113142168D01*
X147991448Y-112949603D01*
X147991474Y-112736662D01*
X147991485Y-112600530D01*
X148793200Y-112600530D01*
X148793200Y-113750721D01*
X148863756Y-113797089D01*
X148904417Y-113820791D01*
X148958546Y-113846639D01*
X149007689Y-113864829D01*
X149071165Y-113880551D01*
X149167331Y-113891541D01*
X149251900Y-113883365D01*
X149325219Y-113855805D01*
X149387637Y-113808642D01*
X149439502Y-113741658D01*
X149481160Y-113654633D01*
X149512962Y-113547350D01*
X149515545Y-113535009D01*
X149524000Y-113473772D01*
X149529663Y-113396692D01*
X149532576Y-113309002D01*
X149532783Y-113215934D01*
X149530330Y-113122720D01*
X149525261Y-113034594D01*
X149517619Y-112956788D01*
X149507448Y-112894533D01*
X149506167Y-112888666D01*
X149477126Y-112778121D01*
X149442610Y-112687575D01*
X149401456Y-112614953D01*
X149352499Y-112558181D01*
X149294574Y-112515184D01*
X149262620Y-112499615D01*
X149189784Y-112480722D01*
X149108443Y-112477465D01*
X149023319Y-112489389D01*
X148939133Y-112516040D01*
X148860608Y-112556962D01*
X148793200Y-112600530D01*
X147991485Y-112600530D01*
X147991493Y-112502245D01*
X147991689Y-110817378D01*
X148897017Y-110817378D01*
X148872585Y-110854067D01*
X148866318Y-110863647D01*
X148840208Y-110909981D01*
X148822469Y-110957102D01*
X148810908Y-111012251D01*
X148803331Y-111082667D01*
X148802839Y-111089650D01*
X148801062Y-111127641D01*
X148799444Y-111181576D01*
X148797999Y-111248703D01*
X148796740Y-111326271D01*
X148795680Y-111411528D01*
X148794829Y-111501724D01*
X148794203Y-111594107D01*
X148793812Y-111685925D01*
X148793670Y-111774427D01*
X148793790Y-111856862D01*
X148794183Y-111930479D01*
X148794862Y-111992526D01*
X148795841Y-112040251D01*
X148797132Y-112070904D01*
X148798747Y-112081733D01*
X148806957Y-112077333D01*
X148828647Y-112062362D01*
X148858014Y-112040448D01*
X148906879Y-112006236D01*
X148995125Y-111959714D01*
X149093916Y-111926046D01*
X149206510Y-111904231D01*
X149336164Y-111893265D01*
X149428670Y-111892219D01*
X149550011Y-111902014D01*
X149660099Y-111926174D01*
X149763389Y-111965785D01*
X149864338Y-112021932D01*
X149909503Y-112052883D01*
X150014911Y-112144115D01*
X150106538Y-112253106D01*
X150184332Y-112379726D01*
X150248241Y-112523845D01*
X150298214Y-112685332D01*
X150334198Y-112864059D01*
X150356143Y-113059895D01*
X150361900Y-113215934D01*
X150363994Y-113272711D01*
G37*
X152905755Y-113673467D02*
X152905261Y-113707363D01*
X152901632Y-113782202D01*
X152894022Y-113844401D01*
X152881688Y-113900984D01*
X152837313Y-114027076D01*
X152774400Y-114141679D01*
X152694238Y-114242568D01*
X152597740Y-114328924D01*
X152485822Y-114399932D01*
X152359397Y-114454776D01*
X152219378Y-114492638D01*
X152183149Y-114498351D01*
X152104155Y-114504313D01*
X152015841Y-114504646D01*
X151926075Y-114499659D01*
X151842722Y-114489666D01*
X151773651Y-114474978D01*
X151687187Y-114444749D01*
X151577286Y-114390057D01*
X151479956Y-114322543D01*
X151417867Y-114271556D01*
X151414605Y-114367622D01*
X151411343Y-114463689D01*
X150988450Y-114463689D01*
X150977543Y-114463686D01*
X150883056Y-114463380D01*
X150796331Y-114462616D01*
X150719837Y-114461451D01*
X150656043Y-114459942D01*
X150607418Y-114458147D01*
X150576433Y-114456121D01*
X150565556Y-114453922D01*
X150565578Y-114453463D01*
X150572614Y-114437910D01*
X150588434Y-114415071D01*
X150592734Y-114409638D01*
X150603777Y-114395606D01*
X150613311Y-114382186D01*
X150621461Y-114367722D01*
X150628352Y-114350556D01*
X150634111Y-114329034D01*
X150638862Y-114301498D01*
X150642731Y-114266292D01*
X150645844Y-114221760D01*
X150648325Y-114166246D01*
X150650300Y-114098093D01*
X150651894Y-114015645D01*
X150653234Y-113917246D01*
X150654444Y-113801239D01*
X150655649Y-113665968D01*
X150656595Y-113554586D01*
X151457378Y-113554586D01*
X151457378Y-113750462D01*
X151502048Y-113806973D01*
X151514785Y-113822212D01*
X151561604Y-113864844D01*
X151622255Y-113900672D01*
X151632897Y-113905850D01*
X151671676Y-113922745D01*
X151706692Y-113932909D01*
X151746722Y-113938325D01*
X151800541Y-113940978D01*
X151818648Y-113941383D01*
X151894011Y-113938540D01*
X151954743Y-113926620D01*
X152006452Y-113904037D01*
X152054746Y-113869211D01*
X152059803Y-113864798D01*
X152108272Y-113809160D01*
X152136459Y-113745333D01*
X152145752Y-113670282D01*
X152138520Y-113598693D01*
X152113796Y-113535645D01*
X152069249Y-113477758D01*
X152014319Y-113430808D01*
X151941894Y-113390961D01*
X151855340Y-113363263D01*
X151752670Y-113347096D01*
X151631894Y-113341842D01*
X151623007Y-113341857D01*
X151567660Y-113342655D01*
X151520736Y-113344488D01*
X151486953Y-113347111D01*
X151471028Y-113350274D01*
X151466943Y-113356741D01*
X151462572Y-113378875D01*
X151459604Y-113417988D01*
X151457914Y-113475939D01*
X151457378Y-113554586D01*
X150656595Y-113554586D01*
X150656975Y-113509778D01*
X150658228Y-113367012D01*
X150659651Y-113221942D01*
X150661176Y-113096027D01*
X150662933Y-112987436D01*
X150665051Y-112894334D01*
X150667660Y-112814891D01*
X150670890Y-112747273D01*
X150674869Y-112689649D01*
X150679728Y-112640185D01*
X150685597Y-112597050D01*
X150692604Y-112558410D01*
X150700880Y-112522434D01*
X150710554Y-112487289D01*
X150721756Y-112451142D01*
X150734616Y-112412161D01*
X150750090Y-112369091D01*
X150792994Y-112276871D01*
X150846735Y-112197099D01*
X150915576Y-112122965D01*
X150993185Y-112059405D01*
X151097761Y-111997725D01*
X151217244Y-111950202D01*
X151352508Y-111916567D01*
X151504426Y-111896552D01*
X151673872Y-111889889D01*
X151731890Y-111890287D01*
X151797398Y-111892335D01*
X151858693Y-111896704D01*
X151920097Y-111904035D01*
X151985932Y-111914969D01*
X152060520Y-111930147D01*
X152148184Y-111950209D01*
X152253245Y-111975797D01*
X152281806Y-111982820D01*
X152357054Y-112000776D01*
X152427388Y-112016820D01*
X152488567Y-112030028D01*
X152536354Y-112039474D01*
X152566511Y-112044231D01*
X152594783Y-112047910D01*
X152621060Y-112053187D01*
X152631059Y-112057942D01*
X152627952Y-112066781D01*
X152617194Y-112094072D01*
X152599864Y-112136906D01*
X152577126Y-112192425D01*
X152550147Y-112257772D01*
X152520090Y-112330089D01*
X152513493Y-112345879D01*
X152474907Y-112436484D01*
X152443768Y-112506217D01*
X152419917Y-112555405D01*
X152403198Y-112584374D01*
X152393454Y-112593452D01*
X152385766Y-112591405D01*
X152359415Y-112581760D01*
X152320982Y-112566190D01*
X152275822Y-112546815D01*
X152181293Y-112508814D01*
X152044480Y-112467780D01*
X151903289Y-112442612D01*
X151865314Y-112438611D01*
X151762059Y-112436447D01*
X151674952Y-112449622D01*
X151603129Y-112478756D01*
X151545731Y-112524466D01*
X151501896Y-112587372D01*
X151470762Y-112668092D01*
X151451470Y-112767245D01*
X151444050Y-112826224D01*
X151605936Y-112819445D01*
X151732495Y-112817813D01*
X151883951Y-112824194D01*
X152032396Y-112838777D01*
X152168578Y-112860882D01*
X152233245Y-112875821D01*
X152365490Y-112918741D01*
X152487762Y-112975340D01*
X152597685Y-113044017D01*
X152692883Y-113123170D01*
X152770980Y-113211196D01*
X152829599Y-113306493D01*
X152853595Y-113358864D01*
X152879232Y-113429590D01*
X152895478Y-113500812D01*
X152903822Y-113579712D01*
X152905690Y-113670282D01*
X152905755Y-113673467D01*
G36*
X152905755Y-113673467D02*
G01*
X152905261Y-113707363D01*
X152901632Y-113782202D01*
X152894022Y-113844401D01*
X152881688Y-113900984D01*
X152837313Y-114027076D01*
X152774400Y-114141679D01*
X152694238Y-114242568D01*
X152597740Y-114328924D01*
X152485822Y-114399932D01*
X152359397Y-114454776D01*
X152219378Y-114492638D01*
X152183149Y-114498351D01*
X152104155Y-114504313D01*
X152015841Y-114504646D01*
X151926075Y-114499659D01*
X151842722Y-114489666D01*
X151773651Y-114474978D01*
X151687187Y-114444749D01*
X151577286Y-114390057D01*
X151479956Y-114322543D01*
X151417867Y-114271556D01*
X151414605Y-114367622D01*
X151411343Y-114463689D01*
X150988450Y-114463689D01*
X150977543Y-114463686D01*
X150883056Y-114463380D01*
X150796331Y-114462616D01*
X150719837Y-114461451D01*
X150656043Y-114459942D01*
X150607418Y-114458147D01*
X150576433Y-114456121D01*
X150565556Y-114453922D01*
X150565578Y-114453463D01*
X150572614Y-114437910D01*
X150588434Y-114415071D01*
X150592734Y-114409638D01*
X150603777Y-114395606D01*
X150613311Y-114382186D01*
X150621461Y-114367722D01*
X150628352Y-114350556D01*
X150634111Y-114329034D01*
X150638862Y-114301498D01*
X150642731Y-114266292D01*
X150645844Y-114221760D01*
X150648325Y-114166246D01*
X150650300Y-114098093D01*
X150651894Y-114015645D01*
X150653234Y-113917246D01*
X150654444Y-113801239D01*
X150655649Y-113665968D01*
X150656595Y-113554586D01*
X151457378Y-113554586D01*
X151457378Y-113750462D01*
X151502048Y-113806973D01*
X151514785Y-113822212D01*
X151561604Y-113864844D01*
X151622255Y-113900672D01*
X151632897Y-113905850D01*
X151671676Y-113922745D01*
X151706692Y-113932909D01*
X151746722Y-113938325D01*
X151800541Y-113940978D01*
X151818648Y-113941383D01*
X151894011Y-113938540D01*
X151954743Y-113926620D01*
X152006452Y-113904037D01*
X152054746Y-113869211D01*
X152059803Y-113864798D01*
X152108272Y-113809160D01*
X152136459Y-113745333D01*
X152145752Y-113670282D01*
X152138520Y-113598693D01*
X152113796Y-113535645D01*
X152069249Y-113477758D01*
X152014319Y-113430808D01*
X151941894Y-113390961D01*
X151855340Y-113363263D01*
X151752670Y-113347096D01*
X151631894Y-113341842D01*
X151623007Y-113341857D01*
X151567660Y-113342655D01*
X151520736Y-113344488D01*
X151486953Y-113347111D01*
X151471028Y-113350274D01*
X151466943Y-113356741D01*
X151462572Y-113378875D01*
X151459604Y-113417988D01*
X151457914Y-113475939D01*
X151457378Y-113554586D01*
X150656595Y-113554586D01*
X150656975Y-113509778D01*
X150658228Y-113367012D01*
X150659651Y-113221942D01*
X150661176Y-113096027D01*
X150662933Y-112987436D01*
X150665051Y-112894334D01*
X150667660Y-112814891D01*
X150670890Y-112747273D01*
X150674869Y-112689649D01*
X150679728Y-112640185D01*
X150685597Y-112597050D01*
X150692604Y-112558410D01*
X150700880Y-112522434D01*
X150710554Y-112487289D01*
X150721756Y-112451142D01*
X150734616Y-112412161D01*
X150750090Y-112369091D01*
X150792994Y-112276871D01*
X150846735Y-112197099D01*
X150915576Y-112122965D01*
X150993185Y-112059405D01*
X151097761Y-111997725D01*
X151217244Y-111950202D01*
X151352508Y-111916567D01*
X151504426Y-111896552D01*
X151673872Y-111889889D01*
X151731890Y-111890287D01*
X151797398Y-111892335D01*
X151858693Y-111896704D01*
X151920097Y-111904035D01*
X151985932Y-111914969D01*
X152060520Y-111930147D01*
X152148184Y-111950209D01*
X152253245Y-111975797D01*
X152281806Y-111982820D01*
X152357054Y-112000776D01*
X152427388Y-112016820D01*
X152488567Y-112030028D01*
X152536354Y-112039474D01*
X152566511Y-112044231D01*
X152594783Y-112047910D01*
X152621060Y-112053187D01*
X152631059Y-112057942D01*
X152627952Y-112066781D01*
X152617194Y-112094072D01*
X152599864Y-112136906D01*
X152577126Y-112192425D01*
X152550147Y-112257772D01*
X152520090Y-112330089D01*
X152513493Y-112345879D01*
X152474907Y-112436484D01*
X152443768Y-112506217D01*
X152419917Y-112555405D01*
X152403198Y-112584374D01*
X152393454Y-112593452D01*
X152385766Y-112591405D01*
X152359415Y-112581760D01*
X152320982Y-112566190D01*
X152275822Y-112546815D01*
X152181293Y-112508814D01*
X152044480Y-112467780D01*
X151903289Y-112442612D01*
X151865314Y-112438611D01*
X151762059Y-112436447D01*
X151674952Y-112449622D01*
X151603129Y-112478756D01*
X151545731Y-112524466D01*
X151501896Y-112587372D01*
X151470762Y-112668092D01*
X151451470Y-112767245D01*
X151444050Y-112826224D01*
X151605936Y-112819445D01*
X151732495Y-112817813D01*
X151883951Y-112824194D01*
X152032396Y-112838777D01*
X152168578Y-112860882D01*
X152233245Y-112875821D01*
X152365490Y-112918741D01*
X152487762Y-112975340D01*
X152597685Y-113044017D01*
X152692883Y-113123170D01*
X152770980Y-113211196D01*
X152829599Y-113306493D01*
X152853595Y-113358864D01*
X152879232Y-113429590D01*
X152895478Y-113500812D01*
X152903822Y-113579712D01*
X152905690Y-113670282D01*
X152905755Y-113673467D01*
G37*
X160453614Y-111141792D02*
X160454059Y-111273011D01*
X160454362Y-111420216D01*
X160454548Y-111584349D01*
X160454642Y-111766352D01*
X160454671Y-111967165D01*
X160454661Y-112187732D01*
X160454636Y-112428992D01*
X160454622Y-112691889D01*
X160454622Y-112734040D01*
X160454646Y-112994668D01*
X160454685Y-113233796D01*
X160454708Y-113452360D01*
X160454687Y-113651295D01*
X160454593Y-113831535D01*
X160454395Y-113994015D01*
X160454063Y-114139670D01*
X160453569Y-114269434D01*
X160452883Y-114384243D01*
X160451976Y-114485030D01*
X160450817Y-114572730D01*
X160449378Y-114648279D01*
X160447629Y-114712611D01*
X160445540Y-114766661D01*
X160443083Y-114811363D01*
X160440227Y-114847652D01*
X160436943Y-114876463D01*
X160433202Y-114898731D01*
X160428974Y-114915390D01*
X160424229Y-114927375D01*
X160418939Y-114935621D01*
X160413073Y-114941062D01*
X160406602Y-114944634D01*
X160399497Y-114947270D01*
X160391728Y-114949906D01*
X160383266Y-114953477D01*
X160378908Y-114955145D01*
X160370395Y-114957111D01*
X160357694Y-114958911D01*
X160339885Y-114960555D01*
X160316049Y-114962047D01*
X160285266Y-114963397D01*
X160246617Y-114964611D01*
X160199182Y-114965697D01*
X160142043Y-114966661D01*
X160074279Y-114967511D01*
X159994971Y-114968253D01*
X159903199Y-114968897D01*
X159798044Y-114969447D01*
X159678587Y-114969913D01*
X159543908Y-114970300D01*
X159393088Y-114970616D01*
X159225206Y-114970869D01*
X159039345Y-114971066D01*
X158834583Y-114971213D01*
X158610002Y-114971318D01*
X158364682Y-114971389D01*
X158097704Y-114971432D01*
X158059321Y-114971437D01*
X157793922Y-114971480D01*
X157550050Y-114971525D01*
X157326783Y-114971548D01*
X157123196Y-114971524D01*
X156938367Y-114971430D01*
X156771373Y-114971243D01*
X156621290Y-114970939D01*
X156487196Y-114970494D01*
X156368166Y-114969885D01*
X156263279Y-114969089D01*
X156171610Y-114968080D01*
X156092237Y-114966837D01*
X156024237Y-114965335D01*
X155966686Y-114963551D01*
X155918662Y-114961461D01*
X155879240Y-114959042D01*
X155847499Y-114956270D01*
X155822514Y-114953121D01*
X155803364Y-114949572D01*
X155789123Y-114945598D01*
X155778871Y-114941178D01*
X155771682Y-114936286D01*
X155766635Y-114930900D01*
X155762805Y-114924996D01*
X155759271Y-114918549D01*
X155755108Y-114911537D01*
X155754025Y-114909687D01*
X155751813Y-114904180D01*
X155749786Y-114895868D01*
X155747938Y-114883809D01*
X155746261Y-114867063D01*
X155744745Y-114844687D01*
X155743383Y-114815740D01*
X155742167Y-114779280D01*
X155741089Y-114734367D01*
X155740140Y-114680057D01*
X155739312Y-114615410D01*
X155738597Y-114539484D01*
X155737987Y-114451338D01*
X155737942Y-114442493D01*
X156029378Y-114442493D01*
X156033260Y-114443765D01*
X156056520Y-114445791D01*
X156098874Y-114447626D01*
X156158132Y-114449227D01*
X156232107Y-114450549D01*
X156318610Y-114451548D01*
X156415452Y-114452180D01*
X156520445Y-114452400D01*
X157218651Y-114452400D01*
X158373090Y-114452400D01*
X158372456Y-114376200D01*
X158373574Y-114334160D01*
X158379304Y-114298334D01*
X158391890Y-114260772D01*
X158413568Y-114212577D01*
X158416789Y-114205897D01*
X158442188Y-114156359D01*
X158468996Y-114108369D01*
X158491917Y-114071466D01*
X158496485Y-114064834D01*
X158518516Y-114033593D01*
X158550693Y-113988654D01*
X158591457Y-113932147D01*
X158639245Y-113866204D01*
X158692498Y-113792957D01*
X158749655Y-113714536D01*
X158809155Y-113633072D01*
X158869437Y-113550698D01*
X158928940Y-113469544D01*
X158986105Y-113391742D01*
X159039370Y-113319423D01*
X159087174Y-113254718D01*
X159127957Y-113199759D01*
X159160158Y-113156676D01*
X159182216Y-113127602D01*
X159192571Y-113114667D01*
X159197044Y-113110351D01*
X159201236Y-113108312D01*
X159204643Y-113110926D01*
X159207325Y-113119986D01*
X159209341Y-113137285D01*
X159210748Y-113164614D01*
X159211605Y-113203765D01*
X159211970Y-113256533D01*
X159211903Y-113324707D01*
X159211460Y-113410082D01*
X159210702Y-113514449D01*
X159209685Y-113639600D01*
X159209308Y-113684300D01*
X159208169Y-113805395D01*
X159206972Y-113906688D01*
X159205636Y-113990262D01*
X159204077Y-114058204D01*
X159202215Y-114112599D01*
X159199966Y-114155532D01*
X159197248Y-114189089D01*
X159193979Y-114215355D01*
X159190078Y-114236416D01*
X159185461Y-114254357D01*
X159177192Y-114280770D01*
X159153583Y-114342772D01*
X159127685Y-114395573D01*
X159102535Y-114432645D01*
X159101339Y-114434075D01*
X159099168Y-114438424D01*
X159101328Y-114442026D01*
X159109644Y-114444951D01*
X159125940Y-114447269D01*
X159152041Y-114449051D01*
X159189771Y-114450367D01*
X159240956Y-114451286D01*
X159307420Y-114451878D01*
X159390987Y-114452215D01*
X159493483Y-114452365D01*
X159616732Y-114452400D01*
X160148296Y-114452400D01*
X160109523Y-114394783D01*
X160103432Y-114385893D01*
X160092976Y-114371069D01*
X160083579Y-114357422D01*
X160075183Y-114343765D01*
X160067733Y-114328911D01*
X160061173Y-114311670D01*
X160055446Y-114290855D01*
X160050495Y-114265280D01*
X160046266Y-114233755D01*
X160042701Y-114195093D01*
X160039744Y-114148107D01*
X160037340Y-114091608D01*
X160035431Y-114024409D01*
X160033962Y-113945322D01*
X160032876Y-113853160D01*
X160032118Y-113746734D01*
X160031630Y-113624857D01*
X160031358Y-113486341D01*
X160031243Y-113329999D01*
X160031231Y-113154642D01*
X160031265Y-112959082D01*
X160031289Y-112742133D01*
X160031280Y-112619513D01*
X160031243Y-112414447D01*
X160031227Y-112230116D01*
X160031288Y-112065334D01*
X160031484Y-111918916D01*
X160031870Y-111789674D01*
X160032505Y-111676422D01*
X160033444Y-111577975D01*
X160034745Y-111493144D01*
X160036464Y-111420744D01*
X160038659Y-111359589D01*
X160041385Y-111308492D01*
X160044701Y-111266267D01*
X160048662Y-111231727D01*
X160053325Y-111203686D01*
X160058747Y-111180958D01*
X160064986Y-111162356D01*
X160072097Y-111146693D01*
X160080138Y-111132784D01*
X160089166Y-111119441D01*
X160099236Y-111105479D01*
X160110407Y-111089711D01*
X160150197Y-111031867D01*
X159090314Y-111031867D01*
X159128311Y-111094966D01*
X159142993Y-111120005D01*
X159157531Y-111147586D01*
X159169627Y-111175700D01*
X159179532Y-111206551D01*
X159187494Y-111242344D01*
X159193761Y-111285283D01*
X159198582Y-111337574D01*
X159202206Y-111401419D01*
X159204881Y-111479025D01*
X159206857Y-111572594D01*
X159208382Y-111684333D01*
X159209704Y-111816445D01*
X159210613Y-111936434D01*
X159211020Y-112053063D01*
X159210767Y-112148531D01*
X159209857Y-112222556D01*
X159208293Y-112274855D01*
X159206079Y-112305149D01*
X159203220Y-112313156D01*
X159200161Y-112309858D01*
X159182006Y-112288408D01*
X159152275Y-112251889D01*
X159112639Y-112202442D01*
X159064771Y-112142207D01*
X159010343Y-112073327D01*
X158951027Y-111997943D01*
X158888495Y-111918196D01*
X158824421Y-111836228D01*
X158760475Y-111754180D01*
X158698331Y-111674194D01*
X158639661Y-111598411D01*
X158586137Y-111528973D01*
X158539430Y-111468021D01*
X158501214Y-111417696D01*
X158473161Y-111380140D01*
X158456943Y-111357495D01*
X158411635Y-111285212D01*
X158371661Y-111205463D01*
X158350130Y-111137188D01*
X158346827Y-111079844D01*
X158352116Y-111031867D01*
X157220356Y-111032117D01*
X157259867Y-111062722D01*
X157269248Y-111070089D01*
X157332183Y-111124438D01*
X157400997Y-111192259D01*
X157477596Y-111275516D01*
X157563888Y-111376178D01*
X157581052Y-111396847D01*
X157621833Y-111446409D01*
X157671588Y-111507326D01*
X157728955Y-111577898D01*
X157792569Y-111656424D01*
X157861069Y-111741204D01*
X157933090Y-111830537D01*
X158007270Y-111922722D01*
X158022517Y-111941702D01*
X158082246Y-112016060D01*
X158156653Y-112108848D01*
X158229131Y-112199388D01*
X158298314Y-112285978D01*
X158362841Y-112366918D01*
X158421347Y-112440506D01*
X158472470Y-112505044D01*
X158514847Y-112558829D01*
X158547115Y-112600162D01*
X158567910Y-112627342D01*
X158575869Y-112638668D01*
X158574111Y-112642771D01*
X158561230Y-112663334D01*
X158536885Y-112699561D01*
X158502247Y-112749824D01*
X158458486Y-112812492D01*
X158406775Y-112885936D01*
X158348284Y-112968527D01*
X158284184Y-113058636D01*
X158215646Y-113154631D01*
X158143843Y-113254885D01*
X158069944Y-113357768D01*
X157995121Y-113461650D01*
X157920545Y-113564901D01*
X157847387Y-113665892D01*
X157776819Y-113762994D01*
X157710011Y-113854577D01*
X157648135Y-113939011D01*
X157592361Y-114014667D01*
X157543862Y-114079916D01*
X157503807Y-114133128D01*
X157473369Y-114172673D01*
X157452944Y-114198026D01*
X157406899Y-114252295D01*
X157356612Y-114308775D01*
X157309815Y-114358669D01*
X157218651Y-114452400D01*
X156520445Y-114452400D01*
X156589356Y-114452349D01*
X156687607Y-114452091D01*
X156777030Y-114451637D01*
X156855333Y-114451010D01*
X156920223Y-114450235D01*
X156969411Y-114449335D01*
X157000604Y-114448334D01*
X157011511Y-114447257D01*
X157010322Y-114444037D01*
X157000176Y-114426452D01*
X156983040Y-114400158D01*
X156974540Y-114387691D01*
X156965329Y-114373622D01*
X156957233Y-114359351D01*
X156950185Y-114343479D01*
X156944117Y-114324609D01*
X156938961Y-114301341D01*
X156934651Y-114272278D01*
X156931119Y-114236021D01*
X156928297Y-114191170D01*
X156926118Y-114136328D01*
X156924514Y-114070097D01*
X156923419Y-113991077D01*
X156922765Y-113897871D01*
X156922484Y-113789079D01*
X156922509Y-113663303D01*
X156922772Y-113519145D01*
X156923206Y-113355207D01*
X156923745Y-113170089D01*
X156924279Y-112991232D01*
X156924805Y-112832374D01*
X156925350Y-112693316D01*
X156925945Y-112572665D01*
X156926619Y-112469028D01*
X156927403Y-112381011D01*
X156928326Y-112307223D01*
X156929419Y-112246269D01*
X156930712Y-112196757D01*
X156932235Y-112157293D01*
X156934019Y-112126484D01*
X156936092Y-112102938D01*
X156938486Y-112085260D01*
X156941230Y-112072059D01*
X156944356Y-112061940D01*
X156947892Y-112053511D01*
X156951791Y-112045375D01*
X156971438Y-112008544D01*
X156990225Y-111978391D01*
X156991272Y-111976908D01*
X157005602Y-111954659D01*
X157011511Y-111941702D01*
X157010504Y-111941249D01*
X156993305Y-111939803D01*
X156956656Y-111938480D01*
X156902962Y-111937316D01*
X156834630Y-111936347D01*
X156754064Y-111935611D01*
X156663670Y-111935142D01*
X156565853Y-111934978D01*
X156120195Y-111934978D01*
X156117120Y-113111845D01*
X156114045Y-114288711D01*
X156087407Y-114347622D01*
X156075485Y-114372183D01*
X156058246Y-114402434D01*
X156045074Y-114419560D01*
X156037076Y-114427591D01*
X156029378Y-114442493D01*
X155737942Y-114442493D01*
X155737474Y-114350029D01*
X155737050Y-114234617D01*
X155736706Y-114104160D01*
X155736434Y-113957716D01*
X155736227Y-113794344D01*
X155736076Y-113613101D01*
X155735972Y-113413048D01*
X155735908Y-113193241D01*
X155735876Y-112952739D01*
X155735867Y-112690602D01*
X155735867Y-110499031D01*
X155774249Y-110460649D01*
X155801355Y-110436911D01*
X155828253Y-110425111D01*
X155864560Y-110422267D01*
X155916489Y-110422267D01*
X155916489Y-110510206D01*
X155918427Y-110560102D01*
X155937199Y-110670523D01*
X155974217Y-110771987D01*
X156027369Y-110863152D01*
X156094546Y-110942673D01*
X156173638Y-111009205D01*
X156262534Y-111061406D01*
X156359125Y-111097930D01*
X156461300Y-111117434D01*
X156566950Y-111118573D01*
X156673964Y-111100005D01*
X156780232Y-111060384D01*
X156877219Y-111002516D01*
X156962293Y-110927684D01*
X157031015Y-110839615D01*
X157081918Y-110740616D01*
X157113535Y-110632993D01*
X157124400Y-110519054D01*
X157124400Y-110422267D01*
X158744753Y-110422267D01*
X158955897Y-110422280D01*
X159160020Y-110422330D01*
X159343686Y-110422430D01*
X159507991Y-110422592D01*
X159654029Y-110422829D01*
X159782894Y-110423153D01*
X159895683Y-110423575D01*
X159993488Y-110424109D01*
X160077404Y-110424767D01*
X160148527Y-110425561D01*
X160207950Y-110426504D01*
X160256768Y-110427608D01*
X160296077Y-110428884D01*
X160326969Y-110430347D01*
X160350541Y-110432007D01*
X160367886Y-110433878D01*
X160380099Y-110435972D01*
X160388275Y-110438300D01*
X160393508Y-110440876D01*
X160399504Y-110444445D01*
X160406279Y-110447978D01*
X160412478Y-110451488D01*
X160418126Y-110455918D01*
X160423247Y-110462208D01*
X160427869Y-110471301D01*
X160432015Y-110484139D01*
X160435713Y-110501662D01*
X160438987Y-110524813D01*
X160441863Y-110554534D01*
X160444367Y-110591765D01*
X160446524Y-110637449D01*
X160448360Y-110692527D01*
X160449900Y-110757941D01*
X160451170Y-110834633D01*
X160452195Y-110923544D01*
X160453001Y-111025617D01*
X160453034Y-111031867D01*
X160453614Y-111141792D01*
G36*
X160453614Y-111141792D02*
G01*
X160454059Y-111273011D01*
X160454362Y-111420216D01*
X160454548Y-111584349D01*
X160454642Y-111766352D01*
X160454671Y-111967165D01*
X160454661Y-112187732D01*
X160454636Y-112428992D01*
X160454622Y-112691889D01*
X160454622Y-112734040D01*
X160454646Y-112994668D01*
X160454685Y-113233796D01*
X160454708Y-113452360D01*
X160454687Y-113651295D01*
X160454593Y-113831535D01*
X160454395Y-113994015D01*
X160454063Y-114139670D01*
X160453569Y-114269434D01*
X160452883Y-114384243D01*
X160451976Y-114485030D01*
X160450817Y-114572730D01*
X160449378Y-114648279D01*
X160447629Y-114712611D01*
X160445540Y-114766661D01*
X160443083Y-114811363D01*
X160440227Y-114847652D01*
X160436943Y-114876463D01*
X160433202Y-114898731D01*
X160428974Y-114915390D01*
X160424229Y-114927375D01*
X160418939Y-114935621D01*
X160413073Y-114941062D01*
X160406602Y-114944634D01*
X160399497Y-114947270D01*
X160391728Y-114949906D01*
X160383266Y-114953477D01*
X160378908Y-114955145D01*
X160370395Y-114957111D01*
X160357694Y-114958911D01*
X160339885Y-114960555D01*
X160316049Y-114962047D01*
X160285266Y-114963397D01*
X160246617Y-114964611D01*
X160199182Y-114965697D01*
X160142043Y-114966661D01*
X160074279Y-114967511D01*
X159994971Y-114968253D01*
X159903199Y-114968897D01*
X159798044Y-114969447D01*
X159678587Y-114969913D01*
X159543908Y-114970300D01*
X159393088Y-114970616D01*
X159225206Y-114970869D01*
X159039345Y-114971066D01*
X158834583Y-114971213D01*
X158610002Y-114971318D01*
X158364682Y-114971389D01*
X158097704Y-114971432D01*
X158059321Y-114971437D01*
X157793922Y-114971480D01*
X157550050Y-114971525D01*
X157326783Y-114971548D01*
X157123196Y-114971524D01*
X156938367Y-114971430D01*
X156771373Y-114971243D01*
X156621290Y-114970939D01*
X156487196Y-114970494D01*
X156368166Y-114969885D01*
X156263279Y-114969089D01*
X156171610Y-114968080D01*
X156092237Y-114966837D01*
X156024237Y-114965335D01*
X155966686Y-114963551D01*
X155918662Y-114961461D01*
X155879240Y-114959042D01*
X155847499Y-114956270D01*
X155822514Y-114953121D01*
X155803364Y-114949572D01*
X155789123Y-114945598D01*
X155778871Y-114941178D01*
X155771682Y-114936286D01*
X155766635Y-114930900D01*
X155762805Y-114924996D01*
X155759271Y-114918549D01*
X155755108Y-114911537D01*
X155754025Y-114909687D01*
X155751813Y-114904180D01*
X155749786Y-114895868D01*
X155747938Y-114883809D01*
X155746261Y-114867063D01*
X155744745Y-114844687D01*
X155743383Y-114815740D01*
X155742167Y-114779280D01*
X155741089Y-114734367D01*
X155740140Y-114680057D01*
X155739312Y-114615410D01*
X155738597Y-114539484D01*
X155737987Y-114451338D01*
X155737942Y-114442493D01*
X156029378Y-114442493D01*
X156033260Y-114443765D01*
X156056520Y-114445791D01*
X156098874Y-114447626D01*
X156158132Y-114449227D01*
X156232107Y-114450549D01*
X156318610Y-114451548D01*
X156415452Y-114452180D01*
X156520445Y-114452400D01*
X157218651Y-114452400D01*
X158373090Y-114452400D01*
X158372456Y-114376200D01*
X158373574Y-114334160D01*
X158379304Y-114298334D01*
X158391890Y-114260772D01*
X158413568Y-114212577D01*
X158416789Y-114205897D01*
X158442188Y-114156359D01*
X158468996Y-114108369D01*
X158491917Y-114071466D01*
X158496485Y-114064834D01*
X158518516Y-114033593D01*
X158550693Y-113988654D01*
X158591457Y-113932147D01*
X158639245Y-113866204D01*
X158692498Y-113792957D01*
X158749655Y-113714536D01*
X158809155Y-113633072D01*
X158869437Y-113550698D01*
X158928940Y-113469544D01*
X158986105Y-113391742D01*
X159039370Y-113319423D01*
X159087174Y-113254718D01*
X159127957Y-113199759D01*
X159160158Y-113156676D01*
X159182216Y-113127602D01*
X159192571Y-113114667D01*
X159197044Y-113110351D01*
X159201236Y-113108312D01*
X159204643Y-113110926D01*
X159207325Y-113119986D01*
X159209341Y-113137285D01*
X159210748Y-113164614D01*
X159211605Y-113203765D01*
X159211970Y-113256533D01*
X159211903Y-113324707D01*
X159211460Y-113410082D01*
X159210702Y-113514449D01*
X159209685Y-113639600D01*
X159209308Y-113684300D01*
X159208169Y-113805395D01*
X159206972Y-113906688D01*
X159205636Y-113990262D01*
X159204077Y-114058204D01*
X159202215Y-114112599D01*
X159199966Y-114155532D01*
X159197248Y-114189089D01*
X159193979Y-114215355D01*
X159190078Y-114236416D01*
X159185461Y-114254357D01*
X159177192Y-114280770D01*
X159153583Y-114342772D01*
X159127685Y-114395573D01*
X159102535Y-114432645D01*
X159101339Y-114434075D01*
X159099168Y-114438424D01*
X159101328Y-114442026D01*
X159109644Y-114444951D01*
X159125940Y-114447269D01*
X159152041Y-114449051D01*
X159189771Y-114450367D01*
X159240956Y-114451286D01*
X159307420Y-114451878D01*
X159390987Y-114452215D01*
X159493483Y-114452365D01*
X159616732Y-114452400D01*
X160148296Y-114452400D01*
X160109523Y-114394783D01*
X160103432Y-114385893D01*
X160092976Y-114371069D01*
X160083579Y-114357422D01*
X160075183Y-114343765D01*
X160067733Y-114328911D01*
X160061173Y-114311670D01*
X160055446Y-114290855D01*
X160050495Y-114265280D01*
X160046266Y-114233755D01*
X160042701Y-114195093D01*
X160039744Y-114148107D01*
X160037340Y-114091608D01*
X160035431Y-114024409D01*
X160033962Y-113945322D01*
X160032876Y-113853160D01*
X160032118Y-113746734D01*
X160031630Y-113624857D01*
X160031358Y-113486341D01*
X160031243Y-113329999D01*
X160031231Y-113154642D01*
X160031265Y-112959082D01*
X160031289Y-112742133D01*
X160031280Y-112619513D01*
X160031243Y-112414447D01*
X160031227Y-112230116D01*
X160031288Y-112065334D01*
X160031484Y-111918916D01*
X160031870Y-111789674D01*
X160032505Y-111676422D01*
X160033444Y-111577975D01*
X160034745Y-111493144D01*
X160036464Y-111420744D01*
X160038659Y-111359589D01*
X160041385Y-111308492D01*
X160044701Y-111266267D01*
X160048662Y-111231727D01*
X160053325Y-111203686D01*
X160058747Y-111180958D01*
X160064986Y-111162356D01*
X160072097Y-111146693D01*
X160080138Y-111132784D01*
X160089166Y-111119441D01*
X160099236Y-111105479D01*
X160110407Y-111089711D01*
X160150197Y-111031867D01*
X159090314Y-111031867D01*
X159128311Y-111094966D01*
X159142993Y-111120005D01*
X159157531Y-111147586D01*
X159169627Y-111175700D01*
X159179532Y-111206551D01*
X159187494Y-111242344D01*
X159193761Y-111285283D01*
X159198582Y-111337574D01*
X159202206Y-111401419D01*
X159204881Y-111479025D01*
X159206857Y-111572594D01*
X159208382Y-111684333D01*
X159209704Y-111816445D01*
X159210613Y-111936434D01*
X159211020Y-112053063D01*
X159210767Y-112148531D01*
X159209857Y-112222556D01*
X159208293Y-112274855D01*
X159206079Y-112305149D01*
X159203220Y-112313156D01*
X159200161Y-112309858D01*
X159182006Y-112288408D01*
X159152275Y-112251889D01*
X159112639Y-112202442D01*
X159064771Y-112142207D01*
X159010343Y-112073327D01*
X158951027Y-111997943D01*
X158888495Y-111918196D01*
X158824421Y-111836228D01*
X158760475Y-111754180D01*
X158698331Y-111674194D01*
X158639661Y-111598411D01*
X158586137Y-111528973D01*
X158539430Y-111468021D01*
X158501214Y-111417696D01*
X158473161Y-111380140D01*
X158456943Y-111357495D01*
X158411635Y-111285212D01*
X158371661Y-111205463D01*
X158350130Y-111137188D01*
X158346827Y-111079844D01*
X158352116Y-111031867D01*
X157220356Y-111032117D01*
X157259867Y-111062722D01*
X157269248Y-111070089D01*
X157332183Y-111124438D01*
X157400997Y-111192259D01*
X157477596Y-111275516D01*
X157563888Y-111376178D01*
X157581052Y-111396847D01*
X157621833Y-111446409D01*
X157671588Y-111507326D01*
X157728955Y-111577898D01*
X157792569Y-111656424D01*
X157861069Y-111741204D01*
X157933090Y-111830537D01*
X158007270Y-111922722D01*
X158022517Y-111941702D01*
X158082246Y-112016060D01*
X158156653Y-112108848D01*
X158229131Y-112199388D01*
X158298314Y-112285978D01*
X158362841Y-112366918D01*
X158421347Y-112440506D01*
X158472470Y-112505044D01*
X158514847Y-112558829D01*
X158547115Y-112600162D01*
X158567910Y-112627342D01*
X158575869Y-112638668D01*
X158574111Y-112642771D01*
X158561230Y-112663334D01*
X158536885Y-112699561D01*
X158502247Y-112749824D01*
X158458486Y-112812492D01*
X158406775Y-112885936D01*
X158348284Y-112968527D01*
X158284184Y-113058636D01*
X158215646Y-113154631D01*
X158143843Y-113254885D01*
X158069944Y-113357768D01*
X157995121Y-113461650D01*
X157920545Y-113564901D01*
X157847387Y-113665892D01*
X157776819Y-113762994D01*
X157710011Y-113854577D01*
X157648135Y-113939011D01*
X157592361Y-114014667D01*
X157543862Y-114079916D01*
X157503807Y-114133128D01*
X157473369Y-114172673D01*
X157452944Y-114198026D01*
X157406899Y-114252295D01*
X157356612Y-114308775D01*
X157309815Y-114358669D01*
X157218651Y-114452400D01*
X156520445Y-114452400D01*
X156589356Y-114452349D01*
X156687607Y-114452091D01*
X156777030Y-114451637D01*
X156855333Y-114451010D01*
X156920223Y-114450235D01*
X156969411Y-114449335D01*
X157000604Y-114448334D01*
X157011511Y-114447257D01*
X157010322Y-114444037D01*
X157000176Y-114426452D01*
X156983040Y-114400158D01*
X156974540Y-114387691D01*
X156965329Y-114373622D01*
X156957233Y-114359351D01*
X156950185Y-114343479D01*
X156944117Y-114324609D01*
X156938961Y-114301341D01*
X156934651Y-114272278D01*
X156931119Y-114236021D01*
X156928297Y-114191170D01*
X156926118Y-114136328D01*
X156924514Y-114070097D01*
X156923419Y-113991077D01*
X156922765Y-113897871D01*
X156922484Y-113789079D01*
X156922509Y-113663303D01*
X156922772Y-113519145D01*
X156923206Y-113355207D01*
X156923745Y-113170089D01*
X156924279Y-112991232D01*
X156924805Y-112832374D01*
X156925350Y-112693316D01*
X156925945Y-112572665D01*
X156926619Y-112469028D01*
X156927403Y-112381011D01*
X156928326Y-112307223D01*
X156929419Y-112246269D01*
X156930712Y-112196757D01*
X156932235Y-112157293D01*
X156934019Y-112126484D01*
X156936092Y-112102938D01*
X156938486Y-112085260D01*
X156941230Y-112072059D01*
X156944356Y-112061940D01*
X156947892Y-112053511D01*
X156951791Y-112045375D01*
X156971438Y-112008544D01*
X156990225Y-111978391D01*
X156991272Y-111976908D01*
X157005602Y-111954659D01*
X157011511Y-111941702D01*
X157010504Y-111941249D01*
X156993305Y-111939803D01*
X156956656Y-111938480D01*
X156902962Y-111937316D01*
X156834630Y-111936347D01*
X156754064Y-111935611D01*
X156663670Y-111935142D01*
X156565853Y-111934978D01*
X156120195Y-111934978D01*
X156117120Y-113111845D01*
X156114045Y-114288711D01*
X156087407Y-114347622D01*
X156075485Y-114372183D01*
X156058246Y-114402434D01*
X156045074Y-114419560D01*
X156037076Y-114427591D01*
X156029378Y-114442493D01*
X155737942Y-114442493D01*
X155737474Y-114350029D01*
X155737050Y-114234617D01*
X155736706Y-114104160D01*
X155736434Y-113957716D01*
X155736227Y-113794344D01*
X155736076Y-113613101D01*
X155735972Y-113413048D01*
X155735908Y-113193241D01*
X155735876Y-112952739D01*
X155735867Y-112690602D01*
X155735867Y-110499031D01*
X155774249Y-110460649D01*
X155801355Y-110436911D01*
X155828253Y-110425111D01*
X155864560Y-110422267D01*
X155916489Y-110422267D01*
X155916489Y-110510206D01*
X155918427Y-110560102D01*
X155937199Y-110670523D01*
X155974217Y-110771987D01*
X156027369Y-110863152D01*
X156094546Y-110942673D01*
X156173638Y-111009205D01*
X156262534Y-111061406D01*
X156359125Y-111097930D01*
X156461300Y-111117434D01*
X156566950Y-111118573D01*
X156673964Y-111100005D01*
X156780232Y-111060384D01*
X156877219Y-111002516D01*
X156962293Y-110927684D01*
X157031015Y-110839615D01*
X157081918Y-110740616D01*
X157113535Y-110632993D01*
X157124400Y-110519054D01*
X157124400Y-110422267D01*
X158744753Y-110422267D01*
X158955897Y-110422280D01*
X159160020Y-110422330D01*
X159343686Y-110422430D01*
X159507991Y-110422592D01*
X159654029Y-110422829D01*
X159782894Y-110423153D01*
X159895683Y-110423575D01*
X159993488Y-110424109D01*
X160077404Y-110424767D01*
X160148527Y-110425561D01*
X160207950Y-110426504D01*
X160256768Y-110427608D01*
X160296077Y-110428884D01*
X160326969Y-110430347D01*
X160350541Y-110432007D01*
X160367886Y-110433878D01*
X160380099Y-110435972D01*
X160388275Y-110438300D01*
X160393508Y-110440876D01*
X160399504Y-110444445D01*
X160406279Y-110447978D01*
X160412478Y-110451488D01*
X160418126Y-110455918D01*
X160423247Y-110462208D01*
X160427869Y-110471301D01*
X160432015Y-110484139D01*
X160435713Y-110501662D01*
X160438987Y-110524813D01*
X160441863Y-110554534D01*
X160444367Y-110591765D01*
X160446524Y-110637449D01*
X160448360Y-110692527D01*
X160449900Y-110757941D01*
X160451170Y-110834633D01*
X160452195Y-110923544D01*
X160453001Y-111025617D01*
X160453034Y-111031867D01*
X160453614Y-111141792D01*
G37*
%TD*%
M02*
