%TF.GenerationSoftware,KiCad,Pcbnew,8.0.6*%
%TF.CreationDate,2024-11-16T21:35:11+05:30*%
%TF.ProjectId,LED Torch,4c454420-546f-4726-9368-2e6b69636164,1*%
%TF.SameCoordinates,Original*%
%TF.FileFunction,Legend,Top*%
%TF.FilePolarity,Positive*%
%FSLAX46Y46*%
G04 Gerber Fmt 4.6, Leading zero omitted, Abs format (unit mm)*
G04 Created by KiCad (PCBNEW 8.0.6) date 2024-11-16 21:35:11*
%MOMM*%
%LPD*%
G01*
G04 APERTURE LIST*
%ADD10C,0.100000*%
%ADD11C,0.150000*%
%ADD12C,0.120000*%
G04 APERTURE END LIST*
D10*
X112903884Y-112091466D02*
X113665789Y-112091466D01*
X112603884Y-119991466D02*
X113365789Y-119991466D01*
X112984836Y-120372419D02*
X112984836Y-119610514D01*
D11*
X130746667Y-112121700D02*
X130889524Y-112169319D01*
X130889524Y-112169319D02*
X131127619Y-112169319D01*
X131127619Y-112169319D02*
X131222857Y-112121700D01*
X131222857Y-112121700D02*
X131270476Y-112074080D01*
X131270476Y-112074080D02*
X131318095Y-111978842D01*
X131318095Y-111978842D02*
X131318095Y-111883604D01*
X131318095Y-111883604D02*
X131270476Y-111788366D01*
X131270476Y-111788366D02*
X131222857Y-111740747D01*
X131222857Y-111740747D02*
X131127619Y-111693128D01*
X131127619Y-111693128D02*
X130937143Y-111645509D01*
X130937143Y-111645509D02*
X130841905Y-111597890D01*
X130841905Y-111597890D02*
X130794286Y-111550271D01*
X130794286Y-111550271D02*
X130746667Y-111455033D01*
X130746667Y-111455033D02*
X130746667Y-111359795D01*
X130746667Y-111359795D02*
X130794286Y-111264557D01*
X130794286Y-111264557D02*
X130841905Y-111216938D01*
X130841905Y-111216938D02*
X130937143Y-111169319D01*
X130937143Y-111169319D02*
X131175238Y-111169319D01*
X131175238Y-111169319D02*
X131318095Y-111216938D01*
X131651429Y-111169319D02*
X131889524Y-112169319D01*
X131889524Y-112169319D02*
X132080000Y-111455033D01*
X132080000Y-111455033D02*
X132270476Y-112169319D01*
X132270476Y-112169319D02*
X132508572Y-111169319D01*
X133413333Y-112169319D02*
X132841905Y-112169319D01*
X133127619Y-112169319D02*
X133127619Y-111169319D01*
X133127619Y-111169319D02*
X133032381Y-111312176D01*
X133032381Y-111312176D02*
X132937143Y-111407414D01*
X132937143Y-111407414D02*
X132841905Y-111455033D01*
X127469819Y-116181166D02*
X126993628Y-116514499D01*
X127469819Y-116752594D02*
X126469819Y-116752594D01*
X126469819Y-116752594D02*
X126469819Y-116371642D01*
X126469819Y-116371642D02*
X126517438Y-116276404D01*
X126517438Y-116276404D02*
X126565057Y-116228785D01*
X126565057Y-116228785D02*
X126660295Y-116181166D01*
X126660295Y-116181166D02*
X126803152Y-116181166D01*
X126803152Y-116181166D02*
X126898390Y-116228785D01*
X126898390Y-116228785D02*
X126946009Y-116276404D01*
X126946009Y-116276404D02*
X126993628Y-116371642D01*
X126993628Y-116371642D02*
X126993628Y-116752594D01*
X127469819Y-115228785D02*
X127469819Y-115800213D01*
X127469819Y-115514499D02*
X126469819Y-115514499D01*
X126469819Y-115514499D02*
X126612676Y-115609737D01*
X126612676Y-115609737D02*
X126707914Y-115704975D01*
X126707914Y-115704975D02*
X126755533Y-115800213D01*
X115661905Y-112354819D02*
X115661905Y-111354819D01*
X115661905Y-111354819D02*
X115900000Y-111354819D01*
X115900000Y-111354819D02*
X116042857Y-111402438D01*
X116042857Y-111402438D02*
X116138095Y-111497676D01*
X116138095Y-111497676D02*
X116185714Y-111592914D01*
X116185714Y-111592914D02*
X116233333Y-111783390D01*
X116233333Y-111783390D02*
X116233333Y-111926247D01*
X116233333Y-111926247D02*
X116185714Y-112116723D01*
X116185714Y-112116723D02*
X116138095Y-112211961D01*
X116138095Y-112211961D02*
X116042857Y-112307200D01*
X116042857Y-112307200D02*
X115900000Y-112354819D01*
X115900000Y-112354819D02*
X115661905Y-112354819D01*
X117185714Y-112354819D02*
X116614286Y-112354819D01*
X116900000Y-112354819D02*
X116900000Y-111354819D01*
X116900000Y-111354819D02*
X116804762Y-111497676D01*
X116804762Y-111497676D02*
X116709524Y-111592914D01*
X116709524Y-111592914D02*
X116614286Y-111640533D01*
X109524819Y-116652357D02*
X109524819Y-117128547D01*
X109524819Y-117128547D02*
X108524819Y-117128547D01*
X109001009Y-116319023D02*
X109001009Y-115985690D01*
X109524819Y-115842833D02*
X109524819Y-116319023D01*
X109524819Y-116319023D02*
X108524819Y-116319023D01*
X108524819Y-116319023D02*
X108524819Y-115842833D01*
X109524819Y-115414261D02*
X108524819Y-115414261D01*
X108524819Y-115414261D02*
X108524819Y-115176166D01*
X108524819Y-115176166D02*
X108572438Y-115033309D01*
X108572438Y-115033309D02*
X108667676Y-114938071D01*
X108667676Y-114938071D02*
X108762914Y-114890452D01*
X108762914Y-114890452D02*
X108953390Y-114842833D01*
X108953390Y-114842833D02*
X109096247Y-114842833D01*
X109096247Y-114842833D02*
X109286723Y-114890452D01*
X109286723Y-114890452D02*
X109381961Y-114938071D01*
X109381961Y-114938071D02*
X109477200Y-115033309D01*
X109477200Y-115033309D02*
X109524819Y-115176166D01*
X109524819Y-115176166D02*
X109524819Y-115414261D01*
X154154285Y-108325509D02*
X154297142Y-108373128D01*
X154297142Y-108373128D02*
X154344761Y-108420747D01*
X154344761Y-108420747D02*
X154392380Y-108515985D01*
X154392380Y-108515985D02*
X154392380Y-108658842D01*
X154392380Y-108658842D02*
X154344761Y-108754080D01*
X154344761Y-108754080D02*
X154297142Y-108801700D01*
X154297142Y-108801700D02*
X154201904Y-108849319D01*
X154201904Y-108849319D02*
X153820952Y-108849319D01*
X153820952Y-108849319D02*
X153820952Y-107849319D01*
X153820952Y-107849319D02*
X154154285Y-107849319D01*
X154154285Y-107849319D02*
X154249523Y-107896938D01*
X154249523Y-107896938D02*
X154297142Y-107944557D01*
X154297142Y-107944557D02*
X154344761Y-108039795D01*
X154344761Y-108039795D02*
X154344761Y-108135033D01*
X154344761Y-108135033D02*
X154297142Y-108230271D01*
X154297142Y-108230271D02*
X154249523Y-108277890D01*
X154249523Y-108277890D02*
X154154285Y-108325509D01*
X154154285Y-108325509D02*
X153820952Y-108325509D01*
X154678095Y-107849319D02*
X155249523Y-107849319D01*
X154963809Y-108849319D02*
X154963809Y-107849319D01*
X156106666Y-108849319D02*
X155535238Y-108849319D01*
X155820952Y-108849319D02*
X155820952Y-107849319D01*
X155820952Y-107849319D02*
X155725714Y-107992176D01*
X155725714Y-107992176D02*
X155630476Y-108087414D01*
X155630476Y-108087414D02*
X155535238Y-108135033D01*
X151035236Y-125343509D02*
X151178093Y-125391128D01*
X151178093Y-125391128D02*
X151225712Y-125438747D01*
X151225712Y-125438747D02*
X151273331Y-125533985D01*
X151273331Y-125533985D02*
X151273331Y-125676842D01*
X151273331Y-125676842D02*
X151225712Y-125772080D01*
X151225712Y-125772080D02*
X151178093Y-125819700D01*
X151178093Y-125819700D02*
X151082855Y-125867319D01*
X151082855Y-125867319D02*
X150701903Y-125867319D01*
X150701903Y-125867319D02*
X150701903Y-124867319D01*
X150701903Y-124867319D02*
X151035236Y-124867319D01*
X151035236Y-124867319D02*
X151130474Y-124914938D01*
X151130474Y-124914938D02*
X151178093Y-124962557D01*
X151178093Y-124962557D02*
X151225712Y-125057795D01*
X151225712Y-125057795D02*
X151225712Y-125153033D01*
X151225712Y-125153033D02*
X151178093Y-125248271D01*
X151178093Y-125248271D02*
X151130474Y-125295890D01*
X151130474Y-125295890D02*
X151035236Y-125343509D01*
X151035236Y-125343509D02*
X150701903Y-125343509D01*
X152130474Y-125867319D02*
X152130474Y-125343509D01*
X152130474Y-125343509D02*
X152082855Y-125248271D01*
X152082855Y-125248271D02*
X151987617Y-125200652D01*
X151987617Y-125200652D02*
X151797141Y-125200652D01*
X151797141Y-125200652D02*
X151701903Y-125248271D01*
X152130474Y-125819700D02*
X152035236Y-125867319D01*
X152035236Y-125867319D02*
X151797141Y-125867319D01*
X151797141Y-125867319D02*
X151701903Y-125819700D01*
X151701903Y-125819700D02*
X151654284Y-125724461D01*
X151654284Y-125724461D02*
X151654284Y-125629223D01*
X151654284Y-125629223D02*
X151701903Y-125533985D01*
X151701903Y-125533985D02*
X151797141Y-125486366D01*
X151797141Y-125486366D02*
X152035236Y-125486366D01*
X152035236Y-125486366D02*
X152130474Y-125438747D01*
X152463808Y-125200652D02*
X152844760Y-125200652D01*
X152606665Y-124867319D02*
X152606665Y-125724461D01*
X152606665Y-125724461D02*
X152654284Y-125819700D01*
X152654284Y-125819700D02*
X152749522Y-125867319D01*
X152749522Y-125867319D02*
X152844760Y-125867319D01*
X153035237Y-125200652D02*
X153416189Y-125200652D01*
X153178094Y-124867319D02*
X153178094Y-125724461D01*
X153178094Y-125724461D02*
X153225713Y-125819700D01*
X153225713Y-125819700D02*
X153320951Y-125867319D01*
X153320951Y-125867319D02*
X153416189Y-125867319D01*
X154130475Y-125819700D02*
X154035237Y-125867319D01*
X154035237Y-125867319D02*
X153844761Y-125867319D01*
X153844761Y-125867319D02*
X153749523Y-125819700D01*
X153749523Y-125819700D02*
X153701904Y-125724461D01*
X153701904Y-125724461D02*
X153701904Y-125343509D01*
X153701904Y-125343509D02*
X153749523Y-125248271D01*
X153749523Y-125248271D02*
X153844761Y-125200652D01*
X153844761Y-125200652D02*
X154035237Y-125200652D01*
X154035237Y-125200652D02*
X154130475Y-125248271D01*
X154130475Y-125248271D02*
X154178094Y-125343509D01*
X154178094Y-125343509D02*
X154178094Y-125438747D01*
X154178094Y-125438747D02*
X153701904Y-125533985D01*
X154606666Y-125867319D02*
X154606666Y-125200652D01*
X154606666Y-125391128D02*
X154654285Y-125295890D01*
X154654285Y-125295890D02*
X154701904Y-125248271D01*
X154701904Y-125248271D02*
X154797142Y-125200652D01*
X154797142Y-125200652D02*
X154892380Y-125200652D01*
X155130476Y-125200652D02*
X155368571Y-125867319D01*
X155606666Y-125200652D02*
X155368571Y-125867319D01*
X155368571Y-125867319D02*
X155273333Y-126105414D01*
X155273333Y-126105414D02*
X155225714Y-126153033D01*
X155225714Y-126153033D02*
X155130476Y-126200652D01*
X155749524Y-125962557D02*
X156511428Y-125962557D01*
X157320952Y-125772080D02*
X157273333Y-125819700D01*
X157273333Y-125819700D02*
X157130476Y-125867319D01*
X157130476Y-125867319D02*
X157035238Y-125867319D01*
X157035238Y-125867319D02*
X156892381Y-125819700D01*
X156892381Y-125819700D02*
X156797143Y-125724461D01*
X156797143Y-125724461D02*
X156749524Y-125629223D01*
X156749524Y-125629223D02*
X156701905Y-125438747D01*
X156701905Y-125438747D02*
X156701905Y-125295890D01*
X156701905Y-125295890D02*
X156749524Y-125105414D01*
X156749524Y-125105414D02*
X156797143Y-125010176D01*
X156797143Y-125010176D02*
X156892381Y-124914938D01*
X156892381Y-124914938D02*
X157035238Y-124867319D01*
X157035238Y-124867319D02*
X157130476Y-124867319D01*
X157130476Y-124867319D02*
X157273333Y-124914938D01*
X157273333Y-124914938D02*
X157320952Y-124962557D01*
X158130476Y-125819700D02*
X158035238Y-125867319D01*
X158035238Y-125867319D02*
X157844762Y-125867319D01*
X157844762Y-125867319D02*
X157749524Y-125819700D01*
X157749524Y-125819700D02*
X157701905Y-125724461D01*
X157701905Y-125724461D02*
X157701905Y-125343509D01*
X157701905Y-125343509D02*
X157749524Y-125248271D01*
X157749524Y-125248271D02*
X157844762Y-125200652D01*
X157844762Y-125200652D02*
X158035238Y-125200652D01*
X158035238Y-125200652D02*
X158130476Y-125248271D01*
X158130476Y-125248271D02*
X158178095Y-125343509D01*
X158178095Y-125343509D02*
X158178095Y-125438747D01*
X158178095Y-125438747D02*
X157701905Y-125533985D01*
X158749524Y-125867319D02*
X158654286Y-125819700D01*
X158654286Y-125819700D02*
X158606667Y-125724461D01*
X158606667Y-125724461D02*
X158606667Y-124867319D01*
X159273334Y-125867319D02*
X159178096Y-125819700D01*
X159178096Y-125819700D02*
X159130477Y-125724461D01*
X159130477Y-125724461D02*
X159130477Y-124867319D01*
D12*
%TO.C,SW1*%
X128960000Y-117164500D02*
X128960000Y-114964500D01*
X129430000Y-119134500D02*
X134630000Y-119134500D01*
X130030000Y-112894500D02*
X134430000Y-112894500D01*
X135200000Y-114964500D02*
X135200000Y-117164500D01*
X133494214Y-116014500D02*
G75*
G02*
X130665786Y-116014500I-1414214J0D01*
G01*
X130665786Y-116014500D02*
G75*
G02*
X133494214Y-116014500I1414214J0D01*
G01*
%TO.C,R1*%
X125095000Y-113144500D02*
X125095000Y-114094500D01*
X126015000Y-114094500D02*
X124175000Y-114094500D01*
X124175000Y-114094500D02*
X124175000Y-117934500D01*
X126015000Y-117934500D02*
X126015000Y-114094500D01*
X124175000Y-117934500D02*
X126015000Y-117934500D01*
X125095000Y-118884500D02*
X125095000Y-117934500D01*
%TO.C,D1*%
X114575000Y-113449500D02*
X111485000Y-113449500D01*
X114574830Y-113449500D02*
G75*
G02*
X113029538Y-118999500I-1544830J-2560000D01*
G01*
X113030462Y-118999500D02*
G75*
G02*
X111485170Y-113449500I-462J2990000D01*
G01*
X115530000Y-116009500D02*
G75*
G02*
X110530000Y-116009500I-2500000J0D01*
G01*
X110530000Y-116009500D02*
G75*
G02*
X115530000Y-116009500I2500000J0D01*
G01*
%TO.C,BT1*%
X169250000Y-119624500D02*
X165632000Y-119624500D01*
X169250000Y-117914500D02*
X169250000Y-119624500D01*
X169250000Y-114114500D02*
X169250000Y-112404500D01*
X165632000Y-112404500D02*
X169250000Y-112404500D01*
X162787300Y-124124500D02*
X147092700Y-124124500D01*
X158800000Y-107904500D02*
X162787300Y-107904500D01*
X156600000Y-110104500D02*
X158800000Y-107904500D01*
X153280000Y-110104500D02*
X156600000Y-110104500D01*
X153280000Y-110104500D02*
X151080000Y-107904500D01*
X147092700Y-107904500D02*
X151080000Y-107904500D01*
X144248000Y-119624500D02*
X140630000Y-119624500D01*
X140630000Y-117914500D02*
X140630000Y-119624500D01*
X140630000Y-114114500D02*
X140630000Y-112404500D01*
X140630000Y-112404500D02*
X144248000Y-112404500D01*
X165632000Y-119624500D02*
G75*
G02*
X162785372Y-124126290I-10692020J3610010D01*
G01*
X162785371Y-107902711D02*
G75*
G02*
X165632000Y-112404500I-7845366J-8111785D01*
G01*
X147094629Y-124126289D02*
G75*
G02*
X144248000Y-119624500I7845371J8111789D01*
G01*
X144248000Y-112404500D02*
G75*
G02*
X147094629Y-107902711I10692020J-3610012D01*
G01*
%TD*%
M02*
