%TF.GenerationSoftware,KiCad,Pcbnew,8.0.6*%
%TF.CreationDate,2025-06-18T20:25:26+05:30*%
%TF.ProjectId,Tiny Solar Suppy,54696e79-2053-46f6-9c61-722053757070,rev?*%
%TF.SameCoordinates,Original*%
%TF.FileFunction,Copper,L1,Top*%
%TF.FilePolarity,Positive*%
%FSLAX46Y46*%
G04 Gerber Fmt 4.6, Leading zero omitted, Abs format (unit mm)*
G04 Created by KiCad (PCBNEW 8.0.6) date 2025-06-18 20:25:26*
%MOMM*%
%LPD*%
G01*
G04 APERTURE LIST*
G04 Aperture macros list*
%AMRoundRect*
0 Rectangle with rounded corners*
0 $1 Rounding radius*
0 $2 $3 $4 $5 $6 $7 $8 $9 X,Y pos of 4 corners*
0 Add a 4 corners polygon primitive as box body*
4,1,4,$2,$3,$4,$5,$6,$7,$8,$9,$2,$3,0*
0 Add four circle primitives for the rounded corners*
1,1,$1+$1,$2,$3*
1,1,$1+$1,$4,$5*
1,1,$1+$1,$6,$7*
1,1,$1+$1,$8,$9*
0 Add four rect primitives between the rounded corners*
20,1,$1+$1,$2,$3,$4,$5,0*
20,1,$1+$1,$4,$5,$6,$7,0*
20,1,$1+$1,$6,$7,$8,$9,0*
20,1,$1+$1,$8,$9,$2,$3,0*%
G04 Aperture macros list end*
%TA.AperFunction,ComponentPad*%
%ADD10R,1.600000X1.600000*%
%TD*%
%TA.AperFunction,ComponentPad*%
%ADD11O,1.600000X1.600000*%
%TD*%
%TA.AperFunction,ComponentPad*%
%ADD12R,1.700000X1.700000*%
%TD*%
%TA.AperFunction,ComponentPad*%
%ADD13O,1.700000X1.700000*%
%TD*%
%TA.AperFunction,SMDPad,CuDef*%
%ADD14R,1.181100X0.558800*%
%TD*%
%TA.AperFunction,SMDPad,CuDef*%
%ADD15RoundRect,0.250000X-0.262500X-0.450000X0.262500X-0.450000X0.262500X0.450000X-0.262500X0.450000X0*%
%TD*%
%TA.AperFunction,SMDPad,CuDef*%
%ADD16RoundRect,0.250000X0.262500X0.450000X-0.262500X0.450000X-0.262500X-0.450000X0.262500X-0.450000X0*%
%TD*%
%TA.AperFunction,SMDPad,CuDef*%
%ADD17R,1.300000X0.600000*%
%TD*%
%TA.AperFunction,SMDPad,CuDef*%
%ADD18R,3.302000X2.667000*%
%TD*%
%TA.AperFunction,SMDPad,CuDef*%
%ADD19R,2.120000X1.500000*%
%TD*%
%TA.AperFunction,SMDPad,CuDef*%
%ADD20RoundRect,0.250000X-0.250000X-0.475000X0.250000X-0.475000X0.250000X0.475000X-0.250000X0.475000X0*%
%TD*%
%TA.AperFunction,SMDPad,CuDef*%
%ADD21RoundRect,0.250000X0.325000X0.650000X-0.325000X0.650000X-0.325000X-0.650000X0.325000X-0.650000X0*%
%TD*%
%TA.AperFunction,SMDPad,CuDef*%
%ADD22RoundRect,0.250000X0.250000X0.475000X-0.250000X0.475000X-0.250000X-0.475000X0.250000X-0.475000X0*%
%TD*%
%TA.AperFunction,ViaPad*%
%ADD23C,0.600000*%
%TD*%
%TA.AperFunction,Conductor*%
%ADD24C,0.200000*%
%TD*%
G04 APERTURE END LIST*
D10*
%TO.P,J3,1,Pin_1*%
%TO.N,Net-(J3-Pin_1)*%
X71745000Y-98425000D03*
D11*
%TO.P,J3,2,Pin_2*%
%TO.N,/BAT_P*%
X64125000Y-98425000D03*
%TD*%
D12*
%TO.P,J1,1,Pin_1*%
%TO.N,GNDD*%
X93345000Y-99695000D03*
D13*
%TO.P,J1,2,Pin_2*%
%TO.N,/OUT_P*%
X93345000Y-102235000D03*
%TD*%
D12*
%TO.P,J2,1,Pin_1*%
%TO.N,/BAT_P*%
X60325000Y-103505000D03*
D13*
%TO.P,J2,2,Pin_2*%
%TO.N,GNDD*%
X60325000Y-100965000D03*
%TD*%
D14*
%TO.P,U1,1,SW*%
%TO.N,Net-(U1-SW)*%
X76104750Y-97474999D03*
%TO.P,U1,2,GND*%
%TO.N,GNDD*%
X76104750Y-98425000D03*
%TO.P,U1,3,FB*%
%TO.N,Net-(U1-FB)*%
X76104750Y-99375001D03*
%TO.P,U1,4,SHDN*%
%TO.N,Net-(Q1-D)*%
X78835250Y-99375001D03*
%TO.P,U1,5,VIN*%
%TO.N,Net-(J3-Pin_1)*%
X78835250Y-97474999D03*
%TD*%
D15*
%TO.P,R4,1*%
%TO.N,/SOLAR_P*%
X71477500Y-106045000D03*
%TO.P,R4,2*%
%TO.N,GNDD*%
X73302500Y-106045000D03*
%TD*%
D16*
%TO.P,R3,1*%
%TO.N,Net-(J3-Pin_1)*%
X73302500Y-103505000D03*
%TO.P,R3,2*%
%TO.N,Net-(Q1-D)*%
X71477500Y-103505000D03*
%TD*%
D15*
%TO.P,R2,2*%
%TO.N,GNDD*%
X78105000Y-103505000D03*
%TO.P,R2,1*%
%TO.N,Net-(U1-FB)*%
X76280000Y-103505000D03*
%TD*%
D16*
%TO.P,R1,2*%
%TO.N,Net-(U1-FB)*%
X80645000Y-103505000D03*
%TO.P,R1,1*%
%TO.N,/OUT_P*%
X82470000Y-103505000D03*
%TD*%
D17*
%TO.P,Q1,3,D*%
%TO.N,Net-(Q1-D)*%
X67090000Y-104775000D03*
%TO.P,Q1,2,S*%
%TO.N,GNDD*%
X64990000Y-105725000D03*
%TO.P,Q1,1,G*%
%TO.N,/SOLAR_P*%
X64990000Y-103825000D03*
%TD*%
D18*
%TO.P,L1,1,1*%
%TO.N,Net-(U1-SW)*%
X86995000Y-93319600D03*
%TO.P,L1,2,2*%
%TO.N,Net-(J3-Pin_1)*%
X86995000Y-98450400D03*
%TD*%
D12*
%TO.P,J4,1,Pin_1*%
%TO.N,/SOLAR_P*%
X60325000Y-97160000D03*
D13*
%TO.P,J4,2,Pin_2*%
%TO.N,GNDD*%
X60325000Y-94620000D03*
%TD*%
D19*
%TO.P,D2,C*%
%TO.N,/BAT_P*%
X70905000Y-93980000D03*
%TO.P,D2,A*%
%TO.N,/SOLAR_P*%
X66675000Y-93980000D03*
%TD*%
%TO.P,D1,C*%
%TO.N,/OUT_P*%
X80855000Y-93980000D03*
%TO.P,D1,A*%
%TO.N,Net-(U1-SW)*%
X76625000Y-93980000D03*
%TD*%
D20*
%TO.P,C3,1*%
%TO.N,/OUT_P*%
X86045000Y-106045000D03*
%TO.P,C3,2*%
%TO.N,Net-(U1-FB)*%
X87945000Y-106045000D03*
%TD*%
D21*
%TO.P,C2,1*%
%TO.N,/OUT_P*%
X80850000Y-106045000D03*
%TO.P,C2,2*%
%TO.N,GNDD*%
X77900000Y-106045000D03*
%TD*%
D22*
%TO.P,C1,1*%
%TO.N,Net-(J3-Pin_1)*%
X87945000Y-103535000D03*
%TO.P,C1,2*%
%TO.N,GNDD*%
X86045000Y-103535000D03*
%TD*%
D23*
%TO.N,Net-(U1-FB)*%
X76454000Y-105003600D03*
X83820000Y-104560000D03*
%TO.N,GNDD*%
X67945000Y-105725000D03*
X74422000Y-98856800D03*
X84531200Y-102057200D03*
X78105000Y-104775000D03*
X75565000Y-106045000D03*
%TO.N,Net-(J3-Pin_1)*%
X83362800Y-100685600D03*
X79105061Y-98256661D03*
%TD*%
D24*
%TO.N,/OUT_P*%
X81470000Y-102505000D02*
X82470000Y-103505000D01*
X79832500Y-102820256D02*
X80147756Y-102505000D01*
X79832500Y-105027500D02*
X79832500Y-102820256D01*
X80850000Y-106045000D02*
X79832500Y-105027500D01*
X80147756Y-102505000D02*
X81470000Y-102505000D01*
%TO.N,/SOLAR_P*%
X62865000Y-97790000D02*
X66675000Y-93980000D01*
X59334400Y-97790000D02*
X62865000Y-97790000D01*
X58064400Y-103428800D02*
X58064400Y-99060000D01*
X58064400Y-99060000D02*
X59334400Y-97790000D01*
X60960000Y-106324400D02*
X58064400Y-103428800D01*
X61620400Y-106324400D02*
X60960000Y-106324400D01*
%TO.N,/OUT_P*%
X80850000Y-106045000D02*
X86045000Y-106045000D01*
%TO.N,Net-(J3-Pin_1)*%
X73302500Y-99982500D02*
X73302500Y-103505000D01*
X71745000Y-98425000D02*
X73302500Y-99982500D01*
X78255850Y-96895599D02*
X78835250Y-97474999D01*
X73274401Y-96895599D02*
X78255850Y-96895599D01*
X71745000Y-98425000D02*
X73274401Y-96895599D01*
%TO.N,/BAT_P*%
X66460000Y-98425000D02*
X70905000Y-93980000D01*
X64125000Y-98425000D02*
X66460000Y-98425000D01*
%TO.N,Net-(U1-FB)*%
X76454000Y-103679000D02*
X76280000Y-103505000D01*
X76454000Y-105003600D02*
X76454000Y-103679000D01*
X83820000Y-104560000D02*
X81700000Y-104560000D01*
%TO.N,GNDD*%
X67945000Y-105725000D02*
X70246200Y-105725000D01*
X72007100Y-104749600D02*
X73302500Y-106045000D01*
X71221600Y-104749600D02*
X72007100Y-104749600D01*
X70246200Y-105725000D02*
X71221600Y-104749600D01*
X64990000Y-105725000D02*
X67945000Y-105725000D01*
X74853800Y-98425000D02*
X74422000Y-98856800D01*
X76104750Y-98425000D02*
X74853800Y-98425000D01*
X84567200Y-102057200D02*
X84531200Y-102057200D01*
X86045000Y-103535000D02*
X84567200Y-102057200D01*
X78105000Y-104775000D02*
X78105000Y-105840000D01*
X75565000Y-106045000D02*
X73302500Y-106045000D01*
X77900000Y-106045000D02*
X75565000Y-106045000D01*
X78105000Y-105840000D02*
X77900000Y-106045000D01*
X78105000Y-103505000D02*
X78105000Y-104775000D01*
%TO.N,Net-(J3-Pin_1)*%
X84759800Y-100685600D02*
X83362800Y-100685600D01*
X86995000Y-98450400D02*
X84759800Y-100685600D01*
X79105061Y-98256661D02*
X79105061Y-97744810D01*
X79105061Y-97744810D02*
X78835250Y-97474999D01*
%TO.N,/OUT_P*%
X93370400Y-104800400D02*
X93345000Y-104775000D01*
X91100800Y-107070000D02*
X93370400Y-104800400D01*
X93345000Y-104775000D02*
X93345000Y-102235000D01*
X87070000Y-107070000D02*
X91100800Y-107070000D01*
X86045000Y-106045000D02*
X87070000Y-107070000D01*
%TO.N,Net-(J3-Pin_1)*%
X87945000Y-103535000D02*
X87945000Y-99400400D01*
X87945000Y-99400400D02*
X86995000Y-98450400D01*
%TO.N,Net-(U1-FB)*%
X81700000Y-104560000D02*
X80645000Y-103505000D01*
X86460000Y-104560000D02*
X83820000Y-104560000D01*
X87945000Y-106045000D02*
X86460000Y-104560000D01*
%TO.N,Net-(U1-SW)*%
X76610700Y-92089300D02*
X74720000Y-93980000D01*
X85764700Y-92089300D02*
X76610700Y-92089300D01*
X86995000Y-93319600D02*
X85764700Y-92089300D01*
%TO.N,/OUT_P*%
X79260000Y-93980000D02*
X82470000Y-97190000D01*
X82470000Y-97190000D02*
X82470000Y-103505000D01*
X78950000Y-93980000D02*
X79260000Y-93980000D01*
%TO.N,Net-(U1-SW)*%
X75770000Y-95030000D02*
X74720000Y-93980000D01*
X81584800Y-96977200D02*
X79637600Y-95030000D01*
X81584800Y-98095401D02*
X81584800Y-96977200D01*
X77978000Y-100990400D02*
X78689801Y-100990400D01*
X76895300Y-97474999D02*
X77944700Y-98524399D01*
X77944700Y-98524399D02*
X77944700Y-100957100D01*
X77944700Y-100957100D02*
X77978000Y-100990400D01*
X79637600Y-95030000D02*
X75770000Y-95030000D01*
X78689801Y-100990400D02*
X81584800Y-98095401D01*
X76104750Y-97474999D02*
X76895300Y-97474999D01*
%TO.N,Net-(U1-FB)*%
X76280000Y-99550251D02*
X76104750Y-99375001D01*
X76280000Y-103505000D02*
X76280000Y-99550251D01*
%TO.N,Net-(Q1-D)*%
X80111600Y-98098651D02*
X78835250Y-99375001D01*
X70104000Y-97078800D02*
X70916800Y-96266000D01*
X70104000Y-100888800D02*
X70104000Y-97078800D01*
X80111600Y-96266000D02*
X80111600Y-98098651D01*
X71477500Y-102262300D02*
X70104000Y-100888800D01*
X70916800Y-96266000D02*
X80111600Y-96266000D01*
X71477500Y-103505000D02*
X71477500Y-102262300D01*
%TO.N,/SOLAR_P*%
X62890400Y-107594400D02*
X61620400Y-106324400D01*
X69928100Y-107594400D02*
X62890400Y-107594400D01*
X71477500Y-106045000D02*
X69928100Y-107594400D01*
X64119800Y-103825000D02*
X61620400Y-106324400D01*
X64990000Y-103825000D02*
X64119800Y-103825000D01*
%TO.N,Net-(Q1-D)*%
X70207500Y-104775000D02*
X71477500Y-103505000D01*
X67090000Y-104775000D02*
X70207500Y-104775000D01*
%TO.N,/BAT_P*%
X64125000Y-100340000D02*
X64125000Y-98425000D01*
X60325000Y-104140000D02*
X64125000Y-100340000D01*
%TD*%
M02*
