%TF.GenerationSoftware,KiCad,Pcbnew,8.0.6*%
%TF.CreationDate,2025-06-18T20:25:26+05:30*%
%TF.ProjectId,Tiny Solar Suppy,54696e79-2053-46f6-9c61-722053757070,rev?*%
%TF.SameCoordinates,Original*%
%TF.FileFunction,Legend,Bot*%
%TF.FilePolarity,Positive*%
%FSLAX46Y46*%
G04 Gerber Fmt 4.6, Leading zero omitted, Abs format (unit mm)*
G04 Created by KiCad (PCBNEW 8.0.6) date 2025-06-18 20:25:26*
%MOMM*%
%LPD*%
G01*
G04 APERTURE LIST*
%ADD10C,0.100000*%
%ADD11C,0.010000*%
%ADD12R,1.600000X1.600000*%
%ADD13O,1.600000X1.600000*%
%ADD14R,1.700000X1.700000*%
%ADD15O,1.700000X1.700000*%
G04 APERTURE END LIST*
D10*
X89858020Y-92608940D02*
X89591353Y-93408940D01*
X89591353Y-93408940D02*
X89324687Y-92608940D01*
X88753258Y-93370845D02*
X88829449Y-93408940D01*
X88829449Y-93408940D02*
X88981830Y-93408940D01*
X88981830Y-93408940D02*
X89058020Y-93370845D01*
X89058020Y-93370845D02*
X89096116Y-93294654D01*
X89096116Y-93294654D02*
X89096116Y-92989892D01*
X89096116Y-92989892D02*
X89058020Y-92913702D01*
X89058020Y-92913702D02*
X88981830Y-92875606D01*
X88981830Y-92875606D02*
X88829449Y-92875606D01*
X88829449Y-92875606D02*
X88753258Y-92913702D01*
X88753258Y-92913702D02*
X88715163Y-92989892D01*
X88715163Y-92989892D02*
X88715163Y-93066083D01*
X88715163Y-93066083D02*
X89096116Y-93142273D01*
X88372306Y-93408940D02*
X88372306Y-92875606D01*
X88372306Y-93027987D02*
X88334211Y-92951797D01*
X88334211Y-92951797D02*
X88296116Y-92913702D01*
X88296116Y-92913702D02*
X88219925Y-92875606D01*
X88219925Y-92875606D02*
X88143735Y-92875606D01*
X87915164Y-93370845D02*
X87838973Y-93408940D01*
X87838973Y-93408940D02*
X87686592Y-93408940D01*
X87686592Y-93408940D02*
X87610402Y-93370845D01*
X87610402Y-93370845D02*
X87572306Y-93294654D01*
X87572306Y-93294654D02*
X87572306Y-93256559D01*
X87572306Y-93256559D02*
X87610402Y-93180368D01*
X87610402Y-93180368D02*
X87686592Y-93142273D01*
X87686592Y-93142273D02*
X87800878Y-93142273D01*
X87800878Y-93142273D02*
X87877068Y-93104178D01*
X87877068Y-93104178D02*
X87915164Y-93027987D01*
X87915164Y-93027987D02*
X87915164Y-92989892D01*
X87915164Y-92989892D02*
X87877068Y-92913702D01*
X87877068Y-92913702D02*
X87800878Y-92875606D01*
X87800878Y-92875606D02*
X87686592Y-92875606D01*
X87686592Y-92875606D02*
X87610402Y-92913702D01*
X87229449Y-93408940D02*
X87229449Y-92875606D01*
X87229449Y-92608940D02*
X87267545Y-92647035D01*
X87267545Y-92647035D02*
X87229449Y-92685130D01*
X87229449Y-92685130D02*
X87191354Y-92647035D01*
X87191354Y-92647035D02*
X87229449Y-92608940D01*
X87229449Y-92608940D02*
X87229449Y-92685130D01*
X86734212Y-93408940D02*
X86810402Y-93370845D01*
X86810402Y-93370845D02*
X86848497Y-93332749D01*
X86848497Y-93332749D02*
X86886593Y-93256559D01*
X86886593Y-93256559D02*
X86886593Y-93027987D01*
X86886593Y-93027987D02*
X86848497Y-92951797D01*
X86848497Y-92951797D02*
X86810402Y-92913702D01*
X86810402Y-92913702D02*
X86734212Y-92875606D01*
X86734212Y-92875606D02*
X86619926Y-92875606D01*
X86619926Y-92875606D02*
X86543735Y-92913702D01*
X86543735Y-92913702D02*
X86505640Y-92951797D01*
X86505640Y-92951797D02*
X86467545Y-93027987D01*
X86467545Y-93027987D02*
X86467545Y-93256559D01*
X86467545Y-93256559D02*
X86505640Y-93332749D01*
X86505640Y-93332749D02*
X86543735Y-93370845D01*
X86543735Y-93370845D02*
X86619926Y-93408940D01*
X86619926Y-93408940D02*
X86734212Y-93408940D01*
X86124687Y-92875606D02*
X86124687Y-93408940D01*
X86124687Y-92951797D02*
X86086592Y-92913702D01*
X86086592Y-92913702D02*
X86010402Y-92875606D01*
X86010402Y-92875606D02*
X85896116Y-92875606D01*
X85896116Y-92875606D02*
X85819925Y-92913702D01*
X85819925Y-92913702D02*
X85781830Y-92989892D01*
X85781830Y-92989892D02*
X85781830Y-93408940D01*
X84372306Y-93408940D02*
X84829449Y-93408940D01*
X84600877Y-93408940D02*
X84600877Y-92608940D01*
X84600877Y-92608940D02*
X84677068Y-92723225D01*
X84677068Y-92723225D02*
X84753258Y-92799416D01*
X84753258Y-92799416D02*
X84829449Y-92837511D01*
X84029448Y-93332749D02*
X83991353Y-93370845D01*
X83991353Y-93370845D02*
X84029448Y-93408940D01*
X84029448Y-93408940D02*
X84067544Y-93370845D01*
X84067544Y-93370845D02*
X84029448Y-93332749D01*
X84029448Y-93332749D02*
X84029448Y-93408940D01*
X83496115Y-92608940D02*
X83419925Y-92608940D01*
X83419925Y-92608940D02*
X83343734Y-92647035D01*
X83343734Y-92647035D02*
X83305639Y-92685130D01*
X83305639Y-92685130D02*
X83267544Y-92761321D01*
X83267544Y-92761321D02*
X83229449Y-92913702D01*
X83229449Y-92913702D02*
X83229449Y-93104178D01*
X83229449Y-93104178D02*
X83267544Y-93256559D01*
X83267544Y-93256559D02*
X83305639Y-93332749D01*
X83305639Y-93332749D02*
X83343734Y-93370845D01*
X83343734Y-93370845D02*
X83419925Y-93408940D01*
X83419925Y-93408940D02*
X83496115Y-93408940D01*
X83496115Y-93408940D02*
X83572306Y-93370845D01*
X83572306Y-93370845D02*
X83610401Y-93332749D01*
X83610401Y-93332749D02*
X83648496Y-93256559D01*
X83648496Y-93256559D02*
X83686592Y-93104178D01*
X83686592Y-93104178D02*
X83686592Y-92913702D01*
X83686592Y-92913702D02*
X83648496Y-92761321D01*
X83648496Y-92761321D02*
X83610401Y-92685130D01*
X83610401Y-92685130D02*
X83572306Y-92647035D01*
X83572306Y-92647035D02*
X83496115Y-92608940D01*
X89858020Y-93896895D02*
X89400877Y-93896895D01*
X89629449Y-94696895D02*
X89629449Y-93896895D01*
X89134210Y-94696895D02*
X89134210Y-94163561D01*
X89134210Y-93896895D02*
X89172306Y-93934990D01*
X89172306Y-93934990D02*
X89134210Y-93973085D01*
X89134210Y-93973085D02*
X89096115Y-93934990D01*
X89096115Y-93934990D02*
X89134210Y-93896895D01*
X89134210Y-93896895D02*
X89134210Y-93973085D01*
X88753258Y-94163561D02*
X88753258Y-94696895D01*
X88753258Y-94239752D02*
X88715163Y-94201657D01*
X88715163Y-94201657D02*
X88638973Y-94163561D01*
X88638973Y-94163561D02*
X88524687Y-94163561D01*
X88524687Y-94163561D02*
X88448496Y-94201657D01*
X88448496Y-94201657D02*
X88410401Y-94277847D01*
X88410401Y-94277847D02*
X88410401Y-94696895D01*
X88105639Y-94163561D02*
X87915163Y-94696895D01*
X87724686Y-94163561D02*
X87915163Y-94696895D01*
X87915163Y-94696895D02*
X87991353Y-94887371D01*
X87991353Y-94887371D02*
X88029448Y-94925466D01*
X88029448Y-94925466D02*
X88105639Y-94963561D01*
X86848496Y-94658800D02*
X86734210Y-94696895D01*
X86734210Y-94696895D02*
X86543734Y-94696895D01*
X86543734Y-94696895D02*
X86467543Y-94658800D01*
X86467543Y-94658800D02*
X86429448Y-94620704D01*
X86429448Y-94620704D02*
X86391353Y-94544514D01*
X86391353Y-94544514D02*
X86391353Y-94468323D01*
X86391353Y-94468323D02*
X86429448Y-94392133D01*
X86429448Y-94392133D02*
X86467543Y-94354038D01*
X86467543Y-94354038D02*
X86543734Y-94315942D01*
X86543734Y-94315942D02*
X86696115Y-94277847D01*
X86696115Y-94277847D02*
X86772305Y-94239752D01*
X86772305Y-94239752D02*
X86810400Y-94201657D01*
X86810400Y-94201657D02*
X86848496Y-94125466D01*
X86848496Y-94125466D02*
X86848496Y-94049276D01*
X86848496Y-94049276D02*
X86810400Y-93973085D01*
X86810400Y-93973085D02*
X86772305Y-93934990D01*
X86772305Y-93934990D02*
X86696115Y-93896895D01*
X86696115Y-93896895D02*
X86505638Y-93896895D01*
X86505638Y-93896895D02*
X86391353Y-93934990D01*
X85934210Y-94696895D02*
X86010400Y-94658800D01*
X86010400Y-94658800D02*
X86048495Y-94620704D01*
X86048495Y-94620704D02*
X86086591Y-94544514D01*
X86086591Y-94544514D02*
X86086591Y-94315942D01*
X86086591Y-94315942D02*
X86048495Y-94239752D01*
X86048495Y-94239752D02*
X86010400Y-94201657D01*
X86010400Y-94201657D02*
X85934210Y-94163561D01*
X85934210Y-94163561D02*
X85819924Y-94163561D01*
X85819924Y-94163561D02*
X85743733Y-94201657D01*
X85743733Y-94201657D02*
X85705638Y-94239752D01*
X85705638Y-94239752D02*
X85667543Y-94315942D01*
X85667543Y-94315942D02*
X85667543Y-94544514D01*
X85667543Y-94544514D02*
X85705638Y-94620704D01*
X85705638Y-94620704D02*
X85743733Y-94658800D01*
X85743733Y-94658800D02*
X85819924Y-94696895D01*
X85819924Y-94696895D02*
X85934210Y-94696895D01*
X85210400Y-94696895D02*
X85286590Y-94658800D01*
X85286590Y-94658800D02*
X85324685Y-94582609D01*
X85324685Y-94582609D02*
X85324685Y-93896895D01*
X84562780Y-94696895D02*
X84562780Y-94277847D01*
X84562780Y-94277847D02*
X84600875Y-94201657D01*
X84600875Y-94201657D02*
X84677066Y-94163561D01*
X84677066Y-94163561D02*
X84829447Y-94163561D01*
X84829447Y-94163561D02*
X84905637Y-94201657D01*
X84562780Y-94658800D02*
X84638971Y-94696895D01*
X84638971Y-94696895D02*
X84829447Y-94696895D01*
X84829447Y-94696895D02*
X84905637Y-94658800D01*
X84905637Y-94658800D02*
X84943733Y-94582609D01*
X84943733Y-94582609D02*
X84943733Y-94506419D01*
X84943733Y-94506419D02*
X84905637Y-94430228D01*
X84905637Y-94430228D02*
X84829447Y-94392133D01*
X84829447Y-94392133D02*
X84638971Y-94392133D01*
X84638971Y-94392133D02*
X84562780Y-94354038D01*
X84181827Y-94696895D02*
X84181827Y-94163561D01*
X84181827Y-94315942D02*
X84143732Y-94239752D01*
X84143732Y-94239752D02*
X84105637Y-94201657D01*
X84105637Y-94201657D02*
X84029446Y-94163561D01*
X84029446Y-94163561D02*
X83953256Y-94163561D01*
X83077065Y-94696895D02*
X83077065Y-93896895D01*
X83077065Y-93896895D02*
X82772303Y-93896895D01*
X82772303Y-93896895D02*
X82696113Y-93934990D01*
X82696113Y-93934990D02*
X82658018Y-93973085D01*
X82658018Y-93973085D02*
X82619922Y-94049276D01*
X82619922Y-94049276D02*
X82619922Y-94163561D01*
X82619922Y-94163561D02*
X82658018Y-94239752D01*
X82658018Y-94239752D02*
X82696113Y-94277847D01*
X82696113Y-94277847D02*
X82772303Y-94315942D01*
X82772303Y-94315942D02*
X83077065Y-94315942D01*
X82162780Y-94696895D02*
X82238970Y-94658800D01*
X82238970Y-94658800D02*
X82277065Y-94620704D01*
X82277065Y-94620704D02*
X82315161Y-94544514D01*
X82315161Y-94544514D02*
X82315161Y-94315942D01*
X82315161Y-94315942D02*
X82277065Y-94239752D01*
X82277065Y-94239752D02*
X82238970Y-94201657D01*
X82238970Y-94201657D02*
X82162780Y-94163561D01*
X82162780Y-94163561D02*
X82048494Y-94163561D01*
X82048494Y-94163561D02*
X81972303Y-94201657D01*
X81972303Y-94201657D02*
X81934208Y-94239752D01*
X81934208Y-94239752D02*
X81896113Y-94315942D01*
X81896113Y-94315942D02*
X81896113Y-94544514D01*
X81896113Y-94544514D02*
X81934208Y-94620704D01*
X81934208Y-94620704D02*
X81972303Y-94658800D01*
X81972303Y-94658800D02*
X82048494Y-94696895D01*
X82048494Y-94696895D02*
X82162780Y-94696895D01*
X81629446Y-94163561D02*
X81477065Y-94696895D01*
X81477065Y-94696895D02*
X81324684Y-94315942D01*
X81324684Y-94315942D02*
X81172303Y-94696895D01*
X81172303Y-94696895D02*
X81019922Y-94163561D01*
X80410398Y-94658800D02*
X80486589Y-94696895D01*
X80486589Y-94696895D02*
X80638970Y-94696895D01*
X80638970Y-94696895D02*
X80715160Y-94658800D01*
X80715160Y-94658800D02*
X80753256Y-94582609D01*
X80753256Y-94582609D02*
X80753256Y-94277847D01*
X80753256Y-94277847D02*
X80715160Y-94201657D01*
X80715160Y-94201657D02*
X80638970Y-94163561D01*
X80638970Y-94163561D02*
X80486589Y-94163561D01*
X80486589Y-94163561D02*
X80410398Y-94201657D01*
X80410398Y-94201657D02*
X80372303Y-94277847D01*
X80372303Y-94277847D02*
X80372303Y-94354038D01*
X80372303Y-94354038D02*
X80753256Y-94430228D01*
X80029446Y-94696895D02*
X80029446Y-94163561D01*
X80029446Y-94315942D02*
X79991351Y-94239752D01*
X79991351Y-94239752D02*
X79953256Y-94201657D01*
X79953256Y-94201657D02*
X79877065Y-94163561D01*
X79877065Y-94163561D02*
X79800875Y-94163561D01*
X78962780Y-94658800D02*
X78848494Y-94696895D01*
X78848494Y-94696895D02*
X78658018Y-94696895D01*
X78658018Y-94696895D02*
X78581827Y-94658800D01*
X78581827Y-94658800D02*
X78543732Y-94620704D01*
X78543732Y-94620704D02*
X78505637Y-94544514D01*
X78505637Y-94544514D02*
X78505637Y-94468323D01*
X78505637Y-94468323D02*
X78543732Y-94392133D01*
X78543732Y-94392133D02*
X78581827Y-94354038D01*
X78581827Y-94354038D02*
X78658018Y-94315942D01*
X78658018Y-94315942D02*
X78810399Y-94277847D01*
X78810399Y-94277847D02*
X78886589Y-94239752D01*
X78886589Y-94239752D02*
X78924684Y-94201657D01*
X78924684Y-94201657D02*
X78962780Y-94125466D01*
X78962780Y-94125466D02*
X78962780Y-94049276D01*
X78962780Y-94049276D02*
X78924684Y-93973085D01*
X78924684Y-93973085D02*
X78886589Y-93934990D01*
X78886589Y-93934990D02*
X78810399Y-93896895D01*
X78810399Y-93896895D02*
X78619922Y-93896895D01*
X78619922Y-93896895D02*
X78505637Y-93934990D01*
X77819922Y-94163561D02*
X77819922Y-94696895D01*
X78162779Y-94163561D02*
X78162779Y-94582609D01*
X78162779Y-94582609D02*
X78124684Y-94658800D01*
X78124684Y-94658800D02*
X78048494Y-94696895D01*
X78048494Y-94696895D02*
X77934208Y-94696895D01*
X77934208Y-94696895D02*
X77858017Y-94658800D01*
X77858017Y-94658800D02*
X77819922Y-94620704D01*
X77438969Y-94163561D02*
X77438969Y-94963561D01*
X77438969Y-94201657D02*
X77362779Y-94163561D01*
X77362779Y-94163561D02*
X77210398Y-94163561D01*
X77210398Y-94163561D02*
X77134207Y-94201657D01*
X77134207Y-94201657D02*
X77096112Y-94239752D01*
X77096112Y-94239752D02*
X77058017Y-94315942D01*
X77058017Y-94315942D02*
X77058017Y-94544514D01*
X77058017Y-94544514D02*
X77096112Y-94620704D01*
X77096112Y-94620704D02*
X77134207Y-94658800D01*
X77134207Y-94658800D02*
X77210398Y-94696895D01*
X77210398Y-94696895D02*
X77362779Y-94696895D01*
X77362779Y-94696895D02*
X77438969Y-94658800D01*
X76715159Y-94163561D02*
X76715159Y-94963561D01*
X76715159Y-94201657D02*
X76638969Y-94163561D01*
X76638969Y-94163561D02*
X76486588Y-94163561D01*
X76486588Y-94163561D02*
X76410397Y-94201657D01*
X76410397Y-94201657D02*
X76372302Y-94239752D01*
X76372302Y-94239752D02*
X76334207Y-94315942D01*
X76334207Y-94315942D02*
X76334207Y-94544514D01*
X76334207Y-94544514D02*
X76372302Y-94620704D01*
X76372302Y-94620704D02*
X76410397Y-94658800D01*
X76410397Y-94658800D02*
X76486588Y-94696895D01*
X76486588Y-94696895D02*
X76638969Y-94696895D01*
X76638969Y-94696895D02*
X76715159Y-94658800D01*
X75877064Y-94696895D02*
X75953254Y-94658800D01*
X75953254Y-94658800D02*
X75991349Y-94582609D01*
X75991349Y-94582609D02*
X75991349Y-93896895D01*
X75648492Y-94163561D02*
X75458016Y-94696895D01*
X75267539Y-94163561D02*
X75458016Y-94696895D01*
X75458016Y-94696895D02*
X75534206Y-94887371D01*
X75534206Y-94887371D02*
X75572301Y-94925466D01*
X75572301Y-94925466D02*
X75648492Y-94963561D01*
D11*
%TO.C,REF\u002A\u002A*%
X89092128Y-107498945D02*
X89122954Y-107508568D01*
X89160916Y-107524563D01*
X89179296Y-107533159D01*
X89192561Y-107534713D01*
X89195495Y-107522798D01*
X89195498Y-107522461D01*
X89201709Y-107511087D01*
X89223131Y-107505256D01*
X89264653Y-107503614D01*
X89333812Y-107503614D01*
X89333812Y-108107179D01*
X89195495Y-108107179D01*
X89195495Y-107691027D01*
X89161110Y-107659161D01*
X89150368Y-107650104D01*
X89118370Y-107634630D01*
X89078965Y-107634010D01*
X89025312Y-107647664D01*
X89007225Y-107648529D01*
X88986008Y-107635283D01*
X88957768Y-107603800D01*
X88944069Y-107586385D01*
X88927868Y-107561797D01*
X88925371Y-107546145D01*
X88934442Y-107532941D01*
X88962289Y-107516245D01*
X89005540Y-107503030D01*
X89052464Y-107496478D01*
X89092128Y-107498945D01*
G36*
X89092128Y-107498945D02*
G01*
X89122954Y-107508568D01*
X89160916Y-107524563D01*
X89179296Y-107533159D01*
X89192561Y-107534713D01*
X89195495Y-107522798D01*
X89195498Y-107522461D01*
X89201709Y-107511087D01*
X89223131Y-107505256D01*
X89264653Y-107503614D01*
X89333812Y-107503614D01*
X89333812Y-108107179D01*
X89195495Y-108107179D01*
X89195495Y-107691027D01*
X89161110Y-107659161D01*
X89150368Y-107650104D01*
X89118370Y-107634630D01*
X89078965Y-107634010D01*
X89025312Y-107647664D01*
X89007225Y-107648529D01*
X88986008Y-107635283D01*
X88957768Y-107603800D01*
X88944069Y-107586385D01*
X88927868Y-107561797D01*
X88925371Y-107546145D01*
X88934442Y-107532941D01*
X88962289Y-107516245D01*
X89005540Y-107503030D01*
X89052464Y-107496478D01*
X89092128Y-107498945D01*
G37*
X89275265Y-108454965D02*
X89313255Y-108472745D01*
X89346386Y-108498806D01*
X89346386Y-108472745D01*
X89347211Y-108462849D01*
X89354893Y-108452358D01*
X89375667Y-108447725D01*
X89415544Y-108446683D01*
X89484703Y-108446683D01*
X89484703Y-109062822D01*
X89346386Y-109062822D01*
X89346386Y-108862226D01*
X89346369Y-108850710D01*
X89345189Y-108769758D01*
X89342294Y-108703817D01*
X89337888Y-108656258D01*
X89332181Y-108630452D01*
X89326940Y-108620710D01*
X89294676Y-108590156D01*
X89250730Y-108576631D01*
X89202743Y-108582941D01*
X89190973Y-108587217D01*
X89165898Y-108594776D01*
X89148762Y-108592428D01*
X89131518Y-108577064D01*
X89106124Y-108545571D01*
X89064936Y-108493568D01*
X89093886Y-108470125D01*
X89121405Y-108456015D01*
X89169745Y-108446486D01*
X89224230Y-108446174D01*
X89275265Y-108454965D01*
G36*
X89275265Y-108454965D02*
G01*
X89313255Y-108472745D01*
X89346386Y-108498806D01*
X89346386Y-108472745D01*
X89347211Y-108462849D01*
X89354893Y-108452358D01*
X89375667Y-108447725D01*
X89415544Y-108446683D01*
X89484703Y-108446683D01*
X89484703Y-109062822D01*
X89346386Y-109062822D01*
X89346386Y-108862226D01*
X89346369Y-108850710D01*
X89345189Y-108769758D01*
X89342294Y-108703817D01*
X89337888Y-108656258D01*
X89332181Y-108630452D01*
X89326940Y-108620710D01*
X89294676Y-108590156D01*
X89250730Y-108576631D01*
X89202743Y-108582941D01*
X89190973Y-108587217D01*
X89165898Y-108594776D01*
X89148762Y-108592428D01*
X89131518Y-108577064D01*
X89106124Y-108545571D01*
X89064936Y-108493568D01*
X89093886Y-108470125D01*
X89121405Y-108456015D01*
X89169745Y-108446486D01*
X89224230Y-108446174D01*
X89275265Y-108454965D01*
G37*
X91898960Y-109062822D02*
X91773218Y-109062822D01*
X91773218Y-108868740D01*
X91773078Y-108823594D01*
X91771649Y-108748823D01*
X91768029Y-108693467D01*
X91761434Y-108653702D01*
X91751079Y-108625700D01*
X91736178Y-108605635D01*
X91715946Y-108589681D01*
X91693859Y-108577792D01*
X91667705Y-108574421D01*
X91630508Y-108581917D01*
X91618555Y-108585038D01*
X91588718Y-108589735D01*
X91567383Y-108583005D01*
X91542655Y-108562177D01*
X91537963Y-108557647D01*
X91512020Y-108529626D01*
X91495291Y-108506843D01*
X91492996Y-108501355D01*
X91497543Y-108481088D01*
X91520602Y-108464884D01*
X91556995Y-108453513D01*
X91601544Y-108447740D01*
X91649072Y-108448334D01*
X91694400Y-108456063D01*
X91732351Y-108471694D01*
X91744381Y-108478993D01*
X91764632Y-108489676D01*
X91772129Y-108487230D01*
X91773218Y-108471647D01*
X91773473Y-108466053D01*
X91779539Y-108453660D01*
X91798356Y-108448020D01*
X91836089Y-108446683D01*
X91898960Y-108446683D01*
X91898960Y-109062822D01*
G36*
X91898960Y-109062822D02*
G01*
X91773218Y-109062822D01*
X91773218Y-108868740D01*
X91773078Y-108823594D01*
X91771649Y-108748823D01*
X91768029Y-108693467D01*
X91761434Y-108653702D01*
X91751079Y-108625700D01*
X91736178Y-108605635D01*
X91715946Y-108589681D01*
X91693859Y-108577792D01*
X91667705Y-108574421D01*
X91630508Y-108581917D01*
X91618555Y-108585038D01*
X91588718Y-108589735D01*
X91567383Y-108583005D01*
X91542655Y-108562177D01*
X91537963Y-108557647D01*
X91512020Y-108529626D01*
X91495291Y-108506843D01*
X91492996Y-108501355D01*
X91497543Y-108481088D01*
X91520602Y-108464884D01*
X91556995Y-108453513D01*
X91601544Y-108447740D01*
X91649072Y-108448334D01*
X91694400Y-108456063D01*
X91732351Y-108471694D01*
X91744381Y-108478993D01*
X91764632Y-108489676D01*
X91772129Y-108487230D01*
X91773218Y-108471647D01*
X91773473Y-108466053D01*
X91779539Y-108453660D01*
X91798356Y-108448020D01*
X91836089Y-108446683D01*
X91898960Y-108446683D01*
X91898960Y-109062822D01*
G37*
X89585297Y-107699342D02*
X89586357Y-107787394D01*
X89590509Y-107858510D01*
X89598921Y-107910199D01*
X89612757Y-107945360D01*
X89633182Y-107966889D01*
X89661364Y-107977682D01*
X89698465Y-107980636D01*
X89733890Y-107978000D01*
X89762500Y-107967679D01*
X89783296Y-107946772D01*
X89797442Y-107912381D01*
X89806103Y-107861610D01*
X89810445Y-107791563D01*
X89811633Y-107699342D01*
X89811633Y-107503614D01*
X89937376Y-107503614D01*
X89937376Y-107739578D01*
X89937160Y-107802561D01*
X89935484Y-107884007D01*
X89931277Y-107946121D01*
X89923521Y-107992458D01*
X89911196Y-108026573D01*
X89893285Y-108052022D01*
X89868767Y-108072362D01*
X89836623Y-108091147D01*
X89769125Y-108114928D01*
X89698681Y-108116480D01*
X89632264Y-108094580D01*
X89603286Y-108080383D01*
X89588909Y-108078261D01*
X89585297Y-108088293D01*
X89579299Y-108099556D01*
X89557830Y-108105489D01*
X89516138Y-108107179D01*
X89446980Y-108107179D01*
X89446980Y-107503614D01*
X89585297Y-107503614D01*
X89585297Y-107699342D01*
G36*
X89585297Y-107699342D02*
G01*
X89586357Y-107787394D01*
X89590509Y-107858510D01*
X89598921Y-107910199D01*
X89612757Y-107945360D01*
X89633182Y-107966889D01*
X89661364Y-107977682D01*
X89698465Y-107980636D01*
X89733890Y-107978000D01*
X89762500Y-107967679D01*
X89783296Y-107946772D01*
X89797442Y-107912381D01*
X89806103Y-107861610D01*
X89810445Y-107791563D01*
X89811633Y-107699342D01*
X89811633Y-107503614D01*
X89937376Y-107503614D01*
X89937376Y-107739578D01*
X89937160Y-107802561D01*
X89935484Y-107884007D01*
X89931277Y-107946121D01*
X89923521Y-107992458D01*
X89911196Y-108026573D01*
X89893285Y-108052022D01*
X89868767Y-108072362D01*
X89836623Y-108091147D01*
X89769125Y-108114928D01*
X89698681Y-108116480D01*
X89632264Y-108094580D01*
X89603286Y-108080383D01*
X89588909Y-108078261D01*
X89585297Y-108088293D01*
X89579299Y-108099556D01*
X89557830Y-108105489D01*
X89516138Y-108107179D01*
X89446980Y-108107179D01*
X89446980Y-107503614D01*
X89585297Y-107503614D01*
X89585297Y-107699342D01*
G37*
X91687605Y-107502424D02*
X91744926Y-107520434D01*
X91770199Y-107532674D01*
X91782910Y-107533938D01*
X91785792Y-107522798D01*
X91785795Y-107522461D01*
X91792006Y-107511087D01*
X91813428Y-107505256D01*
X91854950Y-107503614D01*
X91924109Y-107503614D01*
X91924109Y-108107179D01*
X91785792Y-108107179D01*
X91785792Y-107899132D01*
X91785697Y-107828879D01*
X91785051Y-107771170D01*
X91783320Y-107730787D01*
X91779974Y-107703615D01*
X91774481Y-107685540D01*
X91766310Y-107672447D01*
X91754928Y-107660221D01*
X91739424Y-107647217D01*
X91694843Y-107629745D01*
X91648047Y-107634873D01*
X91605180Y-107662507D01*
X91592927Y-107675368D01*
X91584132Y-107688384D01*
X91578233Y-107705706D01*
X91574651Y-107731501D01*
X91572809Y-107769939D01*
X91572128Y-107825189D01*
X91572030Y-107901418D01*
X91572030Y-108107179D01*
X91433713Y-108107179D01*
X91433989Y-107883985D01*
X91434008Y-107874044D01*
X91435207Y-107779106D01*
X91438891Y-107705358D01*
X91446006Y-107649214D01*
X91457500Y-107607087D01*
X91474318Y-107575391D01*
X91497409Y-107550541D01*
X91527717Y-107528950D01*
X91559012Y-107514002D01*
X91622037Y-107500421D01*
X91687605Y-107502424D01*
G36*
X91687605Y-107502424D02*
G01*
X91744926Y-107520434D01*
X91770199Y-107532674D01*
X91782910Y-107533938D01*
X91785792Y-107522798D01*
X91785795Y-107522461D01*
X91792006Y-107511087D01*
X91813428Y-107505256D01*
X91854950Y-107503614D01*
X91924109Y-107503614D01*
X91924109Y-108107179D01*
X91785792Y-108107179D01*
X91785792Y-107899132D01*
X91785697Y-107828879D01*
X91785051Y-107771170D01*
X91783320Y-107730787D01*
X91779974Y-107703615D01*
X91774481Y-107685540D01*
X91766310Y-107672447D01*
X91754928Y-107660221D01*
X91739424Y-107647217D01*
X91694843Y-107629745D01*
X91648047Y-107634873D01*
X91605180Y-107662507D01*
X91592927Y-107675368D01*
X91584132Y-107688384D01*
X91578233Y-107705706D01*
X91574651Y-107731501D01*
X91572809Y-107769939D01*
X91572128Y-107825189D01*
X91572030Y-107901418D01*
X91572030Y-108107179D01*
X91433713Y-108107179D01*
X91433989Y-107883985D01*
X91434008Y-107874044D01*
X91435207Y-107779106D01*
X91438891Y-107705358D01*
X91446006Y-107649214D01*
X91457500Y-107607087D01*
X91474318Y-107575391D01*
X91497409Y-107550541D01*
X91527717Y-107528950D01*
X91559012Y-107514002D01*
X91622037Y-107500421D01*
X91687605Y-107502424D01*
G37*
X88738409Y-107506493D02*
X88807021Y-107533224D01*
X88865048Y-107577351D01*
X88907907Y-107637958D01*
X88910801Y-107644137D01*
X88929176Y-107704409D01*
X88938357Y-107776407D01*
X88938285Y-107851369D01*
X88928901Y-107920536D01*
X88910149Y-107975149D01*
X88886995Y-108013212D01*
X88836030Y-108067135D01*
X88772306Y-108101411D01*
X88717785Y-108115272D01*
X88634767Y-108116785D01*
X88555326Y-108095882D01*
X88484879Y-108053464D01*
X88439284Y-108015880D01*
X88480351Y-107973510D01*
X88506296Y-107948409D01*
X88529764Y-107934434D01*
X88551524Y-107937511D01*
X88579356Y-107956287D01*
X88590454Y-107963638D01*
X88637337Y-107978683D01*
X88691224Y-107978673D01*
X88741675Y-107963168D01*
X88760672Y-107950716D01*
X88788537Y-107913946D01*
X88802506Y-107859939D01*
X88803405Y-107786331D01*
X88803403Y-107786289D01*
X88793009Y-107720433D01*
X88770114Y-107674772D01*
X88732439Y-107646528D01*
X88677708Y-107632920D01*
X88643241Y-107631090D01*
X88613126Y-107638584D01*
X88582240Y-107660295D01*
X88542272Y-107693926D01*
X88491656Y-107653250D01*
X88473163Y-107637667D01*
X88450065Y-107615340D01*
X88441039Y-107602183D01*
X88444236Y-107596253D01*
X88462646Y-107578048D01*
X88491973Y-107554895D01*
X88514920Y-107539830D01*
X88587774Y-107508880D01*
X88663799Y-107498073D01*
X88738409Y-107506493D01*
G36*
X88738409Y-107506493D02*
G01*
X88807021Y-107533224D01*
X88865048Y-107577351D01*
X88907907Y-107637958D01*
X88910801Y-107644137D01*
X88929176Y-107704409D01*
X88938357Y-107776407D01*
X88938285Y-107851369D01*
X88928901Y-107920536D01*
X88910149Y-107975149D01*
X88886995Y-108013212D01*
X88836030Y-108067135D01*
X88772306Y-108101411D01*
X88717785Y-108115272D01*
X88634767Y-108116785D01*
X88555326Y-108095882D01*
X88484879Y-108053464D01*
X88439284Y-108015880D01*
X88480351Y-107973510D01*
X88506296Y-107948409D01*
X88529764Y-107934434D01*
X88551524Y-107937511D01*
X88579356Y-107956287D01*
X88590454Y-107963638D01*
X88637337Y-107978683D01*
X88691224Y-107978673D01*
X88741675Y-107963168D01*
X88760672Y-107950716D01*
X88788537Y-107913946D01*
X88802506Y-107859939D01*
X88803405Y-107786331D01*
X88803403Y-107786289D01*
X88793009Y-107720433D01*
X88770114Y-107674772D01*
X88732439Y-107646528D01*
X88677708Y-107632920D01*
X88643241Y-107631090D01*
X88613126Y-107638584D01*
X88582240Y-107660295D01*
X88542272Y-107693926D01*
X88491656Y-107653250D01*
X88473163Y-107637667D01*
X88450065Y-107615340D01*
X88441039Y-107602183D01*
X88444236Y-107596253D01*
X88462646Y-107578048D01*
X88491973Y-107554895D01*
X88514920Y-107539830D01*
X88587774Y-107508880D01*
X88663799Y-107498073D01*
X88738409Y-107506493D01*
G37*
X90537857Y-107848771D02*
X90534349Y-107888565D01*
X90518844Y-107964538D01*
X90491110Y-108022511D01*
X90448898Y-108066300D01*
X90389960Y-108099722D01*
X90367076Y-108107676D01*
X90307812Y-108117601D01*
X90245447Y-108117331D01*
X90192823Y-108106430D01*
X90191789Y-108106034D01*
X90149381Y-108081087D01*
X90106537Y-108042468D01*
X90070986Y-107998306D01*
X90050459Y-107956727D01*
X90044374Y-107926334D01*
X90039164Y-107869429D01*
X90038291Y-107818705D01*
X90164976Y-107818705D01*
X90172549Y-107879545D01*
X90190341Y-107929538D01*
X90217296Y-107962204D01*
X90227513Y-107967812D01*
X90266473Y-107978007D01*
X90311536Y-107980104D01*
X90349448Y-107973020D01*
X90364244Y-107962861D01*
X90385014Y-107927334D01*
X90398083Y-107871732D01*
X90402624Y-107798766D01*
X90402551Y-107777762D01*
X90400974Y-107735203D01*
X90395728Y-107707439D01*
X90384723Y-107686925D01*
X90365868Y-107666112D01*
X90329989Y-107640887D01*
X90283280Y-107630573D01*
X90238151Y-107640396D01*
X90200680Y-107668805D01*
X90176943Y-107714253D01*
X90168675Y-107753497D01*
X90164976Y-107818705D01*
X90038291Y-107818705D01*
X90038049Y-107804621D01*
X90040844Y-107740116D01*
X90047366Y-107684121D01*
X90057432Y-107644842D01*
X90080877Y-107600372D01*
X90130637Y-107545692D01*
X90194238Y-107511055D01*
X90269790Y-107497345D01*
X90355399Y-107505448D01*
X90369644Y-107508899D01*
X90435982Y-107538664D01*
X90485971Y-107587530D01*
X90519612Y-107655501D01*
X90536906Y-107742580D01*
X90537410Y-107798766D01*
X90537857Y-107848771D01*
G36*
X90537857Y-107848771D02*
G01*
X90534349Y-107888565D01*
X90518844Y-107964538D01*
X90491110Y-108022511D01*
X90448898Y-108066300D01*
X90389960Y-108099722D01*
X90367076Y-108107676D01*
X90307812Y-108117601D01*
X90245447Y-108117331D01*
X90192823Y-108106430D01*
X90191789Y-108106034D01*
X90149381Y-108081087D01*
X90106537Y-108042468D01*
X90070986Y-107998306D01*
X90050459Y-107956727D01*
X90044374Y-107926334D01*
X90039164Y-107869429D01*
X90038291Y-107818705D01*
X90164976Y-107818705D01*
X90172549Y-107879545D01*
X90190341Y-107929538D01*
X90217296Y-107962204D01*
X90227513Y-107967812D01*
X90266473Y-107978007D01*
X90311536Y-107980104D01*
X90349448Y-107973020D01*
X90364244Y-107962861D01*
X90385014Y-107927334D01*
X90398083Y-107871732D01*
X90402624Y-107798766D01*
X90402551Y-107777762D01*
X90400974Y-107735203D01*
X90395728Y-107707439D01*
X90384723Y-107686925D01*
X90365868Y-107666112D01*
X90329989Y-107640887D01*
X90283280Y-107630573D01*
X90238151Y-107640396D01*
X90200680Y-107668805D01*
X90176943Y-107714253D01*
X90168675Y-107753497D01*
X90164976Y-107818705D01*
X90038291Y-107818705D01*
X90038049Y-107804621D01*
X90040844Y-107740116D01*
X90047366Y-107684121D01*
X90057432Y-107644842D01*
X90080877Y-107600372D01*
X90130637Y-107545692D01*
X90194238Y-107511055D01*
X90269790Y-107497345D01*
X90355399Y-107505448D01*
X90369644Y-107508899D01*
X90435982Y-107538664D01*
X90485971Y-107587530D01*
X90519612Y-107655501D01*
X90536906Y-107742580D01*
X90537410Y-107798766D01*
X90537857Y-107848771D01*
G37*
X90637997Y-108644130D02*
X90654997Y-108694850D01*
X90675107Y-108750997D01*
X90691899Y-108793532D01*
X90703986Y-108818990D01*
X90709980Y-108823903D01*
X90711426Y-108819630D01*
X90719254Y-108793422D01*
X90731723Y-108749649D01*
X90747447Y-108693211D01*
X90765043Y-108629010D01*
X90812914Y-108452971D01*
X90886007Y-108449152D01*
X90892177Y-108448846D01*
X90931592Y-108448441D01*
X90950533Y-108452487D01*
X90952945Y-108461726D01*
X90949898Y-108470749D01*
X90939874Y-108501632D01*
X90924180Y-108550544D01*
X90903934Y-108613987D01*
X90880256Y-108688462D01*
X90854263Y-108770471D01*
X90761736Y-109062822D01*
X90645993Y-109062822D01*
X90591457Y-108877352D01*
X90581386Y-108843294D01*
X90562775Y-108781378D01*
X90546872Y-108729787D01*
X90535109Y-108693130D01*
X90528918Y-108676018D01*
X90527154Y-108674741D01*
X90518571Y-108685779D01*
X90506316Y-108714969D01*
X90492426Y-108757750D01*
X90491692Y-108760263D01*
X90473096Y-108823400D01*
X90451818Y-108894889D01*
X90432321Y-108959734D01*
X90400705Y-109064122D01*
X90342402Y-109060328D01*
X90284098Y-109056535D01*
X90230098Y-108886782D01*
X90206390Y-108812193D01*
X90179833Y-108728539D01*
X90154404Y-108648342D01*
X90133354Y-108581857D01*
X90090609Y-108446683D01*
X90233612Y-108446683D01*
X90268274Y-108575570D01*
X90277488Y-108609625D01*
X90294915Y-108673115D01*
X90311054Y-108730874D01*
X90323322Y-108773614D01*
X90343709Y-108842773D01*
X90473745Y-108452971D01*
X90523476Y-108449237D01*
X90573206Y-108445504D01*
X90637997Y-108644130D01*
G36*
X90637997Y-108644130D02*
G01*
X90654997Y-108694850D01*
X90675107Y-108750997D01*
X90691899Y-108793532D01*
X90703986Y-108818990D01*
X90709980Y-108823903D01*
X90711426Y-108819630D01*
X90719254Y-108793422D01*
X90731723Y-108749649D01*
X90747447Y-108693211D01*
X90765043Y-108629010D01*
X90812914Y-108452971D01*
X90886007Y-108449152D01*
X90892177Y-108448846D01*
X90931592Y-108448441D01*
X90950533Y-108452487D01*
X90952945Y-108461726D01*
X90949898Y-108470749D01*
X90939874Y-108501632D01*
X90924180Y-108550544D01*
X90903934Y-108613987D01*
X90880256Y-108688462D01*
X90854263Y-108770471D01*
X90761736Y-109062822D01*
X90645993Y-109062822D01*
X90591457Y-108877352D01*
X90581386Y-108843294D01*
X90562775Y-108781378D01*
X90546872Y-108729787D01*
X90535109Y-108693130D01*
X90528918Y-108676018D01*
X90527154Y-108674741D01*
X90518571Y-108685779D01*
X90506316Y-108714969D01*
X90492426Y-108757750D01*
X90491692Y-108760263D01*
X90473096Y-108823400D01*
X90451818Y-108894889D01*
X90432321Y-108959734D01*
X90400705Y-109064122D01*
X90342402Y-109060328D01*
X90284098Y-109056535D01*
X90230098Y-108886782D01*
X90206390Y-108812193D01*
X90179833Y-108728539D01*
X90154404Y-108648342D01*
X90133354Y-108581857D01*
X90090609Y-108446683D01*
X90233612Y-108446683D01*
X90268274Y-108575570D01*
X90277488Y-108609625D01*
X90294915Y-108673115D01*
X90311054Y-108730874D01*
X90323322Y-108773614D01*
X90343709Y-108842773D01*
X90473745Y-108452971D01*
X90523476Y-108449237D01*
X90573206Y-108445504D01*
X90637997Y-108644130D01*
G37*
X93669997Y-107839931D02*
X93668373Y-107879310D01*
X93664688Y-107927332D01*
X93658410Y-107961368D01*
X93648044Y-107988338D01*
X93632092Y-108015158D01*
X93631412Y-108016175D01*
X93592132Y-108059629D01*
X93544072Y-108092772D01*
X93488185Y-108112439D01*
X93414666Y-108118824D01*
X93342609Y-108106268D01*
X93278201Y-108076011D01*
X93227627Y-108029294D01*
X93213108Y-108007221D01*
X93185993Y-107938602D01*
X93172546Y-107853939D01*
X93172776Y-107832523D01*
X93307920Y-107832523D01*
X93308174Y-107872574D01*
X93312421Y-107899313D01*
X93322096Y-107919859D01*
X93338638Y-107941331D01*
X93361593Y-107962639D01*
X93407505Y-107981653D01*
X93456802Y-107978122D01*
X93503917Y-107951694D01*
X93517207Y-107939072D01*
X93531397Y-107917465D01*
X93539266Y-107887094D01*
X93543726Y-107839770D01*
X93544955Y-107804219D01*
X93538224Y-107731620D01*
X93517567Y-107679642D01*
X93482894Y-107647999D01*
X93442249Y-107632847D01*
X93393777Y-107634123D01*
X93348845Y-107659703D01*
X93338103Y-107669442D01*
X93324548Y-107686480D01*
X93316505Y-107708772D01*
X93312043Y-107742947D01*
X93309228Y-107795638D01*
X93307920Y-107832523D01*
X93172776Y-107832523D01*
X93173583Y-107757351D01*
X93174907Y-107743651D01*
X93193374Y-107655908D01*
X93227540Y-107587793D01*
X93277479Y-107539231D01*
X93343261Y-107510148D01*
X93424961Y-107500471D01*
X93455828Y-107501379D01*
X93519128Y-107512493D01*
X93570889Y-107539021D01*
X93619147Y-107584436D01*
X93626865Y-107593551D01*
X93647681Y-107624248D01*
X93661362Y-107659007D01*
X93668948Y-107703056D01*
X93671479Y-107761621D01*
X93670672Y-107804219D01*
X93669997Y-107839931D01*
G36*
X93669997Y-107839931D02*
G01*
X93668373Y-107879310D01*
X93664688Y-107927332D01*
X93658410Y-107961368D01*
X93648044Y-107988338D01*
X93632092Y-108015158D01*
X93631412Y-108016175D01*
X93592132Y-108059629D01*
X93544072Y-108092772D01*
X93488185Y-108112439D01*
X93414666Y-108118824D01*
X93342609Y-108106268D01*
X93278201Y-108076011D01*
X93227627Y-108029294D01*
X93213108Y-108007221D01*
X93185993Y-107938602D01*
X93172546Y-107853939D01*
X93172776Y-107832523D01*
X93307920Y-107832523D01*
X93308174Y-107872574D01*
X93312421Y-107899313D01*
X93322096Y-107919859D01*
X93338638Y-107941331D01*
X93361593Y-107962639D01*
X93407505Y-107981653D01*
X93456802Y-107978122D01*
X93503917Y-107951694D01*
X93517207Y-107939072D01*
X93531397Y-107917465D01*
X93539266Y-107887094D01*
X93543726Y-107839770D01*
X93544955Y-107804219D01*
X93538224Y-107731620D01*
X93517567Y-107679642D01*
X93482894Y-107647999D01*
X93442249Y-107632847D01*
X93393777Y-107634123D01*
X93348845Y-107659703D01*
X93338103Y-107669442D01*
X93324548Y-107686480D01*
X93316505Y-107708772D01*
X93312043Y-107742947D01*
X93309228Y-107795638D01*
X93307920Y-107832523D01*
X93172776Y-107832523D01*
X93173583Y-107757351D01*
X93174907Y-107743651D01*
X93193374Y-107655908D01*
X93227540Y-107587793D01*
X93277479Y-107539231D01*
X93343261Y-107510148D01*
X93424961Y-107500471D01*
X93455828Y-107501379D01*
X93519128Y-107512493D01*
X93570889Y-107539021D01*
X93619147Y-107584436D01*
X93626865Y-107593551D01*
X93647681Y-107624248D01*
X93661362Y-107659007D01*
X93668948Y-107703056D01*
X93671479Y-107761621D01*
X93670672Y-107804219D01*
X93669997Y-107839931D01*
G37*
X91495761Y-108801813D02*
X91494167Y-108855571D01*
X91490962Y-108893018D01*
X91490413Y-108896450D01*
X91468838Y-108957835D01*
X91429438Y-109009877D01*
X91377752Y-109045135D01*
X91322248Y-109059729D01*
X91253977Y-109058597D01*
X91191173Y-109039029D01*
X91174815Y-109030771D01*
X91153779Y-109021923D01*
X91145774Y-109024676D01*
X91144505Y-109039029D01*
X91143922Y-109046186D01*
X91136394Y-109056772D01*
X91115488Y-109061645D01*
X91075346Y-109062822D01*
X91006188Y-109062822D01*
X91006188Y-108760930D01*
X91144505Y-108760930D01*
X91145496Y-108813230D01*
X91149519Y-108848050D01*
X91158108Y-108871905D01*
X91172797Y-108891895D01*
X91211584Y-108921618D01*
X91256974Y-108931582D01*
X91300989Y-108919260D01*
X91338060Y-108884888D01*
X91347859Y-108859735D01*
X91355097Y-108815194D01*
X91358279Y-108761155D01*
X91357277Y-108705728D01*
X91351961Y-108657022D01*
X91342204Y-108623148D01*
X91339087Y-108617593D01*
X91309038Y-108589674D01*
X91268315Y-108577306D01*
X91224579Y-108580183D01*
X91185491Y-108598000D01*
X91158710Y-108630452D01*
X91157603Y-108633181D01*
X91150963Y-108663634D01*
X91146278Y-108709139D01*
X91144505Y-108760930D01*
X91006188Y-108760930D01*
X91006188Y-108207773D01*
X91144505Y-108207773D01*
X91144505Y-108500878D01*
X91170124Y-108477693D01*
X91194792Y-108463282D01*
X91241480Y-108451236D01*
X91296056Y-108447354D01*
X91349354Y-108452120D01*
X91392207Y-108466014D01*
X91422878Y-108485779D01*
X91454471Y-108519449D01*
X91475733Y-108564730D01*
X91488514Y-108625981D01*
X91494664Y-108707563D01*
X91495568Y-108740540D01*
X91495633Y-108761155D01*
X91495761Y-108801813D01*
G36*
X91495761Y-108801813D02*
G01*
X91494167Y-108855571D01*
X91490962Y-108893018D01*
X91490413Y-108896450D01*
X91468838Y-108957835D01*
X91429438Y-109009877D01*
X91377752Y-109045135D01*
X91322248Y-109059729D01*
X91253977Y-109058597D01*
X91191173Y-109039029D01*
X91174815Y-109030771D01*
X91153779Y-109021923D01*
X91145774Y-109024676D01*
X91144505Y-109039029D01*
X91143922Y-109046186D01*
X91136394Y-109056772D01*
X91115488Y-109061645D01*
X91075346Y-109062822D01*
X91006188Y-109062822D01*
X91006188Y-108760930D01*
X91144505Y-108760930D01*
X91145496Y-108813230D01*
X91149519Y-108848050D01*
X91158108Y-108871905D01*
X91172797Y-108891895D01*
X91211584Y-108921618D01*
X91256974Y-108931582D01*
X91300989Y-108919260D01*
X91338060Y-108884888D01*
X91347859Y-108859735D01*
X91355097Y-108815194D01*
X91358279Y-108761155D01*
X91357277Y-108705728D01*
X91351961Y-108657022D01*
X91342204Y-108623148D01*
X91339087Y-108617593D01*
X91309038Y-108589674D01*
X91268315Y-108577306D01*
X91224579Y-108580183D01*
X91185491Y-108598000D01*
X91158710Y-108630452D01*
X91157603Y-108633181D01*
X91150963Y-108663634D01*
X91146278Y-108709139D01*
X91144505Y-108760930D01*
X91006188Y-108760930D01*
X91006188Y-108207773D01*
X91144505Y-108207773D01*
X91144505Y-108500878D01*
X91170124Y-108477693D01*
X91194792Y-108463282D01*
X91241480Y-108451236D01*
X91296056Y-108447354D01*
X91349354Y-108452120D01*
X91392207Y-108466014D01*
X91422878Y-108485779D01*
X91454471Y-108519449D01*
X91475733Y-108564730D01*
X91488514Y-108625981D01*
X91494664Y-108707563D01*
X91495568Y-108740540D01*
X91495633Y-108761155D01*
X91495761Y-108801813D01*
G37*
X88424444Y-107764878D02*
X88422825Y-107861121D01*
X88422615Y-107863014D01*
X88404535Y-107951325D01*
X88371870Y-108019986D01*
X88323601Y-108070506D01*
X88258713Y-108104393D01*
X88246801Y-108108268D01*
X88172971Y-108119688D01*
X88096614Y-108113320D01*
X88025626Y-108090563D01*
X87967904Y-108052819D01*
X87924667Y-108012872D01*
X87970625Y-107976532D01*
X88016583Y-107940193D01*
X88071969Y-107967101D01*
X88136056Y-107988905D01*
X88192632Y-107989558D01*
X88238920Y-107969525D01*
X88272230Y-107929315D01*
X88284171Y-107905222D01*
X88290837Y-107884630D01*
X88286980Y-107870720D01*
X88269675Y-107862181D01*
X88235997Y-107857704D01*
X88183021Y-107855978D01*
X88107822Y-107855693D01*
X87925495Y-107855693D01*
X87925495Y-107768492D01*
X87926857Y-107730210D01*
X88055234Y-107730210D01*
X88061399Y-107737251D01*
X88079654Y-107740916D01*
X88114352Y-107742306D01*
X88169846Y-107742525D01*
X88199603Y-107742176D01*
X88246562Y-107739867D01*
X88278416Y-107735822D01*
X88290148Y-107730542D01*
X88287146Y-107711062D01*
X88265988Y-107673786D01*
X88230731Y-107643164D01*
X88188699Y-107624668D01*
X88147220Y-107623773D01*
X88115997Y-107638604D01*
X88080618Y-107672355D01*
X88058122Y-107714233D01*
X88056805Y-107718690D01*
X88055234Y-107730210D01*
X87926857Y-107730210D01*
X87927136Y-107722371D01*
X87931955Y-107676740D01*
X87938840Y-107645893D01*
X87943859Y-107634117D01*
X87980390Y-107581667D01*
X88033175Y-107537921D01*
X88094904Y-107509279D01*
X88127102Y-107501457D01*
X88203820Y-107497896D01*
X88272179Y-107516009D01*
X88330299Y-107553779D01*
X88376302Y-107609191D01*
X88408310Y-107680229D01*
X88417900Y-107730542D01*
X88424444Y-107764878D01*
G36*
X88424444Y-107764878D02*
G01*
X88422825Y-107861121D01*
X88422615Y-107863014D01*
X88404535Y-107951325D01*
X88371870Y-108019986D01*
X88323601Y-108070506D01*
X88258713Y-108104393D01*
X88246801Y-108108268D01*
X88172971Y-108119688D01*
X88096614Y-108113320D01*
X88025626Y-108090563D01*
X87967904Y-108052819D01*
X87924667Y-108012872D01*
X87970625Y-107976532D01*
X88016583Y-107940193D01*
X88071969Y-107967101D01*
X88136056Y-107988905D01*
X88192632Y-107989558D01*
X88238920Y-107969525D01*
X88272230Y-107929315D01*
X88284171Y-107905222D01*
X88290837Y-107884630D01*
X88286980Y-107870720D01*
X88269675Y-107862181D01*
X88235997Y-107857704D01*
X88183021Y-107855978D01*
X88107822Y-107855693D01*
X87925495Y-107855693D01*
X87925495Y-107768492D01*
X87926857Y-107730210D01*
X88055234Y-107730210D01*
X88061399Y-107737251D01*
X88079654Y-107740916D01*
X88114352Y-107742306D01*
X88169846Y-107742525D01*
X88199603Y-107742176D01*
X88246562Y-107739867D01*
X88278416Y-107735822D01*
X88290148Y-107730542D01*
X88287146Y-107711062D01*
X88265988Y-107673786D01*
X88230731Y-107643164D01*
X88188699Y-107624668D01*
X88147220Y-107623773D01*
X88115997Y-107638604D01*
X88080618Y-107672355D01*
X88058122Y-107714233D01*
X88056805Y-107718690D01*
X88055234Y-107730210D01*
X87926857Y-107730210D01*
X87927136Y-107722371D01*
X87931955Y-107676740D01*
X87938840Y-107645893D01*
X87943859Y-107634117D01*
X87980390Y-107581667D01*
X88033175Y-107537921D01*
X88094904Y-107509279D01*
X88127102Y-107501457D01*
X88203820Y-107497896D01*
X88272179Y-107516009D01*
X88330299Y-107553779D01*
X88376302Y-107609191D01*
X88408310Y-107680229D01*
X88417900Y-107730542D01*
X88424444Y-107764878D01*
G37*
X90903874Y-107503207D02*
X90976495Y-107521408D01*
X91029546Y-107555144D01*
X91063329Y-107604642D01*
X91078147Y-107670126D01*
X91075147Y-107732820D01*
X91053493Y-107785699D01*
X91011967Y-107824796D01*
X90949736Y-107850873D01*
X90865969Y-107864695D01*
X90811540Y-107871940D01*
X90761860Y-107887615D01*
X90736211Y-107910314D01*
X90734662Y-107939998D01*
X90744984Y-107958507D01*
X90776951Y-107980443D01*
X90822395Y-107990818D01*
X90875649Y-107989399D01*
X90931048Y-107975952D01*
X90982928Y-107950243D01*
X91034653Y-107916013D01*
X91080148Y-107962049D01*
X91125643Y-108008084D01*
X91087921Y-108038876D01*
X91073253Y-108049574D01*
X91031983Y-108073880D01*
X90987327Y-108094825D01*
X90951984Y-108106845D01*
X90900234Y-108115552D01*
X90836435Y-108115667D01*
X90758200Y-108106081D01*
X90687722Y-108081783D01*
X90637836Y-108043188D01*
X90608423Y-107990198D01*
X90599365Y-107922718D01*
X90605921Y-107863354D01*
X90626970Y-107814752D01*
X90664864Y-107779946D01*
X90722004Y-107756798D01*
X90800785Y-107743170D01*
X90809834Y-107742183D01*
X90858885Y-107735892D01*
X90898675Y-107729309D01*
X90921312Y-107723708D01*
X90928866Y-107719197D01*
X90941637Y-107695941D01*
X90939563Y-107666171D01*
X90922495Y-107640327D01*
X90913533Y-107634691D01*
X90876188Y-107625660D01*
X90827950Y-107626267D01*
X90777650Y-107635878D01*
X90734115Y-107653858D01*
X90688372Y-107680847D01*
X90652890Y-107639384D01*
X90644280Y-107628850D01*
X90624883Y-107600632D01*
X90616897Y-107581508D01*
X90625283Y-107569781D01*
X90651226Y-107551476D01*
X90688688Y-107531777D01*
X90693966Y-107529370D01*
X90743366Y-107510482D01*
X90790983Y-107501452D01*
X90850072Y-107499639D01*
X90903874Y-107503207D01*
G36*
X90903874Y-107503207D02*
G01*
X90976495Y-107521408D01*
X91029546Y-107555144D01*
X91063329Y-107604642D01*
X91078147Y-107670126D01*
X91075147Y-107732820D01*
X91053493Y-107785699D01*
X91011967Y-107824796D01*
X90949736Y-107850873D01*
X90865969Y-107864695D01*
X90811540Y-107871940D01*
X90761860Y-107887615D01*
X90736211Y-107910314D01*
X90734662Y-107939998D01*
X90744984Y-107958507D01*
X90776951Y-107980443D01*
X90822395Y-107990818D01*
X90875649Y-107989399D01*
X90931048Y-107975952D01*
X90982928Y-107950243D01*
X91034653Y-107916013D01*
X91080148Y-107962049D01*
X91125643Y-108008084D01*
X91087921Y-108038876D01*
X91073253Y-108049574D01*
X91031983Y-108073880D01*
X90987327Y-108094825D01*
X90951984Y-108106845D01*
X90900234Y-108115552D01*
X90836435Y-108115667D01*
X90758200Y-108106081D01*
X90687722Y-108081783D01*
X90637836Y-108043188D01*
X90608423Y-107990198D01*
X90599365Y-107922718D01*
X90605921Y-107863354D01*
X90626970Y-107814752D01*
X90664864Y-107779946D01*
X90722004Y-107756798D01*
X90800785Y-107743170D01*
X90809834Y-107742183D01*
X90858885Y-107735892D01*
X90898675Y-107729309D01*
X90921312Y-107723708D01*
X90928866Y-107719197D01*
X90941637Y-107695941D01*
X90939563Y-107666171D01*
X90922495Y-107640327D01*
X90913533Y-107634691D01*
X90876188Y-107625660D01*
X90827950Y-107626267D01*
X90777650Y-107635878D01*
X90734115Y-107653858D01*
X90688372Y-107680847D01*
X90652890Y-107639384D01*
X90644280Y-107628850D01*
X90624883Y-107600632D01*
X90616897Y-107581508D01*
X90625283Y-107569781D01*
X90651226Y-107551476D01*
X90688688Y-107531777D01*
X90693966Y-107529370D01*
X90743366Y-107510482D01*
X90790983Y-107501452D01*
X90850072Y-107499639D01*
X90903874Y-107503207D01*
G37*
X89069353Y-108754753D02*
X89067718Y-108801692D01*
X89052827Y-108891459D01*
X89022185Y-108962045D01*
X88975524Y-109013952D01*
X88912574Y-109047686D01*
X88892235Y-109053647D01*
X88819612Y-109061971D01*
X88742928Y-109054946D01*
X88673663Y-109033265D01*
X88649262Y-109020959D01*
X88614275Y-108999879D01*
X88593072Y-108982534D01*
X88589942Y-108978571D01*
X88584085Y-108964077D01*
X88592524Y-108948321D01*
X88618221Y-108924460D01*
X88630622Y-108914072D01*
X88655052Y-108895063D01*
X88667861Y-108887293D01*
X88671530Y-108888094D01*
X88692561Y-108896745D01*
X88723960Y-108911931D01*
X88734197Y-108916926D01*
X88794590Y-108935475D01*
X88847057Y-108930694D01*
X88893065Y-108902500D01*
X88898419Y-108897291D01*
X88924013Y-108864659D01*
X88938637Y-108833342D01*
X88946736Y-108798763D01*
X88566782Y-108798763D01*
X88566852Y-108732748D01*
X88566892Y-108726182D01*
X88572022Y-108673218D01*
X88705099Y-108673218D01*
X88706670Y-108684203D01*
X88714738Y-108691773D01*
X88733967Y-108695975D01*
X88769019Y-108697783D01*
X88824554Y-108698169D01*
X88855429Y-108697768D01*
X88901002Y-108695429D01*
X88932348Y-108691465D01*
X88944010Y-108686413D01*
X88934064Y-108644827D01*
X88904947Y-108606013D01*
X88862952Y-108579086D01*
X88814440Y-108569772D01*
X88778723Y-108580272D01*
X88743020Y-108605940D01*
X88715879Y-108639381D01*
X88705099Y-108673218D01*
X88572022Y-108673218D01*
X88574758Y-108644965D01*
X88597655Y-108578895D01*
X88637607Y-108521940D01*
X88661979Y-108497848D01*
X88712315Y-108465597D01*
X88772419Y-108449970D01*
X88848338Y-108448871D01*
X88885010Y-108453179D01*
X88952703Y-108475549D01*
X89004530Y-108516263D01*
X89040945Y-108575949D01*
X89062401Y-108655236D01*
X89064579Y-108686413D01*
X89069353Y-108754753D01*
G36*
X89069353Y-108754753D02*
G01*
X89067718Y-108801692D01*
X89052827Y-108891459D01*
X89022185Y-108962045D01*
X88975524Y-109013952D01*
X88912574Y-109047686D01*
X88892235Y-109053647D01*
X88819612Y-109061971D01*
X88742928Y-109054946D01*
X88673663Y-109033265D01*
X88649262Y-109020959D01*
X88614275Y-108999879D01*
X88593072Y-108982534D01*
X88589942Y-108978571D01*
X88584085Y-108964077D01*
X88592524Y-108948321D01*
X88618221Y-108924460D01*
X88630622Y-108914072D01*
X88655052Y-108895063D01*
X88667861Y-108887293D01*
X88671530Y-108888094D01*
X88692561Y-108896745D01*
X88723960Y-108911931D01*
X88734197Y-108916926D01*
X88794590Y-108935475D01*
X88847057Y-108930694D01*
X88893065Y-108902500D01*
X88898419Y-108897291D01*
X88924013Y-108864659D01*
X88938637Y-108833342D01*
X88946736Y-108798763D01*
X88566782Y-108798763D01*
X88566852Y-108732748D01*
X88566892Y-108726182D01*
X88572022Y-108673218D01*
X88705099Y-108673218D01*
X88706670Y-108684203D01*
X88714738Y-108691773D01*
X88733967Y-108695975D01*
X88769019Y-108697783D01*
X88824554Y-108698169D01*
X88855429Y-108697768D01*
X88901002Y-108695429D01*
X88932348Y-108691465D01*
X88944010Y-108686413D01*
X88934064Y-108644827D01*
X88904947Y-108606013D01*
X88862952Y-108579086D01*
X88814440Y-108569772D01*
X88778723Y-108580272D01*
X88743020Y-108605940D01*
X88715879Y-108639381D01*
X88705099Y-108673218D01*
X88572022Y-108673218D01*
X88574758Y-108644965D01*
X88597655Y-108578895D01*
X88637607Y-108521940D01*
X88661979Y-108497848D01*
X88712315Y-108465597D01*
X88772419Y-108449970D01*
X88848338Y-108448871D01*
X88885010Y-108453179D01*
X88952703Y-108475549D01*
X89004530Y-108516263D01*
X89040945Y-108575949D01*
X89062401Y-108655236D01*
X89064579Y-108686413D01*
X89069353Y-108754753D01*
G37*
X92512022Y-107729861D02*
X92516421Y-107817936D01*
X92515322Y-107856371D01*
X92502926Y-107940367D01*
X92475608Y-108006595D01*
X92431941Y-108057784D01*
X92370495Y-108096663D01*
X92310888Y-108114812D01*
X92236110Y-108118284D01*
X92160664Y-108104930D01*
X92093366Y-108075425D01*
X92068428Y-108059012D01*
X92040951Y-108037973D01*
X92028414Y-108024129D01*
X92029124Y-108018417D01*
X92043158Y-107998955D01*
X92069533Y-107975376D01*
X92115240Y-107940513D01*
X92168799Y-107967262D01*
X92183282Y-107973882D01*
X92225916Y-107988273D01*
X92261649Y-107994010D01*
X92287998Y-107989282D01*
X92329347Y-107966514D01*
X92364104Y-107931170D01*
X92383983Y-107890273D01*
X92392083Y-107855693D01*
X92012129Y-107855693D01*
X92012199Y-107789679D01*
X92012774Y-107768757D01*
X92016972Y-107723862D01*
X92150445Y-107723862D01*
X92150690Y-107726434D01*
X92157604Y-107734443D01*
X92177141Y-107739364D01*
X92213467Y-107741843D01*
X92270748Y-107742525D01*
X92289575Y-107742517D01*
X92338470Y-107742065D01*
X92367863Y-107740113D01*
X92382115Y-107735558D01*
X92385582Y-107727299D01*
X92382625Y-107714233D01*
X92382173Y-107712752D01*
X92356699Y-107667285D01*
X92316539Y-107635981D01*
X92268651Y-107624327D01*
X92250949Y-107625259D01*
X92218094Y-107636408D01*
X92186575Y-107664763D01*
X92178085Y-107674789D01*
X92158336Y-107703423D01*
X92150445Y-107723862D01*
X92016972Y-107723862D01*
X92017512Y-107718091D01*
X92025459Y-107676166D01*
X92034168Y-107652696D01*
X92064790Y-107601646D01*
X92105799Y-107555283D01*
X92149168Y-107523514D01*
X92161699Y-107517614D01*
X92234661Y-107498046D01*
X92309168Y-107500109D01*
X92379217Y-107522931D01*
X92438807Y-107565639D01*
X92471038Y-107605025D01*
X92497392Y-107660510D01*
X92511482Y-107727299D01*
X92512022Y-107729861D01*
G36*
X92512022Y-107729861D02*
G01*
X92516421Y-107817936D01*
X92515322Y-107856371D01*
X92502926Y-107940367D01*
X92475608Y-108006595D01*
X92431941Y-108057784D01*
X92370495Y-108096663D01*
X92310888Y-108114812D01*
X92236110Y-108118284D01*
X92160664Y-108104930D01*
X92093366Y-108075425D01*
X92068428Y-108059012D01*
X92040951Y-108037973D01*
X92028414Y-108024129D01*
X92029124Y-108018417D01*
X92043158Y-107998955D01*
X92069533Y-107975376D01*
X92115240Y-107940513D01*
X92168799Y-107967262D01*
X92183282Y-107973882D01*
X92225916Y-107988273D01*
X92261649Y-107994010D01*
X92287998Y-107989282D01*
X92329347Y-107966514D01*
X92364104Y-107931170D01*
X92383983Y-107890273D01*
X92392083Y-107855693D01*
X92012129Y-107855693D01*
X92012199Y-107789679D01*
X92012774Y-107768757D01*
X92016972Y-107723862D01*
X92150445Y-107723862D01*
X92150690Y-107726434D01*
X92157604Y-107734443D01*
X92177141Y-107739364D01*
X92213467Y-107741843D01*
X92270748Y-107742525D01*
X92289575Y-107742517D01*
X92338470Y-107742065D01*
X92367863Y-107740113D01*
X92382115Y-107735558D01*
X92385582Y-107727299D01*
X92382625Y-107714233D01*
X92382173Y-107712752D01*
X92356699Y-107667285D01*
X92316539Y-107635981D01*
X92268651Y-107624327D01*
X92250949Y-107625259D01*
X92218094Y-107636408D01*
X92186575Y-107664763D01*
X92178085Y-107674789D01*
X92158336Y-107703423D01*
X92150445Y-107723862D01*
X92016972Y-107723862D01*
X92017512Y-107718091D01*
X92025459Y-107676166D01*
X92034168Y-107652696D01*
X92064790Y-107601646D01*
X92105799Y-107555283D01*
X92149168Y-107523514D01*
X92161699Y-107517614D01*
X92234661Y-107498046D01*
X92309168Y-107500109D01*
X92379217Y-107522931D01*
X92438807Y-107565639D01*
X92471038Y-107605025D01*
X92497392Y-107660510D01*
X92511482Y-107727299D01*
X92512022Y-107729861D01*
G37*
X90094413Y-108897333D02*
X90079244Y-108954419D01*
X90046277Y-109003255D01*
X89996270Y-109038386D01*
X89991362Y-109040521D01*
X89936646Y-109055903D01*
X89874993Y-109061899D01*
X89816376Y-109058233D01*
X89770767Y-109044629D01*
X89752549Y-109035754D01*
X89739179Y-109033637D01*
X89736188Y-109044706D01*
X89730524Y-109054942D01*
X89708607Y-109061038D01*
X89666068Y-109062822D01*
X89595948Y-109062822D01*
X89600053Y-108820768D01*
X89600492Y-108798763D01*
X89736188Y-108798763D01*
X89736188Y-108842773D01*
X89740924Y-108875666D01*
X89761336Y-108911931D01*
X89768871Y-108918597D01*
X89799753Y-108932620D01*
X89846213Y-108936228D01*
X89874090Y-108934819D01*
X89926255Y-108924204D01*
X89958587Y-108904425D01*
X89969492Y-108876824D01*
X89957374Y-108842743D01*
X89950304Y-108833824D01*
X89918724Y-108813818D01*
X89868744Y-108802395D01*
X89797487Y-108798763D01*
X89736188Y-108798763D01*
X89600492Y-108798763D01*
X89601169Y-108764794D01*
X89604106Y-108680996D01*
X89609058Y-108616920D01*
X89617002Y-108569073D01*
X89628917Y-108533962D01*
X89645780Y-108508093D01*
X89668572Y-108487974D01*
X89698269Y-108470110D01*
X89713589Y-108463290D01*
X89766589Y-108450417D01*
X89830513Y-108445095D01*
X89896602Y-108447227D01*
X89956099Y-108456714D01*
X90000247Y-108473461D01*
X90015604Y-108483185D01*
X90050960Y-108512005D01*
X90062926Y-108536137D01*
X90060020Y-108540800D01*
X90041909Y-108557088D01*
X90012672Y-108578817D01*
X89997725Y-108588987D01*
X89972270Y-108603397D01*
X89955728Y-108604773D01*
X89940370Y-108594827D01*
X89902094Y-108574684D01*
X89850590Y-108566400D01*
X89797957Y-108572742D01*
X89796961Y-108573030D01*
X89759838Y-108589158D01*
X89741463Y-108614405D01*
X89736380Y-108656158D01*
X89736188Y-108695879D01*
X89867423Y-108700168D01*
X89888331Y-108700873D01*
X89941043Y-108703326D01*
X89976381Y-108707180D01*
X90000267Y-108713878D01*
X90018624Y-108724864D01*
X90037376Y-108741580D01*
X90068337Y-108780244D01*
X90091029Y-108837456D01*
X90093254Y-108876824D01*
X90094413Y-108897333D01*
G36*
X90094413Y-108897333D02*
G01*
X90079244Y-108954419D01*
X90046277Y-109003255D01*
X89996270Y-109038386D01*
X89991362Y-109040521D01*
X89936646Y-109055903D01*
X89874993Y-109061899D01*
X89816376Y-109058233D01*
X89770767Y-109044629D01*
X89752549Y-109035754D01*
X89739179Y-109033637D01*
X89736188Y-109044706D01*
X89730524Y-109054942D01*
X89708607Y-109061038D01*
X89666068Y-109062822D01*
X89595948Y-109062822D01*
X89600053Y-108820768D01*
X89600492Y-108798763D01*
X89736188Y-108798763D01*
X89736188Y-108842773D01*
X89740924Y-108875666D01*
X89761336Y-108911931D01*
X89768871Y-108918597D01*
X89799753Y-108932620D01*
X89846213Y-108936228D01*
X89874090Y-108934819D01*
X89926255Y-108924204D01*
X89958587Y-108904425D01*
X89969492Y-108876824D01*
X89957374Y-108842743D01*
X89950304Y-108833824D01*
X89918724Y-108813818D01*
X89868744Y-108802395D01*
X89797487Y-108798763D01*
X89736188Y-108798763D01*
X89600492Y-108798763D01*
X89601169Y-108764794D01*
X89604106Y-108680996D01*
X89609058Y-108616920D01*
X89617002Y-108569073D01*
X89628917Y-108533962D01*
X89645780Y-108508093D01*
X89668572Y-108487974D01*
X89698269Y-108470110D01*
X89713589Y-108463290D01*
X89766589Y-108450417D01*
X89830513Y-108445095D01*
X89896602Y-108447227D01*
X89956099Y-108456714D01*
X90000247Y-108473461D01*
X90015604Y-108483185D01*
X90050960Y-108512005D01*
X90062926Y-108536137D01*
X90060020Y-108540800D01*
X90041909Y-108557088D01*
X90012672Y-108578817D01*
X89997725Y-108588987D01*
X89972270Y-108603397D01*
X89955728Y-108604773D01*
X89940370Y-108594827D01*
X89902094Y-108574684D01*
X89850590Y-108566400D01*
X89797957Y-108572742D01*
X89796961Y-108573030D01*
X89759838Y-108589158D01*
X89741463Y-108614405D01*
X89736380Y-108656158D01*
X89736188Y-108695879D01*
X89867423Y-108700168D01*
X89888331Y-108700873D01*
X89941043Y-108703326D01*
X89976381Y-108707180D01*
X90000267Y-108713878D01*
X90018624Y-108724864D01*
X90037376Y-108741580D01*
X90068337Y-108780244D01*
X90091029Y-108837456D01*
X90093254Y-108876824D01*
X90094413Y-108897333D01*
G37*
X92512299Y-108895223D02*
X92512157Y-108896882D01*
X92496835Y-108961479D01*
X92462753Y-109010063D01*
X92408218Y-109045072D01*
X92380036Y-109053589D01*
X92331764Y-109060228D01*
X92278978Y-109061813D01*
X92231353Y-109058160D01*
X92198566Y-109049083D01*
X92178652Y-109041813D01*
X92159155Y-109049083D01*
X92152023Y-109053295D01*
X92123557Y-109060126D01*
X92085059Y-109062822D01*
X92024703Y-109062822D01*
X92024703Y-108819484D01*
X92024707Y-108798763D01*
X92163020Y-108798763D01*
X92163020Y-108847111D01*
X92167668Y-108883904D01*
X92186015Y-108916269D01*
X92196514Y-108923274D01*
X92233988Y-108934191D01*
X92280773Y-108936917D01*
X92326652Y-108931379D01*
X92361410Y-108917505D01*
X92378726Y-108899161D01*
X92389356Y-108866566D01*
X92379929Y-108840729D01*
X92348764Y-108818263D01*
X92298667Y-108803850D01*
X92232582Y-108798763D01*
X92163020Y-108798763D01*
X92024707Y-108798763D01*
X92024707Y-108798440D01*
X92024937Y-108719122D01*
X92025797Y-108660154D01*
X92027679Y-108617616D01*
X92030974Y-108587592D01*
X92036073Y-108566163D01*
X92043366Y-108549411D01*
X92053246Y-108533419D01*
X92085023Y-108495948D01*
X92130055Y-108467339D01*
X92189210Y-108451555D01*
X92267161Y-108446703D01*
X92269695Y-108446708D01*
X92323880Y-108449155D01*
X92372380Y-108455256D01*
X92405478Y-108463809D01*
X92414552Y-108468096D01*
X92443433Y-108486248D01*
X92469568Y-108507822D01*
X92486764Y-108527236D01*
X92488825Y-108538909D01*
X92484803Y-108542063D01*
X92440976Y-108575739D01*
X92411671Y-108595600D01*
X92392294Y-108603613D01*
X92378253Y-108601746D01*
X92364957Y-108591965D01*
X92340418Y-108579756D01*
X92299064Y-108571615D01*
X92252326Y-108569503D01*
X92210034Y-108573800D01*
X92182017Y-108584887D01*
X92180543Y-108586236D01*
X92167953Y-108611581D01*
X92163020Y-108649411D01*
X92163020Y-108698169D01*
X92279331Y-108698216D01*
X92332760Y-108699061D01*
X92377735Y-108702740D01*
X92409907Y-108710309D01*
X92435899Y-108722808D01*
X92441948Y-108726647D01*
X92485710Y-108768845D01*
X92508987Y-108824647D01*
X92510955Y-108866566D01*
X92512299Y-108895223D01*
G36*
X92512299Y-108895223D02*
G01*
X92512157Y-108896882D01*
X92496835Y-108961479D01*
X92462753Y-109010063D01*
X92408218Y-109045072D01*
X92380036Y-109053589D01*
X92331764Y-109060228D01*
X92278978Y-109061813D01*
X92231353Y-109058160D01*
X92198566Y-109049083D01*
X92178652Y-109041813D01*
X92159155Y-109049083D01*
X92152023Y-109053295D01*
X92123557Y-109060126D01*
X92085059Y-109062822D01*
X92024703Y-109062822D01*
X92024703Y-108819484D01*
X92024707Y-108798763D01*
X92163020Y-108798763D01*
X92163020Y-108847111D01*
X92167668Y-108883904D01*
X92186015Y-108916269D01*
X92196514Y-108923274D01*
X92233988Y-108934191D01*
X92280773Y-108936917D01*
X92326652Y-108931379D01*
X92361410Y-108917505D01*
X92378726Y-108899161D01*
X92389356Y-108866566D01*
X92379929Y-108840729D01*
X92348764Y-108818263D01*
X92298667Y-108803850D01*
X92232582Y-108798763D01*
X92163020Y-108798763D01*
X92024707Y-108798763D01*
X92024707Y-108798440D01*
X92024937Y-108719122D01*
X92025797Y-108660154D01*
X92027679Y-108617616D01*
X92030974Y-108587592D01*
X92036073Y-108566163D01*
X92043366Y-108549411D01*
X92053246Y-108533419D01*
X92085023Y-108495948D01*
X92130055Y-108467339D01*
X92189210Y-108451555D01*
X92267161Y-108446703D01*
X92269695Y-108446708D01*
X92323880Y-108449155D01*
X92372380Y-108455256D01*
X92405478Y-108463809D01*
X92414552Y-108468096D01*
X92443433Y-108486248D01*
X92469568Y-108507822D01*
X92486764Y-108527236D01*
X92488825Y-108538909D01*
X92484803Y-108542063D01*
X92440976Y-108575739D01*
X92411671Y-108595600D01*
X92392294Y-108603613D01*
X92378253Y-108601746D01*
X92364957Y-108591965D01*
X92340418Y-108579756D01*
X92299064Y-108571615D01*
X92252326Y-108569503D01*
X92210034Y-108573800D01*
X92182017Y-108584887D01*
X92180543Y-108586236D01*
X92167953Y-108611581D01*
X92163020Y-108649411D01*
X92163020Y-108698169D01*
X92279331Y-108698216D01*
X92332760Y-108699061D01*
X92377735Y-108702740D01*
X92409907Y-108710309D01*
X92435899Y-108722808D01*
X92441948Y-108726647D01*
X92485710Y-108768845D01*
X92508987Y-108824647D01*
X92510955Y-108866566D01*
X92512299Y-108895223D01*
G37*
X93080940Y-109064136D02*
X93014926Y-109060336D01*
X92948911Y-109056535D01*
X92945772Y-108855347D01*
X92944844Y-108806425D01*
X92942208Y-108732926D01*
X92937683Y-108678991D01*
X92930438Y-108640995D01*
X92919642Y-108615313D01*
X92904462Y-108598320D01*
X92884066Y-108586389D01*
X92845797Y-108574205D01*
X92807738Y-108578940D01*
X92767549Y-108604979D01*
X92728861Y-108637533D01*
X92728861Y-109062822D01*
X92590544Y-109062822D01*
X92590544Y-108832176D01*
X92590677Y-108759882D01*
X92591413Y-108695641D01*
X92593181Y-108648618D01*
X92596411Y-108614548D01*
X92601530Y-108589170D01*
X92608967Y-108568221D01*
X92619150Y-108547436D01*
X92621564Y-108543024D01*
X92653675Y-108500047D01*
X92691256Y-108470013D01*
X92736564Y-108454243D01*
X92796561Y-108447222D01*
X92856643Y-108451025D01*
X92905525Y-108465868D01*
X92942624Y-108485052D01*
X92942624Y-108069859D01*
X92891792Y-108096354D01*
X92870558Y-108105980D01*
X92803536Y-108119592D01*
X92736930Y-108110184D01*
X92675187Y-108078905D01*
X92622757Y-108026902D01*
X92614543Y-108014680D01*
X92606649Y-107996763D01*
X92601500Y-107972404D01*
X92598527Y-107936927D01*
X92597161Y-107885656D01*
X92596915Y-107832236D01*
X92729749Y-107832236D01*
X92729861Y-107876849D01*
X92733272Y-107906601D01*
X92740937Y-107927835D01*
X92753814Y-107946896D01*
X92770171Y-107964617D01*
X92796329Y-107978028D01*
X92835742Y-107981436D01*
X92870559Y-107978471D01*
X92905020Y-107963631D01*
X92927215Y-107933569D01*
X92939097Y-107885254D01*
X92942624Y-107815650D01*
X92941712Y-107778624D01*
X92932609Y-107708728D01*
X92913828Y-107661464D01*
X92885476Y-107637168D01*
X92856840Y-107630332D01*
X92806970Y-107633537D01*
X92764833Y-107653380D01*
X92754749Y-107662480D01*
X92744063Y-107678223D01*
X92737456Y-107701658D01*
X92733532Y-107738604D01*
X92730897Y-107794880D01*
X92729749Y-107832236D01*
X92596915Y-107832236D01*
X92596831Y-107813917D01*
X92596944Y-107781184D01*
X92598872Y-107705044D01*
X92604240Y-107648166D01*
X92614406Y-107606249D01*
X92630725Y-107574996D01*
X92654553Y-107550106D01*
X92687247Y-107527282D01*
X92713759Y-107514184D01*
X92776615Y-107499739D01*
X92842869Y-107501707D01*
X92901757Y-107520433D01*
X92927030Y-107532673D01*
X92939742Y-107533938D01*
X92942624Y-107522798D01*
X92942626Y-107522461D01*
X92948838Y-107511087D01*
X92970260Y-107505256D01*
X93011782Y-107503614D01*
X93080940Y-107503614D01*
X93080940Y-107815650D01*
X93080940Y-109064136D01*
G36*
X93080940Y-109064136D02*
G01*
X93014926Y-109060336D01*
X92948911Y-109056535D01*
X92945772Y-108855347D01*
X92944844Y-108806425D01*
X92942208Y-108732926D01*
X92937683Y-108678991D01*
X92930438Y-108640995D01*
X92919642Y-108615313D01*
X92904462Y-108598320D01*
X92884066Y-108586389D01*
X92845797Y-108574205D01*
X92807738Y-108578940D01*
X92767549Y-108604979D01*
X92728861Y-108637533D01*
X92728861Y-109062822D01*
X92590544Y-109062822D01*
X92590544Y-108832176D01*
X92590677Y-108759882D01*
X92591413Y-108695641D01*
X92593181Y-108648618D01*
X92596411Y-108614548D01*
X92601530Y-108589170D01*
X92608967Y-108568221D01*
X92619150Y-108547436D01*
X92621564Y-108543024D01*
X92653675Y-108500047D01*
X92691256Y-108470013D01*
X92736564Y-108454243D01*
X92796561Y-108447222D01*
X92856643Y-108451025D01*
X92905525Y-108465868D01*
X92942624Y-108485052D01*
X92942624Y-108069859D01*
X92891792Y-108096354D01*
X92870558Y-108105980D01*
X92803536Y-108119592D01*
X92736930Y-108110184D01*
X92675187Y-108078905D01*
X92622757Y-108026902D01*
X92614543Y-108014680D01*
X92606649Y-107996763D01*
X92601500Y-107972404D01*
X92598527Y-107936927D01*
X92597161Y-107885656D01*
X92596915Y-107832236D01*
X92729749Y-107832236D01*
X92729861Y-107876849D01*
X92733272Y-107906601D01*
X92740937Y-107927835D01*
X92753814Y-107946896D01*
X92770171Y-107964617D01*
X92796329Y-107978028D01*
X92835742Y-107981436D01*
X92870559Y-107978471D01*
X92905020Y-107963631D01*
X92927215Y-107933569D01*
X92939097Y-107885254D01*
X92942624Y-107815650D01*
X92941712Y-107778624D01*
X92932609Y-107708728D01*
X92913828Y-107661464D01*
X92885476Y-107637168D01*
X92856840Y-107630332D01*
X92806970Y-107633537D01*
X92764833Y-107653380D01*
X92754749Y-107662480D01*
X92744063Y-107678223D01*
X92737456Y-107701658D01*
X92733532Y-107738604D01*
X92730897Y-107794880D01*
X92729749Y-107832236D01*
X92596915Y-107832236D01*
X92596831Y-107813917D01*
X92596944Y-107781184D01*
X92598872Y-107705044D01*
X92604240Y-107648166D01*
X92614406Y-107606249D01*
X92630725Y-107574996D01*
X92654553Y-107550106D01*
X92687247Y-107527282D01*
X92713759Y-107514184D01*
X92776615Y-107499739D01*
X92842869Y-107501707D01*
X92901757Y-107520433D01*
X92927030Y-107532673D01*
X92939742Y-107533938D01*
X92942624Y-107522798D01*
X92942626Y-107522461D01*
X92948838Y-107511087D01*
X92970260Y-107505256D01*
X93011782Y-107503614D01*
X93080940Y-107503614D01*
X93080940Y-107815650D01*
X93080940Y-109064136D01*
G37*
X91169389Y-103335018D02*
X91226237Y-103636570D01*
X91436001Y-103723041D01*
X91645764Y-103809512D01*
X91897410Y-103638395D01*
X91947216Y-103604661D01*
X92013244Y-103560381D01*
X92070410Y-103522561D01*
X92115744Y-103493142D01*
X92146280Y-103474067D01*
X92159046Y-103467278D01*
X92166887Y-103472106D01*
X92190325Y-103492339D01*
X92225794Y-103525543D01*
X92270289Y-103568670D01*
X92320805Y-103618670D01*
X92374336Y-103672495D01*
X92427877Y-103727095D01*
X92478423Y-103779423D01*
X92522968Y-103826428D01*
X92558507Y-103865063D01*
X92582034Y-103892278D01*
X92590544Y-103905024D01*
X92588565Y-103910500D01*
X92574857Y-103934927D01*
X92549825Y-103975129D01*
X92515499Y-104027952D01*
X92473907Y-104090247D01*
X92427079Y-104158862D01*
X92401380Y-104196283D01*
X92357173Y-104261432D01*
X92319272Y-104318289D01*
X92289698Y-104363770D01*
X92270472Y-104394793D01*
X92263614Y-104408274D01*
X92263726Y-104409021D01*
X92269776Y-104426110D01*
X92283654Y-104461006D01*
X92303427Y-104509151D01*
X92327160Y-104565986D01*
X92352918Y-104626953D01*
X92378766Y-104687492D01*
X92402771Y-104743047D01*
X92422998Y-104789057D01*
X92437511Y-104820965D01*
X92444377Y-104834212D01*
X92448439Y-104835387D01*
X92473121Y-104840687D01*
X92517111Y-104849467D01*
X92576887Y-104861040D01*
X92648929Y-104874721D01*
X92729716Y-104889823D01*
X92772294Y-104897830D01*
X92850445Y-104913107D01*
X92918775Y-104927215D01*
X92973551Y-104939345D01*
X93011037Y-104948686D01*
X93027500Y-104954427D01*
X93030457Y-104960119D01*
X93035362Y-104987930D01*
X93039216Y-105034250D01*
X93042021Y-105094720D01*
X93043781Y-105164983D01*
X93044499Y-105240680D01*
X93044177Y-105317453D01*
X93042819Y-105390944D01*
X93040428Y-105456794D01*
X93037006Y-105510645D01*
X93032556Y-105548138D01*
X93027082Y-105564916D01*
X93023760Y-105566809D01*
X92998987Y-105574926D01*
X92956011Y-105585666D01*
X92899802Y-105597853D01*
X92835325Y-105610310D01*
X92813570Y-105614277D01*
X92713093Y-105632729D01*
X92634126Y-105647559D01*
X92573934Y-105659380D01*
X92529778Y-105668809D01*
X92498920Y-105676460D01*
X92478625Y-105682948D01*
X92466154Y-105688888D01*
X92458771Y-105694894D01*
X92457913Y-105695902D01*
X92445838Y-105716919D01*
X92427971Y-105755376D01*
X92406042Y-105806761D01*
X92381784Y-105866563D01*
X92356927Y-105930270D01*
X92333205Y-105993371D01*
X92312347Y-106051355D01*
X92296087Y-106099709D01*
X92286156Y-106133922D01*
X92284285Y-106149483D01*
X92285536Y-106151502D01*
X92298486Y-106171028D01*
X92322840Y-106207042D01*
X92356340Y-106256228D01*
X92396727Y-106315267D01*
X92441745Y-106380842D01*
X92454100Y-106398884D01*
X92497545Y-106463599D01*
X92535091Y-106521476D01*
X92564594Y-106569082D01*
X92583914Y-106602985D01*
X92590905Y-106619752D01*
X92589398Y-106624161D01*
X92573695Y-106645882D01*
X92542714Y-106681354D01*
X92498673Y-106728188D01*
X92443790Y-106783996D01*
X92380286Y-106846392D01*
X92343988Y-106881317D01*
X92286595Y-106935711D01*
X92236361Y-106982302D01*
X92195984Y-107018636D01*
X92168161Y-107042261D01*
X92155590Y-107050724D01*
X92146952Y-107047587D01*
X92120360Y-107032747D01*
X92081741Y-107008477D01*
X92036134Y-106977852D01*
X92003707Y-106955503D01*
X91938970Y-106911122D01*
X91869886Y-106863987D01*
X91806787Y-106821155D01*
X91683178Y-106737547D01*
X91579417Y-106793650D01*
X91554984Y-106806599D01*
X91510552Y-106828749D01*
X91476191Y-106844041D01*
X91457828Y-106849743D01*
X91451818Y-106842421D01*
X91436895Y-106814541D01*
X91414852Y-106768575D01*
X91386917Y-106707441D01*
X91354317Y-106634055D01*
X91318276Y-106551335D01*
X91280023Y-106462197D01*
X91240783Y-106369559D01*
X91201783Y-106276337D01*
X91164249Y-106185450D01*
X91129409Y-106099814D01*
X91098488Y-106022345D01*
X91072714Y-105955962D01*
X91053311Y-105903582D01*
X91041508Y-105868121D01*
X91038531Y-105852496D01*
X91038732Y-105852039D01*
X91052601Y-105837595D01*
X91081611Y-105814974D01*
X91119772Y-105788864D01*
X91131817Y-105780892D01*
X91223469Y-105705256D01*
X91299323Y-105615169D01*
X91357581Y-105514381D01*
X91396448Y-105406640D01*
X91414128Y-105295697D01*
X91408826Y-105185303D01*
X91387347Y-105087115D01*
X91348782Y-104987966D01*
X91292562Y-104899512D01*
X91215410Y-104815487D01*
X91185095Y-104788645D01*
X91087094Y-104722510D01*
X90981227Y-104677970D01*
X90870561Y-104654625D01*
X90758164Y-104652078D01*
X90647105Y-104669929D01*
X90540451Y-104707780D01*
X90441270Y-104765232D01*
X90352631Y-104841887D01*
X90277600Y-104937345D01*
X90263175Y-104960985D01*
X90214143Y-105069034D01*
X90188103Y-105181548D01*
X90184372Y-105295614D01*
X90202268Y-105408318D01*
X90241109Y-105516745D01*
X90300214Y-105617982D01*
X90378900Y-105709114D01*
X90476485Y-105787228D01*
X90479654Y-105789333D01*
X90517411Y-105815940D01*
X90545709Y-105838561D01*
X90558634Y-105852496D01*
X90557003Y-105863421D01*
X90546864Y-105895231D01*
X90528884Y-105944534D01*
X90504292Y-106008413D01*
X90474311Y-106083948D01*
X90440170Y-106168223D01*
X90403092Y-106258320D01*
X90364306Y-106351321D01*
X90325036Y-106444308D01*
X90286509Y-106534364D01*
X90249950Y-106618571D01*
X90216586Y-106694010D01*
X90187643Y-106757765D01*
X90164346Y-106806917D01*
X90147923Y-106838549D01*
X90139598Y-106849743D01*
X90132674Y-106848227D01*
X90105477Y-106837331D01*
X90065280Y-106818228D01*
X90018009Y-106793650D01*
X89914248Y-106737547D01*
X89790639Y-106821155D01*
X89754120Y-106845913D01*
X89686194Y-106892171D01*
X89618475Y-106938503D01*
X89561291Y-106977852D01*
X89529732Y-106999297D01*
X89488714Y-107025939D01*
X89458301Y-107044178D01*
X89443446Y-107050941D01*
X89437065Y-107048070D01*
X89413996Y-107030485D01*
X89378433Y-106999523D01*
X89333471Y-106958231D01*
X89282206Y-106909653D01*
X89227733Y-106856835D01*
X89173148Y-106802823D01*
X89121547Y-106750661D01*
X89076024Y-106703396D01*
X89039675Y-106664072D01*
X89015595Y-106635736D01*
X89006881Y-106621432D01*
X89007383Y-106618711D01*
X89017755Y-106596560D01*
X89039912Y-106558235D01*
X89071712Y-106507200D01*
X89111016Y-106446914D01*
X89155681Y-106380842D01*
X89168207Y-106362617D01*
X89212193Y-106298485D01*
X89250937Y-106241789D01*
X89282182Y-106195844D01*
X89303669Y-106163970D01*
X89313140Y-106149483D01*
X89313373Y-106148862D01*
X89310578Y-106131139D01*
X89299903Y-106095235D01*
X89283081Y-106045662D01*
X89261843Y-105986932D01*
X89237921Y-105923556D01*
X89213046Y-105860046D01*
X89188950Y-105800913D01*
X89167365Y-105750669D01*
X89150023Y-105713826D01*
X89138655Y-105694894D01*
X89137516Y-105693719D01*
X89129376Y-105687773D01*
X89115629Y-105681776D01*
X89093537Y-105675114D01*
X89060363Y-105667173D01*
X89013370Y-105657337D01*
X88949820Y-105644991D01*
X88866976Y-105629520D01*
X88762100Y-105610310D01*
X88740348Y-105606267D01*
X88678036Y-105593769D01*
X88625619Y-105581927D01*
X88588066Y-105571917D01*
X88570343Y-105564916D01*
X88567378Y-105559075D01*
X88562435Y-105531016D01*
X88558518Y-105484500D01*
X88555629Y-105423886D01*
X88553773Y-105353532D01*
X88552952Y-105277796D01*
X88553168Y-105201037D01*
X88554426Y-105127612D01*
X88556728Y-105061880D01*
X88560076Y-105008200D01*
X88564474Y-104970930D01*
X88569926Y-104954427D01*
X88575491Y-104951989D01*
X88603178Y-104944305D01*
X88649979Y-104933436D01*
X88712157Y-104920192D01*
X88785979Y-104905384D01*
X88867710Y-104889823D01*
X88912336Y-104881509D01*
X88988824Y-104867092D01*
X89054660Y-104854467D01*
X89106323Y-104844321D01*
X89140293Y-104837341D01*
X89153048Y-104834212D01*
X89153528Y-104833568D01*
X89161651Y-104817181D01*
X89177137Y-104782852D01*
X89198050Y-104735136D01*
X89222455Y-104678586D01*
X89248416Y-104617758D01*
X89273997Y-104557206D01*
X89297262Y-104501485D01*
X89316277Y-104455150D01*
X89329105Y-104422755D01*
X89333812Y-104408855D01*
X89331736Y-104403965D01*
X89317920Y-104380692D01*
X89292860Y-104341519D01*
X89258568Y-104289520D01*
X89217059Y-104227768D01*
X89170346Y-104159336D01*
X89144718Y-104121860D01*
X89100490Y-104056156D01*
X89062570Y-103998492D01*
X89032980Y-103952014D01*
X89013743Y-103919865D01*
X89006881Y-103905190D01*
X89011649Y-103897230D01*
X89031593Y-103873446D01*
X89064313Y-103837451D01*
X89106805Y-103792295D01*
X89156065Y-103741028D01*
X89209091Y-103686701D01*
X89262877Y-103632364D01*
X89314421Y-103581067D01*
X89360720Y-103535859D01*
X89398769Y-103499792D01*
X89425565Y-103475914D01*
X89438105Y-103467278D01*
X89445066Y-103470636D01*
X89470627Y-103486210D01*
X89511874Y-103512715D01*
X89565837Y-103548210D01*
X89629542Y-103590750D01*
X89700016Y-103638395D01*
X89951662Y-103809512D01*
X90371188Y-103636570D01*
X90428036Y-103335018D01*
X90484885Y-103033466D01*
X91112540Y-103033466D01*
X91169389Y-103335018D01*
G36*
X91169389Y-103335018D02*
G01*
X91226237Y-103636570D01*
X91436001Y-103723041D01*
X91645764Y-103809512D01*
X91897410Y-103638395D01*
X91947216Y-103604661D01*
X92013244Y-103560381D01*
X92070410Y-103522561D01*
X92115744Y-103493142D01*
X92146280Y-103474067D01*
X92159046Y-103467278D01*
X92166887Y-103472106D01*
X92190325Y-103492339D01*
X92225794Y-103525543D01*
X92270289Y-103568670D01*
X92320805Y-103618670D01*
X92374336Y-103672495D01*
X92427877Y-103727095D01*
X92478423Y-103779423D01*
X92522968Y-103826428D01*
X92558507Y-103865063D01*
X92582034Y-103892278D01*
X92590544Y-103905024D01*
X92588565Y-103910500D01*
X92574857Y-103934927D01*
X92549825Y-103975129D01*
X92515499Y-104027952D01*
X92473907Y-104090247D01*
X92427079Y-104158862D01*
X92401380Y-104196283D01*
X92357173Y-104261432D01*
X92319272Y-104318289D01*
X92289698Y-104363770D01*
X92270472Y-104394793D01*
X92263614Y-104408274D01*
X92263726Y-104409021D01*
X92269776Y-104426110D01*
X92283654Y-104461006D01*
X92303427Y-104509151D01*
X92327160Y-104565986D01*
X92352918Y-104626953D01*
X92378766Y-104687492D01*
X92402771Y-104743047D01*
X92422998Y-104789057D01*
X92437511Y-104820965D01*
X92444377Y-104834212D01*
X92448439Y-104835387D01*
X92473121Y-104840687D01*
X92517111Y-104849467D01*
X92576887Y-104861040D01*
X92648929Y-104874721D01*
X92729716Y-104889823D01*
X92772294Y-104897830D01*
X92850445Y-104913107D01*
X92918775Y-104927215D01*
X92973551Y-104939345D01*
X93011037Y-104948686D01*
X93027500Y-104954427D01*
X93030457Y-104960119D01*
X93035362Y-104987930D01*
X93039216Y-105034250D01*
X93042021Y-105094720D01*
X93043781Y-105164983D01*
X93044499Y-105240680D01*
X93044177Y-105317453D01*
X93042819Y-105390944D01*
X93040428Y-105456794D01*
X93037006Y-105510645D01*
X93032556Y-105548138D01*
X93027082Y-105564916D01*
X93023760Y-105566809D01*
X92998987Y-105574926D01*
X92956011Y-105585666D01*
X92899802Y-105597853D01*
X92835325Y-105610310D01*
X92813570Y-105614277D01*
X92713093Y-105632729D01*
X92634126Y-105647559D01*
X92573934Y-105659380D01*
X92529778Y-105668809D01*
X92498920Y-105676460D01*
X92478625Y-105682948D01*
X92466154Y-105688888D01*
X92458771Y-105694894D01*
X92457913Y-105695902D01*
X92445838Y-105716919D01*
X92427971Y-105755376D01*
X92406042Y-105806761D01*
X92381784Y-105866563D01*
X92356927Y-105930270D01*
X92333205Y-105993371D01*
X92312347Y-106051355D01*
X92296087Y-106099709D01*
X92286156Y-106133922D01*
X92284285Y-106149483D01*
X92285536Y-106151502D01*
X92298486Y-106171028D01*
X92322840Y-106207042D01*
X92356340Y-106256228D01*
X92396727Y-106315267D01*
X92441745Y-106380842D01*
X92454100Y-106398884D01*
X92497545Y-106463599D01*
X92535091Y-106521476D01*
X92564594Y-106569082D01*
X92583914Y-106602985D01*
X92590905Y-106619752D01*
X92589398Y-106624161D01*
X92573695Y-106645882D01*
X92542714Y-106681354D01*
X92498673Y-106728188D01*
X92443790Y-106783996D01*
X92380286Y-106846392D01*
X92343988Y-106881317D01*
X92286595Y-106935711D01*
X92236361Y-106982302D01*
X92195984Y-107018636D01*
X92168161Y-107042261D01*
X92155590Y-107050724D01*
X92146952Y-107047587D01*
X92120360Y-107032747D01*
X92081741Y-107008477D01*
X92036134Y-106977852D01*
X92003707Y-106955503D01*
X91938970Y-106911122D01*
X91869886Y-106863987D01*
X91806787Y-106821155D01*
X91683178Y-106737547D01*
X91579417Y-106793650D01*
X91554984Y-106806599D01*
X91510552Y-106828749D01*
X91476191Y-106844041D01*
X91457828Y-106849743D01*
X91451818Y-106842421D01*
X91436895Y-106814541D01*
X91414852Y-106768575D01*
X91386917Y-106707441D01*
X91354317Y-106634055D01*
X91318276Y-106551335D01*
X91280023Y-106462197D01*
X91240783Y-106369559D01*
X91201783Y-106276337D01*
X91164249Y-106185450D01*
X91129409Y-106099814D01*
X91098488Y-106022345D01*
X91072714Y-105955962D01*
X91053311Y-105903582D01*
X91041508Y-105868121D01*
X91038531Y-105852496D01*
X91038732Y-105852039D01*
X91052601Y-105837595D01*
X91081611Y-105814974D01*
X91119772Y-105788864D01*
X91131817Y-105780892D01*
X91223469Y-105705256D01*
X91299323Y-105615169D01*
X91357581Y-105514381D01*
X91396448Y-105406640D01*
X91414128Y-105295697D01*
X91408826Y-105185303D01*
X91387347Y-105087115D01*
X91348782Y-104987966D01*
X91292562Y-104899512D01*
X91215410Y-104815487D01*
X91185095Y-104788645D01*
X91087094Y-104722510D01*
X90981227Y-104677970D01*
X90870561Y-104654625D01*
X90758164Y-104652078D01*
X90647105Y-104669929D01*
X90540451Y-104707780D01*
X90441270Y-104765232D01*
X90352631Y-104841887D01*
X90277600Y-104937345D01*
X90263175Y-104960985D01*
X90214143Y-105069034D01*
X90188103Y-105181548D01*
X90184372Y-105295614D01*
X90202268Y-105408318D01*
X90241109Y-105516745D01*
X90300214Y-105617982D01*
X90378900Y-105709114D01*
X90476485Y-105787228D01*
X90479654Y-105789333D01*
X90517411Y-105815940D01*
X90545709Y-105838561D01*
X90558634Y-105852496D01*
X90557003Y-105863421D01*
X90546864Y-105895231D01*
X90528884Y-105944534D01*
X90504292Y-106008413D01*
X90474311Y-106083948D01*
X90440170Y-106168223D01*
X90403092Y-106258320D01*
X90364306Y-106351321D01*
X90325036Y-106444308D01*
X90286509Y-106534364D01*
X90249950Y-106618571D01*
X90216586Y-106694010D01*
X90187643Y-106757765D01*
X90164346Y-106806917D01*
X90147923Y-106838549D01*
X90139598Y-106849743D01*
X90132674Y-106848227D01*
X90105477Y-106837331D01*
X90065280Y-106818228D01*
X90018009Y-106793650D01*
X89914248Y-106737547D01*
X89790639Y-106821155D01*
X89754120Y-106845913D01*
X89686194Y-106892171D01*
X89618475Y-106938503D01*
X89561291Y-106977852D01*
X89529732Y-106999297D01*
X89488714Y-107025939D01*
X89458301Y-107044178D01*
X89443446Y-107050941D01*
X89437065Y-107048070D01*
X89413996Y-107030485D01*
X89378433Y-106999523D01*
X89333471Y-106958231D01*
X89282206Y-106909653D01*
X89227733Y-106856835D01*
X89173148Y-106802823D01*
X89121547Y-106750661D01*
X89076024Y-106703396D01*
X89039675Y-106664072D01*
X89015595Y-106635736D01*
X89006881Y-106621432D01*
X89007383Y-106618711D01*
X89017755Y-106596560D01*
X89039912Y-106558235D01*
X89071712Y-106507200D01*
X89111016Y-106446914D01*
X89155681Y-106380842D01*
X89168207Y-106362617D01*
X89212193Y-106298485D01*
X89250937Y-106241789D01*
X89282182Y-106195844D01*
X89303669Y-106163970D01*
X89313140Y-106149483D01*
X89313373Y-106148862D01*
X89310578Y-106131139D01*
X89299903Y-106095235D01*
X89283081Y-106045662D01*
X89261843Y-105986932D01*
X89237921Y-105923556D01*
X89213046Y-105860046D01*
X89188950Y-105800913D01*
X89167365Y-105750669D01*
X89150023Y-105713826D01*
X89138655Y-105694894D01*
X89137516Y-105693719D01*
X89129376Y-105687773D01*
X89115629Y-105681776D01*
X89093537Y-105675114D01*
X89060363Y-105667173D01*
X89013370Y-105657337D01*
X88949820Y-105644991D01*
X88866976Y-105629520D01*
X88762100Y-105610310D01*
X88740348Y-105606267D01*
X88678036Y-105593769D01*
X88625619Y-105581927D01*
X88588066Y-105571917D01*
X88570343Y-105564916D01*
X88567378Y-105559075D01*
X88562435Y-105531016D01*
X88558518Y-105484500D01*
X88555629Y-105423886D01*
X88553773Y-105353532D01*
X88552952Y-105277796D01*
X88553168Y-105201037D01*
X88554426Y-105127612D01*
X88556728Y-105061880D01*
X88560076Y-105008200D01*
X88564474Y-104970930D01*
X88569926Y-104954427D01*
X88575491Y-104951989D01*
X88603178Y-104944305D01*
X88649979Y-104933436D01*
X88712157Y-104920192D01*
X88785979Y-104905384D01*
X88867710Y-104889823D01*
X88912336Y-104881509D01*
X88988824Y-104867092D01*
X89054660Y-104854467D01*
X89106323Y-104844321D01*
X89140293Y-104837341D01*
X89153048Y-104834212D01*
X89153528Y-104833568D01*
X89161651Y-104817181D01*
X89177137Y-104782852D01*
X89198050Y-104735136D01*
X89222455Y-104678586D01*
X89248416Y-104617758D01*
X89273997Y-104557206D01*
X89297262Y-104501485D01*
X89316277Y-104455150D01*
X89329105Y-104422755D01*
X89333812Y-104408855D01*
X89331736Y-104403965D01*
X89317920Y-104380692D01*
X89292860Y-104341519D01*
X89258568Y-104289520D01*
X89217059Y-104227768D01*
X89170346Y-104159336D01*
X89144718Y-104121860D01*
X89100490Y-104056156D01*
X89062570Y-103998492D01*
X89032980Y-103952014D01*
X89013743Y-103919865D01*
X89006881Y-103905190D01*
X89011649Y-103897230D01*
X89031593Y-103873446D01*
X89064313Y-103837451D01*
X89106805Y-103792295D01*
X89156065Y-103741028D01*
X89209091Y-103686701D01*
X89262877Y-103632364D01*
X89314421Y-103581067D01*
X89360720Y-103535859D01*
X89398769Y-103499792D01*
X89425565Y-103475914D01*
X89438105Y-103467278D01*
X89445066Y-103470636D01*
X89470627Y-103486210D01*
X89511874Y-103512715D01*
X89565837Y-103548210D01*
X89629542Y-103590750D01*
X89700016Y-103638395D01*
X89951662Y-103809512D01*
X90371188Y-103636570D01*
X90428036Y-103335018D01*
X90484885Y-103033466D01*
X91112540Y-103033466D01*
X91169389Y-103335018D01*
G37*
X63800406Y-107684949D02*
X63826127Y-107700647D01*
X63852778Y-107722227D01*
X63852778Y-108369684D01*
X63826127Y-108391264D01*
X63794767Y-108408739D01*
X63758966Y-108409575D01*
X63727528Y-108389082D01*
X63723652Y-108384416D01*
X63718186Y-108374949D01*
X63713979Y-108361267D01*
X63710867Y-108340748D01*
X63708687Y-108310768D01*
X63707276Y-108268704D01*
X63706471Y-108211932D01*
X63706107Y-108137830D01*
X63706022Y-108043773D01*
X63706022Y-107722227D01*
X63732673Y-107700647D01*
X63756386Y-107685877D01*
X63779400Y-107679067D01*
X63800406Y-107684949D01*
G36*
X63800406Y-107684949D02*
G01*
X63826127Y-107700647D01*
X63852778Y-107722227D01*
X63852778Y-108369684D01*
X63826127Y-108391264D01*
X63794767Y-108408739D01*
X63758966Y-108409575D01*
X63727528Y-108389082D01*
X63723652Y-108384416D01*
X63718186Y-108374949D01*
X63713979Y-108361267D01*
X63710867Y-108340748D01*
X63708687Y-108310768D01*
X63707276Y-108268704D01*
X63706471Y-108211932D01*
X63706107Y-108137830D01*
X63706022Y-108043773D01*
X63706022Y-107722227D01*
X63732673Y-107700647D01*
X63756386Y-107685877D01*
X63779400Y-107679067D01*
X63800406Y-107684949D01*
G37*
X70931137Y-107683463D02*
X70965291Y-107706776D01*
X70993000Y-107734485D01*
X70993000Y-108047537D01*
X70992959Y-108131567D01*
X70992701Y-108205789D01*
X70992030Y-108262541D01*
X70990752Y-108304512D01*
X70988673Y-108334389D01*
X70985599Y-108354861D01*
X70981334Y-108368614D01*
X70975684Y-108378337D01*
X70968455Y-108386717D01*
X70936991Y-108408181D01*
X70901826Y-108409947D01*
X70868822Y-108390267D01*
X70863516Y-108384398D01*
X70858066Y-108375314D01*
X70853900Y-108361973D01*
X70850846Y-108341757D01*
X70848732Y-108312049D01*
X70847386Y-108270232D01*
X70846638Y-108213689D01*
X70846314Y-108139802D01*
X70846245Y-108045956D01*
X70846284Y-107970294D01*
X70846539Y-107892385D01*
X70847183Y-107832375D01*
X70848387Y-107787648D01*
X70850324Y-107755585D01*
X70853164Y-107733571D01*
X70857079Y-107718987D01*
X70862242Y-107709218D01*
X70868822Y-107701645D01*
X70898006Y-107682623D01*
X70931137Y-107683463D01*
G36*
X70931137Y-107683463D02*
G01*
X70965291Y-107706776D01*
X70993000Y-107734485D01*
X70993000Y-108047537D01*
X70992959Y-108131567D01*
X70992701Y-108205789D01*
X70992030Y-108262541D01*
X70990752Y-108304512D01*
X70988673Y-108334389D01*
X70985599Y-108354861D01*
X70981334Y-108368614D01*
X70975684Y-108378337D01*
X70968455Y-108386717D01*
X70936991Y-108408181D01*
X70901826Y-108409947D01*
X70868822Y-108390267D01*
X70863516Y-108384398D01*
X70858066Y-108375314D01*
X70853900Y-108361973D01*
X70850846Y-108341757D01*
X70848732Y-108312049D01*
X70847386Y-108270232D01*
X70846638Y-108213689D01*
X70846314Y-108139802D01*
X70846245Y-108045956D01*
X70846284Y-107970294D01*
X70846539Y-107892385D01*
X70847183Y-107832375D01*
X70848387Y-107787648D01*
X70850324Y-107755585D01*
X70853164Y-107733571D01*
X70857079Y-107718987D01*
X70862242Y-107709218D01*
X70868822Y-107701645D01*
X70898006Y-107682623D01*
X70931137Y-107683463D01*
G37*
X70399562Y-102442850D02*
X70482313Y-102470053D01*
X70557406Y-102515484D01*
X70629298Y-102581302D01*
X70667846Y-102625567D01*
X70707256Y-102683961D01*
X70732446Y-102744586D01*
X70745861Y-102813865D01*
X70749948Y-102898222D01*
X70749669Y-102944307D01*
X70747460Y-102985450D01*
X70741894Y-103017582D01*
X70731586Y-103048122D01*
X70715148Y-103084489D01*
X70701200Y-103111728D01*
X70642665Y-103197429D01*
X70570619Y-103266617D01*
X70486947Y-103317741D01*
X70393531Y-103349250D01*
X70360434Y-103356225D01*
X70319960Y-103363094D01*
X70286999Y-103364919D01*
X70252698Y-103361947D01*
X70208200Y-103354426D01*
X70156934Y-103342002D01*
X70066434Y-103304112D01*
X69987345Y-103249836D01*
X69921528Y-103181770D01*
X69870840Y-103102511D01*
X69837140Y-103014654D01*
X69822286Y-102920795D01*
X69828136Y-102823530D01*
X69854399Y-102727220D01*
X69899418Y-102638494D01*
X69960373Y-102563419D01*
X70035184Y-102503641D01*
X70121768Y-102460809D01*
X70218043Y-102436571D01*
X70321928Y-102432576D01*
X70399562Y-102442850D01*
G36*
X70399562Y-102442850D02*
G01*
X70482313Y-102470053D01*
X70557406Y-102515484D01*
X70629298Y-102581302D01*
X70667846Y-102625567D01*
X70707256Y-102683961D01*
X70732446Y-102744586D01*
X70745861Y-102813865D01*
X70749948Y-102898222D01*
X70749669Y-102944307D01*
X70747460Y-102985450D01*
X70741894Y-103017582D01*
X70731586Y-103048122D01*
X70715148Y-103084489D01*
X70701200Y-103111728D01*
X70642665Y-103197429D01*
X70570619Y-103266617D01*
X70486947Y-103317741D01*
X70393531Y-103349250D01*
X70360434Y-103356225D01*
X70319960Y-103363094D01*
X70286999Y-103364919D01*
X70252698Y-103361947D01*
X70208200Y-103354426D01*
X70156934Y-103342002D01*
X70066434Y-103304112D01*
X69987345Y-103249836D01*
X69921528Y-103181770D01*
X69870840Y-103102511D01*
X69837140Y-103014654D01*
X69822286Y-102920795D01*
X69828136Y-102823530D01*
X69854399Y-102727220D01*
X69899418Y-102638494D01*
X69960373Y-102563419D01*
X70035184Y-102503641D01*
X70121768Y-102460809D01*
X70218043Y-102436571D01*
X70321928Y-102432576D01*
X70399562Y-102442850D01*
G37*
X63100767Y-107679068D02*
X63194890Y-107679158D01*
X63269405Y-107679498D01*
X63326811Y-107680239D01*
X63369611Y-107681535D01*
X63400304Y-107683537D01*
X63421391Y-107686396D01*
X63435373Y-107690266D01*
X63444750Y-107695298D01*
X63452022Y-107701645D01*
X63470828Y-107734362D01*
X63472275Y-107771939D01*
X63455917Y-107805178D01*
X63454557Y-107806631D01*
X63443354Y-107814992D01*
X63426252Y-107820547D01*
X63399082Y-107823840D01*
X63357678Y-107825418D01*
X63297873Y-107825822D01*
X63158511Y-107825822D01*
X63158511Y-108089589D01*
X63158436Y-108165417D01*
X63158028Y-108232083D01*
X63157046Y-108281867D01*
X63155250Y-108317784D01*
X63152399Y-108342850D01*
X63148253Y-108360081D01*
X63142571Y-108372492D01*
X63135114Y-108383100D01*
X63132824Y-108385906D01*
X63101646Y-108408548D01*
X63067266Y-108410112D01*
X63034334Y-108390267D01*
X63027355Y-108382191D01*
X63021883Y-108371593D01*
X63017863Y-108355749D01*
X63015072Y-108331773D01*
X63013288Y-108296774D01*
X63012289Y-108247864D01*
X63011852Y-108182154D01*
X63011756Y-108096756D01*
X63011756Y-107825822D01*
X62865820Y-107825822D01*
X62854720Y-107825821D01*
X62798202Y-107825596D01*
X62759358Y-107824457D01*
X62733965Y-107821657D01*
X62717804Y-107816450D01*
X62706652Y-107808089D01*
X62696289Y-107795826D01*
X62680441Y-107765138D01*
X62683543Y-107731358D01*
X62709187Y-107698822D01*
X62714129Y-107695105D01*
X62724338Y-107690269D01*
X62739764Y-107686506D01*
X62762886Y-107683683D01*
X62796183Y-107681670D01*
X62842137Y-107680333D01*
X62903228Y-107679542D01*
X62981935Y-107679163D01*
X63080740Y-107679067D01*
X63100767Y-107679068D01*
G36*
X63100767Y-107679068D02*
G01*
X63194890Y-107679158D01*
X63269405Y-107679498D01*
X63326811Y-107680239D01*
X63369611Y-107681535D01*
X63400304Y-107683537D01*
X63421391Y-107686396D01*
X63435373Y-107690266D01*
X63444750Y-107695298D01*
X63452022Y-107701645D01*
X63470828Y-107734362D01*
X63472275Y-107771939D01*
X63455917Y-107805178D01*
X63454557Y-107806631D01*
X63443354Y-107814992D01*
X63426252Y-107820547D01*
X63399082Y-107823840D01*
X63357678Y-107825418D01*
X63297873Y-107825822D01*
X63158511Y-107825822D01*
X63158511Y-108089589D01*
X63158436Y-108165417D01*
X63158028Y-108232083D01*
X63157046Y-108281867D01*
X63155250Y-108317784D01*
X63152399Y-108342850D01*
X63148253Y-108360081D01*
X63142571Y-108372492D01*
X63135114Y-108383100D01*
X63132824Y-108385906D01*
X63101646Y-108408548D01*
X63067266Y-108410112D01*
X63034334Y-108390267D01*
X63027355Y-108382191D01*
X63021883Y-108371593D01*
X63017863Y-108355749D01*
X63015072Y-108331773D01*
X63013288Y-108296774D01*
X63012289Y-108247864D01*
X63011852Y-108182154D01*
X63011756Y-108096756D01*
X63011756Y-107825822D01*
X62865820Y-107825822D01*
X62854720Y-107825821D01*
X62798202Y-107825596D01*
X62759358Y-107824457D01*
X62733965Y-107821657D01*
X62717804Y-107816450D01*
X62706652Y-107808089D01*
X62696289Y-107795826D01*
X62680441Y-107765138D01*
X62683543Y-107731358D01*
X62709187Y-107698822D01*
X62714129Y-107695105D01*
X62724338Y-107690269D01*
X62739764Y-107686506D01*
X62762886Y-107683683D01*
X62796183Y-107681670D01*
X62842137Y-107680333D01*
X62903228Y-107679542D01*
X62981935Y-107679163D01*
X63080740Y-107679067D01*
X63100767Y-107679068D01*
G37*
X62424734Y-107701645D02*
X62430366Y-107707835D01*
X62435456Y-107716041D01*
X62439543Y-107727817D01*
X62442721Y-107745276D01*
X62445087Y-107770530D01*
X62446738Y-107805690D01*
X62447769Y-107852869D01*
X62448277Y-107914177D01*
X62448359Y-107991727D01*
X62448109Y-108087631D01*
X62447625Y-108204000D01*
X62447557Y-108218175D01*
X62446971Y-108279937D01*
X62445648Y-108323620D01*
X62443103Y-108353001D01*
X62438848Y-108371855D01*
X62432396Y-108383959D01*
X62423262Y-108393089D01*
X62389804Y-108410506D01*
X62354856Y-108407604D01*
X62323953Y-108383100D01*
X62314944Y-108369897D01*
X62307492Y-108351361D01*
X62303124Y-108325333D01*
X62301069Y-108286787D01*
X62300556Y-108230700D01*
X62300556Y-108108045D01*
X61803845Y-108108045D01*
X61803845Y-108242871D01*
X61803772Y-108278662D01*
X61803009Y-108324992D01*
X61800833Y-108355526D01*
X61796536Y-108374557D01*
X61789412Y-108386374D01*
X61778755Y-108395271D01*
X61746504Y-108410341D01*
X61711217Y-108407673D01*
X61680486Y-108383100D01*
X61675831Y-108376845D01*
X61669895Y-108366321D01*
X61665364Y-108352391D01*
X61662048Y-108332317D01*
X61659759Y-108303360D01*
X61658308Y-108262780D01*
X61657505Y-108207840D01*
X61657162Y-108135799D01*
X61657089Y-108043920D01*
X61657089Y-107734485D01*
X61684798Y-107706776D01*
X61716177Y-107684533D01*
X61749406Y-107681844D01*
X61781267Y-107701645D01*
X61789553Y-107711415D01*
X61796965Y-107727307D01*
X61801302Y-107751275D01*
X61803338Y-107788148D01*
X61803845Y-107842756D01*
X61803845Y-107961289D01*
X62300556Y-107961289D01*
X62300556Y-107845776D01*
X62300994Y-107794078D01*
X62302958Y-107759554D01*
X62307474Y-107736978D01*
X62315567Y-107721126D01*
X62328265Y-107706776D01*
X62359643Y-107684533D01*
X62392872Y-107681844D01*
X62424734Y-107701645D01*
G36*
X62424734Y-107701645D02*
G01*
X62430366Y-107707835D01*
X62435456Y-107716041D01*
X62439543Y-107727817D01*
X62442721Y-107745276D01*
X62445087Y-107770530D01*
X62446738Y-107805690D01*
X62447769Y-107852869D01*
X62448277Y-107914177D01*
X62448359Y-107991727D01*
X62448109Y-108087631D01*
X62447625Y-108204000D01*
X62447557Y-108218175D01*
X62446971Y-108279937D01*
X62445648Y-108323620D01*
X62443103Y-108353001D01*
X62438848Y-108371855D01*
X62432396Y-108383959D01*
X62423262Y-108393089D01*
X62389804Y-108410506D01*
X62354856Y-108407604D01*
X62323953Y-108383100D01*
X62314944Y-108369897D01*
X62307492Y-108351361D01*
X62303124Y-108325333D01*
X62301069Y-108286787D01*
X62300556Y-108230700D01*
X62300556Y-108108045D01*
X61803845Y-108108045D01*
X61803845Y-108242871D01*
X61803772Y-108278662D01*
X61803009Y-108324992D01*
X61800833Y-108355526D01*
X61796536Y-108374557D01*
X61789412Y-108386374D01*
X61778755Y-108395271D01*
X61746504Y-108410341D01*
X61711217Y-108407673D01*
X61680486Y-108383100D01*
X61675831Y-108376845D01*
X61669895Y-108366321D01*
X61665364Y-108352391D01*
X61662048Y-108332317D01*
X61659759Y-108303360D01*
X61658308Y-108262780D01*
X61657505Y-108207840D01*
X61657162Y-108135799D01*
X61657089Y-108043920D01*
X61657089Y-107734485D01*
X61684798Y-107706776D01*
X61716177Y-107684533D01*
X61749406Y-107681844D01*
X61781267Y-107701645D01*
X61789553Y-107711415D01*
X61796965Y-107727307D01*
X61801302Y-107751275D01*
X61803338Y-107788148D01*
X61803845Y-107842756D01*
X61803845Y-107961289D01*
X62300556Y-107961289D01*
X62300556Y-107845776D01*
X62300994Y-107794078D01*
X62302958Y-107759554D01*
X62307474Y-107736978D01*
X62315567Y-107721126D01*
X62328265Y-107706776D01*
X62359643Y-107684533D01*
X62392872Y-107681844D01*
X62424734Y-107701645D01*
G37*
X67130133Y-108290396D02*
X67128163Y-108323175D01*
X67125235Y-108346095D01*
X67121158Y-108361897D01*
X67115743Y-108373319D01*
X67108803Y-108383100D01*
X67085406Y-108412845D01*
X66919714Y-108412251D01*
X66884918Y-108411953D01*
X66786435Y-108408522D01*
X66705473Y-108400839D01*
X66638379Y-108388282D01*
X66581496Y-108370227D01*
X66531169Y-108346052D01*
X66527810Y-108344135D01*
X66469998Y-108307417D01*
X66427644Y-108270451D01*
X66394828Y-108226966D01*
X66365628Y-108170689D01*
X66361346Y-108161073D01*
X66338769Y-108097887D01*
X66333034Y-108052333D01*
X66482279Y-108052333D01*
X66487892Y-108077061D01*
X66493618Y-108092939D01*
X66526548Y-108152847D01*
X66573886Y-108198600D01*
X66637652Y-108231736D01*
X66719861Y-108253790D01*
X66722655Y-108254292D01*
X66768940Y-108260255D01*
X66825336Y-108264483D01*
X66880274Y-108266089D01*
X66974156Y-108266089D01*
X66974156Y-107825822D01*
X66886667Y-107826270D01*
X66819747Y-107828746D01*
X66727349Y-107839998D01*
X66648034Y-107859537D01*
X66586060Y-107886511D01*
X66555120Y-107907240D01*
X66527000Y-107937006D01*
X66503660Y-107979434D01*
X66496533Y-107995400D01*
X66484709Y-108027902D01*
X66482279Y-108052333D01*
X66333034Y-108052333D01*
X66331797Y-108042509D01*
X66340399Y-107987483D01*
X66364541Y-107925351D01*
X66365337Y-107923658D01*
X66405788Y-107854236D01*
X66456473Y-107797638D01*
X66519198Y-107753070D01*
X66595774Y-107719741D01*
X66688009Y-107696861D01*
X66797712Y-107683636D01*
X66926691Y-107679275D01*
X66930263Y-107679270D01*
X66990283Y-107679410D01*
X67032214Y-107680446D01*
X67060328Y-107683040D01*
X67078897Y-107687853D01*
X67092194Y-107695544D01*
X67104491Y-107706776D01*
X67132200Y-107734485D01*
X67132200Y-108043920D01*
X67132175Y-108105526D01*
X67131950Y-108184311D01*
X67131332Y-108245021D01*
X67130775Y-108266089D01*
X67130133Y-108290396D01*
G36*
X67130133Y-108290396D02*
G01*
X67128163Y-108323175D01*
X67125235Y-108346095D01*
X67121158Y-108361897D01*
X67115743Y-108373319D01*
X67108803Y-108383100D01*
X67085406Y-108412845D01*
X66919714Y-108412251D01*
X66884918Y-108411953D01*
X66786435Y-108408522D01*
X66705473Y-108400839D01*
X66638379Y-108388282D01*
X66581496Y-108370227D01*
X66531169Y-108346052D01*
X66527810Y-108344135D01*
X66469998Y-108307417D01*
X66427644Y-108270451D01*
X66394828Y-108226966D01*
X66365628Y-108170689D01*
X66361346Y-108161073D01*
X66338769Y-108097887D01*
X66333034Y-108052333D01*
X66482279Y-108052333D01*
X66487892Y-108077061D01*
X66493618Y-108092939D01*
X66526548Y-108152847D01*
X66573886Y-108198600D01*
X66637652Y-108231736D01*
X66719861Y-108253790D01*
X66722655Y-108254292D01*
X66768940Y-108260255D01*
X66825336Y-108264483D01*
X66880274Y-108266089D01*
X66974156Y-108266089D01*
X66974156Y-107825822D01*
X66886667Y-107826270D01*
X66819747Y-107828746D01*
X66727349Y-107839998D01*
X66648034Y-107859537D01*
X66586060Y-107886511D01*
X66555120Y-107907240D01*
X66527000Y-107937006D01*
X66503660Y-107979434D01*
X66496533Y-107995400D01*
X66484709Y-108027902D01*
X66482279Y-108052333D01*
X66333034Y-108052333D01*
X66331797Y-108042509D01*
X66340399Y-107987483D01*
X66364541Y-107925351D01*
X66365337Y-107923658D01*
X66405788Y-107854236D01*
X66456473Y-107797638D01*
X66519198Y-107753070D01*
X66595774Y-107719741D01*
X66688009Y-107696861D01*
X66797712Y-107683636D01*
X66926691Y-107679275D01*
X66930263Y-107679270D01*
X66990283Y-107679410D01*
X67032214Y-107680446D01*
X67060328Y-107683040D01*
X67078897Y-107687853D01*
X67092194Y-107695544D01*
X67104491Y-107706776D01*
X67132200Y-107734485D01*
X67132200Y-108043920D01*
X67132175Y-108105526D01*
X67131950Y-108184311D01*
X67131332Y-108245021D01*
X67130775Y-108266089D01*
X67130133Y-108290396D01*
G37*
X74221817Y-107864427D02*
X74221870Y-107945041D01*
X74221622Y-108045956D01*
X74221583Y-108121617D01*
X74221328Y-108199526D01*
X74220684Y-108259536D01*
X74219480Y-108304264D01*
X74217543Y-108336326D01*
X74214703Y-108358340D01*
X74210788Y-108372924D01*
X74205626Y-108382694D01*
X74199045Y-108390267D01*
X74192077Y-108396501D01*
X74179079Y-108403801D01*
X74159931Y-108408554D01*
X74130528Y-108411292D01*
X74086762Y-108412545D01*
X74024528Y-108412845D01*
X73975582Y-108412469D01*
X73868722Y-108408041D01*
X73779494Y-108397953D01*
X73704696Y-108381365D01*
X73641125Y-108357435D01*
X73585579Y-108325321D01*
X73534854Y-108284182D01*
X73528866Y-108278330D01*
X73491999Y-108229821D01*
X73460899Y-108169013D01*
X73439417Y-108104769D01*
X73434136Y-108066026D01*
X73581353Y-108066026D01*
X73599635Y-108116961D01*
X73629305Y-108162878D01*
X73676002Y-108205287D01*
X73737392Y-108235090D01*
X73816538Y-108254226D01*
X73818028Y-108254464D01*
X73866999Y-108260256D01*
X73925693Y-108264396D01*
X73981734Y-108266004D01*
X74074867Y-108266089D01*
X74074867Y-107825822D01*
X73998667Y-107825808D01*
X73995639Y-107825817D01*
X73944519Y-107827782D01*
X73884416Y-107832507D01*
X73827708Y-107839035D01*
X73777750Y-107848331D01*
X73702998Y-107874600D01*
X73645489Y-107913899D01*
X73603988Y-107966933D01*
X73582771Y-108018200D01*
X73581353Y-108066026D01*
X73434136Y-108066026D01*
X73431400Y-108045956D01*
X73432679Y-108024739D01*
X73444991Y-107967323D01*
X73467520Y-107907413D01*
X73496750Y-107853363D01*
X73529167Y-107813532D01*
X73548708Y-107796510D01*
X73603420Y-107757322D01*
X73663723Y-107727193D01*
X73732919Y-107705232D01*
X73814311Y-107690550D01*
X73911200Y-107682259D01*
X74026889Y-107679467D01*
X74066371Y-107679066D01*
X74112082Y-107678653D01*
X74147883Y-107680457D01*
X74174974Y-107686739D01*
X74194556Y-107699759D01*
X74207830Y-107721778D01*
X74215998Y-107755055D01*
X74220260Y-107801851D01*
X74220857Y-107825822D01*
X74221817Y-107864427D01*
G36*
X74221817Y-107864427D02*
G01*
X74221870Y-107945041D01*
X74221622Y-108045956D01*
X74221583Y-108121617D01*
X74221328Y-108199526D01*
X74220684Y-108259536D01*
X74219480Y-108304264D01*
X74217543Y-108336326D01*
X74214703Y-108358340D01*
X74210788Y-108372924D01*
X74205626Y-108382694D01*
X74199045Y-108390267D01*
X74192077Y-108396501D01*
X74179079Y-108403801D01*
X74159931Y-108408554D01*
X74130528Y-108411292D01*
X74086762Y-108412545D01*
X74024528Y-108412845D01*
X73975582Y-108412469D01*
X73868722Y-108408041D01*
X73779494Y-108397953D01*
X73704696Y-108381365D01*
X73641125Y-108357435D01*
X73585579Y-108325321D01*
X73534854Y-108284182D01*
X73528866Y-108278330D01*
X73491999Y-108229821D01*
X73460899Y-108169013D01*
X73439417Y-108104769D01*
X73434136Y-108066026D01*
X73581353Y-108066026D01*
X73599635Y-108116961D01*
X73629305Y-108162878D01*
X73676002Y-108205287D01*
X73737392Y-108235090D01*
X73816538Y-108254226D01*
X73818028Y-108254464D01*
X73866999Y-108260256D01*
X73925693Y-108264396D01*
X73981734Y-108266004D01*
X74074867Y-108266089D01*
X74074867Y-107825822D01*
X73998667Y-107825808D01*
X73995639Y-107825817D01*
X73944519Y-107827782D01*
X73884416Y-107832507D01*
X73827708Y-107839035D01*
X73777750Y-107848331D01*
X73702998Y-107874600D01*
X73645489Y-107913899D01*
X73603988Y-107966933D01*
X73582771Y-108018200D01*
X73581353Y-108066026D01*
X73434136Y-108066026D01*
X73431400Y-108045956D01*
X73432679Y-108024739D01*
X73444991Y-107967323D01*
X73467520Y-107907413D01*
X73496750Y-107853363D01*
X73529167Y-107813532D01*
X73548708Y-107796510D01*
X73603420Y-107757322D01*
X73663723Y-107727193D01*
X73732919Y-107705232D01*
X73814311Y-107690550D01*
X73911200Y-107682259D01*
X74026889Y-107679467D01*
X74066371Y-107679066D01*
X74112082Y-107678653D01*
X74147883Y-107680457D01*
X74174974Y-107686739D01*
X74194556Y-107699759D01*
X74207830Y-107721778D01*
X74215998Y-107755055D01*
X74220260Y-107801851D01*
X74220857Y-107825822D01*
X74221817Y-107864427D01*
G37*
X69276893Y-107677892D02*
X69288301Y-107684029D01*
X69298850Y-107694691D01*
X69310136Y-107708811D01*
X69314589Y-107714772D01*
X69320588Y-107725268D01*
X69325167Y-107739093D01*
X69328519Y-107758998D01*
X69330833Y-107787732D01*
X69332301Y-107828045D01*
X69333113Y-107882687D01*
X69333460Y-107954407D01*
X69333534Y-108045956D01*
X69333511Y-108104486D01*
X69333292Y-108183573D01*
X69332683Y-108244516D01*
X69331492Y-108290062D01*
X69329529Y-108322963D01*
X69326603Y-108345968D01*
X69322523Y-108361826D01*
X69317097Y-108373286D01*
X69310136Y-108383100D01*
X69279708Y-108407493D01*
X69244765Y-108410372D01*
X69207784Y-108391282D01*
X69203600Y-108387807D01*
X69195424Y-108379279D01*
X69189364Y-108367728D01*
X69184981Y-108349896D01*
X69181839Y-108322524D01*
X69179502Y-108282354D01*
X69177531Y-108226128D01*
X69175489Y-108150589D01*
X69169845Y-107931458D01*
X68904556Y-108172099D01*
X68830722Y-108238875D01*
X68765542Y-108296991D01*
X68713348Y-108341949D01*
X68672273Y-108374871D01*
X68640455Y-108396879D01*
X68616026Y-108409094D01*
X68597124Y-108412639D01*
X68581883Y-108408636D01*
X68568439Y-108398207D01*
X68554927Y-108382474D01*
X68548682Y-108373991D01*
X68543050Y-108363413D01*
X68538839Y-108349255D01*
X68535887Y-108328803D01*
X68534032Y-108299342D01*
X68533113Y-108258161D01*
X68532968Y-108202544D01*
X68533435Y-108129779D01*
X68534352Y-108037151D01*
X68537667Y-107722199D01*
X68564318Y-107700633D01*
X68590383Y-107684441D01*
X68623241Y-107681670D01*
X68657772Y-107700623D01*
X68662084Y-107704208D01*
X68670216Y-107712737D01*
X68676245Y-107724329D01*
X68680606Y-107742235D01*
X68683734Y-107769706D01*
X68686063Y-107809994D01*
X68688029Y-107866351D01*
X68690067Y-107942029D01*
X68695711Y-108161878D01*
X68876334Y-107998084D01*
X68963072Y-107919451D01*
X69038843Y-107851058D01*
X69100980Y-107795708D01*
X69151078Y-107752338D01*
X69190735Y-107719881D01*
X69221548Y-107697273D01*
X69245114Y-107683448D01*
X69263030Y-107677343D01*
X69276893Y-107677892D01*
G36*
X69276893Y-107677892D02*
G01*
X69288301Y-107684029D01*
X69298850Y-107694691D01*
X69310136Y-107708811D01*
X69314589Y-107714772D01*
X69320588Y-107725268D01*
X69325167Y-107739093D01*
X69328519Y-107758998D01*
X69330833Y-107787732D01*
X69332301Y-107828045D01*
X69333113Y-107882687D01*
X69333460Y-107954407D01*
X69333534Y-108045956D01*
X69333511Y-108104486D01*
X69333292Y-108183573D01*
X69332683Y-108244516D01*
X69331492Y-108290062D01*
X69329529Y-108322963D01*
X69326603Y-108345968D01*
X69322523Y-108361826D01*
X69317097Y-108373286D01*
X69310136Y-108383100D01*
X69279708Y-108407493D01*
X69244765Y-108410372D01*
X69207784Y-108391282D01*
X69203600Y-108387807D01*
X69195424Y-108379279D01*
X69189364Y-108367728D01*
X69184981Y-108349896D01*
X69181839Y-108322524D01*
X69179502Y-108282354D01*
X69177531Y-108226128D01*
X69175489Y-108150589D01*
X69169845Y-107931458D01*
X68904556Y-108172099D01*
X68830722Y-108238875D01*
X68765542Y-108296991D01*
X68713348Y-108341949D01*
X68672273Y-108374871D01*
X68640455Y-108396879D01*
X68616026Y-108409094D01*
X68597124Y-108412639D01*
X68581883Y-108408636D01*
X68568439Y-108398207D01*
X68554927Y-108382474D01*
X68548682Y-108373991D01*
X68543050Y-108363413D01*
X68538839Y-108349255D01*
X68535887Y-108328803D01*
X68534032Y-108299342D01*
X68533113Y-108258161D01*
X68532968Y-108202544D01*
X68533435Y-108129779D01*
X68534352Y-108037151D01*
X68537667Y-107722199D01*
X68564318Y-107700633D01*
X68590383Y-107684441D01*
X68623241Y-107681670D01*
X68657772Y-107700623D01*
X68662084Y-107704208D01*
X68670216Y-107712737D01*
X68676245Y-107724329D01*
X68680606Y-107742235D01*
X68683734Y-107769706D01*
X68686063Y-107809994D01*
X68688029Y-107866351D01*
X68690067Y-107942029D01*
X68695711Y-108161878D01*
X68876334Y-107998084D01*
X68963072Y-107919451D01*
X69038843Y-107851058D01*
X69100980Y-107795708D01*
X69151078Y-107752338D01*
X69190735Y-107719881D01*
X69221548Y-107697273D01*
X69245114Y-107683448D01*
X69263030Y-107677343D01*
X69276893Y-107677892D01*
G37*
X70074150Y-107684179D02*
X70180157Y-107700494D01*
X70273969Y-107728545D01*
X70352765Y-107767452D01*
X70413719Y-107816334D01*
X70439789Y-107849195D01*
X70469297Y-107898394D01*
X70494568Y-107952252D01*
X70512218Y-108003419D01*
X70518858Y-108044544D01*
X70517298Y-108064259D01*
X70504357Y-108115592D01*
X70481194Y-108172118D01*
X70451302Y-108226035D01*
X70418173Y-108269539D01*
X70407977Y-108279887D01*
X70340892Y-108331662D01*
X70260766Y-108371554D01*
X70174556Y-108395956D01*
X70119592Y-108404068D01*
X70026139Y-108410673D01*
X69936358Y-108408586D01*
X69853869Y-108398340D01*
X69782286Y-108380470D01*
X69725228Y-108355508D01*
X69686311Y-108323988D01*
X69684936Y-108322012D01*
X69677848Y-108296786D01*
X69673609Y-108249535D01*
X69672200Y-108180071D01*
X69673060Y-108117838D01*
X69677780Y-108070456D01*
X69689470Y-108038353D01*
X69711239Y-108018800D01*
X69746198Y-108009070D01*
X69797456Y-108006433D01*
X69868123Y-108008161D01*
X69916743Y-108011173D01*
X69966939Y-108019366D01*
X69999433Y-108033419D01*
X70016892Y-108054654D01*
X70021983Y-108084394D01*
X70021877Y-108088936D01*
X70013175Y-108123730D01*
X69989165Y-108147147D01*
X69947900Y-108160347D01*
X69887431Y-108164489D01*
X69818956Y-108164489D01*
X69818956Y-108202841D01*
X69819006Y-108211976D01*
X69821227Y-108229227D01*
X69830494Y-108239521D01*
X69851875Y-108246459D01*
X69890436Y-108253641D01*
X69895910Y-108254575D01*
X69992860Y-108264478D01*
X70082852Y-108261559D01*
X70163760Y-108246829D01*
X70233459Y-108221299D01*
X70289824Y-108185978D01*
X70330729Y-108141879D01*
X70354051Y-108090012D01*
X70357663Y-108031388D01*
X70352145Y-108002494D01*
X70325461Y-107946604D01*
X70279273Y-107900945D01*
X70214291Y-107866108D01*
X70131229Y-107842690D01*
X70106555Y-107838241D01*
X70017226Y-107827742D01*
X69937419Y-107828971D01*
X69859326Y-107841906D01*
X69824183Y-107848696D01*
X69778745Y-107849713D01*
X69747430Y-107837182D01*
X69727277Y-107810395D01*
X69720893Y-107782148D01*
X69730379Y-107750924D01*
X69739708Y-107737499D01*
X69773943Y-107713967D01*
X69826565Y-107696095D01*
X69895081Y-107684599D01*
X69977000Y-107680192D01*
X70074150Y-107684179D01*
G36*
X70074150Y-107684179D02*
G01*
X70180157Y-107700494D01*
X70273969Y-107728545D01*
X70352765Y-107767452D01*
X70413719Y-107816334D01*
X70439789Y-107849195D01*
X70469297Y-107898394D01*
X70494568Y-107952252D01*
X70512218Y-108003419D01*
X70518858Y-108044544D01*
X70517298Y-108064259D01*
X70504357Y-108115592D01*
X70481194Y-108172118D01*
X70451302Y-108226035D01*
X70418173Y-108269539D01*
X70407977Y-108279887D01*
X70340892Y-108331662D01*
X70260766Y-108371554D01*
X70174556Y-108395956D01*
X70119592Y-108404068D01*
X70026139Y-108410673D01*
X69936358Y-108408586D01*
X69853869Y-108398340D01*
X69782286Y-108380470D01*
X69725228Y-108355508D01*
X69686311Y-108323988D01*
X69684936Y-108322012D01*
X69677848Y-108296786D01*
X69673609Y-108249535D01*
X69672200Y-108180071D01*
X69673060Y-108117838D01*
X69677780Y-108070456D01*
X69689470Y-108038353D01*
X69711239Y-108018800D01*
X69746198Y-108009070D01*
X69797456Y-108006433D01*
X69868123Y-108008161D01*
X69916743Y-108011173D01*
X69966939Y-108019366D01*
X69999433Y-108033419D01*
X70016892Y-108054654D01*
X70021983Y-108084394D01*
X70021877Y-108088936D01*
X70013175Y-108123730D01*
X69989165Y-108147147D01*
X69947900Y-108160347D01*
X69887431Y-108164489D01*
X69818956Y-108164489D01*
X69818956Y-108202841D01*
X69819006Y-108211976D01*
X69821227Y-108229227D01*
X69830494Y-108239521D01*
X69851875Y-108246459D01*
X69890436Y-108253641D01*
X69895910Y-108254575D01*
X69992860Y-108264478D01*
X70082852Y-108261559D01*
X70163760Y-108246829D01*
X70233459Y-108221299D01*
X70289824Y-108185978D01*
X70330729Y-108141879D01*
X70354051Y-108090012D01*
X70357663Y-108031388D01*
X70352145Y-108002494D01*
X70325461Y-107946604D01*
X70279273Y-107900945D01*
X70214291Y-107866108D01*
X70131229Y-107842690D01*
X70106555Y-107838241D01*
X70017226Y-107827742D01*
X69937419Y-107828971D01*
X69859326Y-107841906D01*
X69824183Y-107848696D01*
X69778745Y-107849713D01*
X69747430Y-107837182D01*
X69727277Y-107810395D01*
X69720893Y-107782148D01*
X69730379Y-107750924D01*
X69739708Y-107737499D01*
X69773943Y-107713967D01*
X69826565Y-107696095D01*
X69895081Y-107684599D01*
X69977000Y-107680192D01*
X70074150Y-107684179D01*
G37*
X68124803Y-107708811D02*
X68129752Y-107715495D01*
X68135596Y-107726066D01*
X68140057Y-107740153D01*
X68143321Y-107760478D01*
X68145574Y-107789765D01*
X68147002Y-107830737D01*
X68147792Y-107886117D01*
X68148129Y-107958628D01*
X68148200Y-108050994D01*
X68148171Y-108116911D01*
X68147939Y-108195228D01*
X68147319Y-108255496D01*
X68146126Y-108300393D01*
X68144179Y-108332602D01*
X68141294Y-108354800D01*
X68137288Y-108369669D01*
X68131979Y-108379889D01*
X68125183Y-108388138D01*
X68120668Y-108392795D01*
X68112438Y-108399282D01*
X68101078Y-108404194D01*
X68083810Y-108407749D01*
X68057855Y-108410167D01*
X68020436Y-108411667D01*
X67968773Y-108412467D01*
X67900089Y-108412787D01*
X67811606Y-108412845D01*
X67791931Y-108412838D01*
X67704906Y-108412572D01*
X67637254Y-108411806D01*
X67586299Y-108410392D01*
X67549367Y-108408180D01*
X67523783Y-108405022D01*
X67506871Y-108400769D01*
X67495957Y-108395271D01*
X67485464Y-108385285D01*
X67472203Y-108354168D01*
X67473386Y-108318280D01*
X67489550Y-108286733D01*
X67491739Y-108284457D01*
X67500427Y-108278189D01*
X67513769Y-108273523D01*
X67534752Y-108270227D01*
X67566363Y-108268068D01*
X67611590Y-108266814D01*
X67673420Y-108266231D01*
X67754839Y-108266089D01*
X68001445Y-108266089D01*
X68001445Y-108108045D01*
X67839006Y-108108045D01*
X67803338Y-108107964D01*
X67747568Y-108107167D01*
X67708430Y-108105162D01*
X67681976Y-108101521D01*
X67664259Y-108095812D01*
X67651329Y-108087607D01*
X67647686Y-108084423D01*
X67629278Y-108053448D01*
X67628644Y-108017112D01*
X67646183Y-107983493D01*
X67646245Y-107983424D01*
X67655916Y-107974798D01*
X67669209Y-107968742D01*
X67689917Y-107964811D01*
X67721828Y-107962556D01*
X67768734Y-107961531D01*
X67834424Y-107961289D01*
X68002571Y-107961289D01*
X67999186Y-107896378D01*
X67995800Y-107831467D01*
X67753723Y-107828414D01*
X67728707Y-107828086D01*
X67647087Y-107826606D01*
X67584768Y-107824222D01*
X67539154Y-107820227D01*
X67507652Y-107813913D01*
X67487667Y-107804574D01*
X67476604Y-107791503D01*
X67471869Y-107773992D01*
X67470867Y-107751335D01*
X67470873Y-107748970D01*
X67472027Y-107728939D01*
X67476824Y-107713146D01*
X67487632Y-107701090D01*
X67506817Y-107692267D01*
X67536745Y-107686175D01*
X67579783Y-107682311D01*
X67638299Y-107680174D01*
X67714657Y-107679260D01*
X67811226Y-107679067D01*
X68101406Y-107679067D01*
X68124803Y-107708811D01*
G36*
X68124803Y-107708811D02*
G01*
X68129752Y-107715495D01*
X68135596Y-107726066D01*
X68140057Y-107740153D01*
X68143321Y-107760478D01*
X68145574Y-107789765D01*
X68147002Y-107830737D01*
X68147792Y-107886117D01*
X68148129Y-107958628D01*
X68148200Y-108050994D01*
X68148171Y-108116911D01*
X68147939Y-108195228D01*
X68147319Y-108255496D01*
X68146126Y-108300393D01*
X68144179Y-108332602D01*
X68141294Y-108354800D01*
X68137288Y-108369669D01*
X68131979Y-108379889D01*
X68125183Y-108388138D01*
X68120668Y-108392795D01*
X68112438Y-108399282D01*
X68101078Y-108404194D01*
X68083810Y-108407749D01*
X68057855Y-108410167D01*
X68020436Y-108411667D01*
X67968773Y-108412467D01*
X67900089Y-108412787D01*
X67811606Y-108412845D01*
X67791931Y-108412838D01*
X67704906Y-108412572D01*
X67637254Y-108411806D01*
X67586299Y-108410392D01*
X67549367Y-108408180D01*
X67523783Y-108405022D01*
X67506871Y-108400769D01*
X67495957Y-108395271D01*
X67485464Y-108385285D01*
X67472203Y-108354168D01*
X67473386Y-108318280D01*
X67489550Y-108286733D01*
X67491739Y-108284457D01*
X67500427Y-108278189D01*
X67513769Y-108273523D01*
X67534752Y-108270227D01*
X67566363Y-108268068D01*
X67611590Y-108266814D01*
X67673420Y-108266231D01*
X67754839Y-108266089D01*
X68001445Y-108266089D01*
X68001445Y-108108045D01*
X67839006Y-108108045D01*
X67803338Y-108107964D01*
X67747568Y-108107167D01*
X67708430Y-108105162D01*
X67681976Y-108101521D01*
X67664259Y-108095812D01*
X67651329Y-108087607D01*
X67647686Y-108084423D01*
X67629278Y-108053448D01*
X67628644Y-108017112D01*
X67646183Y-107983493D01*
X67646245Y-107983424D01*
X67655916Y-107974798D01*
X67669209Y-107968742D01*
X67689917Y-107964811D01*
X67721828Y-107962556D01*
X67768734Y-107961531D01*
X67834424Y-107961289D01*
X68002571Y-107961289D01*
X67999186Y-107896378D01*
X67995800Y-107831467D01*
X67753723Y-107828414D01*
X67728707Y-107828086D01*
X67647087Y-107826606D01*
X67584768Y-107824222D01*
X67539154Y-107820227D01*
X67507652Y-107813913D01*
X67487667Y-107804574D01*
X67476604Y-107791503D01*
X67471869Y-107773992D01*
X67470867Y-107751335D01*
X67470873Y-107748970D01*
X67472027Y-107728939D01*
X67476824Y-107713146D01*
X67487632Y-107701090D01*
X67506817Y-107692267D01*
X67536745Y-107686175D01*
X67579783Y-107682311D01*
X67638299Y-107680174D01*
X67714657Y-107679260D01*
X67811226Y-107679067D01*
X68101406Y-107679067D01*
X68124803Y-107708811D01*
G37*
X72801734Y-107679083D02*
X72878831Y-107679275D01*
X72937777Y-107679860D01*
X72981364Y-107681051D01*
X73012383Y-107683064D01*
X73033625Y-107686112D01*
X73047882Y-107690409D01*
X73057945Y-107696172D01*
X73066606Y-107703612D01*
X73068391Y-107705293D01*
X73075635Y-107712832D01*
X73081277Y-107721850D01*
X73085517Y-107734984D01*
X73088556Y-107754872D01*
X73090594Y-107784151D01*
X73091830Y-107825458D01*
X73092465Y-107881431D01*
X73092700Y-107954707D01*
X73092734Y-108047923D01*
X73092697Y-108120713D01*
X73092448Y-108198889D01*
X73091812Y-108259103D01*
X73090615Y-108303982D01*
X73088684Y-108336152D01*
X73085846Y-108358239D01*
X73081927Y-108372870D01*
X73076755Y-108382670D01*
X73070156Y-108390267D01*
X73066822Y-108393444D01*
X73058300Y-108399554D01*
X73046298Y-108404229D01*
X73028087Y-108407659D01*
X73000940Y-108410036D01*
X72962129Y-108411552D01*
X72908924Y-108412398D01*
X72838598Y-108412765D01*
X72748422Y-108412845D01*
X72706314Y-108412833D01*
X72625167Y-108412651D01*
X72562675Y-108412098D01*
X72516109Y-108410982D01*
X72482741Y-108409113D01*
X72459844Y-108406298D01*
X72444688Y-108402346D01*
X72434546Y-108397066D01*
X72426689Y-108390267D01*
X72411963Y-108368667D01*
X72404111Y-108339467D01*
X72409610Y-108315560D01*
X72426689Y-108288667D01*
X72431668Y-108284059D01*
X72441443Y-108277772D01*
X72455559Y-108273146D01*
X72477054Y-108269930D01*
X72508968Y-108267870D01*
X72554342Y-108266712D01*
X72616213Y-108266202D01*
X72697622Y-108266089D01*
X72945978Y-108266089D01*
X72945978Y-108108045D01*
X72784801Y-108108045D01*
X72748983Y-108107899D01*
X72683359Y-108106176D01*
X72636118Y-108101741D01*
X72604383Y-108093637D01*
X72585277Y-108080906D01*
X72575923Y-108062592D01*
X72573445Y-108037738D01*
X72574242Y-108017482D01*
X72579494Y-107995656D01*
X72592288Y-107980304D01*
X72615628Y-107970309D01*
X72652517Y-107964553D01*
X72705959Y-107961919D01*
X72778958Y-107961289D01*
X72947105Y-107961289D01*
X72943719Y-107896378D01*
X72940334Y-107831467D01*
X72692617Y-107828418D01*
X72630026Y-107827539D01*
X72561565Y-107826095D01*
X72510661Y-107824164D01*
X72474408Y-107821514D01*
X72449901Y-107817910D01*
X72434235Y-107813121D01*
X72424506Y-107806913D01*
X72418491Y-107800510D01*
X72405482Y-107768828D01*
X72409043Y-107733142D01*
X72428818Y-107702084D01*
X72432069Y-107699161D01*
X72441049Y-107692810D01*
X72453153Y-107687957D01*
X72471159Y-107684403D01*
X72497847Y-107681946D01*
X72535997Y-107680385D01*
X72588386Y-107679518D01*
X72657794Y-107679146D01*
X72747001Y-107679067D01*
X72801734Y-107679083D01*
G36*
X72801734Y-107679083D02*
G01*
X72878831Y-107679275D01*
X72937777Y-107679860D01*
X72981364Y-107681051D01*
X73012383Y-107683064D01*
X73033625Y-107686112D01*
X73047882Y-107690409D01*
X73057945Y-107696172D01*
X73066606Y-107703612D01*
X73068391Y-107705293D01*
X73075635Y-107712832D01*
X73081277Y-107721850D01*
X73085517Y-107734984D01*
X73088556Y-107754872D01*
X73090594Y-107784151D01*
X73091830Y-107825458D01*
X73092465Y-107881431D01*
X73092700Y-107954707D01*
X73092734Y-108047923D01*
X73092697Y-108120713D01*
X73092448Y-108198889D01*
X73091812Y-108259103D01*
X73090615Y-108303982D01*
X73088684Y-108336152D01*
X73085846Y-108358239D01*
X73081927Y-108372870D01*
X73076755Y-108382670D01*
X73070156Y-108390267D01*
X73066822Y-108393444D01*
X73058300Y-108399554D01*
X73046298Y-108404229D01*
X73028087Y-108407659D01*
X73000940Y-108410036D01*
X72962129Y-108411552D01*
X72908924Y-108412398D01*
X72838598Y-108412765D01*
X72748422Y-108412845D01*
X72706314Y-108412833D01*
X72625167Y-108412651D01*
X72562675Y-108412098D01*
X72516109Y-108410982D01*
X72482741Y-108409113D01*
X72459844Y-108406298D01*
X72444688Y-108402346D01*
X72434546Y-108397066D01*
X72426689Y-108390267D01*
X72411963Y-108368667D01*
X72404111Y-108339467D01*
X72409610Y-108315560D01*
X72426689Y-108288667D01*
X72431668Y-108284059D01*
X72441443Y-108277772D01*
X72455559Y-108273146D01*
X72477054Y-108269930D01*
X72508968Y-108267870D01*
X72554342Y-108266712D01*
X72616213Y-108266202D01*
X72697622Y-108266089D01*
X72945978Y-108266089D01*
X72945978Y-108108045D01*
X72784801Y-108108045D01*
X72748983Y-108107899D01*
X72683359Y-108106176D01*
X72636118Y-108101741D01*
X72604383Y-108093637D01*
X72585277Y-108080906D01*
X72575923Y-108062592D01*
X72573445Y-108037738D01*
X72574242Y-108017482D01*
X72579494Y-107995656D01*
X72592288Y-107980304D01*
X72615628Y-107970309D01*
X72652517Y-107964553D01*
X72705959Y-107961919D01*
X72778958Y-107961289D01*
X72947105Y-107961289D01*
X72943719Y-107896378D01*
X72940334Y-107831467D01*
X72692617Y-107828418D01*
X72630026Y-107827539D01*
X72561565Y-107826095D01*
X72510661Y-107824164D01*
X72474408Y-107821514D01*
X72449901Y-107817910D01*
X72434235Y-107813121D01*
X72424506Y-107806913D01*
X72418491Y-107800510D01*
X72405482Y-107768828D01*
X72409043Y-107733142D01*
X72428818Y-107702084D01*
X72432069Y-107699161D01*
X72441049Y-107692810D01*
X72453153Y-107687957D01*
X72471159Y-107684403D01*
X72497847Y-107681946D01*
X72535997Y-107680385D01*
X72588386Y-107679518D01*
X72657794Y-107679146D01*
X72747001Y-107679067D01*
X72801734Y-107679083D01*
G37*
X64234702Y-107688478D02*
X64252663Y-107706989D01*
X64273263Y-107738071D01*
X64298095Y-107783756D01*
X64328750Y-107846078D01*
X64366820Y-107927071D01*
X64381454Y-107958454D01*
X64411203Y-108021638D01*
X64437297Y-108076244D01*
X64458292Y-108119290D01*
X64472739Y-108147793D01*
X64479191Y-108158770D01*
X64480550Y-108158189D01*
X64490542Y-108144242D01*
X64507833Y-108114704D01*
X64530430Y-108073087D01*
X64556338Y-108022903D01*
X64572311Y-107991414D01*
X64601261Y-107936061D01*
X64623749Y-107897044D01*
X64641965Y-107871566D01*
X64658096Y-107856831D01*
X64674330Y-107850042D01*
X64692857Y-107848400D01*
X64703360Y-107848875D01*
X64719476Y-107853082D01*
X64734790Y-107863946D01*
X64751388Y-107884219D01*
X64771357Y-107916654D01*
X64796783Y-107964004D01*
X64829752Y-108029022D01*
X64839485Y-108048277D01*
X64863943Y-108094946D01*
X64884178Y-108131109D01*
X64898311Y-108153497D01*
X64904460Y-108158845D01*
X64905827Y-108155573D01*
X64915202Y-108134664D01*
X64932062Y-108097725D01*
X64954979Y-108047874D01*
X64982520Y-107988226D01*
X65013255Y-107921898D01*
X65039970Y-107864677D01*
X65069593Y-107802688D01*
X65092664Y-107756949D01*
X65110643Y-107724908D01*
X65124990Y-107704014D01*
X65137166Y-107691718D01*
X65148632Y-107685466D01*
X65158042Y-107682574D01*
X65183147Y-107682425D01*
X65210290Y-107697768D01*
X65211590Y-107698753D01*
X65233674Y-107721388D01*
X65244723Y-107743613D01*
X65244769Y-107744253D01*
X65240228Y-107761915D01*
X65227364Y-107796481D01*
X65207605Y-107844826D01*
X65182381Y-107903825D01*
X65153119Y-107970355D01*
X65121250Y-108041291D01*
X65088201Y-108113507D01*
X65055401Y-108183880D01*
X65024280Y-108249285D01*
X64996265Y-108306597D01*
X64972786Y-108352692D01*
X64955272Y-108384446D01*
X64945151Y-108398733D01*
X64910743Y-108412102D01*
X64869046Y-108405741D01*
X64863681Y-108401044D01*
X64847852Y-108378893D01*
X64825650Y-108342132D01*
X64799233Y-108294415D01*
X64770760Y-108239393D01*
X64690986Y-108080150D01*
X64617799Y-108226742D01*
X64608103Y-108246032D01*
X64581125Y-108298380D01*
X64557096Y-108343170D01*
X64538332Y-108376154D01*
X64527146Y-108393089D01*
X64526000Y-108394332D01*
X64497879Y-108409619D01*
X64462817Y-108411302D01*
X64431776Y-108398733D01*
X64429350Y-108395884D01*
X64417090Y-108375259D01*
X64397352Y-108337708D01*
X64371448Y-108285880D01*
X64340685Y-108222423D01*
X64306375Y-108149985D01*
X64269825Y-108071216D01*
X64249585Y-108027093D01*
X64212812Y-107946365D01*
X64184355Y-107882687D01*
X64163331Y-107833752D01*
X64148854Y-107797257D01*
X64140039Y-107770895D01*
X64136004Y-107752361D01*
X64135862Y-107739352D01*
X64138730Y-107729561D01*
X64153387Y-107708678D01*
X64179990Y-107688377D01*
X64180745Y-107688035D01*
X64200335Y-107681034D01*
X64217790Y-107680504D01*
X64234702Y-107688478D01*
G36*
X64234702Y-107688478D02*
G01*
X64252663Y-107706989D01*
X64273263Y-107738071D01*
X64298095Y-107783756D01*
X64328750Y-107846078D01*
X64366820Y-107927071D01*
X64381454Y-107958454D01*
X64411203Y-108021638D01*
X64437297Y-108076244D01*
X64458292Y-108119290D01*
X64472739Y-108147793D01*
X64479191Y-108158770D01*
X64480550Y-108158189D01*
X64490542Y-108144242D01*
X64507833Y-108114704D01*
X64530430Y-108073087D01*
X64556338Y-108022903D01*
X64572311Y-107991414D01*
X64601261Y-107936061D01*
X64623749Y-107897044D01*
X64641965Y-107871566D01*
X64658096Y-107856831D01*
X64674330Y-107850042D01*
X64692857Y-107848400D01*
X64703360Y-107848875D01*
X64719476Y-107853082D01*
X64734790Y-107863946D01*
X64751388Y-107884219D01*
X64771357Y-107916654D01*
X64796783Y-107964004D01*
X64829752Y-108029022D01*
X64839485Y-108048277D01*
X64863943Y-108094946D01*
X64884178Y-108131109D01*
X64898311Y-108153497D01*
X64904460Y-108158845D01*
X64905827Y-108155573D01*
X64915202Y-108134664D01*
X64932062Y-108097725D01*
X64954979Y-108047874D01*
X64982520Y-107988226D01*
X65013255Y-107921898D01*
X65039970Y-107864677D01*
X65069593Y-107802688D01*
X65092664Y-107756949D01*
X65110643Y-107724908D01*
X65124990Y-107704014D01*
X65137166Y-107691718D01*
X65148632Y-107685466D01*
X65158042Y-107682574D01*
X65183147Y-107682425D01*
X65210290Y-107697768D01*
X65211590Y-107698753D01*
X65233674Y-107721388D01*
X65244723Y-107743613D01*
X65244769Y-107744253D01*
X65240228Y-107761915D01*
X65227364Y-107796481D01*
X65207605Y-107844826D01*
X65182381Y-107903825D01*
X65153119Y-107970355D01*
X65121250Y-108041291D01*
X65088201Y-108113507D01*
X65055401Y-108183880D01*
X65024280Y-108249285D01*
X64996265Y-108306597D01*
X64972786Y-108352692D01*
X64955272Y-108384446D01*
X64945151Y-108398733D01*
X64910743Y-108412102D01*
X64869046Y-108405741D01*
X64863681Y-108401044D01*
X64847852Y-108378893D01*
X64825650Y-108342132D01*
X64799233Y-108294415D01*
X64770760Y-108239393D01*
X64690986Y-108080150D01*
X64617799Y-108226742D01*
X64608103Y-108246032D01*
X64581125Y-108298380D01*
X64557096Y-108343170D01*
X64538332Y-108376154D01*
X64527146Y-108393089D01*
X64526000Y-108394332D01*
X64497879Y-108409619D01*
X64462817Y-108411302D01*
X64431776Y-108398733D01*
X64429350Y-108395884D01*
X64417090Y-108375259D01*
X64397352Y-108337708D01*
X64371448Y-108285880D01*
X64340685Y-108222423D01*
X64306375Y-108149985D01*
X64269825Y-108071216D01*
X64249585Y-108027093D01*
X64212812Y-107946365D01*
X64184355Y-107882687D01*
X64163331Y-107833752D01*
X64148854Y-107797257D01*
X64140039Y-107770895D01*
X64136004Y-107752361D01*
X64135862Y-107739352D01*
X64138730Y-107729561D01*
X64153387Y-107708678D01*
X64179990Y-107688377D01*
X64180745Y-107688035D01*
X64200335Y-107681034D01*
X64217790Y-107680504D01*
X64234702Y-107688478D01*
G37*
X71785853Y-107679936D02*
X71852100Y-107685366D01*
X71907400Y-107694964D01*
X71958283Y-107709825D01*
X72029595Y-107742958D01*
X72080752Y-107785640D01*
X72111575Y-107837705D01*
X72121889Y-107898983D01*
X72120952Y-107930232D01*
X72115160Y-107955029D01*
X72100353Y-107976699D01*
X72072380Y-108004049D01*
X72064402Y-108011378D01*
X72040692Y-108032281D01*
X72018298Y-108049251D01*
X71994265Y-108063205D01*
X71965637Y-108075056D01*
X71929460Y-108085720D01*
X71882780Y-108096111D01*
X71822641Y-108107146D01*
X71746090Y-108119738D01*
X71650171Y-108134804D01*
X71631808Y-108137838D01*
X71569478Y-108151458D01*
X71524260Y-108167192D01*
X71497976Y-108184263D01*
X71492447Y-108201897D01*
X71495068Y-108206168D01*
X71513000Y-108221233D01*
X71541126Y-108237867D01*
X71553926Y-108243857D01*
X71575224Y-108251050D01*
X71601610Y-108255827D01*
X71637454Y-108258646D01*
X71687128Y-108259964D01*
X71755000Y-108260237D01*
X71772785Y-108260164D01*
X71840406Y-108259053D01*
X71905345Y-108256828D01*
X71960970Y-108253762D01*
X72000651Y-108250127D01*
X72036162Y-108246059D01*
X72065415Y-108245276D01*
X72084315Y-108249876D01*
X72099429Y-108260551D01*
X72103085Y-108264144D01*
X72119427Y-108295918D01*
X72118107Y-108331572D01*
X72099150Y-108362190D01*
X72078780Y-108373796D01*
X72042796Y-108386491D01*
X72000372Y-108396541D01*
X71996922Y-108397140D01*
X71954252Y-108402356D01*
X71896866Y-108406730D01*
X71831849Y-108409818D01*
X71766289Y-108411177D01*
X71750057Y-108411218D01*
X71651744Y-108408741D01*
X71571692Y-108400735D01*
X71506513Y-108386203D01*
X71452817Y-108364149D01*
X71407216Y-108333576D01*
X71366323Y-108293486D01*
X71346202Y-108267259D01*
X71334576Y-108237712D01*
X71331667Y-108197995D01*
X71331808Y-108186026D01*
X71335681Y-108153345D01*
X71348065Y-108126819D01*
X71373230Y-108095971D01*
X71394442Y-108073831D01*
X71420838Y-108051285D01*
X71450555Y-108032917D01*
X71486785Y-108017661D01*
X71532717Y-108004449D01*
X71591544Y-107992214D01*
X71666456Y-107979889D01*
X71760645Y-107966406D01*
X71805957Y-107959396D01*
X71873911Y-107944837D01*
X71923047Y-107928337D01*
X71952614Y-107910439D01*
X71961864Y-107891685D01*
X71950048Y-107872615D01*
X71916416Y-107853771D01*
X71913370Y-107852557D01*
X71867011Y-107840479D01*
X71804361Y-107832279D01*
X71730927Y-107828119D01*
X71652217Y-107828161D01*
X71573739Y-107832569D01*
X71501000Y-107841505D01*
X71497073Y-107842154D01*
X71448257Y-107849861D01*
X71416005Y-107853473D01*
X71395008Y-107852876D01*
X71379954Y-107847954D01*
X71365534Y-107838596D01*
X71364364Y-107837725D01*
X71339847Y-107807351D01*
X71335054Y-107771850D01*
X71350860Y-107737269D01*
X71355406Y-107732813D01*
X71385020Y-107717673D01*
X71432002Y-107704550D01*
X71492306Y-107693750D01*
X71561888Y-107685581D01*
X71636703Y-107680351D01*
X71712706Y-107678367D01*
X71785853Y-107679936D01*
G36*
X71785853Y-107679936D02*
G01*
X71852100Y-107685366D01*
X71907400Y-107694964D01*
X71958283Y-107709825D01*
X72029595Y-107742958D01*
X72080752Y-107785640D01*
X72111575Y-107837705D01*
X72121889Y-107898983D01*
X72120952Y-107930232D01*
X72115160Y-107955029D01*
X72100353Y-107976699D01*
X72072380Y-108004049D01*
X72064402Y-108011378D01*
X72040692Y-108032281D01*
X72018298Y-108049251D01*
X71994265Y-108063205D01*
X71965637Y-108075056D01*
X71929460Y-108085720D01*
X71882780Y-108096111D01*
X71822641Y-108107146D01*
X71746090Y-108119738D01*
X71650171Y-108134804D01*
X71631808Y-108137838D01*
X71569478Y-108151458D01*
X71524260Y-108167192D01*
X71497976Y-108184263D01*
X71492447Y-108201897D01*
X71495068Y-108206168D01*
X71513000Y-108221233D01*
X71541126Y-108237867D01*
X71553926Y-108243857D01*
X71575224Y-108251050D01*
X71601610Y-108255827D01*
X71637454Y-108258646D01*
X71687128Y-108259964D01*
X71755000Y-108260237D01*
X71772785Y-108260164D01*
X71840406Y-108259053D01*
X71905345Y-108256828D01*
X71960970Y-108253762D01*
X72000651Y-108250127D01*
X72036162Y-108246059D01*
X72065415Y-108245276D01*
X72084315Y-108249876D01*
X72099429Y-108260551D01*
X72103085Y-108264144D01*
X72119427Y-108295918D01*
X72118107Y-108331572D01*
X72099150Y-108362190D01*
X72078780Y-108373796D01*
X72042796Y-108386491D01*
X72000372Y-108396541D01*
X71996922Y-108397140D01*
X71954252Y-108402356D01*
X71896866Y-108406730D01*
X71831849Y-108409818D01*
X71766289Y-108411177D01*
X71750057Y-108411218D01*
X71651744Y-108408741D01*
X71571692Y-108400735D01*
X71506513Y-108386203D01*
X71452817Y-108364149D01*
X71407216Y-108333576D01*
X71366323Y-108293486D01*
X71346202Y-108267259D01*
X71334576Y-108237712D01*
X71331667Y-108197995D01*
X71331808Y-108186026D01*
X71335681Y-108153345D01*
X71348065Y-108126819D01*
X71373230Y-108095971D01*
X71394442Y-108073831D01*
X71420838Y-108051285D01*
X71450555Y-108032917D01*
X71486785Y-108017661D01*
X71532717Y-108004449D01*
X71591544Y-107992214D01*
X71666456Y-107979889D01*
X71760645Y-107966406D01*
X71805957Y-107959396D01*
X71873911Y-107944837D01*
X71923047Y-107928337D01*
X71952614Y-107910439D01*
X71961864Y-107891685D01*
X71950048Y-107872615D01*
X71916416Y-107853771D01*
X71913370Y-107852557D01*
X71867011Y-107840479D01*
X71804361Y-107832279D01*
X71730927Y-107828119D01*
X71652217Y-107828161D01*
X71573739Y-107832569D01*
X71501000Y-107841505D01*
X71497073Y-107842154D01*
X71448257Y-107849861D01*
X71416005Y-107853473D01*
X71395008Y-107852876D01*
X71379954Y-107847954D01*
X71365534Y-107838596D01*
X71364364Y-107837725D01*
X71339847Y-107807351D01*
X71335054Y-107771850D01*
X71350860Y-107737269D01*
X71355406Y-107732813D01*
X71385020Y-107717673D01*
X71432002Y-107704550D01*
X71492306Y-107693750D01*
X71561888Y-107685581D01*
X71636703Y-107680351D01*
X71712706Y-107678367D01*
X71785853Y-107679936D01*
G37*
X67933711Y-103372033D02*
X68029268Y-103389523D01*
X68193558Y-103434564D01*
X68347589Y-103497656D01*
X68493509Y-103579915D01*
X68633466Y-103682457D01*
X68769608Y-103806399D01*
X68813473Y-103851661D01*
X68925758Y-103983865D01*
X69018972Y-104121832D01*
X69095719Y-104269750D01*
X69158603Y-104431803D01*
X69162420Y-104443391D01*
X69212507Y-104629392D01*
X69245899Y-104825521D01*
X69262584Y-105027568D01*
X69262551Y-105231325D01*
X69245791Y-105432581D01*
X69212292Y-105627128D01*
X69162044Y-105810756D01*
X69118190Y-105928053D01*
X69040348Y-106090951D01*
X68946828Y-106244866D01*
X68839822Y-106386671D01*
X68721519Y-106513239D01*
X68594111Y-106621441D01*
X68516606Y-106674120D01*
X68389725Y-106743750D01*
X68252243Y-106802468D01*
X68110716Y-106847587D01*
X67971702Y-106876422D01*
X67957597Y-106878106D01*
X67914153Y-106881434D01*
X67856723Y-106884275D01*
X67791122Y-106886373D01*
X67723167Y-106887468D01*
X67596378Y-106885140D01*
X67448673Y-106872136D01*
X67310779Y-106847133D01*
X67177014Y-106809318D01*
X67153562Y-106800889D01*
X67105612Y-106781408D01*
X67049140Y-106756473D01*
X66987379Y-106727722D01*
X66923563Y-106696790D01*
X66860926Y-106665315D01*
X66802703Y-106634934D01*
X66752127Y-106607283D01*
X66712433Y-106583999D01*
X66686854Y-106566718D01*
X66678625Y-106557079D01*
X66680076Y-106553984D01*
X66691250Y-106534079D01*
X66712134Y-106498420D01*
X66741265Y-106449459D01*
X66777181Y-106389646D01*
X66818420Y-106321433D01*
X66863517Y-106247271D01*
X67044785Y-105950008D01*
X67091315Y-105994539D01*
X67182723Y-106072865D01*
X67296334Y-106147439D01*
X67414122Y-106201474D01*
X67534559Y-106234290D01*
X67656117Y-106245211D01*
X67697585Y-106243868D01*
X67815080Y-106225612D01*
X67925089Y-106186617D01*
X68026430Y-106127670D01*
X68117921Y-106049557D01*
X68198380Y-105953064D01*
X68266627Y-105838978D01*
X68282908Y-105804724D01*
X68328982Y-105681240D01*
X68364106Y-105542918D01*
X68388197Y-105393561D01*
X68401173Y-105236973D01*
X68402949Y-105076956D01*
X68393443Y-104917314D01*
X68372572Y-104761850D01*
X68340252Y-104614366D01*
X68296399Y-104478667D01*
X68258982Y-104392076D01*
X68194185Y-104278688D01*
X68118772Y-104185070D01*
X68032418Y-104110959D01*
X67934795Y-104056094D01*
X67825577Y-104020212D01*
X67704439Y-104003051D01*
X67635038Y-104001880D01*
X67512168Y-104016141D01*
X67396664Y-104051241D01*
X67289953Y-104106682D01*
X67193464Y-104181964D01*
X67177720Y-104196440D01*
X67147150Y-104222962D01*
X67124809Y-104240138D01*
X67114691Y-104244787D01*
X67112706Y-104242597D01*
X67098241Y-104223721D01*
X67074400Y-104190397D01*
X67043029Y-104145380D01*
X67005974Y-104091425D01*
X66965083Y-104031285D01*
X66922202Y-103967718D01*
X66879178Y-103903476D01*
X66837857Y-103841315D01*
X66800086Y-103783991D01*
X66767712Y-103734257D01*
X66742582Y-103694868D01*
X66726542Y-103668580D01*
X66721439Y-103658147D01*
X66726050Y-103653941D01*
X66745267Y-103648933D01*
X66754838Y-103646386D01*
X66782809Y-103635249D01*
X66824448Y-103616802D01*
X66875995Y-103592725D01*
X66933690Y-103564699D01*
X66944957Y-103559154D01*
X67122687Y-103479889D01*
X67292490Y-103420385D01*
X67456430Y-103380245D01*
X67616571Y-103359071D01*
X67774977Y-103356466D01*
X67933711Y-103372033D01*
G36*
X67933711Y-103372033D02*
G01*
X68029268Y-103389523D01*
X68193558Y-103434564D01*
X68347589Y-103497656D01*
X68493509Y-103579915D01*
X68633466Y-103682457D01*
X68769608Y-103806399D01*
X68813473Y-103851661D01*
X68925758Y-103983865D01*
X69018972Y-104121832D01*
X69095719Y-104269750D01*
X69158603Y-104431803D01*
X69162420Y-104443391D01*
X69212507Y-104629392D01*
X69245899Y-104825521D01*
X69262584Y-105027568D01*
X69262551Y-105231325D01*
X69245791Y-105432581D01*
X69212292Y-105627128D01*
X69162044Y-105810756D01*
X69118190Y-105928053D01*
X69040348Y-106090951D01*
X68946828Y-106244866D01*
X68839822Y-106386671D01*
X68721519Y-106513239D01*
X68594111Y-106621441D01*
X68516606Y-106674120D01*
X68389725Y-106743750D01*
X68252243Y-106802468D01*
X68110716Y-106847587D01*
X67971702Y-106876422D01*
X67957597Y-106878106D01*
X67914153Y-106881434D01*
X67856723Y-106884275D01*
X67791122Y-106886373D01*
X67723167Y-106887468D01*
X67596378Y-106885140D01*
X67448673Y-106872136D01*
X67310779Y-106847133D01*
X67177014Y-106809318D01*
X67153562Y-106800889D01*
X67105612Y-106781408D01*
X67049140Y-106756473D01*
X66987379Y-106727722D01*
X66923563Y-106696790D01*
X66860926Y-106665315D01*
X66802703Y-106634934D01*
X66752127Y-106607283D01*
X66712433Y-106583999D01*
X66686854Y-106566718D01*
X66678625Y-106557079D01*
X66680076Y-106553984D01*
X66691250Y-106534079D01*
X66712134Y-106498420D01*
X66741265Y-106449459D01*
X66777181Y-106389646D01*
X66818420Y-106321433D01*
X66863517Y-106247271D01*
X67044785Y-105950008D01*
X67091315Y-105994539D01*
X67182723Y-106072865D01*
X67296334Y-106147439D01*
X67414122Y-106201474D01*
X67534559Y-106234290D01*
X67656117Y-106245211D01*
X67697585Y-106243868D01*
X67815080Y-106225612D01*
X67925089Y-106186617D01*
X68026430Y-106127670D01*
X68117921Y-106049557D01*
X68198380Y-105953064D01*
X68266627Y-105838978D01*
X68282908Y-105804724D01*
X68328982Y-105681240D01*
X68364106Y-105542918D01*
X68388197Y-105393561D01*
X68401173Y-105236973D01*
X68402949Y-105076956D01*
X68393443Y-104917314D01*
X68372572Y-104761850D01*
X68340252Y-104614366D01*
X68296399Y-104478667D01*
X68258982Y-104392076D01*
X68194185Y-104278688D01*
X68118772Y-104185070D01*
X68032418Y-104110959D01*
X67934795Y-104056094D01*
X67825577Y-104020212D01*
X67704439Y-104003051D01*
X67635038Y-104001880D01*
X67512168Y-104016141D01*
X67396664Y-104051241D01*
X67289953Y-104106682D01*
X67193464Y-104181964D01*
X67177720Y-104196440D01*
X67147150Y-104222962D01*
X67124809Y-104240138D01*
X67114691Y-104244787D01*
X67112706Y-104242597D01*
X67098241Y-104223721D01*
X67074400Y-104190397D01*
X67043029Y-104145380D01*
X67005974Y-104091425D01*
X66965083Y-104031285D01*
X66922202Y-103967718D01*
X66879178Y-103903476D01*
X66837857Y-103841315D01*
X66800086Y-103783991D01*
X66767712Y-103734257D01*
X66742582Y-103694868D01*
X66726542Y-103668580D01*
X66721439Y-103658147D01*
X66726050Y-103653941D01*
X66745267Y-103648933D01*
X66754838Y-103646386D01*
X66782809Y-103635249D01*
X66824448Y-103616802D01*
X66875995Y-103592725D01*
X66933690Y-103564699D01*
X66944957Y-103559154D01*
X67122687Y-103479889D01*
X67292490Y-103420385D01*
X67456430Y-103380245D01*
X67616571Y-103359071D01*
X67774977Y-103356466D01*
X67933711Y-103372033D01*
G37*
X64130994Y-105652711D02*
X64130268Y-105730158D01*
X64121689Y-105881594D01*
X64102833Y-106018283D01*
X64072837Y-106144276D01*
X64030836Y-106263625D01*
X63975969Y-106380381D01*
X63909167Y-106491179D01*
X63818363Y-106604739D01*
X63714708Y-106700211D01*
X63598887Y-106777073D01*
X63471586Y-106834797D01*
X63333489Y-106872858D01*
X63295793Y-106878666D01*
X63216752Y-106884396D01*
X63128629Y-106884583D01*
X63039236Y-106879539D01*
X62956384Y-106869578D01*
X62887887Y-106855012D01*
X62857035Y-106845364D01*
X62779730Y-106815123D01*
X62702679Y-106777617D01*
X62633200Y-106736614D01*
X62578615Y-106695879D01*
X62555916Y-106676505D01*
X62533201Y-106658662D01*
X62521779Y-106651778D01*
X62520537Y-106653424D01*
X62517728Y-106671205D01*
X62515776Y-106704370D01*
X62515045Y-106747733D01*
X62515045Y-106843689D01*
X61656896Y-106843689D01*
X61691161Y-106782974D01*
X61696355Y-106773868D01*
X61704715Y-106759249D01*
X61712288Y-106745173D01*
X61719112Y-106730540D01*
X61725227Y-106714249D01*
X61730673Y-106695198D01*
X61735487Y-106672286D01*
X61739708Y-106644413D01*
X61743377Y-106610478D01*
X61746531Y-106569379D01*
X61749211Y-106520015D01*
X61751454Y-106461286D01*
X61753299Y-106392090D01*
X61754787Y-106311326D01*
X61755955Y-106217894D01*
X61756844Y-106110692D01*
X61757491Y-105988620D01*
X61757936Y-105850576D01*
X61758218Y-105695459D01*
X61758375Y-105522168D01*
X61758448Y-105329603D01*
X61758474Y-105116662D01*
X61758485Y-104980530D01*
X62560200Y-104980530D01*
X62560200Y-106130721D01*
X62630756Y-106177089D01*
X62671417Y-106200791D01*
X62725546Y-106226639D01*
X62774689Y-106244829D01*
X62838165Y-106260551D01*
X62934331Y-106271541D01*
X63018900Y-106263365D01*
X63092219Y-106235805D01*
X63154637Y-106188642D01*
X63206502Y-106121658D01*
X63248160Y-106034633D01*
X63279962Y-105927350D01*
X63282545Y-105915009D01*
X63291000Y-105853772D01*
X63296663Y-105776692D01*
X63299576Y-105689002D01*
X63299783Y-105595934D01*
X63297330Y-105502720D01*
X63292261Y-105414594D01*
X63284619Y-105336788D01*
X63274448Y-105274533D01*
X63273167Y-105268666D01*
X63244126Y-105158121D01*
X63209610Y-105067575D01*
X63168456Y-104994953D01*
X63119499Y-104938181D01*
X63061574Y-104895184D01*
X63029620Y-104879615D01*
X62956784Y-104860722D01*
X62875443Y-104857465D01*
X62790319Y-104869389D01*
X62706133Y-104896040D01*
X62627608Y-104936962D01*
X62560200Y-104980530D01*
X61758485Y-104980530D01*
X61758493Y-104882245D01*
X61758689Y-103197378D01*
X62664017Y-103197378D01*
X62639585Y-103234067D01*
X62633318Y-103243647D01*
X62607208Y-103289981D01*
X62589469Y-103337102D01*
X62577908Y-103392251D01*
X62570331Y-103462667D01*
X62569839Y-103469650D01*
X62568062Y-103507641D01*
X62566444Y-103561576D01*
X62564999Y-103628703D01*
X62563740Y-103706271D01*
X62562680Y-103791528D01*
X62561829Y-103881724D01*
X62561203Y-103974107D01*
X62560812Y-104065925D01*
X62560670Y-104154427D01*
X62560790Y-104236862D01*
X62561183Y-104310479D01*
X62561862Y-104372526D01*
X62562841Y-104420251D01*
X62564132Y-104450904D01*
X62565747Y-104461733D01*
X62573957Y-104457333D01*
X62595647Y-104442362D01*
X62625014Y-104420448D01*
X62673879Y-104386236D01*
X62762125Y-104339714D01*
X62860916Y-104306046D01*
X62973510Y-104284231D01*
X63103164Y-104273265D01*
X63195670Y-104272219D01*
X63317011Y-104282014D01*
X63427099Y-104306174D01*
X63530389Y-104345785D01*
X63631338Y-104401932D01*
X63676503Y-104432883D01*
X63781911Y-104524115D01*
X63873538Y-104633106D01*
X63951332Y-104759726D01*
X64015241Y-104903845D01*
X64065214Y-105065332D01*
X64101198Y-105244059D01*
X64123143Y-105439895D01*
X64128900Y-105595934D01*
X64130994Y-105652711D01*
G36*
X64130994Y-105652711D02*
G01*
X64130268Y-105730158D01*
X64121689Y-105881594D01*
X64102833Y-106018283D01*
X64072837Y-106144276D01*
X64030836Y-106263625D01*
X63975969Y-106380381D01*
X63909167Y-106491179D01*
X63818363Y-106604739D01*
X63714708Y-106700211D01*
X63598887Y-106777073D01*
X63471586Y-106834797D01*
X63333489Y-106872858D01*
X63295793Y-106878666D01*
X63216752Y-106884396D01*
X63128629Y-106884583D01*
X63039236Y-106879539D01*
X62956384Y-106869578D01*
X62887887Y-106855012D01*
X62857035Y-106845364D01*
X62779730Y-106815123D01*
X62702679Y-106777617D01*
X62633200Y-106736614D01*
X62578615Y-106695879D01*
X62555916Y-106676505D01*
X62533201Y-106658662D01*
X62521779Y-106651778D01*
X62520537Y-106653424D01*
X62517728Y-106671205D01*
X62515776Y-106704370D01*
X62515045Y-106747733D01*
X62515045Y-106843689D01*
X61656896Y-106843689D01*
X61691161Y-106782974D01*
X61696355Y-106773868D01*
X61704715Y-106759249D01*
X61712288Y-106745173D01*
X61719112Y-106730540D01*
X61725227Y-106714249D01*
X61730673Y-106695198D01*
X61735487Y-106672286D01*
X61739708Y-106644413D01*
X61743377Y-106610478D01*
X61746531Y-106569379D01*
X61749211Y-106520015D01*
X61751454Y-106461286D01*
X61753299Y-106392090D01*
X61754787Y-106311326D01*
X61755955Y-106217894D01*
X61756844Y-106110692D01*
X61757491Y-105988620D01*
X61757936Y-105850576D01*
X61758218Y-105695459D01*
X61758375Y-105522168D01*
X61758448Y-105329603D01*
X61758474Y-105116662D01*
X61758485Y-104980530D01*
X62560200Y-104980530D01*
X62560200Y-106130721D01*
X62630756Y-106177089D01*
X62671417Y-106200791D01*
X62725546Y-106226639D01*
X62774689Y-106244829D01*
X62838165Y-106260551D01*
X62934331Y-106271541D01*
X63018900Y-106263365D01*
X63092219Y-106235805D01*
X63154637Y-106188642D01*
X63206502Y-106121658D01*
X63248160Y-106034633D01*
X63279962Y-105927350D01*
X63282545Y-105915009D01*
X63291000Y-105853772D01*
X63296663Y-105776692D01*
X63299576Y-105689002D01*
X63299783Y-105595934D01*
X63297330Y-105502720D01*
X63292261Y-105414594D01*
X63284619Y-105336788D01*
X63274448Y-105274533D01*
X63273167Y-105268666D01*
X63244126Y-105158121D01*
X63209610Y-105067575D01*
X63168456Y-104994953D01*
X63119499Y-104938181D01*
X63061574Y-104895184D01*
X63029620Y-104879615D01*
X62956784Y-104860722D01*
X62875443Y-104857465D01*
X62790319Y-104869389D01*
X62706133Y-104896040D01*
X62627608Y-104936962D01*
X62560200Y-104980530D01*
X61758485Y-104980530D01*
X61758493Y-104882245D01*
X61758689Y-103197378D01*
X62664017Y-103197378D01*
X62639585Y-103234067D01*
X62633318Y-103243647D01*
X62607208Y-103289981D01*
X62589469Y-103337102D01*
X62577908Y-103392251D01*
X62570331Y-103462667D01*
X62569839Y-103469650D01*
X62568062Y-103507641D01*
X62566444Y-103561576D01*
X62564999Y-103628703D01*
X62563740Y-103706271D01*
X62562680Y-103791528D01*
X62561829Y-103881724D01*
X62561203Y-103974107D01*
X62560812Y-104065925D01*
X62560670Y-104154427D01*
X62560790Y-104236862D01*
X62561183Y-104310479D01*
X62561862Y-104372526D01*
X62562841Y-104420251D01*
X62564132Y-104450904D01*
X62565747Y-104461733D01*
X62573957Y-104457333D01*
X62595647Y-104442362D01*
X62625014Y-104420448D01*
X62673879Y-104386236D01*
X62762125Y-104339714D01*
X62860916Y-104306046D01*
X62973510Y-104284231D01*
X63103164Y-104273265D01*
X63195670Y-104272219D01*
X63317011Y-104282014D01*
X63427099Y-104306174D01*
X63530389Y-104345785D01*
X63631338Y-104401932D01*
X63676503Y-104432883D01*
X63781911Y-104524115D01*
X63873538Y-104633106D01*
X63951332Y-104759726D01*
X64015241Y-104903845D01*
X64065214Y-105065332D01*
X64101198Y-105244059D01*
X64123143Y-105439895D01*
X64128900Y-105595934D01*
X64130994Y-105652711D01*
G37*
X66672755Y-106053467D02*
X66672261Y-106087363D01*
X66668632Y-106162202D01*
X66661022Y-106224401D01*
X66648688Y-106280984D01*
X66604313Y-106407076D01*
X66541400Y-106521679D01*
X66461238Y-106622568D01*
X66364740Y-106708924D01*
X66252822Y-106779932D01*
X66126397Y-106834776D01*
X65986378Y-106872638D01*
X65950149Y-106878351D01*
X65871155Y-106884313D01*
X65782841Y-106884646D01*
X65693075Y-106879659D01*
X65609722Y-106869666D01*
X65540651Y-106854978D01*
X65454187Y-106824749D01*
X65344286Y-106770057D01*
X65246956Y-106702543D01*
X65184867Y-106651556D01*
X65181605Y-106747622D01*
X65178343Y-106843689D01*
X64755450Y-106843689D01*
X64744543Y-106843686D01*
X64650056Y-106843380D01*
X64563331Y-106842616D01*
X64486837Y-106841451D01*
X64423043Y-106839942D01*
X64374418Y-106838147D01*
X64343433Y-106836121D01*
X64332556Y-106833922D01*
X64332578Y-106833463D01*
X64339614Y-106817910D01*
X64355434Y-106795071D01*
X64359734Y-106789638D01*
X64370777Y-106775606D01*
X64380311Y-106762186D01*
X64388461Y-106747722D01*
X64395352Y-106730556D01*
X64401111Y-106709034D01*
X64405862Y-106681498D01*
X64409731Y-106646292D01*
X64412844Y-106601760D01*
X64415325Y-106546246D01*
X64417300Y-106478093D01*
X64418894Y-106395645D01*
X64420234Y-106297246D01*
X64421444Y-106181239D01*
X64422649Y-106045968D01*
X64423595Y-105934586D01*
X65224378Y-105934586D01*
X65224378Y-106130462D01*
X65269048Y-106186973D01*
X65281785Y-106202212D01*
X65328604Y-106244844D01*
X65389255Y-106280672D01*
X65399897Y-106285850D01*
X65438676Y-106302745D01*
X65473692Y-106312909D01*
X65513722Y-106318325D01*
X65567541Y-106320978D01*
X65585648Y-106321383D01*
X65661011Y-106318540D01*
X65721743Y-106306620D01*
X65773452Y-106284037D01*
X65821746Y-106249211D01*
X65826803Y-106244798D01*
X65875272Y-106189160D01*
X65903459Y-106125333D01*
X65912752Y-106050282D01*
X65905520Y-105978693D01*
X65880796Y-105915645D01*
X65836249Y-105857758D01*
X65781319Y-105810808D01*
X65708894Y-105770961D01*
X65622340Y-105743263D01*
X65519670Y-105727096D01*
X65398894Y-105721842D01*
X65390007Y-105721857D01*
X65334660Y-105722655D01*
X65287736Y-105724488D01*
X65253953Y-105727111D01*
X65238028Y-105730274D01*
X65233943Y-105736741D01*
X65229572Y-105758875D01*
X65226604Y-105797988D01*
X65224914Y-105855939D01*
X65224378Y-105934586D01*
X64423595Y-105934586D01*
X64423975Y-105889778D01*
X64425228Y-105747012D01*
X64426651Y-105601942D01*
X64428176Y-105476027D01*
X64429933Y-105367436D01*
X64432051Y-105274334D01*
X64434660Y-105194891D01*
X64437890Y-105127273D01*
X64441869Y-105069649D01*
X64446728Y-105020185D01*
X64452597Y-104977050D01*
X64459604Y-104938410D01*
X64467880Y-104902434D01*
X64477554Y-104867289D01*
X64488756Y-104831142D01*
X64501616Y-104792161D01*
X64517090Y-104749091D01*
X64559994Y-104656871D01*
X64613735Y-104577099D01*
X64682576Y-104502965D01*
X64760185Y-104439405D01*
X64864761Y-104377725D01*
X64984244Y-104330202D01*
X65119508Y-104296567D01*
X65271426Y-104276552D01*
X65440872Y-104269889D01*
X65498890Y-104270287D01*
X65564398Y-104272335D01*
X65625693Y-104276704D01*
X65687097Y-104284035D01*
X65752932Y-104294969D01*
X65827520Y-104310147D01*
X65915184Y-104330209D01*
X66020245Y-104355797D01*
X66048806Y-104362820D01*
X66124054Y-104380776D01*
X66194388Y-104396820D01*
X66255567Y-104410028D01*
X66303354Y-104419474D01*
X66333511Y-104424231D01*
X66361783Y-104427910D01*
X66388060Y-104433187D01*
X66398059Y-104437942D01*
X66394952Y-104446781D01*
X66384194Y-104474072D01*
X66366864Y-104516906D01*
X66344126Y-104572425D01*
X66317147Y-104637772D01*
X66287090Y-104710089D01*
X66280493Y-104725879D01*
X66241907Y-104816484D01*
X66210768Y-104886217D01*
X66186917Y-104935405D01*
X66170198Y-104964374D01*
X66160454Y-104973452D01*
X66152766Y-104971405D01*
X66126415Y-104961760D01*
X66087982Y-104946190D01*
X66042822Y-104926815D01*
X65948293Y-104888814D01*
X65811480Y-104847780D01*
X65670289Y-104822612D01*
X65632314Y-104818611D01*
X65529059Y-104816447D01*
X65441952Y-104829622D01*
X65370129Y-104858756D01*
X65312731Y-104904466D01*
X65268896Y-104967372D01*
X65237762Y-105048092D01*
X65218470Y-105147245D01*
X65211050Y-105206224D01*
X65372936Y-105199445D01*
X65499495Y-105197813D01*
X65650951Y-105204194D01*
X65799396Y-105218777D01*
X65935578Y-105240882D01*
X66000245Y-105255821D01*
X66132490Y-105298741D01*
X66254762Y-105355340D01*
X66364685Y-105424017D01*
X66459883Y-105503170D01*
X66537980Y-105591196D01*
X66596599Y-105686493D01*
X66620595Y-105738864D01*
X66646232Y-105809590D01*
X66662478Y-105880812D01*
X66670822Y-105959712D01*
X66672690Y-106050282D01*
X66672755Y-106053467D01*
G36*
X66672755Y-106053467D02*
G01*
X66672261Y-106087363D01*
X66668632Y-106162202D01*
X66661022Y-106224401D01*
X66648688Y-106280984D01*
X66604313Y-106407076D01*
X66541400Y-106521679D01*
X66461238Y-106622568D01*
X66364740Y-106708924D01*
X66252822Y-106779932D01*
X66126397Y-106834776D01*
X65986378Y-106872638D01*
X65950149Y-106878351D01*
X65871155Y-106884313D01*
X65782841Y-106884646D01*
X65693075Y-106879659D01*
X65609722Y-106869666D01*
X65540651Y-106854978D01*
X65454187Y-106824749D01*
X65344286Y-106770057D01*
X65246956Y-106702543D01*
X65184867Y-106651556D01*
X65181605Y-106747622D01*
X65178343Y-106843689D01*
X64755450Y-106843689D01*
X64744543Y-106843686D01*
X64650056Y-106843380D01*
X64563331Y-106842616D01*
X64486837Y-106841451D01*
X64423043Y-106839942D01*
X64374418Y-106838147D01*
X64343433Y-106836121D01*
X64332556Y-106833922D01*
X64332578Y-106833463D01*
X64339614Y-106817910D01*
X64355434Y-106795071D01*
X64359734Y-106789638D01*
X64370777Y-106775606D01*
X64380311Y-106762186D01*
X64388461Y-106747722D01*
X64395352Y-106730556D01*
X64401111Y-106709034D01*
X64405862Y-106681498D01*
X64409731Y-106646292D01*
X64412844Y-106601760D01*
X64415325Y-106546246D01*
X64417300Y-106478093D01*
X64418894Y-106395645D01*
X64420234Y-106297246D01*
X64421444Y-106181239D01*
X64422649Y-106045968D01*
X64423595Y-105934586D01*
X65224378Y-105934586D01*
X65224378Y-106130462D01*
X65269048Y-106186973D01*
X65281785Y-106202212D01*
X65328604Y-106244844D01*
X65389255Y-106280672D01*
X65399897Y-106285850D01*
X65438676Y-106302745D01*
X65473692Y-106312909D01*
X65513722Y-106318325D01*
X65567541Y-106320978D01*
X65585648Y-106321383D01*
X65661011Y-106318540D01*
X65721743Y-106306620D01*
X65773452Y-106284037D01*
X65821746Y-106249211D01*
X65826803Y-106244798D01*
X65875272Y-106189160D01*
X65903459Y-106125333D01*
X65912752Y-106050282D01*
X65905520Y-105978693D01*
X65880796Y-105915645D01*
X65836249Y-105857758D01*
X65781319Y-105810808D01*
X65708894Y-105770961D01*
X65622340Y-105743263D01*
X65519670Y-105727096D01*
X65398894Y-105721842D01*
X65390007Y-105721857D01*
X65334660Y-105722655D01*
X65287736Y-105724488D01*
X65253953Y-105727111D01*
X65238028Y-105730274D01*
X65233943Y-105736741D01*
X65229572Y-105758875D01*
X65226604Y-105797988D01*
X65224914Y-105855939D01*
X65224378Y-105934586D01*
X64423595Y-105934586D01*
X64423975Y-105889778D01*
X64425228Y-105747012D01*
X64426651Y-105601942D01*
X64428176Y-105476027D01*
X64429933Y-105367436D01*
X64432051Y-105274334D01*
X64434660Y-105194891D01*
X64437890Y-105127273D01*
X64441869Y-105069649D01*
X64446728Y-105020185D01*
X64452597Y-104977050D01*
X64459604Y-104938410D01*
X64467880Y-104902434D01*
X64477554Y-104867289D01*
X64488756Y-104831142D01*
X64501616Y-104792161D01*
X64517090Y-104749091D01*
X64559994Y-104656871D01*
X64613735Y-104577099D01*
X64682576Y-104502965D01*
X64760185Y-104439405D01*
X64864761Y-104377725D01*
X64984244Y-104330202D01*
X65119508Y-104296567D01*
X65271426Y-104276552D01*
X65440872Y-104269889D01*
X65498890Y-104270287D01*
X65564398Y-104272335D01*
X65625693Y-104276704D01*
X65687097Y-104284035D01*
X65752932Y-104294969D01*
X65827520Y-104310147D01*
X65915184Y-104330209D01*
X66020245Y-104355797D01*
X66048806Y-104362820D01*
X66124054Y-104380776D01*
X66194388Y-104396820D01*
X66255567Y-104410028D01*
X66303354Y-104419474D01*
X66333511Y-104424231D01*
X66361783Y-104427910D01*
X66388060Y-104433187D01*
X66398059Y-104437942D01*
X66394952Y-104446781D01*
X66384194Y-104474072D01*
X66366864Y-104516906D01*
X66344126Y-104572425D01*
X66317147Y-104637772D01*
X66287090Y-104710089D01*
X66280493Y-104725879D01*
X66241907Y-104816484D01*
X66210768Y-104886217D01*
X66186917Y-104935405D01*
X66170198Y-104964374D01*
X66160454Y-104973452D01*
X66152766Y-104971405D01*
X66126415Y-104961760D01*
X66087982Y-104946190D01*
X66042822Y-104926815D01*
X65948293Y-104888814D01*
X65811480Y-104847780D01*
X65670289Y-104822612D01*
X65632314Y-104818611D01*
X65529059Y-104816447D01*
X65441952Y-104829622D01*
X65370129Y-104858756D01*
X65312731Y-104904466D01*
X65268896Y-104967372D01*
X65237762Y-105048092D01*
X65218470Y-105147245D01*
X65211050Y-105206224D01*
X65372936Y-105199445D01*
X65499495Y-105197813D01*
X65650951Y-105204194D01*
X65799396Y-105218777D01*
X65935578Y-105240882D01*
X66000245Y-105255821D01*
X66132490Y-105298741D01*
X66254762Y-105355340D01*
X66364685Y-105424017D01*
X66459883Y-105503170D01*
X66537980Y-105591196D01*
X66596599Y-105686493D01*
X66620595Y-105738864D01*
X66646232Y-105809590D01*
X66662478Y-105880812D01*
X66670822Y-105959712D01*
X66672690Y-106050282D01*
X66672755Y-106053467D01*
G37*
X74220614Y-103521792D02*
X74221059Y-103653011D01*
X74221362Y-103800216D01*
X74221548Y-103964349D01*
X74221642Y-104146352D01*
X74221671Y-104347165D01*
X74221661Y-104567732D01*
X74221636Y-104808992D01*
X74221622Y-105071889D01*
X74221622Y-105114040D01*
X74221646Y-105374668D01*
X74221685Y-105613796D01*
X74221708Y-105832360D01*
X74221687Y-106031295D01*
X74221593Y-106211535D01*
X74221395Y-106374015D01*
X74221063Y-106519670D01*
X74220569Y-106649434D01*
X74219883Y-106764243D01*
X74218976Y-106865030D01*
X74217817Y-106952730D01*
X74216378Y-107028279D01*
X74214629Y-107092611D01*
X74212540Y-107146661D01*
X74210083Y-107191363D01*
X74207227Y-107227652D01*
X74203943Y-107256463D01*
X74200202Y-107278731D01*
X74195974Y-107295390D01*
X74191229Y-107307375D01*
X74185939Y-107315621D01*
X74180073Y-107321062D01*
X74173602Y-107324634D01*
X74166497Y-107327270D01*
X74158728Y-107329906D01*
X74150266Y-107333477D01*
X74145908Y-107335145D01*
X74137395Y-107337111D01*
X74124694Y-107338911D01*
X74106885Y-107340555D01*
X74083049Y-107342047D01*
X74052266Y-107343397D01*
X74013617Y-107344611D01*
X73966182Y-107345697D01*
X73909043Y-107346661D01*
X73841279Y-107347511D01*
X73761971Y-107348253D01*
X73670199Y-107348897D01*
X73565044Y-107349447D01*
X73445587Y-107349913D01*
X73310908Y-107350300D01*
X73160088Y-107350616D01*
X72992206Y-107350869D01*
X72806345Y-107351066D01*
X72601583Y-107351213D01*
X72377002Y-107351318D01*
X72131682Y-107351389D01*
X71864704Y-107351432D01*
X71826321Y-107351437D01*
X71560922Y-107351480D01*
X71317050Y-107351525D01*
X71093783Y-107351548D01*
X70890196Y-107351524D01*
X70705367Y-107351430D01*
X70538373Y-107351243D01*
X70388290Y-107350939D01*
X70254196Y-107350494D01*
X70135166Y-107349885D01*
X70030279Y-107349089D01*
X69938610Y-107348080D01*
X69859237Y-107346837D01*
X69791237Y-107345335D01*
X69733686Y-107343551D01*
X69685662Y-107341461D01*
X69646240Y-107339042D01*
X69614499Y-107336270D01*
X69589514Y-107333121D01*
X69570364Y-107329572D01*
X69556123Y-107325598D01*
X69545871Y-107321178D01*
X69538682Y-107316286D01*
X69533635Y-107310900D01*
X69529805Y-107304996D01*
X69526271Y-107298549D01*
X69522108Y-107291537D01*
X69521025Y-107289687D01*
X69518813Y-107284180D01*
X69516786Y-107275868D01*
X69514938Y-107263809D01*
X69513261Y-107247063D01*
X69511745Y-107224687D01*
X69510383Y-107195740D01*
X69509167Y-107159280D01*
X69508089Y-107114367D01*
X69507140Y-107060057D01*
X69506312Y-106995410D01*
X69505597Y-106919484D01*
X69504987Y-106831338D01*
X69504942Y-106822493D01*
X69796378Y-106822493D01*
X69800260Y-106823765D01*
X69823520Y-106825791D01*
X69865874Y-106827626D01*
X69925132Y-106829227D01*
X69999107Y-106830549D01*
X70085610Y-106831548D01*
X70182452Y-106832180D01*
X70287445Y-106832400D01*
X70985651Y-106832400D01*
X72140090Y-106832400D01*
X72139456Y-106756200D01*
X72140574Y-106714160D01*
X72146304Y-106678334D01*
X72158890Y-106640772D01*
X72180568Y-106592577D01*
X72183789Y-106585897D01*
X72209188Y-106536359D01*
X72235996Y-106488369D01*
X72258917Y-106451466D01*
X72263485Y-106444834D01*
X72285516Y-106413593D01*
X72317693Y-106368654D01*
X72358457Y-106312147D01*
X72406245Y-106246204D01*
X72459498Y-106172957D01*
X72516655Y-106094536D01*
X72576155Y-106013072D01*
X72636437Y-105930698D01*
X72695940Y-105849544D01*
X72753105Y-105771742D01*
X72806370Y-105699423D01*
X72854174Y-105634718D01*
X72894957Y-105579759D01*
X72927158Y-105536676D01*
X72949216Y-105507602D01*
X72959571Y-105494667D01*
X72964044Y-105490351D01*
X72968236Y-105488312D01*
X72971643Y-105490926D01*
X72974325Y-105499986D01*
X72976341Y-105517285D01*
X72977748Y-105544614D01*
X72978605Y-105583765D01*
X72978970Y-105636533D01*
X72978903Y-105704707D01*
X72978460Y-105790082D01*
X72977702Y-105894449D01*
X72976685Y-106019600D01*
X72976308Y-106064300D01*
X72975169Y-106185395D01*
X72973972Y-106286688D01*
X72972636Y-106370262D01*
X72971077Y-106438204D01*
X72969215Y-106492599D01*
X72966966Y-106535532D01*
X72964248Y-106569089D01*
X72960979Y-106595355D01*
X72957078Y-106616416D01*
X72952461Y-106634357D01*
X72944192Y-106660770D01*
X72920583Y-106722772D01*
X72894685Y-106775573D01*
X72869535Y-106812645D01*
X72868339Y-106814075D01*
X72866168Y-106818424D01*
X72868328Y-106822026D01*
X72876644Y-106824951D01*
X72892940Y-106827269D01*
X72919041Y-106829051D01*
X72956771Y-106830367D01*
X73007956Y-106831286D01*
X73074420Y-106831878D01*
X73157987Y-106832215D01*
X73260483Y-106832365D01*
X73383732Y-106832400D01*
X73915296Y-106832400D01*
X73876523Y-106774783D01*
X73870432Y-106765893D01*
X73859976Y-106751069D01*
X73850579Y-106737422D01*
X73842183Y-106723765D01*
X73834733Y-106708911D01*
X73828173Y-106691670D01*
X73822446Y-106670855D01*
X73817495Y-106645280D01*
X73813266Y-106613755D01*
X73809701Y-106575093D01*
X73806744Y-106528107D01*
X73804340Y-106471608D01*
X73802431Y-106404409D01*
X73800962Y-106325322D01*
X73799876Y-106233160D01*
X73799118Y-106126734D01*
X73798630Y-106004857D01*
X73798358Y-105866341D01*
X73798243Y-105709999D01*
X73798231Y-105534642D01*
X73798265Y-105339082D01*
X73798289Y-105122133D01*
X73798280Y-104999513D01*
X73798243Y-104794447D01*
X73798227Y-104610116D01*
X73798288Y-104445334D01*
X73798484Y-104298916D01*
X73798870Y-104169674D01*
X73799505Y-104056422D01*
X73800444Y-103957975D01*
X73801745Y-103873144D01*
X73803464Y-103800744D01*
X73805659Y-103739589D01*
X73808385Y-103688492D01*
X73811701Y-103646267D01*
X73815662Y-103611727D01*
X73820325Y-103583686D01*
X73825747Y-103560958D01*
X73831986Y-103542356D01*
X73839097Y-103526693D01*
X73847138Y-103512784D01*
X73856166Y-103499441D01*
X73866236Y-103485479D01*
X73877407Y-103469711D01*
X73917197Y-103411867D01*
X72857314Y-103411867D01*
X72895311Y-103474966D01*
X72909993Y-103500005D01*
X72924531Y-103527586D01*
X72936627Y-103555700D01*
X72946532Y-103586551D01*
X72954494Y-103622344D01*
X72960761Y-103665283D01*
X72965582Y-103717574D01*
X72969206Y-103781419D01*
X72971881Y-103859025D01*
X72973857Y-103952594D01*
X72975382Y-104064333D01*
X72976704Y-104196445D01*
X72977613Y-104316434D01*
X72978020Y-104433063D01*
X72977767Y-104528531D01*
X72976857Y-104602556D01*
X72975293Y-104654855D01*
X72973079Y-104685149D01*
X72970220Y-104693156D01*
X72967161Y-104689858D01*
X72949006Y-104668408D01*
X72919275Y-104631889D01*
X72879639Y-104582442D01*
X72831771Y-104522207D01*
X72777343Y-104453327D01*
X72718027Y-104377943D01*
X72655495Y-104298196D01*
X72591421Y-104216228D01*
X72527475Y-104134180D01*
X72465331Y-104054194D01*
X72406661Y-103978411D01*
X72353137Y-103908973D01*
X72306430Y-103848021D01*
X72268214Y-103797696D01*
X72240161Y-103760140D01*
X72223943Y-103737495D01*
X72178635Y-103665212D01*
X72138661Y-103585463D01*
X72117130Y-103517188D01*
X72113827Y-103459844D01*
X72119116Y-103411867D01*
X70987356Y-103412117D01*
X71026867Y-103442722D01*
X71036248Y-103450089D01*
X71099183Y-103504438D01*
X71167997Y-103572259D01*
X71244596Y-103655516D01*
X71330888Y-103756178D01*
X71348052Y-103776847D01*
X71388833Y-103826409D01*
X71438588Y-103887326D01*
X71495955Y-103957898D01*
X71559569Y-104036424D01*
X71628069Y-104121204D01*
X71700090Y-104210537D01*
X71774270Y-104302722D01*
X71789517Y-104321702D01*
X71849246Y-104396060D01*
X71923653Y-104488848D01*
X71996131Y-104579388D01*
X72065314Y-104665978D01*
X72129841Y-104746918D01*
X72188347Y-104820506D01*
X72239470Y-104885044D01*
X72281847Y-104938829D01*
X72314115Y-104980162D01*
X72334910Y-105007342D01*
X72342869Y-105018668D01*
X72341111Y-105022771D01*
X72328230Y-105043334D01*
X72303885Y-105079561D01*
X72269247Y-105129824D01*
X72225486Y-105192492D01*
X72173775Y-105265936D01*
X72115284Y-105348527D01*
X72051184Y-105438636D01*
X71982646Y-105534631D01*
X71910843Y-105634885D01*
X71836944Y-105737768D01*
X71762121Y-105841650D01*
X71687545Y-105944901D01*
X71614387Y-106045892D01*
X71543819Y-106142994D01*
X71477011Y-106234577D01*
X71415135Y-106319011D01*
X71359361Y-106394667D01*
X71310862Y-106459916D01*
X71270807Y-106513128D01*
X71240369Y-106552673D01*
X71219944Y-106578026D01*
X71173899Y-106632295D01*
X71123612Y-106688775D01*
X71076815Y-106738669D01*
X70985651Y-106832400D01*
X70287445Y-106832400D01*
X70356356Y-106832349D01*
X70454607Y-106832091D01*
X70544030Y-106831637D01*
X70622333Y-106831010D01*
X70687223Y-106830235D01*
X70736411Y-106829335D01*
X70767604Y-106828334D01*
X70778511Y-106827257D01*
X70777322Y-106824037D01*
X70767176Y-106806452D01*
X70750040Y-106780158D01*
X70741540Y-106767691D01*
X70732329Y-106753622D01*
X70724233Y-106739351D01*
X70717185Y-106723479D01*
X70711117Y-106704609D01*
X70705961Y-106681341D01*
X70701651Y-106652278D01*
X70698119Y-106616021D01*
X70695297Y-106571170D01*
X70693118Y-106516328D01*
X70691514Y-106450097D01*
X70690419Y-106371077D01*
X70689765Y-106277871D01*
X70689484Y-106169079D01*
X70689509Y-106043303D01*
X70689772Y-105899145D01*
X70690206Y-105735207D01*
X70690745Y-105550089D01*
X70691279Y-105371232D01*
X70691805Y-105212374D01*
X70692350Y-105073316D01*
X70692945Y-104952665D01*
X70693619Y-104849028D01*
X70694403Y-104761011D01*
X70695326Y-104687223D01*
X70696419Y-104626269D01*
X70697712Y-104576757D01*
X70699235Y-104537293D01*
X70701019Y-104506484D01*
X70703092Y-104482938D01*
X70705486Y-104465260D01*
X70708230Y-104452059D01*
X70711356Y-104441940D01*
X70714892Y-104433511D01*
X70718791Y-104425375D01*
X70738438Y-104388544D01*
X70757225Y-104358391D01*
X70758272Y-104356908D01*
X70772602Y-104334659D01*
X70778511Y-104321702D01*
X70777504Y-104321249D01*
X70760305Y-104319803D01*
X70723656Y-104318480D01*
X70669962Y-104317316D01*
X70601630Y-104316347D01*
X70521064Y-104315611D01*
X70430670Y-104315142D01*
X70332853Y-104314978D01*
X69887195Y-104314978D01*
X69884120Y-105491845D01*
X69881045Y-106668711D01*
X69854407Y-106727622D01*
X69842485Y-106752183D01*
X69825246Y-106782434D01*
X69812074Y-106799560D01*
X69804076Y-106807591D01*
X69796378Y-106822493D01*
X69504942Y-106822493D01*
X69504474Y-106730029D01*
X69504050Y-106614617D01*
X69503706Y-106484160D01*
X69503434Y-106337716D01*
X69503227Y-106174344D01*
X69503076Y-105993101D01*
X69502972Y-105793048D01*
X69502908Y-105573241D01*
X69502876Y-105332739D01*
X69502867Y-105070602D01*
X69502867Y-102879031D01*
X69541249Y-102840649D01*
X69568355Y-102816911D01*
X69595253Y-102805111D01*
X69631560Y-102802267D01*
X69683489Y-102802267D01*
X69683489Y-102890206D01*
X69685427Y-102940102D01*
X69704199Y-103050523D01*
X69741217Y-103151987D01*
X69794369Y-103243152D01*
X69861546Y-103322673D01*
X69940638Y-103389205D01*
X70029534Y-103441406D01*
X70126125Y-103477930D01*
X70228300Y-103497434D01*
X70333950Y-103498573D01*
X70440964Y-103480005D01*
X70547232Y-103440384D01*
X70644219Y-103382516D01*
X70729293Y-103307684D01*
X70798015Y-103219615D01*
X70848918Y-103120616D01*
X70880535Y-103012993D01*
X70891400Y-102899054D01*
X70891400Y-102802267D01*
X72511753Y-102802267D01*
X72722897Y-102802280D01*
X72927020Y-102802330D01*
X73110686Y-102802430D01*
X73274991Y-102802592D01*
X73421029Y-102802829D01*
X73549894Y-102803153D01*
X73662683Y-102803575D01*
X73760488Y-102804109D01*
X73844404Y-102804767D01*
X73915527Y-102805561D01*
X73974950Y-102806504D01*
X74023768Y-102807608D01*
X74063077Y-102808884D01*
X74093969Y-102810347D01*
X74117541Y-102812007D01*
X74134886Y-102813878D01*
X74147099Y-102815972D01*
X74155275Y-102818300D01*
X74160508Y-102820876D01*
X74166504Y-102824445D01*
X74173279Y-102827978D01*
X74179478Y-102831488D01*
X74185126Y-102835918D01*
X74190247Y-102842208D01*
X74194869Y-102851301D01*
X74199015Y-102864139D01*
X74202713Y-102881662D01*
X74205987Y-102904813D01*
X74208863Y-102934534D01*
X74211367Y-102971765D01*
X74213524Y-103017449D01*
X74215360Y-103072527D01*
X74216900Y-103137941D01*
X74218170Y-103214633D01*
X74219195Y-103303544D01*
X74220001Y-103405617D01*
X74220034Y-103411867D01*
X74220614Y-103521792D01*
G36*
X74220614Y-103521792D02*
G01*
X74221059Y-103653011D01*
X74221362Y-103800216D01*
X74221548Y-103964349D01*
X74221642Y-104146352D01*
X74221671Y-104347165D01*
X74221661Y-104567732D01*
X74221636Y-104808992D01*
X74221622Y-105071889D01*
X74221622Y-105114040D01*
X74221646Y-105374668D01*
X74221685Y-105613796D01*
X74221708Y-105832360D01*
X74221687Y-106031295D01*
X74221593Y-106211535D01*
X74221395Y-106374015D01*
X74221063Y-106519670D01*
X74220569Y-106649434D01*
X74219883Y-106764243D01*
X74218976Y-106865030D01*
X74217817Y-106952730D01*
X74216378Y-107028279D01*
X74214629Y-107092611D01*
X74212540Y-107146661D01*
X74210083Y-107191363D01*
X74207227Y-107227652D01*
X74203943Y-107256463D01*
X74200202Y-107278731D01*
X74195974Y-107295390D01*
X74191229Y-107307375D01*
X74185939Y-107315621D01*
X74180073Y-107321062D01*
X74173602Y-107324634D01*
X74166497Y-107327270D01*
X74158728Y-107329906D01*
X74150266Y-107333477D01*
X74145908Y-107335145D01*
X74137395Y-107337111D01*
X74124694Y-107338911D01*
X74106885Y-107340555D01*
X74083049Y-107342047D01*
X74052266Y-107343397D01*
X74013617Y-107344611D01*
X73966182Y-107345697D01*
X73909043Y-107346661D01*
X73841279Y-107347511D01*
X73761971Y-107348253D01*
X73670199Y-107348897D01*
X73565044Y-107349447D01*
X73445587Y-107349913D01*
X73310908Y-107350300D01*
X73160088Y-107350616D01*
X72992206Y-107350869D01*
X72806345Y-107351066D01*
X72601583Y-107351213D01*
X72377002Y-107351318D01*
X72131682Y-107351389D01*
X71864704Y-107351432D01*
X71826321Y-107351437D01*
X71560922Y-107351480D01*
X71317050Y-107351525D01*
X71093783Y-107351548D01*
X70890196Y-107351524D01*
X70705367Y-107351430D01*
X70538373Y-107351243D01*
X70388290Y-107350939D01*
X70254196Y-107350494D01*
X70135166Y-107349885D01*
X70030279Y-107349089D01*
X69938610Y-107348080D01*
X69859237Y-107346837D01*
X69791237Y-107345335D01*
X69733686Y-107343551D01*
X69685662Y-107341461D01*
X69646240Y-107339042D01*
X69614499Y-107336270D01*
X69589514Y-107333121D01*
X69570364Y-107329572D01*
X69556123Y-107325598D01*
X69545871Y-107321178D01*
X69538682Y-107316286D01*
X69533635Y-107310900D01*
X69529805Y-107304996D01*
X69526271Y-107298549D01*
X69522108Y-107291537D01*
X69521025Y-107289687D01*
X69518813Y-107284180D01*
X69516786Y-107275868D01*
X69514938Y-107263809D01*
X69513261Y-107247063D01*
X69511745Y-107224687D01*
X69510383Y-107195740D01*
X69509167Y-107159280D01*
X69508089Y-107114367D01*
X69507140Y-107060057D01*
X69506312Y-106995410D01*
X69505597Y-106919484D01*
X69504987Y-106831338D01*
X69504942Y-106822493D01*
X69796378Y-106822493D01*
X69800260Y-106823765D01*
X69823520Y-106825791D01*
X69865874Y-106827626D01*
X69925132Y-106829227D01*
X69999107Y-106830549D01*
X70085610Y-106831548D01*
X70182452Y-106832180D01*
X70287445Y-106832400D01*
X70985651Y-106832400D01*
X72140090Y-106832400D01*
X72139456Y-106756200D01*
X72140574Y-106714160D01*
X72146304Y-106678334D01*
X72158890Y-106640772D01*
X72180568Y-106592577D01*
X72183789Y-106585897D01*
X72209188Y-106536359D01*
X72235996Y-106488369D01*
X72258917Y-106451466D01*
X72263485Y-106444834D01*
X72285516Y-106413593D01*
X72317693Y-106368654D01*
X72358457Y-106312147D01*
X72406245Y-106246204D01*
X72459498Y-106172957D01*
X72516655Y-106094536D01*
X72576155Y-106013072D01*
X72636437Y-105930698D01*
X72695940Y-105849544D01*
X72753105Y-105771742D01*
X72806370Y-105699423D01*
X72854174Y-105634718D01*
X72894957Y-105579759D01*
X72927158Y-105536676D01*
X72949216Y-105507602D01*
X72959571Y-105494667D01*
X72964044Y-105490351D01*
X72968236Y-105488312D01*
X72971643Y-105490926D01*
X72974325Y-105499986D01*
X72976341Y-105517285D01*
X72977748Y-105544614D01*
X72978605Y-105583765D01*
X72978970Y-105636533D01*
X72978903Y-105704707D01*
X72978460Y-105790082D01*
X72977702Y-105894449D01*
X72976685Y-106019600D01*
X72976308Y-106064300D01*
X72975169Y-106185395D01*
X72973972Y-106286688D01*
X72972636Y-106370262D01*
X72971077Y-106438204D01*
X72969215Y-106492599D01*
X72966966Y-106535532D01*
X72964248Y-106569089D01*
X72960979Y-106595355D01*
X72957078Y-106616416D01*
X72952461Y-106634357D01*
X72944192Y-106660770D01*
X72920583Y-106722772D01*
X72894685Y-106775573D01*
X72869535Y-106812645D01*
X72868339Y-106814075D01*
X72866168Y-106818424D01*
X72868328Y-106822026D01*
X72876644Y-106824951D01*
X72892940Y-106827269D01*
X72919041Y-106829051D01*
X72956771Y-106830367D01*
X73007956Y-106831286D01*
X73074420Y-106831878D01*
X73157987Y-106832215D01*
X73260483Y-106832365D01*
X73383732Y-106832400D01*
X73915296Y-106832400D01*
X73876523Y-106774783D01*
X73870432Y-106765893D01*
X73859976Y-106751069D01*
X73850579Y-106737422D01*
X73842183Y-106723765D01*
X73834733Y-106708911D01*
X73828173Y-106691670D01*
X73822446Y-106670855D01*
X73817495Y-106645280D01*
X73813266Y-106613755D01*
X73809701Y-106575093D01*
X73806744Y-106528107D01*
X73804340Y-106471608D01*
X73802431Y-106404409D01*
X73800962Y-106325322D01*
X73799876Y-106233160D01*
X73799118Y-106126734D01*
X73798630Y-106004857D01*
X73798358Y-105866341D01*
X73798243Y-105709999D01*
X73798231Y-105534642D01*
X73798265Y-105339082D01*
X73798289Y-105122133D01*
X73798280Y-104999513D01*
X73798243Y-104794447D01*
X73798227Y-104610116D01*
X73798288Y-104445334D01*
X73798484Y-104298916D01*
X73798870Y-104169674D01*
X73799505Y-104056422D01*
X73800444Y-103957975D01*
X73801745Y-103873144D01*
X73803464Y-103800744D01*
X73805659Y-103739589D01*
X73808385Y-103688492D01*
X73811701Y-103646267D01*
X73815662Y-103611727D01*
X73820325Y-103583686D01*
X73825747Y-103560958D01*
X73831986Y-103542356D01*
X73839097Y-103526693D01*
X73847138Y-103512784D01*
X73856166Y-103499441D01*
X73866236Y-103485479D01*
X73877407Y-103469711D01*
X73917197Y-103411867D01*
X72857314Y-103411867D01*
X72895311Y-103474966D01*
X72909993Y-103500005D01*
X72924531Y-103527586D01*
X72936627Y-103555700D01*
X72946532Y-103586551D01*
X72954494Y-103622344D01*
X72960761Y-103665283D01*
X72965582Y-103717574D01*
X72969206Y-103781419D01*
X72971881Y-103859025D01*
X72973857Y-103952594D01*
X72975382Y-104064333D01*
X72976704Y-104196445D01*
X72977613Y-104316434D01*
X72978020Y-104433063D01*
X72977767Y-104528531D01*
X72976857Y-104602556D01*
X72975293Y-104654855D01*
X72973079Y-104685149D01*
X72970220Y-104693156D01*
X72967161Y-104689858D01*
X72949006Y-104668408D01*
X72919275Y-104631889D01*
X72879639Y-104582442D01*
X72831771Y-104522207D01*
X72777343Y-104453327D01*
X72718027Y-104377943D01*
X72655495Y-104298196D01*
X72591421Y-104216228D01*
X72527475Y-104134180D01*
X72465331Y-104054194D01*
X72406661Y-103978411D01*
X72353137Y-103908973D01*
X72306430Y-103848021D01*
X72268214Y-103797696D01*
X72240161Y-103760140D01*
X72223943Y-103737495D01*
X72178635Y-103665212D01*
X72138661Y-103585463D01*
X72117130Y-103517188D01*
X72113827Y-103459844D01*
X72119116Y-103411867D01*
X70987356Y-103412117D01*
X71026867Y-103442722D01*
X71036248Y-103450089D01*
X71099183Y-103504438D01*
X71167997Y-103572259D01*
X71244596Y-103655516D01*
X71330888Y-103756178D01*
X71348052Y-103776847D01*
X71388833Y-103826409D01*
X71438588Y-103887326D01*
X71495955Y-103957898D01*
X71559569Y-104036424D01*
X71628069Y-104121204D01*
X71700090Y-104210537D01*
X71774270Y-104302722D01*
X71789517Y-104321702D01*
X71849246Y-104396060D01*
X71923653Y-104488848D01*
X71996131Y-104579388D01*
X72065314Y-104665978D01*
X72129841Y-104746918D01*
X72188347Y-104820506D01*
X72239470Y-104885044D01*
X72281847Y-104938829D01*
X72314115Y-104980162D01*
X72334910Y-105007342D01*
X72342869Y-105018668D01*
X72341111Y-105022771D01*
X72328230Y-105043334D01*
X72303885Y-105079561D01*
X72269247Y-105129824D01*
X72225486Y-105192492D01*
X72173775Y-105265936D01*
X72115284Y-105348527D01*
X72051184Y-105438636D01*
X71982646Y-105534631D01*
X71910843Y-105634885D01*
X71836944Y-105737768D01*
X71762121Y-105841650D01*
X71687545Y-105944901D01*
X71614387Y-106045892D01*
X71543819Y-106142994D01*
X71477011Y-106234577D01*
X71415135Y-106319011D01*
X71359361Y-106394667D01*
X71310862Y-106459916D01*
X71270807Y-106513128D01*
X71240369Y-106552673D01*
X71219944Y-106578026D01*
X71173899Y-106632295D01*
X71123612Y-106688775D01*
X71076815Y-106738669D01*
X70985651Y-106832400D01*
X70287445Y-106832400D01*
X70356356Y-106832349D01*
X70454607Y-106832091D01*
X70544030Y-106831637D01*
X70622333Y-106831010D01*
X70687223Y-106830235D01*
X70736411Y-106829335D01*
X70767604Y-106828334D01*
X70778511Y-106827257D01*
X70777322Y-106824037D01*
X70767176Y-106806452D01*
X70750040Y-106780158D01*
X70741540Y-106767691D01*
X70732329Y-106753622D01*
X70724233Y-106739351D01*
X70717185Y-106723479D01*
X70711117Y-106704609D01*
X70705961Y-106681341D01*
X70701651Y-106652278D01*
X70698119Y-106616021D01*
X70695297Y-106571170D01*
X70693118Y-106516328D01*
X70691514Y-106450097D01*
X70690419Y-106371077D01*
X70689765Y-106277871D01*
X70689484Y-106169079D01*
X70689509Y-106043303D01*
X70689772Y-105899145D01*
X70690206Y-105735207D01*
X70690745Y-105550089D01*
X70691279Y-105371232D01*
X70691805Y-105212374D01*
X70692350Y-105073316D01*
X70692945Y-104952665D01*
X70693619Y-104849028D01*
X70694403Y-104761011D01*
X70695326Y-104687223D01*
X70696419Y-104626269D01*
X70697712Y-104576757D01*
X70699235Y-104537293D01*
X70701019Y-104506484D01*
X70703092Y-104482938D01*
X70705486Y-104465260D01*
X70708230Y-104452059D01*
X70711356Y-104441940D01*
X70714892Y-104433511D01*
X70718791Y-104425375D01*
X70738438Y-104388544D01*
X70757225Y-104358391D01*
X70758272Y-104356908D01*
X70772602Y-104334659D01*
X70778511Y-104321702D01*
X70777504Y-104321249D01*
X70760305Y-104319803D01*
X70723656Y-104318480D01*
X70669962Y-104317316D01*
X70601630Y-104316347D01*
X70521064Y-104315611D01*
X70430670Y-104315142D01*
X70332853Y-104314978D01*
X69887195Y-104314978D01*
X69884120Y-105491845D01*
X69881045Y-106668711D01*
X69854407Y-106727622D01*
X69842485Y-106752183D01*
X69825246Y-106782434D01*
X69812074Y-106799560D01*
X69804076Y-106807591D01*
X69796378Y-106822493D01*
X69504942Y-106822493D01*
X69504474Y-106730029D01*
X69504050Y-106614617D01*
X69503706Y-106484160D01*
X69503434Y-106337716D01*
X69503227Y-106174344D01*
X69503076Y-105993101D01*
X69502972Y-105793048D01*
X69502908Y-105573241D01*
X69502876Y-105332739D01*
X69502867Y-105070602D01*
X69502867Y-102879031D01*
X69541249Y-102840649D01*
X69568355Y-102816911D01*
X69595253Y-102805111D01*
X69631560Y-102802267D01*
X69683489Y-102802267D01*
X69683489Y-102890206D01*
X69685427Y-102940102D01*
X69704199Y-103050523D01*
X69741217Y-103151987D01*
X69794369Y-103243152D01*
X69861546Y-103322673D01*
X69940638Y-103389205D01*
X70029534Y-103441406D01*
X70126125Y-103477930D01*
X70228300Y-103497434D01*
X70333950Y-103498573D01*
X70440964Y-103480005D01*
X70547232Y-103440384D01*
X70644219Y-103382516D01*
X70729293Y-103307684D01*
X70798015Y-103219615D01*
X70848918Y-103120616D01*
X70880535Y-103012993D01*
X70891400Y-102899054D01*
X70891400Y-102802267D01*
X72511753Y-102802267D01*
X72722897Y-102802280D01*
X72927020Y-102802330D01*
X73110686Y-102802430D01*
X73274991Y-102802592D01*
X73421029Y-102802829D01*
X73549894Y-102803153D01*
X73662683Y-102803575D01*
X73760488Y-102804109D01*
X73844404Y-102804767D01*
X73915527Y-102805561D01*
X73974950Y-102806504D01*
X74023768Y-102807608D01*
X74063077Y-102808884D01*
X74093969Y-102810347D01*
X74117541Y-102812007D01*
X74134886Y-102813878D01*
X74147099Y-102815972D01*
X74155275Y-102818300D01*
X74160508Y-102820876D01*
X74166504Y-102824445D01*
X74173279Y-102827978D01*
X74179478Y-102831488D01*
X74185126Y-102835918D01*
X74190247Y-102842208D01*
X74194869Y-102851301D01*
X74199015Y-102864139D01*
X74202713Y-102881662D01*
X74205987Y-102904813D01*
X74208863Y-102934534D01*
X74211367Y-102971765D01*
X74213524Y-103017449D01*
X74215360Y-103072527D01*
X74216900Y-103137941D01*
X74218170Y-103214633D01*
X74219195Y-103303544D01*
X74220001Y-103405617D01*
X74220034Y-103411867D01*
X74220614Y-103521792D01*
G37*
%TD*%
%LPC*%
D12*
%TO.C,J3*%
X71745000Y-98425000D03*
D13*
X64125000Y-98425000D03*
%TD*%
D14*
%TO.C,J1*%
X93345000Y-99695000D03*
D15*
X93345000Y-102235000D03*
%TD*%
D14*
%TO.C,J2*%
X60325000Y-103505000D03*
D15*
X60325000Y-100965000D03*
%TD*%
D14*
%TO.C,J4*%
X60325000Y-97160000D03*
D15*
X60325000Y-94620000D03*
%TD*%
%LPD*%
M02*
