%TF.GenerationSoftware,KiCad,Pcbnew,8.0.6*%
%TF.CreationDate,2025-06-18T20:25:26+05:30*%
%TF.ProjectId,Tiny Solar Suppy,54696e79-2053-46f6-9c61-722053757070,rev?*%
%TF.SameCoordinates,Original*%
%TF.FileFunction,Copper,L2,Bot*%
%TF.FilePolarity,Positive*%
%FSLAX46Y46*%
G04 Gerber Fmt 4.6, Leading zero omitted, Abs format (unit mm)*
G04 Created by KiCad (PCBNEW 8.0.6) date 2025-06-18 20:25:26*
%MOMM*%
%LPD*%
G01*
G04 APERTURE LIST*
%TA.AperFunction,ComponentPad*%
%ADD10R,1.600000X1.600000*%
%TD*%
%TA.AperFunction,ComponentPad*%
%ADD11O,1.600000X1.600000*%
%TD*%
%TA.AperFunction,ComponentPad*%
%ADD12R,1.700000X1.700000*%
%TD*%
%TA.AperFunction,ComponentPad*%
%ADD13O,1.700000X1.700000*%
%TD*%
%TA.AperFunction,ViaPad*%
%ADD14C,0.600000*%
%TD*%
%TA.AperFunction,Conductor*%
%ADD15C,0.200000*%
%TD*%
G04 APERTURE END LIST*
D10*
%TO.P,J3,1,Pin_1*%
%TO.N,Net-(J3-Pin_1)*%
X71745000Y-98425000D03*
D11*
%TO.P,J3,2,Pin_2*%
%TO.N,/BAT_P*%
X64125000Y-98425000D03*
%TD*%
D12*
%TO.P,J1,1,Pin_1*%
%TO.N,GNDD*%
X93345000Y-99695000D03*
D13*
%TO.P,J1,2,Pin_2*%
%TO.N,/OUT_P*%
X93345000Y-102235000D03*
%TD*%
D12*
%TO.P,J2,1,Pin_1*%
%TO.N,/BAT_P*%
X60325000Y-103505000D03*
D13*
%TO.P,J2,2,Pin_2*%
%TO.N,GNDD*%
X60325000Y-100965000D03*
%TD*%
D12*
%TO.P,J4,1,Pin_1*%
%TO.N,/SOLAR_P*%
X60325000Y-97160000D03*
D13*
%TO.P,J4,2,Pin_2*%
%TO.N,GNDD*%
X60325000Y-94620000D03*
%TD*%
D14*
%TO.N,Net-(U1-FB)*%
X76454000Y-105003600D03*
X83820000Y-104560000D03*
%TO.N,GNDD*%
X67945000Y-105725000D03*
X74422000Y-98856800D03*
X84531200Y-102057200D03*
X78105000Y-104775000D03*
X75565000Y-106045000D03*
%TO.N,Net-(J3-Pin_1)*%
X83362800Y-100685600D03*
X79105061Y-98256661D03*
%TD*%
D15*
%TO.N,Net-(U1-FB)*%
X76825400Y-105375000D02*
X76454000Y-105003600D01*
X83005000Y-105375000D02*
X76825400Y-105375000D01*
X83820000Y-104560000D02*
X83005000Y-105375000D01*
%TO.N,Net-(J3-Pin_1)*%
X83362800Y-100685600D02*
X80933861Y-98256661D01*
X80933861Y-98256661D02*
X79105061Y-98256661D01*
%TD*%
%TA.AperFunction,Conductor*%
%TO.N,GNDD*%
G36*
X93862992Y-91510485D02*
G01*
X93908747Y-91563289D01*
X93918691Y-91632447D01*
X93916158Y-91645241D01*
X93865822Y-91844008D01*
X93865818Y-91844028D01*
X93846681Y-92074993D01*
X93846681Y-92075006D01*
X93865818Y-92305971D01*
X93865820Y-92305979D01*
X93922717Y-92530658D01*
X94015817Y-92742905D01*
X94142581Y-92936933D01*
X94142584Y-92936936D01*
X94299558Y-93107455D01*
X94482457Y-93249812D01*
X94482459Y-93249813D01*
X94482462Y-93249815D01*
X94555543Y-93289364D01*
X94686293Y-93360122D01*
X94795899Y-93397750D01*
X94905502Y-93435377D01*
X94905504Y-93435377D01*
X94905506Y-93435378D01*
X95134115Y-93473526D01*
X95134116Y-93473526D01*
X95365883Y-93473526D01*
X95365885Y-93473526D01*
X95365886Y-93473525D01*
X95369755Y-93473205D01*
X95438191Y-93487283D01*
X95488153Y-93536126D01*
X95504000Y-93596781D01*
X95504000Y-105158218D01*
X95484315Y-105225257D01*
X95431511Y-105271012D01*
X95369768Y-105281795D01*
X95365891Y-105281474D01*
X95365885Y-105281474D01*
X95134115Y-105281474D01*
X95108257Y-105285789D01*
X94905502Y-105319622D01*
X94686297Y-105394876D01*
X94686286Y-105394881D01*
X94482462Y-105505184D01*
X94482459Y-105505186D01*
X94299560Y-105647543D01*
X94142581Y-105818066D01*
X94015817Y-106012094D01*
X93922717Y-106224341D01*
X93865820Y-106449020D01*
X93865818Y-106449028D01*
X93846681Y-106679993D01*
X93846681Y-106680006D01*
X93865818Y-106910971D01*
X93865820Y-106910979D01*
X93922717Y-107135658D01*
X94015817Y-107347905D01*
X94142581Y-107541933D01*
X94186478Y-107589617D01*
X94217400Y-107652271D01*
X94209540Y-107721697D01*
X94165393Y-107775853D01*
X94098976Y-107797544D01*
X94095248Y-107797600D01*
X60209752Y-107797600D01*
X60142713Y-107777915D01*
X60096958Y-107725111D01*
X60087014Y-107655953D01*
X60116039Y-107592397D01*
X60118522Y-107589617D01*
X60162416Y-107541936D01*
X60289182Y-107347906D01*
X60382283Y-107135657D01*
X60439180Y-106910979D01*
X60444348Y-106848608D01*
X60458319Y-106680006D01*
X60458319Y-106679993D01*
X60439181Y-106449028D01*
X60439180Y-106449025D01*
X60439180Y-106449021D01*
X60382283Y-106224343D01*
X60289182Y-106012094D01*
X60238537Y-105934576D01*
X60162418Y-105818066D01*
X60135630Y-105788967D01*
X60091289Y-105740800D01*
X61747522Y-105740800D01*
X62720800Y-105740800D01*
X63718800Y-105740800D01*
X65220800Y-105740800D01*
X66218800Y-105740800D01*
X66667006Y-105740800D01*
X66666602Y-105736442D01*
X66666602Y-105713559D01*
X66686267Y-105501342D01*
X66690472Y-105478849D01*
X66748797Y-105273858D01*
X66757063Y-105252521D01*
X66852061Y-105061738D01*
X66864107Y-105042282D01*
X66992545Y-104872204D01*
X67007960Y-104855294D01*
X67165462Y-104711711D01*
X67171201Y-104707377D01*
X68718800Y-104707377D01*
X68724538Y-104711711D01*
X68882040Y-104855294D01*
X68897455Y-104872204D01*
X69025893Y-105042282D01*
X69037939Y-105061738D01*
X69132937Y-105252521D01*
X69141203Y-105273858D01*
X69199528Y-105478849D01*
X69203733Y-105501342D01*
X69223398Y-105713559D01*
X69223398Y-105736442D01*
X69222994Y-105740800D01*
X70220800Y-105740800D01*
X71218800Y-105740800D01*
X72720800Y-105740800D01*
X73718800Y-105740800D01*
X74326988Y-105740800D01*
X74368797Y-105593858D01*
X74377063Y-105572521D01*
X74472061Y-105381738D01*
X74484107Y-105362282D01*
X74612545Y-105192204D01*
X74627960Y-105175295D01*
X74660158Y-105145941D01*
X74653575Y-105087507D01*
X74652990Y-105080579D01*
X74650630Y-105038561D01*
X74650435Y-105031607D01*
X74650435Y-105003596D01*
X75648435Y-105003596D01*
X75648435Y-105003603D01*
X75668630Y-105182849D01*
X75668631Y-105182854D01*
X75728211Y-105353123D01*
X75810800Y-105484561D01*
X75824184Y-105505862D01*
X75951738Y-105633416D01*
X75983081Y-105653110D01*
X76079284Y-105713559D01*
X76104478Y-105729389D01*
X76274745Y-105788968D01*
X76361668Y-105798761D01*
X76426079Y-105825826D01*
X76435464Y-105834300D01*
X76456684Y-105855520D01*
X76543495Y-105905639D01*
X76543497Y-105905641D01*
X76581551Y-105927611D01*
X76593615Y-105934577D01*
X76746343Y-105975501D01*
X76746346Y-105975501D01*
X76912053Y-105975501D01*
X76912069Y-105975500D01*
X82918331Y-105975500D01*
X82918347Y-105975501D01*
X82925943Y-105975501D01*
X83084054Y-105975501D01*
X83084057Y-105975501D01*
X83236785Y-105934577D01*
X83286904Y-105905639D01*
X83373716Y-105855520D01*
X83485520Y-105743716D01*
X83485520Y-105743714D01*
X83488434Y-105740800D01*
X86218800Y-105740800D01*
X87720800Y-105740800D01*
X88718800Y-105740800D01*
X90220800Y-105740800D01*
X91218800Y-105740800D01*
X92720800Y-105740800D01*
X92720800Y-104499092D01*
X92601992Y-104467259D01*
X92596795Y-104465744D01*
X92565560Y-104455895D01*
X92560432Y-104454154D01*
X92519500Y-104439253D01*
X92514465Y-104437295D01*
X92484244Y-104424777D01*
X92479292Y-104422598D01*
X92225663Y-104304328D01*
X92220812Y-104301936D01*
X92191791Y-104286829D01*
X92187051Y-104284229D01*
X92149327Y-104262451D01*
X92144698Y-104259642D01*
X92117084Y-104242050D01*
X92112586Y-104239044D01*
X92112238Y-104238800D01*
X91218800Y-104238800D01*
X91218800Y-105740800D01*
X90220800Y-105740800D01*
X90220800Y-104238800D01*
X88718800Y-104238800D01*
X88718800Y-105740800D01*
X87720800Y-105740800D01*
X87720800Y-104238800D01*
X86218800Y-104238800D01*
X86218800Y-105740800D01*
X83488434Y-105740800D01*
X83495728Y-105733507D01*
X83495730Y-105733504D01*
X83838535Y-105390698D01*
X83899856Y-105357215D01*
X83912311Y-105355163D01*
X83999255Y-105345368D01*
X84169522Y-105285789D01*
X84322262Y-105189816D01*
X84449816Y-105062262D01*
X84545789Y-104909522D01*
X84605368Y-104739255D01*
X84605489Y-104738181D01*
X84625565Y-104560003D01*
X84625565Y-104559996D01*
X84605369Y-104380750D01*
X84605368Y-104380745D01*
X84602932Y-104373784D01*
X84545789Y-104210478D01*
X84449816Y-104057738D01*
X84322262Y-103930184D01*
X84169523Y-103834211D01*
X83999254Y-103774631D01*
X83999249Y-103774630D01*
X83820004Y-103754435D01*
X83819996Y-103754435D01*
X83640750Y-103774630D01*
X83640745Y-103774631D01*
X83470476Y-103834211D01*
X83317737Y-103930184D01*
X83190184Y-104057737D01*
X83094210Y-104210478D01*
X83034630Y-104380750D01*
X83024837Y-104467668D01*
X82997770Y-104532082D01*
X82989299Y-104541465D01*
X82792582Y-104738182D01*
X82731262Y-104771666D01*
X82704903Y-104774500D01*
X77309909Y-104774500D01*
X77242870Y-104754815D01*
X77197115Y-104702011D01*
X77192867Y-104691454D01*
X77188122Y-104677893D01*
X77179789Y-104654078D01*
X77145919Y-104600175D01*
X77100439Y-104527793D01*
X77083816Y-104501338D01*
X76956262Y-104373784D01*
X76835688Y-104298022D01*
X76803523Y-104277811D01*
X76633254Y-104218231D01*
X76633249Y-104218230D01*
X76454004Y-104198035D01*
X76453996Y-104198035D01*
X76274750Y-104218230D01*
X76274745Y-104218231D01*
X76104476Y-104277811D01*
X75951737Y-104373784D01*
X75824184Y-104501337D01*
X75728211Y-104654076D01*
X75668631Y-104824345D01*
X75668630Y-104824350D01*
X75648435Y-105003596D01*
X74650435Y-105003596D01*
X74650435Y-104975593D01*
X74650630Y-104968639D01*
X74652990Y-104926621D01*
X74653575Y-104919692D01*
X74680042Y-104684780D01*
X74681014Y-104677893D01*
X74688062Y-104636409D01*
X74689418Y-104629589D01*
X74701881Y-104574979D01*
X74703619Y-104568242D01*
X74715272Y-104527793D01*
X74717384Y-104521166D01*
X74795465Y-104298022D01*
X74797947Y-104291521D01*
X74814055Y-104252635D01*
X74816895Y-104246288D01*
X74820501Y-104238800D01*
X73718800Y-104238800D01*
X73718800Y-105740800D01*
X72720800Y-105740800D01*
X72720800Y-104238800D01*
X71218800Y-104238800D01*
X71218800Y-105740800D01*
X70220800Y-105740800D01*
X70220800Y-104238800D01*
X68718800Y-104238800D01*
X68718800Y-104707377D01*
X67171201Y-104707377D01*
X67183724Y-104697921D01*
X67364928Y-104585725D01*
X67385411Y-104575525D01*
X67584145Y-104498535D01*
X67606154Y-104492273D01*
X67720800Y-104470841D01*
X67720800Y-104238800D01*
X66218800Y-104238800D01*
X66218800Y-105740800D01*
X65220800Y-105740800D01*
X65220800Y-104238800D01*
X63718800Y-104238800D01*
X63718800Y-105740800D01*
X62720800Y-105740800D01*
X62720800Y-104238800D01*
X62673500Y-104238800D01*
X62673500Y-104416248D01*
X62673455Y-104419572D01*
X62672916Y-104439673D01*
X62672783Y-104442993D01*
X62671351Y-104469680D01*
X62671129Y-104472989D01*
X62669519Y-104492982D01*
X62669208Y-104496285D01*
X62658038Y-104600175D01*
X62656971Y-104607843D01*
X62649064Y-104654029D01*
X62647519Y-104661619D01*
X62633174Y-104722330D01*
X62631158Y-104729809D01*
X62617550Y-104774672D01*
X62615071Y-104782012D01*
X62541413Y-104979502D01*
X62538025Y-104987682D01*
X62515767Y-105036419D01*
X62511805Y-105044333D01*
X62477628Y-105106923D01*
X62473110Y-105114537D01*
X62444146Y-105159604D01*
X62439098Y-105166874D01*
X62310114Y-105339173D01*
X62304561Y-105346064D01*
X62269481Y-105386549D01*
X62263449Y-105393028D01*
X62213028Y-105443449D01*
X62206549Y-105449481D01*
X62166064Y-105484561D01*
X62159173Y-105490114D01*
X61986874Y-105619098D01*
X61979604Y-105624146D01*
X61934537Y-105653110D01*
X61926923Y-105657628D01*
X61864333Y-105691805D01*
X61856419Y-105695767D01*
X61807682Y-105718025D01*
X61799502Y-105721413D01*
X61747522Y-105740800D01*
X60091289Y-105740800D01*
X60005442Y-105647545D01*
X59822543Y-105505188D01*
X59822541Y-105505187D01*
X59822540Y-105505186D01*
X59822537Y-105505184D01*
X59618713Y-105394881D01*
X59618710Y-105394879D01*
X59618707Y-105394878D01*
X59618704Y-105394877D01*
X59618702Y-105394876D01*
X59399497Y-105319622D01*
X59196743Y-105285789D01*
X59170885Y-105281474D01*
X58939115Y-105281474D01*
X58913257Y-105285789D01*
X58710502Y-105319622D01*
X58635063Y-105345521D01*
X58565264Y-105348671D01*
X58504843Y-105313585D01*
X58472982Y-105251402D01*
X58470800Y-105228240D01*
X58470800Y-102607135D01*
X58974500Y-102607135D01*
X58974500Y-104402870D01*
X58974501Y-104402876D01*
X58980908Y-104462483D01*
X59031202Y-104597328D01*
X59031206Y-104597335D01*
X59117452Y-104712544D01*
X59117455Y-104712547D01*
X59232664Y-104798793D01*
X59232671Y-104798797D01*
X59367517Y-104849091D01*
X59367516Y-104849091D01*
X59374444Y-104849835D01*
X59427127Y-104855500D01*
X61222872Y-104855499D01*
X61282483Y-104849091D01*
X61417331Y-104798796D01*
X61532546Y-104712546D01*
X61618796Y-104597331D01*
X61669091Y-104462483D01*
X61675500Y-104402873D01*
X61675499Y-103240800D01*
X63718800Y-103240800D01*
X65220800Y-103240800D01*
X66218800Y-103240800D01*
X67720800Y-103240800D01*
X68718800Y-103240800D01*
X70220800Y-103240800D01*
X71218800Y-103240800D01*
X72720800Y-103240800D01*
X73718800Y-103240800D01*
X75220800Y-103240800D01*
X75220800Y-103220220D01*
X76218800Y-103220220D01*
X76370092Y-103203175D01*
X76377021Y-103202590D01*
X76419039Y-103200230D01*
X76425993Y-103200035D01*
X76482007Y-103200035D01*
X76488961Y-103200230D01*
X76530979Y-103202590D01*
X76537908Y-103203175D01*
X76772820Y-103229642D01*
X76779707Y-103230614D01*
X76821191Y-103237662D01*
X76828011Y-103239018D01*
X76835819Y-103240800D01*
X77720800Y-103240800D01*
X78718800Y-103240800D01*
X80220800Y-103240800D01*
X81218800Y-103240800D01*
X82595738Y-103240800D01*
X86218800Y-103240800D01*
X87720800Y-103240800D01*
X88718800Y-103240800D01*
X90220800Y-103240800D01*
X90220800Y-102234999D01*
X91989341Y-102234999D01*
X91989341Y-102235000D01*
X92009936Y-102470403D01*
X92009938Y-102470413D01*
X92071094Y-102698655D01*
X92071096Y-102698659D01*
X92071097Y-102698663D01*
X92170965Y-102912830D01*
X92170967Y-102912834D01*
X92279281Y-103067521D01*
X92306505Y-103106401D01*
X92473599Y-103273495D01*
X92570384Y-103341265D01*
X92667165Y-103409032D01*
X92667167Y-103409033D01*
X92667170Y-103409035D01*
X92881337Y-103508903D01*
X93109592Y-103570063D01*
X93297918Y-103586539D01*
X93344999Y-103590659D01*
X93345000Y-103590659D01*
X93345001Y-103590659D01*
X93384234Y-103587226D01*
X93580408Y-103570063D01*
X93808663Y-103508903D01*
X94022830Y-103409035D01*
X94216401Y-103273495D01*
X94383495Y-103106401D01*
X94519035Y-102912830D01*
X94618903Y-102698663D01*
X94680063Y-102470408D01*
X94700659Y-102235000D01*
X94680063Y-101999592D01*
X94618903Y-101771337D01*
X94519035Y-101557171D01*
X94472817Y-101491165D01*
X94383496Y-101363600D01*
X94335311Y-101315415D01*
X94261179Y-101241283D01*
X94227696Y-101179963D01*
X94232680Y-101110271D01*
X94274551Y-101054337D01*
X94305529Y-101037422D01*
X94437086Y-100988354D01*
X94437093Y-100988350D01*
X94552187Y-100902190D01*
X94552190Y-100902187D01*
X94638350Y-100787093D01*
X94638354Y-100787086D01*
X94688596Y-100652379D01*
X94688598Y-100652372D01*
X94694999Y-100592844D01*
X94695000Y-100592827D01*
X94695000Y-99945000D01*
X93778012Y-99945000D01*
X93810925Y-99887993D01*
X93845000Y-99760826D01*
X93845000Y-99629174D01*
X93810925Y-99502007D01*
X93778012Y-99445000D01*
X94695000Y-99445000D01*
X94695000Y-98797172D01*
X94694999Y-98797155D01*
X94688598Y-98737627D01*
X94688596Y-98737620D01*
X94638354Y-98602913D01*
X94638350Y-98602906D01*
X94552190Y-98487812D01*
X94552187Y-98487809D01*
X94437093Y-98401649D01*
X94437086Y-98401645D01*
X94302379Y-98351403D01*
X94302372Y-98351401D01*
X94242844Y-98345000D01*
X93595000Y-98345000D01*
X93595000Y-99261988D01*
X93537993Y-99229075D01*
X93410826Y-99195000D01*
X93279174Y-99195000D01*
X93152007Y-99229075D01*
X93095000Y-99261988D01*
X93095000Y-98345000D01*
X92447155Y-98345000D01*
X92387627Y-98351401D01*
X92387620Y-98351403D01*
X92252913Y-98401645D01*
X92252906Y-98401649D01*
X92137812Y-98487809D01*
X92137809Y-98487812D01*
X92051649Y-98602906D01*
X92051645Y-98602913D01*
X92001403Y-98737620D01*
X92001401Y-98737627D01*
X91995000Y-98797155D01*
X91995000Y-99445000D01*
X92911988Y-99445000D01*
X92879075Y-99502007D01*
X92845000Y-99629174D01*
X92845000Y-99760826D01*
X92879075Y-99887993D01*
X92911988Y-99945000D01*
X91995000Y-99945000D01*
X91995000Y-100592844D01*
X92001401Y-100652372D01*
X92001403Y-100652379D01*
X92051645Y-100787086D01*
X92051649Y-100787093D01*
X92137809Y-100902187D01*
X92137812Y-100902190D01*
X92252906Y-100988350D01*
X92252913Y-100988354D01*
X92384470Y-101037421D01*
X92440403Y-101079292D01*
X92464821Y-101144756D01*
X92449970Y-101213029D01*
X92428819Y-101241284D01*
X92306503Y-101363600D01*
X92170965Y-101557169D01*
X92170964Y-101557171D01*
X92071098Y-101771335D01*
X92071094Y-101771344D01*
X92009938Y-101999586D01*
X92009936Y-101999596D01*
X91989341Y-102234999D01*
X90220800Y-102234999D01*
X90220800Y-101738800D01*
X88718800Y-101738800D01*
X88718800Y-103240800D01*
X87720800Y-103240800D01*
X87720800Y-101738800D01*
X86218800Y-101738800D01*
X86218800Y-103240800D01*
X82595738Y-103240800D01*
X82631847Y-103204691D01*
X82636900Y-103199913D01*
X82668276Y-103171873D01*
X82673590Y-103167386D01*
X82717382Y-103132462D01*
X82720800Y-103129889D01*
X82720800Y-102366381D01*
X82657222Y-102344135D01*
X82650721Y-102341653D01*
X82611835Y-102325545D01*
X82605488Y-102322705D01*
X82555021Y-102298401D01*
X82548841Y-102295208D01*
X82512010Y-102274852D01*
X82506020Y-102271319D01*
X82305852Y-102145544D01*
X82300067Y-102141678D01*
X82265739Y-102117320D01*
X82260182Y-102113138D01*
X82216390Y-102078214D01*
X82211076Y-102073727D01*
X82179700Y-102045687D01*
X82174647Y-102040909D01*
X82007491Y-101873753D01*
X82002713Y-101868700D01*
X81974673Y-101837324D01*
X81970186Y-101832010D01*
X81935262Y-101788218D01*
X81931080Y-101782661D01*
X81906722Y-101748333D01*
X81902857Y-101742549D01*
X81900501Y-101738800D01*
X81218800Y-101738800D01*
X81218800Y-103240800D01*
X80220800Y-103240800D01*
X80220800Y-101738800D01*
X78718800Y-101738800D01*
X78718800Y-103240800D01*
X77720800Y-103240800D01*
X77720800Y-101738800D01*
X76218800Y-101738800D01*
X76218800Y-103220220D01*
X75220800Y-103220220D01*
X75220800Y-101738800D01*
X73718800Y-101738800D01*
X73718800Y-103240800D01*
X72720800Y-103240800D01*
X72720800Y-101738800D01*
X71218800Y-101738800D01*
X71218800Y-103240800D01*
X70220800Y-103240800D01*
X70220800Y-101738800D01*
X68718800Y-101738800D01*
X68718800Y-103240800D01*
X67720800Y-103240800D01*
X67720800Y-101738800D01*
X66218800Y-101738800D01*
X66218800Y-103240800D01*
X65220800Y-103240800D01*
X65220800Y-101738800D01*
X63718800Y-101738800D01*
X63718800Y-103240800D01*
X61675499Y-103240800D01*
X61675499Y-102607128D01*
X61669091Y-102547517D01*
X61640331Y-102470408D01*
X61618797Y-102412671D01*
X61618793Y-102412664D01*
X61532547Y-102297455D01*
X61532544Y-102297452D01*
X61417335Y-102211206D01*
X61417328Y-102211202D01*
X61285401Y-102161997D01*
X61229467Y-102120126D01*
X61205050Y-102054662D01*
X61219902Y-101986389D01*
X61241053Y-101958133D01*
X61363108Y-101836078D01*
X61498600Y-101642578D01*
X61598429Y-101428492D01*
X61598432Y-101428486D01*
X61655636Y-101215000D01*
X60758012Y-101215000D01*
X60790925Y-101157993D01*
X60825000Y-101030826D01*
X60825000Y-100899174D01*
X60790925Y-100772007D01*
X60758012Y-100715000D01*
X61655636Y-100715000D01*
X61655635Y-100714999D01*
X61598432Y-100501513D01*
X61598429Y-100501507D01*
X61498600Y-100287422D01*
X61498599Y-100287420D01*
X61363113Y-100093926D01*
X61363108Y-100093920D01*
X61196082Y-99926894D01*
X61002578Y-99791399D01*
X60788492Y-99691570D01*
X60788486Y-99691567D01*
X60575000Y-99634364D01*
X60575000Y-100531988D01*
X60517993Y-100499075D01*
X60390826Y-100465000D01*
X60259174Y-100465000D01*
X60132007Y-100499075D01*
X60075000Y-100531988D01*
X60075000Y-99634364D01*
X60074999Y-99634364D01*
X59861513Y-99691567D01*
X59861507Y-99691570D01*
X59647422Y-99791399D01*
X59647420Y-99791400D01*
X59453926Y-99926886D01*
X59453920Y-99926891D01*
X59286891Y-100093920D01*
X59286886Y-100093926D01*
X59151400Y-100287420D01*
X59151399Y-100287422D01*
X59051570Y-100501507D01*
X59051567Y-100501513D01*
X58994364Y-100714999D01*
X58994364Y-100715000D01*
X59891988Y-100715000D01*
X59859075Y-100772007D01*
X59825000Y-100899174D01*
X59825000Y-101030826D01*
X59859075Y-101157993D01*
X59891988Y-101215000D01*
X58994364Y-101215000D01*
X59051567Y-101428486D01*
X59051570Y-101428492D01*
X59151399Y-101642578D01*
X59286894Y-101836082D01*
X59408946Y-101958134D01*
X59442431Y-102019457D01*
X59437447Y-102089149D01*
X59395575Y-102145082D01*
X59364598Y-102161997D01*
X59232671Y-102211202D01*
X59232664Y-102211206D01*
X59117455Y-102297452D01*
X59117452Y-102297455D01*
X59031206Y-102412664D01*
X59031202Y-102412671D01*
X58980908Y-102547517D01*
X58974501Y-102607116D01*
X58974501Y-102607123D01*
X58974500Y-102607135D01*
X58470800Y-102607135D01*
X58470800Y-93526759D01*
X58490485Y-93459720D01*
X58543289Y-93413965D01*
X58612447Y-93404021D01*
X58635057Y-93409476D01*
X58710506Y-93435378D01*
X58939115Y-93473526D01*
X58939116Y-93473526D01*
X59170884Y-93473526D01*
X59170885Y-93473526D01*
X59258892Y-93458840D01*
X59328255Y-93467222D01*
X59382077Y-93511774D01*
X59403268Y-93578353D01*
X59385101Y-93645819D01*
X59366982Y-93668830D01*
X59286886Y-93748926D01*
X59151400Y-93942420D01*
X59151399Y-93942422D01*
X59051570Y-94156507D01*
X59051567Y-94156513D01*
X58994364Y-94369999D01*
X58994364Y-94370000D01*
X59891988Y-94370000D01*
X59859075Y-94427007D01*
X59825000Y-94554174D01*
X59825000Y-94685826D01*
X59859075Y-94812993D01*
X59891988Y-94870000D01*
X58994364Y-94870000D01*
X59051567Y-95083486D01*
X59051570Y-95083492D01*
X59151399Y-95297578D01*
X59286894Y-95491082D01*
X59408946Y-95613134D01*
X59442431Y-95674457D01*
X59437447Y-95744149D01*
X59395575Y-95800082D01*
X59364598Y-95816997D01*
X59232671Y-95866202D01*
X59232664Y-95866206D01*
X59117455Y-95952452D01*
X59117452Y-95952455D01*
X59031206Y-96067664D01*
X59031202Y-96067671D01*
X58980908Y-96202517D01*
X58974501Y-96262116D01*
X58974501Y-96262123D01*
X58974500Y-96262135D01*
X58974500Y-98057870D01*
X58974501Y-98057876D01*
X58980908Y-98117483D01*
X59031202Y-98252328D01*
X59031206Y-98252335D01*
X59117452Y-98367544D01*
X59117455Y-98367547D01*
X59232664Y-98453793D01*
X59232671Y-98453797D01*
X59367517Y-98504091D01*
X59367516Y-98504091D01*
X59374444Y-98504835D01*
X59427127Y-98510500D01*
X61222872Y-98510499D01*
X61282483Y-98504091D01*
X61417331Y-98453796D01*
X61455800Y-98424998D01*
X62819532Y-98424998D01*
X62819532Y-98425001D01*
X62839364Y-98651686D01*
X62839366Y-98651697D01*
X62898258Y-98871488D01*
X62898261Y-98871497D01*
X62994431Y-99077732D01*
X62994432Y-99077734D01*
X63124954Y-99264141D01*
X63285858Y-99425045D01*
X63285861Y-99425047D01*
X63472266Y-99555568D01*
X63678504Y-99651739D01*
X63898308Y-99710635D01*
X64060230Y-99724801D01*
X64124998Y-99730468D01*
X64125000Y-99730468D01*
X64125002Y-99730468D01*
X64181807Y-99725498D01*
X64351692Y-99710635D01*
X64571496Y-99651739D01*
X64777734Y-99555568D01*
X64964139Y-99425047D01*
X65015641Y-99373545D01*
X66218800Y-99373545D01*
X66218800Y-100740800D01*
X67720800Y-100740800D01*
X68718800Y-100740800D01*
X70220800Y-100740800D01*
X70220800Y-100542766D01*
X70193077Y-100527628D01*
X70185463Y-100523110D01*
X70140396Y-100494146D01*
X70133126Y-100489098D01*
X69960827Y-100360114D01*
X69953936Y-100354561D01*
X69913451Y-100319481D01*
X69906972Y-100313449D01*
X69856551Y-100263028D01*
X69850519Y-100256549D01*
X69815439Y-100216064D01*
X69809886Y-100209173D01*
X69771200Y-100157496D01*
X73718800Y-100157496D01*
X73718800Y-100740800D01*
X75220800Y-100740800D01*
X76218800Y-100740800D01*
X77720800Y-100740800D01*
X77720800Y-100018447D01*
X78718800Y-100018447D01*
X78718800Y-100740800D01*
X80220800Y-100740800D01*
X80220800Y-99855161D01*
X79939118Y-99855161D01*
X79919020Y-99866269D01*
X79912840Y-99869462D01*
X79862373Y-99893766D01*
X79856026Y-99896606D01*
X79817140Y-99912714D01*
X79810639Y-99915196D01*
X79587495Y-99993277D01*
X79580868Y-99995389D01*
X79540419Y-100007042D01*
X79533682Y-100008780D01*
X79479072Y-100021243D01*
X79472252Y-100022599D01*
X79430768Y-100029647D01*
X79423881Y-100030619D01*
X79188969Y-100057086D01*
X79182040Y-100057671D01*
X79140022Y-100060031D01*
X79133068Y-100060226D01*
X79077054Y-100060226D01*
X79070100Y-100060031D01*
X79028082Y-100057671D01*
X79021153Y-100057086D01*
X78786241Y-100030619D01*
X78779354Y-100029647D01*
X78737870Y-100022599D01*
X78731050Y-100021243D01*
X78718800Y-100018447D01*
X77720800Y-100018447D01*
X77720800Y-99412710D01*
X77716934Y-99408385D01*
X77712447Y-99403071D01*
X77677523Y-99359279D01*
X77673341Y-99353722D01*
X77648983Y-99319394D01*
X77645118Y-99313610D01*
X77598111Y-99238800D01*
X76218800Y-99238800D01*
X76218800Y-100740800D01*
X75220800Y-100740800D01*
X75220800Y-99852529D01*
X75201538Y-99870089D01*
X75183276Y-99883879D01*
X75002072Y-99996075D01*
X74981589Y-100006275D01*
X74782855Y-100083265D01*
X74760846Y-100089527D01*
X74551348Y-100128689D01*
X74528563Y-100130800D01*
X74315437Y-100130800D01*
X74292652Y-100128689D01*
X74083154Y-100089527D01*
X74061145Y-100083265D01*
X73862411Y-100006275D01*
X73841928Y-99996075D01*
X73837469Y-99993314D01*
X73814146Y-100029604D01*
X73809098Y-100036875D01*
X73718800Y-100157496D01*
X69771200Y-100157496D01*
X69680902Y-100036874D01*
X69675854Y-100029604D01*
X69646890Y-99984537D01*
X69642372Y-99976923D01*
X69608195Y-99914333D01*
X69604233Y-99906419D01*
X69581975Y-99857682D01*
X69578587Y-99849502D01*
X69504931Y-99652018D01*
X69502452Y-99644679D01*
X69488847Y-99599828D01*
X69486832Y-99592352D01*
X69472484Y-99531637D01*
X69470939Y-99524045D01*
X69463028Y-99477840D01*
X69461959Y-99470167D01*
X69450788Y-99366245D01*
X69450477Y-99362936D01*
X69448865Y-99342899D01*
X69448643Y-99339587D01*
X69447214Y-99312905D01*
X69447081Y-99309587D01*
X69446545Y-99289536D01*
X69446501Y-99286222D01*
X69446501Y-99238800D01*
X68718800Y-99238800D01*
X68718800Y-100740800D01*
X67720800Y-100740800D01*
X67720800Y-99238800D01*
X66279952Y-99238800D01*
X66267611Y-99268592D01*
X66265433Y-99273541D01*
X66218800Y-99373545D01*
X65015641Y-99373545D01*
X65125047Y-99264139D01*
X65255568Y-99077734D01*
X65351739Y-98871496D01*
X65410635Y-98651692D01*
X65429513Y-98435915D01*
X65430468Y-98425001D01*
X65430468Y-98424998D01*
X65415740Y-98256657D01*
X65410635Y-98198308D01*
X65351739Y-97978504D01*
X65255568Y-97772266D01*
X65125047Y-97585861D01*
X65125045Y-97585858D01*
X65015640Y-97476453D01*
X66218800Y-97476453D01*
X66265433Y-97576459D01*
X66267611Y-97581408D01*
X66280130Y-97611629D01*
X66282089Y-97616667D01*
X66296990Y-97657599D01*
X66298731Y-97662727D01*
X66308580Y-97693962D01*
X66310095Y-97699159D01*
X66380267Y-97961049D01*
X66381553Y-97966304D01*
X66388638Y-97998263D01*
X66389693Y-98003570D01*
X66397256Y-98046465D01*
X66398079Y-98051812D01*
X66402350Y-98084256D01*
X66402939Y-98089633D01*
X66416164Y-98240800D01*
X67720800Y-98240800D01*
X68718800Y-98240800D01*
X69446500Y-98240800D01*
X69446500Y-97577135D01*
X70444500Y-97577135D01*
X70444500Y-99272870D01*
X70444501Y-99272876D01*
X70450908Y-99332483D01*
X70501202Y-99467328D01*
X70501206Y-99467335D01*
X70587452Y-99582544D01*
X70587455Y-99582547D01*
X70702664Y-99668793D01*
X70702671Y-99668797D01*
X70837517Y-99719091D01*
X70837516Y-99719091D01*
X70844444Y-99719835D01*
X70897127Y-99725500D01*
X72592872Y-99725499D01*
X72652483Y-99719091D01*
X72787331Y-99668796D01*
X72902546Y-99582546D01*
X72988796Y-99467331D01*
X73039091Y-99332483D01*
X73045500Y-99272873D01*
X73045499Y-98256657D01*
X78299496Y-98256657D01*
X78299496Y-98256664D01*
X78319691Y-98435910D01*
X78319692Y-98435915D01*
X78379272Y-98606184D01*
X78407863Y-98651686D01*
X78475245Y-98758923D01*
X78602799Y-98886477D01*
X78755539Y-98982450D01*
X78925806Y-99042029D01*
X78925811Y-99042030D01*
X79105057Y-99062226D01*
X79105061Y-99062226D01*
X79105065Y-99062226D01*
X79284310Y-99042030D01*
X79284313Y-99042029D01*
X79284316Y-99042029D01*
X79454583Y-98982450D01*
X79607323Y-98886477D01*
X79607328Y-98886471D01*
X79610158Y-98884216D01*
X79612336Y-98883326D01*
X79613219Y-98882772D01*
X79613316Y-98882926D01*
X79674844Y-98857806D01*
X79687473Y-98857161D01*
X80633764Y-98857161D01*
X80700803Y-98876846D01*
X80721445Y-98893480D01*
X82532098Y-100704133D01*
X82565583Y-100765456D01*
X82567637Y-100777930D01*
X82577430Y-100864849D01*
X82637010Y-101035121D01*
X82653249Y-101060965D01*
X82732984Y-101187862D01*
X82860538Y-101315416D01*
X83013278Y-101411389D01*
X83183545Y-101470968D01*
X83183550Y-101470969D01*
X83362796Y-101491165D01*
X83362800Y-101491165D01*
X83362804Y-101491165D01*
X83542049Y-101470969D01*
X83542052Y-101470968D01*
X83542055Y-101470968D01*
X83712322Y-101411389D01*
X83865062Y-101315416D01*
X83992616Y-101187862D01*
X84088589Y-101035122D01*
X84148168Y-100864855D01*
X84156930Y-100787093D01*
X84168365Y-100685603D01*
X84168365Y-100685596D01*
X84148169Y-100506350D01*
X84148168Y-100506345D01*
X84099332Y-100366780D01*
X84088589Y-100336078D01*
X84078160Y-100319481D01*
X84038888Y-100256979D01*
X83992616Y-100183338D01*
X83865062Y-100055784D01*
X83823397Y-100029604D01*
X83712321Y-99959810D01*
X83542049Y-99900230D01*
X83455130Y-99890437D01*
X83390716Y-99863370D01*
X83381333Y-99854898D01*
X82765235Y-99238800D01*
X84438609Y-99238800D01*
X84459861Y-99253880D01*
X84465418Y-99258062D01*
X84509210Y-99292986D01*
X84514524Y-99297473D01*
X84545900Y-99325513D01*
X84550953Y-99330291D01*
X84718109Y-99497447D01*
X84722887Y-99502500D01*
X84750927Y-99533876D01*
X84755414Y-99539190D01*
X84790338Y-99582982D01*
X84794520Y-99588539D01*
X84818878Y-99622867D01*
X84822744Y-99628652D01*
X84948519Y-99828820D01*
X84952052Y-99834810D01*
X84972408Y-99871641D01*
X84975601Y-99877821D01*
X84999905Y-99928288D01*
X85002745Y-99934635D01*
X85018853Y-99973521D01*
X85021335Y-99980022D01*
X85099416Y-100203166D01*
X85101528Y-100209793D01*
X85113181Y-100250242D01*
X85114919Y-100256979D01*
X85127382Y-100311589D01*
X85128738Y-100318409D01*
X85135786Y-100359893D01*
X85136758Y-100366780D01*
X85163225Y-100601692D01*
X85163810Y-100608621D01*
X85166170Y-100650639D01*
X85166365Y-100657593D01*
X85166365Y-100713607D01*
X85166170Y-100720561D01*
X85165033Y-100740800D01*
X85220800Y-100740800D01*
X86218800Y-100740800D01*
X87720800Y-100740800D01*
X88718800Y-100740800D01*
X90220800Y-100740800D01*
X90220800Y-99238800D01*
X88718800Y-99238800D01*
X88718800Y-100740800D01*
X87720800Y-100740800D01*
X87720800Y-99238800D01*
X86218800Y-99238800D01*
X86218800Y-100740800D01*
X85220800Y-100740800D01*
X85220800Y-99238800D01*
X84438609Y-99238800D01*
X82765235Y-99238800D01*
X81767235Y-98240800D01*
X83718800Y-98240800D01*
X85220800Y-98240800D01*
X86218800Y-98240800D01*
X87720800Y-98240800D01*
X88718800Y-98240800D01*
X90220800Y-98240800D01*
X90220800Y-98052303D01*
X91218800Y-98052303D01*
X91226297Y-98040638D01*
X91231345Y-98033368D01*
X91360243Y-97861184D01*
X91365796Y-97854293D01*
X91400876Y-97813808D01*
X91406908Y-97807329D01*
X91457329Y-97756908D01*
X91463808Y-97750876D01*
X91504293Y-97715796D01*
X91511184Y-97710243D01*
X91683368Y-97581345D01*
X91690638Y-97576297D01*
X91735705Y-97547333D01*
X91743319Y-97542815D01*
X91805909Y-97508638D01*
X91813823Y-97504677D01*
X91862559Y-97482419D01*
X91870739Y-97479030D01*
X92068096Y-97405421D01*
X92075436Y-97402942D01*
X92120305Y-97389332D01*
X92127788Y-97387315D01*
X92188499Y-97372972D01*
X92196084Y-97371428D01*
X92242262Y-97363522D01*
X92249931Y-97362455D01*
X92353783Y-97351289D01*
X92357095Y-97350977D01*
X92377144Y-97349364D01*
X92380458Y-97349142D01*
X92407145Y-97347713D01*
X92410461Y-97347580D01*
X92430509Y-97347044D01*
X92433823Y-97347000D01*
X92720800Y-97347000D01*
X92720800Y-96738800D01*
X91218800Y-96738800D01*
X91218800Y-98052303D01*
X90220800Y-98052303D01*
X90220800Y-96738800D01*
X88718800Y-96738800D01*
X88718800Y-98240800D01*
X87720800Y-98240800D01*
X87720800Y-96738800D01*
X86218800Y-96738800D01*
X86218800Y-98240800D01*
X85220800Y-98240800D01*
X85220800Y-96738800D01*
X83718800Y-96738800D01*
X83718800Y-98240800D01*
X81767235Y-98240800D01*
X81421451Y-97895016D01*
X81421449Y-97895013D01*
X81302578Y-97776142D01*
X81302570Y-97776136D01*
X81200797Y-97717378D01*
X81200795Y-97717377D01*
X81165651Y-97697086D01*
X81165650Y-97697085D01*
X81153124Y-97693728D01*
X81012918Y-97656160D01*
X80854804Y-97656160D01*
X80847208Y-97656160D01*
X80847192Y-97656161D01*
X79687473Y-97656161D01*
X79620434Y-97636476D01*
X79610158Y-97629106D01*
X79607324Y-97626846D01*
X79607323Y-97626845D01*
X79542093Y-97585858D01*
X79454584Y-97530872D01*
X79284315Y-97471292D01*
X79284310Y-97471291D01*
X79105065Y-97451096D01*
X79105057Y-97451096D01*
X78925811Y-97471291D01*
X78925806Y-97471292D01*
X78755537Y-97530872D01*
X78602798Y-97626845D01*
X78475245Y-97754398D01*
X78379272Y-97907137D01*
X78319692Y-98077406D01*
X78319691Y-98077411D01*
X78299496Y-98256657D01*
X73045499Y-98256657D01*
X73045499Y-98240800D01*
X76218800Y-98240800D01*
X77301496Y-98240800D01*
X77301496Y-98228654D01*
X77301691Y-98221700D01*
X77304051Y-98179682D01*
X77304636Y-98172753D01*
X77331103Y-97937841D01*
X77332075Y-97930954D01*
X77339123Y-97889470D01*
X77340479Y-97882650D01*
X77352942Y-97828040D01*
X77354680Y-97821303D01*
X77366333Y-97780854D01*
X77368445Y-97774227D01*
X77446526Y-97551083D01*
X77449008Y-97544582D01*
X77465116Y-97505696D01*
X77467956Y-97499349D01*
X77492260Y-97448882D01*
X77495453Y-97442702D01*
X77515809Y-97405871D01*
X77519342Y-97399881D01*
X77645117Y-97199713D01*
X77648983Y-97193928D01*
X77673341Y-97159600D01*
X77677523Y-97154043D01*
X77712447Y-97110251D01*
X77716934Y-97104937D01*
X77720800Y-97100611D01*
X77720800Y-96738800D01*
X81445257Y-96738800D01*
X81455509Y-96741547D01*
X81463272Y-96743902D01*
X81509757Y-96759681D01*
X81517348Y-96762538D01*
X81577735Y-96787548D01*
X81585131Y-96790899D01*
X81629189Y-96812626D01*
X81636345Y-96816451D01*
X81699793Y-96853083D01*
X81829880Y-96928188D01*
X81836773Y-96932474D01*
X81877612Y-96959763D01*
X81884208Y-96964490D01*
X81936061Y-97004280D01*
X81942332Y-97009427D01*
X81979243Y-97041798D01*
X81985164Y-97047343D01*
X82153334Y-97215512D01*
X82153362Y-97215543D01*
X82720800Y-97782981D01*
X82720800Y-96738800D01*
X81445257Y-96738800D01*
X77720800Y-96738800D01*
X76218800Y-96738800D01*
X76218800Y-98240800D01*
X73045499Y-98240800D01*
X73045499Y-97577128D01*
X73039091Y-97517517D01*
X73036441Y-97510413D01*
X72988797Y-97382671D01*
X72988793Y-97382664D01*
X72902547Y-97267455D01*
X72902544Y-97267452D01*
X72787335Y-97181206D01*
X72787328Y-97181202D01*
X72652482Y-97130908D01*
X72652483Y-97130908D01*
X72592883Y-97124501D01*
X72592881Y-97124500D01*
X72592873Y-97124500D01*
X72592864Y-97124500D01*
X70897129Y-97124500D01*
X70897123Y-97124501D01*
X70837516Y-97130908D01*
X70702671Y-97181202D01*
X70702664Y-97181206D01*
X70587455Y-97267452D01*
X70587452Y-97267455D01*
X70501206Y-97382664D01*
X70501202Y-97382671D01*
X70450908Y-97517517D01*
X70445938Y-97563752D01*
X70444501Y-97577123D01*
X70444500Y-97577135D01*
X69446500Y-97577135D01*
X69446500Y-97563752D01*
X69446545Y-97560428D01*
X69447084Y-97540327D01*
X69447217Y-97537007D01*
X69448649Y-97510320D01*
X69448871Y-97507011D01*
X69450481Y-97487018D01*
X69450792Y-97483715D01*
X69461962Y-97379825D01*
X69463029Y-97372157D01*
X69470936Y-97325971D01*
X69472481Y-97318381D01*
X69486826Y-97257670D01*
X69488842Y-97250191D01*
X69502450Y-97205328D01*
X69504929Y-97197988D01*
X69578587Y-97000498D01*
X69581975Y-96992318D01*
X69604233Y-96943581D01*
X69608195Y-96935667D01*
X69642372Y-96873077D01*
X69646890Y-96865463D01*
X69675854Y-96820396D01*
X69680902Y-96813126D01*
X69736543Y-96738800D01*
X73753457Y-96738800D01*
X73809098Y-96813126D01*
X73814146Y-96820396D01*
X73843110Y-96865463D01*
X73847628Y-96873077D01*
X73881805Y-96935667D01*
X73885767Y-96943581D01*
X73908025Y-96992318D01*
X73911413Y-97000498D01*
X73985069Y-97197982D01*
X73987548Y-97205321D01*
X74001153Y-97250172D01*
X74003168Y-97257648D01*
X74017516Y-97318363D01*
X74019061Y-97325955D01*
X74026972Y-97372160D01*
X74028041Y-97379833D01*
X74039212Y-97483755D01*
X74039523Y-97487064D01*
X74041135Y-97507101D01*
X74041357Y-97510413D01*
X74042786Y-97537095D01*
X74042919Y-97540413D01*
X74043455Y-97560464D01*
X74043499Y-97563778D01*
X74043499Y-97637171D01*
X74061145Y-97630335D01*
X74083154Y-97624073D01*
X74292652Y-97584911D01*
X74315437Y-97582800D01*
X74528563Y-97582800D01*
X74551348Y-97584911D01*
X74760846Y-97624073D01*
X74782855Y-97630335D01*
X74981589Y-97707325D01*
X75002072Y-97717525D01*
X75183276Y-97829721D01*
X75201538Y-97843511D01*
X75220800Y-97861070D01*
X75220800Y-96738800D01*
X73753457Y-96738800D01*
X69736543Y-96738800D01*
X68718800Y-96738800D01*
X68718800Y-98240800D01*
X67720800Y-98240800D01*
X67720800Y-96738800D01*
X66218800Y-96738800D01*
X66218800Y-97476453D01*
X65015640Y-97476453D01*
X64964141Y-97424954D01*
X64777734Y-97294432D01*
X64777732Y-97294431D01*
X64571497Y-97198261D01*
X64571488Y-97198258D01*
X64351697Y-97139366D01*
X64351693Y-97139365D01*
X64351692Y-97139365D01*
X64351691Y-97139364D01*
X64351686Y-97139364D01*
X64125002Y-97119532D01*
X64124998Y-97119532D01*
X63898313Y-97139364D01*
X63898302Y-97139366D01*
X63678511Y-97198258D01*
X63678502Y-97198261D01*
X63472267Y-97294431D01*
X63472265Y-97294432D01*
X63285858Y-97424954D01*
X63124954Y-97585858D01*
X62994432Y-97772265D01*
X62994431Y-97772267D01*
X62898261Y-97978502D01*
X62898258Y-97978511D01*
X62839366Y-98198302D01*
X62839364Y-98198313D01*
X62819532Y-98424998D01*
X61455800Y-98424998D01*
X61532546Y-98367546D01*
X61618796Y-98252331D01*
X61669091Y-98117483D01*
X61675500Y-98057873D01*
X61675499Y-96262128D01*
X61669091Y-96202517D01*
X61618796Y-96067669D01*
X61618795Y-96067668D01*
X61618793Y-96067664D01*
X61532547Y-95952455D01*
X61532544Y-95952452D01*
X61417335Y-95866206D01*
X61417328Y-95866202D01*
X61285401Y-95816997D01*
X61229467Y-95775126D01*
X61216664Y-95740800D01*
X63718800Y-95740800D01*
X65220800Y-95740800D01*
X66218800Y-95740800D01*
X67720800Y-95740800D01*
X68718800Y-95740800D01*
X70220800Y-95740800D01*
X71218800Y-95740800D01*
X72720800Y-95740800D01*
X73718800Y-95740800D01*
X75220800Y-95740800D01*
X76218800Y-95740800D01*
X77720800Y-95740800D01*
X78718800Y-95740800D01*
X80220800Y-95740800D01*
X81218800Y-95740800D01*
X82720800Y-95740800D01*
X83718800Y-95740800D01*
X85220800Y-95740800D01*
X86218800Y-95740800D01*
X87720800Y-95740800D01*
X88718800Y-95740800D01*
X90220800Y-95740800D01*
X91218800Y-95740800D01*
X92720800Y-95740800D01*
X93718800Y-95740800D01*
X94380000Y-95740800D01*
X94380000Y-94310142D01*
X94342738Y-94297351D01*
X94337928Y-94295589D01*
X94309061Y-94284326D01*
X94304327Y-94282365D01*
X94266538Y-94265791D01*
X94261886Y-94263635D01*
X94234012Y-94250009D01*
X94229453Y-94247662D01*
X94213077Y-94238800D01*
X93718800Y-94238800D01*
X93718800Y-95740800D01*
X92720800Y-95740800D01*
X92720800Y-94238800D01*
X91218800Y-94238800D01*
X91218800Y-95740800D01*
X90220800Y-95740800D01*
X90220800Y-94238800D01*
X88718800Y-94238800D01*
X88718800Y-95740800D01*
X87720800Y-95740800D01*
X87720800Y-94238800D01*
X86218800Y-94238800D01*
X86218800Y-95740800D01*
X85220800Y-95740800D01*
X85220800Y-94238800D01*
X83718800Y-94238800D01*
X83718800Y-95740800D01*
X82720800Y-95740800D01*
X82720800Y-94238800D01*
X81218800Y-94238800D01*
X81218800Y-95740800D01*
X80220800Y-95740800D01*
X80220800Y-94238800D01*
X78718800Y-94238800D01*
X78718800Y-95740800D01*
X77720800Y-95740800D01*
X77720800Y-94238800D01*
X76218800Y-94238800D01*
X76218800Y-95740800D01*
X75220800Y-95740800D01*
X75220800Y-94238800D01*
X73718800Y-94238800D01*
X73718800Y-95740800D01*
X72720800Y-95740800D01*
X72720800Y-94238800D01*
X71218800Y-94238800D01*
X71218800Y-95740800D01*
X70220800Y-95740800D01*
X70220800Y-94238800D01*
X68718800Y-94238800D01*
X68718800Y-95740800D01*
X67720800Y-95740800D01*
X67720800Y-94238800D01*
X66218800Y-94238800D01*
X66218800Y-95740800D01*
X65220800Y-95740800D01*
X65220800Y-94238800D01*
X63718800Y-94238800D01*
X63718800Y-95740800D01*
X61216664Y-95740800D01*
X61205050Y-95709662D01*
X61219902Y-95641389D01*
X61241053Y-95613133D01*
X61363108Y-95491078D01*
X61498600Y-95297578D01*
X61598429Y-95083492D01*
X61598432Y-95083486D01*
X61655636Y-94870000D01*
X60758012Y-94870000D01*
X60790925Y-94812993D01*
X60825000Y-94685826D01*
X60825000Y-94554174D01*
X60790925Y-94427007D01*
X60758012Y-94370000D01*
X61655636Y-94370000D01*
X61655635Y-94369999D01*
X61598432Y-94156513D01*
X61598429Y-94156507D01*
X61498600Y-93942422D01*
X61498599Y-93942420D01*
X61363113Y-93748926D01*
X61363108Y-93748920D01*
X61196082Y-93581894D01*
X61002578Y-93446399D01*
X60788492Y-93346570D01*
X60788486Y-93346567D01*
X60575000Y-93289364D01*
X60575000Y-94186988D01*
X60517993Y-94154075D01*
X60390826Y-94120000D01*
X60259174Y-94120000D01*
X60132007Y-94154075D01*
X60075000Y-94186988D01*
X60075000Y-93289364D01*
X60043704Y-93265350D01*
X60002502Y-93208922D01*
X59998347Y-93139176D01*
X60027961Y-93082992D01*
X60162416Y-92936936D01*
X60289182Y-92742906D01*
X60345374Y-92614800D01*
X61554783Y-92614800D01*
X61557166Y-92616393D01*
X61786346Y-92776869D01*
X61790706Y-92780065D01*
X61816665Y-92799983D01*
X61820885Y-92803370D01*
X61854252Y-92831367D01*
X61858320Y-92834935D01*
X61882458Y-92857053D01*
X61886367Y-92860795D01*
X62084196Y-93058623D01*
X62087938Y-93062531D01*
X62110038Y-93086649D01*
X62113601Y-93090712D01*
X62141602Y-93124079D01*
X62144988Y-93128298D01*
X62164925Y-93154278D01*
X62168128Y-93158646D01*
X62225652Y-93240800D01*
X62720800Y-93240800D01*
X63718800Y-93240800D01*
X65220800Y-93240800D01*
X66218800Y-93240800D01*
X67720800Y-93240800D01*
X68718800Y-93240800D01*
X70220800Y-93240800D01*
X71218800Y-93240800D01*
X72720800Y-93240800D01*
X73718800Y-93240800D01*
X75220800Y-93240800D01*
X76218800Y-93240800D01*
X77720800Y-93240800D01*
X78718800Y-93240800D01*
X80220800Y-93240800D01*
X81218800Y-93240800D01*
X82720800Y-93240800D01*
X83718800Y-93240800D01*
X85220800Y-93240800D01*
X86218800Y-93240800D01*
X87720800Y-93240800D01*
X88718800Y-93240800D01*
X90220800Y-93240800D01*
X91218800Y-93240800D01*
X92720800Y-93240800D01*
X92720800Y-92614800D01*
X91218800Y-92614800D01*
X91218800Y-93240800D01*
X90220800Y-93240800D01*
X90220800Y-92614800D01*
X88718800Y-92614800D01*
X88718800Y-93240800D01*
X87720800Y-93240800D01*
X87720800Y-92614800D01*
X86218800Y-92614800D01*
X86218800Y-93240800D01*
X85220800Y-93240800D01*
X85220800Y-92614800D01*
X83718800Y-92614800D01*
X83718800Y-93240800D01*
X82720800Y-93240800D01*
X82720800Y-92614800D01*
X81218800Y-92614800D01*
X81218800Y-93240800D01*
X80220800Y-93240800D01*
X80220800Y-92614800D01*
X78718800Y-92614800D01*
X78718800Y-93240800D01*
X77720800Y-93240800D01*
X77720800Y-92614800D01*
X76218800Y-92614800D01*
X76218800Y-93240800D01*
X75220800Y-93240800D01*
X75220800Y-92614800D01*
X73718800Y-92614800D01*
X73718800Y-93240800D01*
X72720800Y-93240800D01*
X72720800Y-92614800D01*
X71218800Y-92614800D01*
X71218800Y-93240800D01*
X70220800Y-93240800D01*
X70220800Y-92614800D01*
X68718800Y-92614800D01*
X68718800Y-93240800D01*
X67720800Y-93240800D01*
X67720800Y-92614800D01*
X66218800Y-92614800D01*
X66218800Y-93240800D01*
X65220800Y-93240800D01*
X65220800Y-92614800D01*
X63718800Y-92614800D01*
X63718800Y-93240800D01*
X62720800Y-93240800D01*
X62720800Y-92614800D01*
X61554783Y-92614800D01*
X60345374Y-92614800D01*
X60382283Y-92530657D01*
X60439180Y-92305979D01*
X60439181Y-92305971D01*
X60458319Y-92075006D01*
X60458319Y-92074993D01*
X60439181Y-91844028D01*
X60439177Y-91844008D01*
X60388842Y-91645241D01*
X60391466Y-91575420D01*
X60431422Y-91518103D01*
X60496023Y-91491486D01*
X60509047Y-91490800D01*
X93795953Y-91490800D01*
X93862992Y-91510485D01*
G37*
%TD.AperFunction*%
%TD*%
M02*
