%TF.GenerationSoftware,KiCad,Pcbnew,8.0.6*%
%TF.CreationDate,2025-06-17T20:58:39+05:30*%
%TF.ProjectId,Breadboard Power Supply,42726561-6462-46f6-9172-6420506f7765,rev?*%
%TF.SameCoordinates,Original*%
%TF.FileFunction,Copper,L2,Bot*%
%TF.FilePolarity,Positive*%
%FSLAX46Y46*%
G04 Gerber Fmt 4.6, Leading zero omitted, Abs format (unit mm)*
G04 Created by KiCad (PCBNEW 8.0.6) date 2025-06-17 20:58:39*
%MOMM*%
%LPD*%
G01*
G04 APERTURE LIST*
G04 Aperture macros list*
%AMRoundRect*
0 Rectangle with rounded corners*
0 $1 Rounding radius*
0 $2 $3 $4 $5 $6 $7 $8 $9 X,Y pos of 4 corners*
0 Add a 4 corners polygon primitive as box body*
4,1,4,$2,$3,$4,$5,$6,$7,$8,$9,$2,$3,0*
0 Add four circle primitives for the rounded corners*
1,1,$1+$1,$2,$3*
1,1,$1+$1,$4,$5*
1,1,$1+$1,$6,$7*
1,1,$1+$1,$8,$9*
0 Add four rect primitives between the rounded corners*
20,1,$1+$1,$2,$3,$4,$5,0*
20,1,$1+$1,$4,$5,$6,$7,0*
20,1,$1+$1,$6,$7,$8,$9,0*
20,1,$1+$1,$8,$9,$2,$3,0*%
G04 Aperture macros list end*
%TA.AperFunction,ComponentPad*%
%ADD10O,1.905000X2.000000*%
%TD*%
%TA.AperFunction,ComponentPad*%
%ADD11R,1.905000X2.000000*%
%TD*%
%TA.AperFunction,ComponentPad*%
%ADD12R,1.900000X1.900000*%
%TD*%
%TA.AperFunction,ComponentPad*%
%ADD13C,1.900000*%
%TD*%
%TA.AperFunction,ComponentPad*%
%ADD14C,1.400000*%
%TD*%
%TA.AperFunction,ComponentPad*%
%ADD15O,1.400000X1.400000*%
%TD*%
%TA.AperFunction,ComponentPad*%
%ADD16R,3.000000X3.000000*%
%TD*%
%TA.AperFunction,ComponentPad*%
%ADD17C,3.000000*%
%TD*%
%TA.AperFunction,ComponentPad*%
%ADD18R,3.500000X3.500000*%
%TD*%
%TA.AperFunction,ComponentPad*%
%ADD19RoundRect,0.750000X-0.750000X-1.000000X0.750000X-1.000000X0.750000X1.000000X-0.750000X1.000000X0*%
%TD*%
%TA.AperFunction,ComponentPad*%
%ADD20RoundRect,0.875000X-0.875000X-0.875000X0.875000X-0.875000X0.875000X0.875000X-0.875000X0.875000X0*%
%TD*%
%TA.AperFunction,ComponentPad*%
%ADD21R,1.700000X1.700000*%
%TD*%
%TA.AperFunction,ComponentPad*%
%ADD22O,1.700000X1.700000*%
%TD*%
%TA.AperFunction,ComponentPad*%
%ADD23R,1.800000X1.800000*%
%TD*%
%TA.AperFunction,ComponentPad*%
%ADD24C,1.800000*%
%TD*%
%TA.AperFunction,ComponentPad*%
%ADD25C,1.600000*%
%TD*%
%TA.AperFunction,ViaPad*%
%ADD26C,0.600000*%
%TD*%
%TA.AperFunction,Conductor*%
%ADD27C,0.200000*%
%TD*%
G04 APERTURE END LIST*
D10*
%TO.P,U2,3,VI*%
%TO.N,/12V*%
X173482000Y-114737000D03*
%TO.P,U2,2,VO*%
%TO.N,/3.3V*%
X170942000Y-114737000D03*
D11*
%TO.P,U2,1,ADJ*%
%TO.N,Net-(U2-ADJ)*%
X168402000Y-114737000D03*
%TD*%
%TO.P,U1,1,VI*%
%TO.N,/12V*%
X173990000Y-93726000D03*
D10*
%TO.P,U1,2,GND*%
%TO.N,GND*%
X171450000Y-93726000D03*
%TO.P,U1,3,VO*%
%TO.N,/5V*%
X168910000Y-93726000D03*
%TD*%
D12*
%TO.P,S1,1*%
%TO.N,/12V*%
X185888000Y-90678000D03*
D13*
%TO.P,S1,2*%
%TO.N,/PWR_input*%
X183388000Y-90678000D03*
%TO.P,S1,3*%
%TO.N,unconnected-(S1-Pad3)*%
X180888000Y-90678000D03*
%TD*%
D14*
%TO.P,R3,1*%
%TO.N,GND*%
X179070000Y-114046000D03*
D15*
%TO.P,R3,2*%
%TO.N,Net-(U2-ADJ)*%
X186690000Y-114046000D03*
%TD*%
D14*
%TO.P,R2,1*%
%TO.N,Net-(U2-ADJ)*%
X186436000Y-117856000D03*
D15*
%TO.P,R2,2*%
%TO.N,/3.3V*%
X178816000Y-117856000D03*
%TD*%
D14*
%TO.P,R1,1*%
%TO.N,Net-(D1-A)*%
X180340000Y-95504000D03*
D15*
%TO.P,R1,2*%
%TO.N,/12V*%
X187960000Y-95504000D03*
%TD*%
D16*
%TO.P,J7,1,Pin_1*%
%TO.N,GND*%
X180848000Y-126746000D03*
D17*
%TO.P,J7,2,Pin_2*%
%TO.N,/PWR_output*%
X185928000Y-126746000D03*
%TD*%
D18*
%TO.P,J6,1*%
%TO.N,/PWR_input*%
X175672000Y-102870000D03*
D19*
%TO.P,J6,2*%
%TO.N,GND*%
X169672000Y-102870000D03*
D20*
%TO.P,J6,3*%
X172672000Y-107570000D03*
%TD*%
D16*
%TO.P,J5,1,Pin_1*%
%TO.N,GND*%
X180594000Y-81534000D03*
D17*
%TO.P,J5,2,Pin_2*%
%TO.N,/PWR_output*%
X185674000Y-81534000D03*
%TD*%
D21*
%TO.P,J4,1,Pin_1*%
%TO.N,/3.3V*%
X170688000Y-128778000D03*
D22*
%TO.P,J4,2,Pin_2*%
%TO.N,/PWR_output*%
X173228000Y-128778000D03*
%TO.P,J4,3,Pin_3*%
%TO.N,/5V*%
X175768000Y-128778000D03*
%TD*%
D21*
%TO.P,J3,1,Pin_1*%
%TO.N,/3.3V*%
X170434000Y-79248000D03*
D22*
%TO.P,J3,2,Pin_2*%
%TO.N,/PWR_output*%
X172974000Y-79248000D03*
%TO.P,J3,3,Pin_3*%
%TO.N,/5V*%
X175514000Y-79248000D03*
%TD*%
D21*
%TO.P,J2,1,Pin_1*%
%TO.N,GND*%
X193675000Y-126365000D03*
D22*
%TO.P,J2,2,Pin_2*%
%TO.N,/PWR_output*%
X193675000Y-128905000D03*
%TD*%
D21*
%TO.P,J1,1,Pin_1*%
%TO.N,GND*%
X193675000Y-79375000D03*
D22*
%TO.P,J1,2,Pin_2*%
%TO.N,/PWR_output*%
X193675000Y-81915000D03*
%TD*%
D23*
%TO.P,D1,1,K*%
%TO.N,GND*%
X183896000Y-104902000D03*
D24*
%TO.P,D1,2,A*%
%TO.N,Net-(D1-A)*%
X183896000Y-102362000D03*
%TD*%
D25*
%TO.P,C3,1*%
%TO.N,/3.3V*%
X169398000Y-121158000D03*
%TO.P,C3,2*%
%TO.N,GND*%
X166898000Y-121158000D03*
%TD*%
%TO.P,C2,1*%
%TO.N,/5V*%
X169398000Y-87376000D03*
%TO.P,C2,2*%
%TO.N,GND*%
X166898000Y-87376000D03*
%TD*%
%TO.P,C1,2*%
%TO.N,GND*%
X173248000Y-87376000D03*
%TO.P,C1,1*%
%TO.N,/12V*%
X175748000Y-87376000D03*
%TD*%
D26*
%TO.N,/3.3V*%
X176530000Y-118110000D03*
%TD*%
D27*
%TO.N,/12V*%
X167872000Y-109127000D02*
X173482000Y-114737000D01*
X167872000Y-99844000D02*
X167872000Y-109127000D01*
X173990000Y-93726000D02*
X167872000Y-99844000D01*
%TO.N,Net-(U2-ADJ)*%
X185436000Y-118856000D02*
X172521000Y-118856000D01*
X186436000Y-117856000D02*
X185436000Y-118856000D01*
X172521000Y-118856000D02*
X168402000Y-114737000D01*
%TO.N,/3.3V*%
X174315000Y-118110000D02*
X170942000Y-114737000D01*
X176530000Y-118110000D02*
X174315000Y-118110000D01*
%TD*%
%TA.AperFunction,Conductor*%
%TO.N,GND*%
G36*
X169358730Y-77736185D02*
G01*
X169404485Y-77788989D01*
X169414429Y-77858147D01*
X169385404Y-77921703D01*
X169348151Y-77947567D01*
X169349454Y-77949953D01*
X169341664Y-77954206D01*
X169226455Y-78040452D01*
X169226452Y-78040455D01*
X169140206Y-78155664D01*
X169140202Y-78155671D01*
X169089908Y-78290517D01*
X169083501Y-78350116D01*
X169083500Y-78350135D01*
X169083500Y-80145870D01*
X169083501Y-80145876D01*
X169089908Y-80205483D01*
X169140202Y-80340328D01*
X169140206Y-80340335D01*
X169226452Y-80455544D01*
X169226455Y-80455547D01*
X169341664Y-80541793D01*
X169341671Y-80541797D01*
X169476517Y-80592091D01*
X169476516Y-80592091D01*
X169483444Y-80592835D01*
X169536127Y-80598500D01*
X171331872Y-80598499D01*
X171391483Y-80592091D01*
X171526331Y-80541796D01*
X171641546Y-80455546D01*
X171727796Y-80340331D01*
X171776810Y-80208916D01*
X171818681Y-80152984D01*
X171884145Y-80128566D01*
X171952418Y-80143417D01*
X171980673Y-80164569D01*
X172102599Y-80286495D01*
X172199384Y-80354265D01*
X172296165Y-80422032D01*
X172296167Y-80422033D01*
X172296170Y-80422035D01*
X172510337Y-80521903D01*
X172738592Y-80583063D01*
X172915034Y-80598500D01*
X172973999Y-80603659D01*
X172974000Y-80603659D01*
X172974001Y-80603659D01*
X173032966Y-80598500D01*
X173209408Y-80583063D01*
X173437663Y-80521903D01*
X173651830Y-80422035D01*
X173845401Y-80286495D01*
X174012495Y-80119401D01*
X174142425Y-79933842D01*
X174197002Y-79890217D01*
X174266500Y-79883023D01*
X174328855Y-79914546D01*
X174345575Y-79933842D01*
X174475500Y-80119395D01*
X174475505Y-80119401D01*
X174642599Y-80286495D01*
X174739384Y-80354265D01*
X174836165Y-80422032D01*
X174836167Y-80422033D01*
X174836170Y-80422035D01*
X175050337Y-80521903D01*
X175278592Y-80583063D01*
X175455034Y-80598500D01*
X175513999Y-80603659D01*
X175514000Y-80603659D01*
X175514001Y-80603659D01*
X175572966Y-80598500D01*
X175749408Y-80583063D01*
X175977663Y-80521903D01*
X176191830Y-80422035D01*
X176385401Y-80286495D01*
X176552495Y-80119401D01*
X176645795Y-79986155D01*
X178594000Y-79986155D01*
X178594000Y-81284000D01*
X179874936Y-81284000D01*
X179863207Y-81312316D01*
X179834000Y-81459147D01*
X179834000Y-81608853D01*
X179863207Y-81755684D01*
X179874936Y-81784000D01*
X178594000Y-81784000D01*
X178594000Y-83081844D01*
X178600401Y-83141372D01*
X178600403Y-83141379D01*
X178650645Y-83276086D01*
X178650649Y-83276093D01*
X178736809Y-83391187D01*
X178736812Y-83391190D01*
X178851906Y-83477350D01*
X178851913Y-83477354D01*
X178986620Y-83527596D01*
X178986627Y-83527598D01*
X179046155Y-83533999D01*
X179046172Y-83534000D01*
X180344000Y-83534000D01*
X180344000Y-82253064D01*
X180372316Y-82264793D01*
X180519147Y-82294000D01*
X180668853Y-82294000D01*
X180815684Y-82264793D01*
X180844000Y-82253064D01*
X180844000Y-83534000D01*
X182141828Y-83534000D01*
X182141844Y-83533999D01*
X182201372Y-83527598D01*
X182201379Y-83527596D01*
X182336086Y-83477354D01*
X182336093Y-83477350D01*
X182451187Y-83391190D01*
X182451190Y-83391187D01*
X182537350Y-83276093D01*
X182537354Y-83276086D01*
X182587596Y-83141379D01*
X182587598Y-83141372D01*
X182593999Y-83081844D01*
X182594000Y-83081827D01*
X182594000Y-81784000D01*
X181313064Y-81784000D01*
X181324793Y-81755684D01*
X181354000Y-81608853D01*
X181354000Y-81533998D01*
X183668390Y-81533998D01*
X183668390Y-81534000D01*
X183688804Y-81819433D01*
X183749628Y-82099037D01*
X183749630Y-82099043D01*
X183749631Y-82099046D01*
X183811452Y-82264793D01*
X183849635Y-82367166D01*
X183986770Y-82618309D01*
X183986775Y-82618317D01*
X184158254Y-82847387D01*
X184158270Y-82847405D01*
X184360594Y-83049729D01*
X184360612Y-83049745D01*
X184589682Y-83221224D01*
X184589690Y-83221229D01*
X184840833Y-83358364D01*
X184840832Y-83358364D01*
X184840836Y-83358365D01*
X184840839Y-83358367D01*
X185108954Y-83458369D01*
X185108960Y-83458370D01*
X185108962Y-83458371D01*
X185388566Y-83519195D01*
X185388568Y-83519195D01*
X185388572Y-83519196D01*
X185641688Y-83537299D01*
X185673999Y-83539610D01*
X185674000Y-83539610D01*
X185674001Y-83539610D01*
X185706312Y-83537299D01*
X185959428Y-83519196D01*
X186120919Y-83484066D01*
X186239037Y-83458371D01*
X186239037Y-83458370D01*
X186239046Y-83458369D01*
X186507161Y-83358367D01*
X186758315Y-83221226D01*
X186987395Y-83049739D01*
X187189739Y-82847395D01*
X187361226Y-82618315D01*
X187498367Y-82367161D01*
X187598369Y-82099046D01*
X187627203Y-81966500D01*
X189284500Y-81966500D01*
X190786500Y-81966500D01*
X190786500Y-80464500D01*
X189284500Y-80464500D01*
X189284500Y-81966500D01*
X187627203Y-81966500D01*
X187659196Y-81819428D01*
X187679610Y-81534000D01*
X187659196Y-81248572D01*
X187657680Y-81241605D01*
X187598371Y-80968962D01*
X187598370Y-80968960D01*
X187598369Y-80968954D01*
X187498367Y-80700839D01*
X187465745Y-80641097D01*
X187361229Y-80449690D01*
X187361224Y-80449682D01*
X187189745Y-80220612D01*
X187189729Y-80220594D01*
X186987405Y-80018270D01*
X186987387Y-80018254D01*
X186758317Y-79846775D01*
X186758309Y-79846770D01*
X186507166Y-79709635D01*
X186507167Y-79709635D01*
X186399915Y-79669632D01*
X186239046Y-79609631D01*
X186239043Y-79609630D01*
X186239037Y-79609628D01*
X185959433Y-79548804D01*
X185674001Y-79528390D01*
X185673999Y-79528390D01*
X185388566Y-79548804D01*
X185108962Y-79609628D01*
X184840833Y-79709635D01*
X184589690Y-79846770D01*
X184589682Y-79846775D01*
X184360612Y-80018254D01*
X184360594Y-80018270D01*
X184158270Y-80220594D01*
X184158254Y-80220612D01*
X183986775Y-80449682D01*
X183986770Y-80449690D01*
X183849635Y-80700833D01*
X183749628Y-80968962D01*
X183688804Y-81248566D01*
X183668390Y-81533998D01*
X181354000Y-81533998D01*
X181354000Y-81459147D01*
X181324793Y-81312316D01*
X181313064Y-81284000D01*
X182594000Y-81284000D01*
X182594000Y-79986172D01*
X182593999Y-79986155D01*
X182587598Y-79926627D01*
X182587596Y-79926620D01*
X182537354Y-79791913D01*
X182537350Y-79791906D01*
X182451190Y-79676812D01*
X182451187Y-79676809D01*
X182336093Y-79590649D01*
X182336086Y-79590645D01*
X182201379Y-79540403D01*
X182201372Y-79540401D01*
X182141844Y-79534000D01*
X180844000Y-79534000D01*
X180844000Y-80814935D01*
X180815684Y-80803207D01*
X180668853Y-80774000D01*
X180519147Y-80774000D01*
X180372316Y-80803207D01*
X180344000Y-80814935D01*
X180344000Y-79534000D01*
X179046155Y-79534000D01*
X178986627Y-79540401D01*
X178986620Y-79540403D01*
X178851913Y-79590645D01*
X178851906Y-79590649D01*
X178736812Y-79676809D01*
X178736809Y-79676812D01*
X178650649Y-79791906D01*
X178650645Y-79791913D01*
X178600403Y-79926620D01*
X178600401Y-79926627D01*
X178594000Y-79986155D01*
X176645795Y-79986155D01*
X176688035Y-79925830D01*
X176787903Y-79711663D01*
X176849063Y-79483408D01*
X176869659Y-79248000D01*
X176849063Y-79012592D01*
X176794567Y-78809206D01*
X176787905Y-78784344D01*
X176787904Y-78784343D01*
X176787903Y-78784337D01*
X176770919Y-78747915D01*
X186784500Y-78747915D01*
X186872612Y-78780780D01*
X186876728Y-78782400D01*
X186901449Y-78792639D01*
X186905505Y-78794404D01*
X186937921Y-78809206D01*
X186941918Y-78811118D01*
X186965882Y-78823113D01*
X186969806Y-78825166D01*
X187252253Y-78979394D01*
X187256102Y-78981586D01*
X187279147Y-78995260D01*
X187282917Y-78997589D01*
X187312893Y-79016856D01*
X187316570Y-79019313D01*
X187338550Y-79034575D01*
X187342137Y-79037162D01*
X187599732Y-79229995D01*
X187603224Y-79232707D01*
X187624066Y-79249501D01*
X187627463Y-79252340D01*
X187654395Y-79275675D01*
X187657692Y-79278637D01*
X187677299Y-79296892D01*
X187680484Y-79299965D01*
X187847019Y-79466500D01*
X188286500Y-79466500D01*
X189284500Y-79466500D01*
X190786500Y-79466500D01*
X190786500Y-78714500D01*
X189284500Y-78714500D01*
X189284500Y-79466500D01*
X188286500Y-79466500D01*
X188286500Y-78714500D01*
X186784500Y-78714500D01*
X186784500Y-78747915D01*
X176770919Y-78747915D01*
X176688035Y-78570171D01*
X176682425Y-78562158D01*
X176552494Y-78376597D01*
X176385402Y-78209506D01*
X176385395Y-78209501D01*
X176191834Y-78073967D01*
X176191830Y-78073965D01*
X176191828Y-78073964D01*
X175977663Y-77974097D01*
X175977659Y-77974096D01*
X175977655Y-77974094D01*
X175926079Y-77960275D01*
X175866418Y-77923910D01*
X175835889Y-77861063D01*
X175844184Y-77791688D01*
X175888669Y-77737810D01*
X175955221Y-77716535D01*
X175958172Y-77716500D01*
X194498108Y-77716500D01*
X194557039Y-77716500D01*
X194570922Y-77717280D01*
X194579353Y-77718230D01*
X194664831Y-77727861D01*
X194691892Y-77734037D01*
X194774481Y-77762937D01*
X194799491Y-77774980D01*
X194809189Y-77781074D01*
X194873581Y-77821534D01*
X194895290Y-77838847D01*
X194957152Y-77900709D01*
X194974465Y-77922418D01*
X194992266Y-77950748D01*
X195011266Y-78017985D01*
X194990898Y-78084820D01*
X194937631Y-78130034D01*
X194868374Y-78139272D01*
X194812961Y-78115987D01*
X194767088Y-78081646D01*
X194767086Y-78081645D01*
X194632379Y-78031403D01*
X194632372Y-78031401D01*
X194572844Y-78025000D01*
X193925000Y-78025000D01*
X193925000Y-78941988D01*
X193867993Y-78909075D01*
X193740826Y-78875000D01*
X193609174Y-78875000D01*
X193482007Y-78909075D01*
X193425000Y-78941988D01*
X193425000Y-78025000D01*
X192777155Y-78025000D01*
X192717627Y-78031401D01*
X192717620Y-78031403D01*
X192582913Y-78081645D01*
X192582906Y-78081649D01*
X192467812Y-78167809D01*
X192467809Y-78167812D01*
X192381649Y-78282906D01*
X192381645Y-78282913D01*
X192331403Y-78417620D01*
X192331401Y-78417627D01*
X192325000Y-78477155D01*
X192325000Y-79125000D01*
X193241988Y-79125000D01*
X193209075Y-79182007D01*
X193175000Y-79309174D01*
X193175000Y-79440826D01*
X193209075Y-79567993D01*
X193241988Y-79625000D01*
X192325000Y-79625000D01*
X192325000Y-80272844D01*
X192331401Y-80332372D01*
X192331403Y-80332379D01*
X192381645Y-80467086D01*
X192381649Y-80467093D01*
X192467809Y-80582187D01*
X192467812Y-80582190D01*
X192582906Y-80668350D01*
X192582913Y-80668354D01*
X192714470Y-80717421D01*
X192770403Y-80759292D01*
X192794821Y-80824756D01*
X192779970Y-80893029D01*
X192758819Y-80921284D01*
X192636503Y-81043600D01*
X192500965Y-81237169D01*
X192500964Y-81237171D01*
X192401098Y-81451335D01*
X192401094Y-81451344D01*
X192339938Y-81679586D01*
X192339936Y-81679596D01*
X192319341Y-81914999D01*
X192319341Y-81915000D01*
X192339936Y-82150403D01*
X192339938Y-82150413D01*
X192401094Y-82378655D01*
X192401096Y-82378659D01*
X192401097Y-82378663D01*
X192473060Y-82532988D01*
X192500965Y-82592830D01*
X192500967Y-82592834D01*
X192518811Y-82618317D01*
X192636505Y-82786401D01*
X192803599Y-82953495D01*
X192900384Y-83021265D01*
X192997165Y-83089032D01*
X192997167Y-83089033D01*
X192997170Y-83089035D01*
X193211337Y-83188903D01*
X193211343Y-83188904D01*
X193211344Y-83188905D01*
X193260728Y-83202137D01*
X193439592Y-83250063D01*
X193627918Y-83266539D01*
X193674999Y-83270659D01*
X193675000Y-83270659D01*
X193675001Y-83270659D01*
X193714234Y-83267226D01*
X193910408Y-83250063D01*
X194138663Y-83188903D01*
X194352830Y-83089035D01*
X194546401Y-82953495D01*
X194713495Y-82786401D01*
X194849035Y-82592830D01*
X194852140Y-82588396D01*
X194853465Y-82589324D01*
X194898675Y-82546214D01*
X194967282Y-82532988D01*
X195032148Y-82558953D01*
X195072678Y-82615866D01*
X195079500Y-82656427D01*
X195079500Y-83051038D01*
X195078720Y-83064922D01*
X195068139Y-83158827D01*
X195061960Y-83185898D01*
X195033064Y-83268477D01*
X195021017Y-83293494D01*
X194974465Y-83367581D01*
X194957152Y-83389290D01*
X194895290Y-83451152D01*
X194873581Y-83468465D01*
X194799494Y-83515017D01*
X194774477Y-83527064D01*
X194691898Y-83555960D01*
X194664827Y-83562139D01*
X194570923Y-83572720D01*
X194557039Y-83573500D01*
X191407537Y-83573500D01*
X191192820Y-83604370D01*
X190984678Y-83665487D01*
X190787373Y-83755593D01*
X190787357Y-83755602D01*
X190604874Y-83872877D01*
X190604867Y-83872883D01*
X190440933Y-84014931D01*
X190440931Y-84014933D01*
X190298883Y-84178867D01*
X190298877Y-84178874D01*
X190181602Y-84361357D01*
X190181593Y-84361373D01*
X190091487Y-84558678D01*
X190030370Y-84766820D01*
X189999500Y-84981537D01*
X189999500Y-123298462D01*
X190030370Y-123513179D01*
X190091487Y-123721321D01*
X190181593Y-123918626D01*
X190181602Y-123918642D01*
X190197780Y-123943815D01*
X190226315Y-123988216D01*
X190246000Y-124055254D01*
X190246000Y-124460000D01*
X190650744Y-124460000D01*
X190717783Y-124479685D01*
X190717784Y-124479685D01*
X190787357Y-124524397D01*
X190787373Y-124524406D01*
X190984678Y-124614512D01*
X190984682Y-124614513D01*
X190984684Y-124614514D01*
X191077908Y-124641887D01*
X191192820Y-124675629D01*
X191223691Y-124680067D01*
X191407538Y-124706500D01*
X191450108Y-124706500D01*
X194498108Y-124706500D01*
X194557039Y-124706500D01*
X194570922Y-124707280D01*
X194579353Y-124708230D01*
X194664831Y-124717861D01*
X194691892Y-124724037D01*
X194774481Y-124752937D01*
X194799491Y-124764980D01*
X194873581Y-124811534D01*
X194895290Y-124828847D01*
X194957152Y-124890709D01*
X194974465Y-124912418D01*
X194992266Y-124940748D01*
X195011266Y-125007985D01*
X194990898Y-125074820D01*
X194937631Y-125120034D01*
X194868374Y-125129272D01*
X194812961Y-125105987D01*
X194767088Y-125071646D01*
X194767086Y-125071645D01*
X194632379Y-125021403D01*
X194632372Y-125021401D01*
X194572844Y-125015000D01*
X193925000Y-125015000D01*
X193925000Y-125931988D01*
X193867993Y-125899075D01*
X193740826Y-125865000D01*
X193609174Y-125865000D01*
X193482007Y-125899075D01*
X193425000Y-125931988D01*
X193425000Y-125015000D01*
X192777155Y-125015000D01*
X192717627Y-125021401D01*
X192717620Y-125021403D01*
X192582913Y-125071645D01*
X192582906Y-125071649D01*
X192467812Y-125157809D01*
X192467809Y-125157812D01*
X192381649Y-125272906D01*
X192381645Y-125272913D01*
X192331403Y-125407620D01*
X192331401Y-125407627D01*
X192325000Y-125467155D01*
X192325000Y-126115000D01*
X193241988Y-126115000D01*
X193209075Y-126172007D01*
X193175000Y-126299174D01*
X193175000Y-126430826D01*
X193209075Y-126557993D01*
X193241988Y-126615000D01*
X192325000Y-126615000D01*
X192325000Y-127262844D01*
X192331401Y-127322372D01*
X192331403Y-127322379D01*
X192381645Y-127457086D01*
X192381649Y-127457093D01*
X192467809Y-127572187D01*
X192467812Y-127572190D01*
X192582906Y-127658350D01*
X192582913Y-127658354D01*
X192714470Y-127707421D01*
X192770403Y-127749292D01*
X192794821Y-127814756D01*
X192779970Y-127883029D01*
X192758819Y-127911284D01*
X192636503Y-128033600D01*
X192500965Y-128227169D01*
X192500964Y-128227171D01*
X192401098Y-128441335D01*
X192401094Y-128441344D01*
X192339938Y-128669586D01*
X192339936Y-128669596D01*
X192319341Y-128904999D01*
X192319341Y-128905000D01*
X192339936Y-129140403D01*
X192339938Y-129140413D01*
X192401094Y-129368655D01*
X192401096Y-129368659D01*
X192401097Y-129368663D01*
X192436482Y-129444546D01*
X192500965Y-129582830D01*
X192500967Y-129582834D01*
X192602690Y-129728108D01*
X192636505Y-129776401D01*
X192803599Y-129943495D01*
X192926418Y-130029494D01*
X193001604Y-130082140D01*
X193000675Y-130083465D01*
X193043786Y-130128675D01*
X193057012Y-130197282D01*
X193031047Y-130262148D01*
X192974134Y-130302678D01*
X192933573Y-130309500D01*
X176212172Y-130309500D01*
X176145133Y-130289815D01*
X176099378Y-130237011D01*
X176089434Y-130167853D01*
X176118459Y-130104297D01*
X176177237Y-130066523D01*
X176180079Y-130065725D01*
X176214038Y-130056625D01*
X176231663Y-130051903D01*
X176445830Y-129952035D01*
X176639401Y-129816495D01*
X176806495Y-129649401D01*
X176942035Y-129455830D01*
X177009337Y-129311500D01*
X189284500Y-129311500D01*
X190786500Y-129311500D01*
X190786500Y-127964500D01*
X189284500Y-127964500D01*
X189284500Y-129311500D01*
X177009337Y-129311500D01*
X177041903Y-129241663D01*
X177103063Y-129013408D01*
X177123659Y-128778000D01*
X177103063Y-128542592D01*
X177041903Y-128314337D01*
X176942035Y-128100171D01*
X176936425Y-128092158D01*
X176806494Y-127906597D01*
X176639402Y-127739506D01*
X176639395Y-127739501D01*
X176627204Y-127730965D01*
X176562518Y-127685671D01*
X176445834Y-127603967D01*
X176445830Y-127603965D01*
X176445828Y-127603964D01*
X176231663Y-127504097D01*
X176231659Y-127504096D01*
X176231655Y-127504094D01*
X176003413Y-127442938D01*
X176003403Y-127442936D01*
X175768001Y-127422341D01*
X175767999Y-127422341D01*
X175532596Y-127442936D01*
X175532586Y-127442938D01*
X175304344Y-127504094D01*
X175304335Y-127504098D01*
X175090171Y-127603964D01*
X175090169Y-127603965D01*
X174896597Y-127739505D01*
X174729505Y-127906597D01*
X174599575Y-128092158D01*
X174544998Y-128135783D01*
X174475500Y-128142977D01*
X174413145Y-128111454D01*
X174396425Y-128092158D01*
X174266494Y-127906597D01*
X174099402Y-127739506D01*
X174099395Y-127739501D01*
X174087204Y-127730965D01*
X174022518Y-127685671D01*
X173905834Y-127603967D01*
X173905830Y-127603965D01*
X173905828Y-127603964D01*
X173691663Y-127504097D01*
X173691659Y-127504096D01*
X173691655Y-127504094D01*
X173463413Y-127442938D01*
X173463403Y-127442936D01*
X173228001Y-127422341D01*
X173227999Y-127422341D01*
X172992596Y-127442936D01*
X172992586Y-127442938D01*
X172764344Y-127504094D01*
X172764335Y-127504098D01*
X172550171Y-127603964D01*
X172550169Y-127603965D01*
X172356600Y-127739503D01*
X172234673Y-127861430D01*
X172173350Y-127894914D01*
X172103658Y-127889930D01*
X172047725Y-127848058D01*
X172030810Y-127817081D01*
X171981797Y-127685671D01*
X171981793Y-127685664D01*
X171895547Y-127570455D01*
X171895544Y-127570452D01*
X171780335Y-127484206D01*
X171780328Y-127484202D01*
X171645482Y-127433908D01*
X171645483Y-127433908D01*
X171585883Y-127427501D01*
X171585881Y-127427500D01*
X171585873Y-127427500D01*
X171585864Y-127427500D01*
X169790129Y-127427500D01*
X169790123Y-127427501D01*
X169730516Y-127433908D01*
X169595671Y-127484202D01*
X169595664Y-127484206D01*
X169480455Y-127570452D01*
X169480452Y-127570455D01*
X169394206Y-127685664D01*
X169394202Y-127685671D01*
X169343908Y-127820517D01*
X169337501Y-127880116D01*
X169337500Y-127880135D01*
X169337500Y-129675870D01*
X169337501Y-129675876D01*
X169343908Y-129735483D01*
X169394202Y-129870328D01*
X169394206Y-129870335D01*
X169480452Y-129985544D01*
X169480455Y-129985547D01*
X169595664Y-130071793D01*
X169603454Y-130076047D01*
X169601875Y-130078938D01*
X169644958Y-130111189D01*
X169669375Y-130176653D01*
X169654524Y-130244926D01*
X169605119Y-130294332D01*
X169545691Y-130309500D01*
X162058961Y-130309500D01*
X162045077Y-130308720D01*
X161951172Y-130298139D01*
X161924101Y-130291960D01*
X161841522Y-130263064D01*
X161816505Y-130251017D01*
X161742418Y-130204465D01*
X161720709Y-130187152D01*
X161658847Y-130125290D01*
X161641534Y-130103581D01*
X161618249Y-130066523D01*
X161594980Y-130029491D01*
X161582937Y-130004481D01*
X161554037Y-129921892D01*
X161547861Y-129894831D01*
X161537280Y-129800921D01*
X161536500Y-129787038D01*
X161536500Y-129311500D01*
X162534500Y-129311500D01*
X163286500Y-129311500D01*
X164284500Y-129311500D01*
X165786500Y-129311500D01*
X166784500Y-129311500D01*
X168286500Y-129311500D01*
X168286500Y-127964500D01*
X166784500Y-127964500D01*
X166784500Y-129311500D01*
X165786500Y-129311500D01*
X165786500Y-127964500D01*
X164284500Y-127964500D01*
X164284500Y-129311500D01*
X163286500Y-129311500D01*
X163286500Y-127964500D01*
X162534500Y-127964500D01*
X162534500Y-129311500D01*
X161536500Y-129311500D01*
X161536500Y-126966500D01*
X162534500Y-126966500D01*
X163286500Y-126966500D01*
X164284500Y-126966500D01*
X165786500Y-126966500D01*
X166784500Y-126966500D01*
X168286500Y-126966500D01*
X168286500Y-126679369D01*
X174284500Y-126679369D01*
X174347338Y-126708672D01*
X174352188Y-126711064D01*
X174381209Y-126726171D01*
X174385949Y-126728771D01*
X174423673Y-126750549D01*
X174428302Y-126753358D01*
X174455916Y-126770950D01*
X174460415Y-126773957D01*
X174497999Y-126800274D01*
X174535581Y-126773960D01*
X174540080Y-126770954D01*
X174567679Y-126753372D01*
X174572301Y-126750567D01*
X174610022Y-126728788D01*
X174614765Y-126726186D01*
X174643801Y-126711070D01*
X174648655Y-126708676D01*
X174751502Y-126660717D01*
X176784500Y-126660717D01*
X176887337Y-126708672D01*
X176892188Y-126711064D01*
X176921209Y-126726171D01*
X176925949Y-126728771D01*
X176963673Y-126750549D01*
X176968302Y-126753358D01*
X176995916Y-126770950D01*
X177000415Y-126773956D01*
X177229678Y-126934488D01*
X177234042Y-126937689D01*
X177260022Y-126957625D01*
X177264243Y-126961012D01*
X177270783Y-126966500D01*
X177850000Y-126966500D01*
X177850000Y-126795454D01*
X177859439Y-126748002D01*
X177860268Y-126746000D01*
X177859439Y-126743998D01*
X177850000Y-126696546D01*
X177850000Y-125464500D01*
X176784500Y-125464500D01*
X176784500Y-126660717D01*
X174751502Y-126660717D01*
X174902292Y-126590402D01*
X174907244Y-126588223D01*
X174937465Y-126575705D01*
X174942500Y-126573747D01*
X174983432Y-126558846D01*
X174988560Y-126557105D01*
X175019795Y-126547256D01*
X175024992Y-126545741D01*
X175295334Y-126473305D01*
X175300588Y-126472019D01*
X175332546Y-126464934D01*
X175337854Y-126463879D01*
X175380749Y-126456316D01*
X175386096Y-126455493D01*
X175418539Y-126451222D01*
X175423916Y-126450633D01*
X175702713Y-126426241D01*
X175708110Y-126425887D01*
X175740810Y-126424459D01*
X175746220Y-126424341D01*
X175786500Y-126424341D01*
X175786500Y-125464500D01*
X174284500Y-125464500D01*
X174284500Y-126679369D01*
X168286500Y-126679369D01*
X168286500Y-126535105D01*
X169284500Y-126535105D01*
X169410982Y-126487931D01*
X169418321Y-126485452D01*
X169463172Y-126471847D01*
X169470648Y-126469832D01*
X169531363Y-126455484D01*
X169538955Y-126453939D01*
X169585160Y-126446028D01*
X169591491Y-126445146D01*
X171784500Y-126445146D01*
X171790843Y-126446029D01*
X171837029Y-126453936D01*
X171844619Y-126455481D01*
X171905330Y-126469826D01*
X171912809Y-126471842D01*
X171957672Y-126485450D01*
X171965012Y-126487929D01*
X172162502Y-126561587D01*
X172170682Y-126564975D01*
X172219419Y-126587233D01*
X172227333Y-126591195D01*
X172288714Y-126624711D01*
X172362292Y-126590402D01*
X172367244Y-126588223D01*
X172397465Y-126575705D01*
X172402500Y-126573747D01*
X172443432Y-126558846D01*
X172448560Y-126557105D01*
X172479795Y-126547256D01*
X172484992Y-126545741D01*
X172755334Y-126473305D01*
X172760588Y-126472019D01*
X172792546Y-126464934D01*
X172797854Y-126463879D01*
X172840749Y-126456316D01*
X172846096Y-126455493D01*
X172878539Y-126451222D01*
X172883916Y-126450633D01*
X173162713Y-126426241D01*
X173168110Y-126425887D01*
X173200810Y-126424459D01*
X173206220Y-126424341D01*
X173249780Y-126424341D01*
X173255190Y-126424459D01*
X173286500Y-126425826D01*
X173286500Y-125464500D01*
X171784500Y-125464500D01*
X171784500Y-126445146D01*
X169591491Y-126445146D01*
X169592833Y-126444959D01*
X169696755Y-126433788D01*
X169700064Y-126433477D01*
X169720101Y-126431865D01*
X169723413Y-126431643D01*
X169750095Y-126430214D01*
X169753413Y-126430081D01*
X169773464Y-126429545D01*
X169776778Y-126429501D01*
X170786500Y-126429500D01*
X170786500Y-125464500D01*
X169284500Y-125464500D01*
X169284500Y-126535105D01*
X168286500Y-126535105D01*
X168286500Y-125464500D01*
X166784500Y-125464500D01*
X166784500Y-126966500D01*
X165786500Y-126966500D01*
X165786500Y-125464500D01*
X164284500Y-125464500D01*
X164284500Y-126966500D01*
X163286500Y-126966500D01*
X163286500Y-125464500D01*
X162534500Y-125464500D01*
X162534500Y-126966500D01*
X161536500Y-126966500D01*
X161536500Y-125198155D01*
X178848000Y-125198155D01*
X178848000Y-126496000D01*
X180128936Y-126496000D01*
X180117207Y-126524316D01*
X180088000Y-126671147D01*
X180088000Y-126820853D01*
X180117207Y-126967684D01*
X180128936Y-126996000D01*
X178848000Y-126996000D01*
X178848000Y-128293844D01*
X178854401Y-128353372D01*
X178854403Y-128353379D01*
X178904645Y-128488086D01*
X178904649Y-128488093D01*
X178990809Y-128603187D01*
X178990812Y-128603190D01*
X179105906Y-128689350D01*
X179105913Y-128689354D01*
X179240620Y-128739596D01*
X179240627Y-128739598D01*
X179300155Y-128745999D01*
X179300172Y-128746000D01*
X180598000Y-128746000D01*
X180598000Y-127465064D01*
X180626316Y-127476793D01*
X180773147Y-127506000D01*
X180922853Y-127506000D01*
X181069684Y-127476793D01*
X181098000Y-127465064D01*
X181098000Y-128746000D01*
X182395828Y-128746000D01*
X182395844Y-128745999D01*
X182455372Y-128739598D01*
X182455379Y-128739596D01*
X182590086Y-128689354D01*
X182590093Y-128689350D01*
X182705187Y-128603190D01*
X182705190Y-128603187D01*
X182791350Y-128488093D01*
X182791354Y-128488086D01*
X182841596Y-128353379D01*
X182841598Y-128353372D01*
X182847999Y-128293844D01*
X182848000Y-128293827D01*
X182848000Y-126996000D01*
X181567064Y-126996000D01*
X181578793Y-126967684D01*
X181608000Y-126820853D01*
X181608000Y-126745998D01*
X183922390Y-126745998D01*
X183922390Y-126746000D01*
X183942804Y-127031433D01*
X184003628Y-127311037D01*
X184003630Y-127311043D01*
X184003631Y-127311046D01*
X184100386Y-127570455D01*
X184103635Y-127579166D01*
X184240770Y-127830309D01*
X184240775Y-127830317D01*
X184412254Y-128059387D01*
X184412270Y-128059405D01*
X184614594Y-128261729D01*
X184614612Y-128261745D01*
X184843682Y-128433224D01*
X184843690Y-128433229D01*
X185094833Y-128570364D01*
X185094832Y-128570364D01*
X185094836Y-128570365D01*
X185094839Y-128570367D01*
X185362954Y-128670369D01*
X185362960Y-128670370D01*
X185362962Y-128670371D01*
X185642566Y-128731195D01*
X185642568Y-128731195D01*
X185642572Y-128731196D01*
X185896220Y-128749337D01*
X185927999Y-128751610D01*
X185928000Y-128751610D01*
X185928001Y-128751610D01*
X185956595Y-128749564D01*
X186213428Y-128731196D01*
X186493046Y-128670369D01*
X186761161Y-128570367D01*
X187012315Y-128433226D01*
X187241395Y-128261739D01*
X187443739Y-128059395D01*
X187615226Y-127830315D01*
X187752367Y-127579161D01*
X187852369Y-127311046D01*
X187913196Y-127031428D01*
X187917840Y-126966500D01*
X189284500Y-126966500D01*
X190786500Y-126966500D01*
X190786500Y-125596454D01*
X190744085Y-125584000D01*
X189831786Y-125584000D01*
X189764747Y-125564315D01*
X189744105Y-125547681D01*
X189660924Y-125464500D01*
X189284500Y-125464500D01*
X189284500Y-126966500D01*
X187917840Y-126966500D01*
X187933610Y-126746000D01*
X187913196Y-126460572D01*
X187911752Y-126453936D01*
X187852371Y-126180962D01*
X187852370Y-126180960D01*
X187852369Y-126180954D01*
X187752367Y-125912839D01*
X187744851Y-125899075D01*
X187615229Y-125661690D01*
X187615224Y-125661682D01*
X187443745Y-125432612D01*
X187443729Y-125432594D01*
X187241405Y-125230270D01*
X187241387Y-125230254D01*
X187012317Y-125058775D01*
X187012309Y-125058770D01*
X186761166Y-124921635D01*
X186761167Y-124921635D01*
X186653915Y-124881632D01*
X186493046Y-124821631D01*
X186493043Y-124821630D01*
X186493037Y-124821628D01*
X186213433Y-124760804D01*
X185928001Y-124740390D01*
X185927999Y-124740390D01*
X185642566Y-124760804D01*
X185362962Y-124821628D01*
X185094833Y-124921635D01*
X184843690Y-125058770D01*
X184843682Y-125058775D01*
X184614612Y-125230254D01*
X184614594Y-125230270D01*
X184412270Y-125432594D01*
X184412254Y-125432612D01*
X184240775Y-125661682D01*
X184240770Y-125661690D01*
X184103635Y-125912833D01*
X184003628Y-126180962D01*
X183942804Y-126460566D01*
X183922390Y-126745998D01*
X181608000Y-126745998D01*
X181608000Y-126671147D01*
X181578793Y-126524316D01*
X181567064Y-126496000D01*
X182848000Y-126496000D01*
X182848000Y-125198172D01*
X182847999Y-125198155D01*
X182841598Y-125138627D01*
X182841596Y-125138620D01*
X182791354Y-125003913D01*
X182791350Y-125003906D01*
X182705190Y-124888812D01*
X182705187Y-124888809D01*
X182590093Y-124802649D01*
X182590086Y-124802645D01*
X182455379Y-124752403D01*
X182455372Y-124752401D01*
X182395844Y-124746000D01*
X181098000Y-124746000D01*
X181098000Y-126026935D01*
X181069684Y-126015207D01*
X180922853Y-125986000D01*
X180773147Y-125986000D01*
X180626316Y-126015207D01*
X180598000Y-126026935D01*
X180598000Y-124746000D01*
X179300155Y-124746000D01*
X179240627Y-124752401D01*
X179240620Y-124752403D01*
X179105913Y-124802645D01*
X179105906Y-124802649D01*
X178990812Y-124888809D01*
X178990809Y-124888812D01*
X178904649Y-125003906D01*
X178904645Y-125003913D01*
X178854403Y-125138620D01*
X178854401Y-125138627D01*
X178848000Y-125198155D01*
X161536500Y-125198155D01*
X161536500Y-124466500D01*
X162534500Y-124466500D01*
X163286500Y-124466500D01*
X164284500Y-124466500D01*
X165786500Y-124466500D01*
X165786500Y-123454847D01*
X166784500Y-123454847D01*
X166784500Y-124466500D01*
X168286500Y-124466500D01*
X168286500Y-123455349D01*
X169284500Y-123455349D01*
X169284500Y-124466500D01*
X170786500Y-124466500D01*
X171784500Y-124466500D01*
X173286500Y-124466500D01*
X174284500Y-124466500D01*
X175786500Y-124466500D01*
X176784500Y-124466500D01*
X178063319Y-124466500D01*
X178079297Y-124441638D01*
X178084345Y-124434368D01*
X178213243Y-124262184D01*
X178218796Y-124255293D01*
X178239016Y-124231958D01*
X184284500Y-124231958D01*
X184285430Y-124231313D01*
X184289107Y-124228856D01*
X184319083Y-124209589D01*
X184322853Y-124207260D01*
X184345898Y-124193586D01*
X184349747Y-124191394D01*
X184632194Y-124037166D01*
X184636118Y-124035113D01*
X184660082Y-124023118D01*
X184664079Y-124021206D01*
X184696495Y-124006404D01*
X184700551Y-124004639D01*
X184725272Y-123994400D01*
X184729389Y-123992780D01*
X185030869Y-123880334D01*
X185035037Y-123878864D01*
X185060415Y-123870416D01*
X185064636Y-123869094D01*
X185071503Y-123867077D01*
X186784500Y-123867077D01*
X186791364Y-123869094D01*
X186795585Y-123870416D01*
X186820963Y-123878864D01*
X186825131Y-123880334D01*
X187126611Y-123992780D01*
X187130728Y-123994400D01*
X187155449Y-124004639D01*
X187159505Y-124006404D01*
X187191921Y-124021206D01*
X187195918Y-124023118D01*
X187219882Y-124035113D01*
X187223806Y-124037166D01*
X187506253Y-124191394D01*
X187510102Y-124193586D01*
X187533147Y-124207260D01*
X187536917Y-124209589D01*
X187566893Y-124228856D01*
X187570570Y-124231313D01*
X187592550Y-124246575D01*
X187596137Y-124249162D01*
X187853732Y-124441995D01*
X187857224Y-124444707D01*
X187878066Y-124461501D01*
X187881463Y-124464340D01*
X187883956Y-124466500D01*
X188286500Y-124466500D01*
X188286500Y-122964500D01*
X186784500Y-122964500D01*
X186784500Y-123867077D01*
X185071503Y-123867077D01*
X185098826Y-123859052D01*
X185103100Y-123857879D01*
X185129076Y-123851248D01*
X185133388Y-123850229D01*
X185447855Y-123781821D01*
X185452202Y-123780956D01*
X185478581Y-123776198D01*
X185482954Y-123775490D01*
X185518228Y-123770421D01*
X185522613Y-123769870D01*
X185549210Y-123767011D01*
X185553617Y-123766617D01*
X185786500Y-123749961D01*
X185786500Y-122964500D01*
X184284500Y-122964500D01*
X184284500Y-124231958D01*
X178239016Y-124231958D01*
X178253876Y-124214808D01*
X178259908Y-124208329D01*
X178286500Y-124181737D01*
X178286500Y-123748030D01*
X179284500Y-123748030D01*
X179286823Y-123748000D01*
X180786500Y-123748000D01*
X181784500Y-123748000D01*
X182409177Y-123748000D01*
X182412491Y-123748044D01*
X182432539Y-123748580D01*
X182435855Y-123748713D01*
X182462542Y-123750142D01*
X182465856Y-123750364D01*
X182485905Y-123751977D01*
X182489217Y-123752289D01*
X182593069Y-123763455D01*
X182600738Y-123764522D01*
X182646916Y-123772428D01*
X182654501Y-123773972D01*
X182715212Y-123788315D01*
X182722695Y-123790332D01*
X182767564Y-123803942D01*
X182774904Y-123806421D01*
X182972261Y-123880030D01*
X182980441Y-123883419D01*
X183029177Y-123905677D01*
X183037091Y-123909638D01*
X183099681Y-123943815D01*
X183107295Y-123948333D01*
X183152362Y-123977297D01*
X183159632Y-123982345D01*
X183286500Y-124077319D01*
X183286500Y-122964500D01*
X181784500Y-122964500D01*
X181784500Y-123748000D01*
X180786500Y-123748000D01*
X180786500Y-122964500D01*
X179284500Y-122964500D01*
X179284500Y-123748030D01*
X178286500Y-123748030D01*
X178286500Y-122964500D01*
X176784500Y-122964500D01*
X176784500Y-124466500D01*
X175786500Y-124466500D01*
X175786500Y-122964500D01*
X174284500Y-122964500D01*
X174284500Y-124466500D01*
X173286500Y-124466500D01*
X173286500Y-122964500D01*
X171784500Y-122964500D01*
X171784500Y-124466500D01*
X170786500Y-124466500D01*
X170786500Y-122991712D01*
X170605321Y-123118574D01*
X170600825Y-123121578D01*
X170573228Y-123139160D01*
X170568601Y-123141968D01*
X170530880Y-123163746D01*
X170526139Y-123166347D01*
X170497103Y-123181463D01*
X170492249Y-123183857D01*
X170246541Y-123298433D01*
X170241592Y-123300611D01*
X170211371Y-123313130D01*
X170206333Y-123315089D01*
X170165401Y-123329990D01*
X170160273Y-123331731D01*
X170129038Y-123341580D01*
X170123841Y-123343095D01*
X169861951Y-123413267D01*
X169856696Y-123414553D01*
X169824737Y-123421638D01*
X169819430Y-123422693D01*
X169776535Y-123430256D01*
X169771188Y-123431079D01*
X169738744Y-123435350D01*
X169733367Y-123435939D01*
X169463286Y-123459568D01*
X169457889Y-123459922D01*
X169425189Y-123461350D01*
X169419779Y-123461468D01*
X169376221Y-123461468D01*
X169370811Y-123461350D01*
X169338111Y-123459922D01*
X169332713Y-123459568D01*
X169284500Y-123455349D01*
X168286500Y-123455349D01*
X168286500Y-123175009D01*
X168269861Y-123166347D01*
X168265120Y-123163746D01*
X168227399Y-123141968D01*
X168222772Y-123139160D01*
X168195175Y-123121578D01*
X168190680Y-123118575D01*
X168147564Y-123088385D01*
X168105089Y-123118128D01*
X168100593Y-123121132D01*
X168073000Y-123138712D01*
X168068376Y-123141518D01*
X168030651Y-123163301D01*
X168025905Y-123165905D01*
X167996857Y-123181027D01*
X167992002Y-123183421D01*
X167746367Y-123297962D01*
X167741420Y-123300139D01*
X167711200Y-123312658D01*
X167706158Y-123314619D01*
X167665228Y-123329518D01*
X167660104Y-123331258D01*
X167628870Y-123341107D01*
X167623673Y-123342622D01*
X167361866Y-123412773D01*
X167356610Y-123414059D01*
X167324651Y-123421144D01*
X167319343Y-123422200D01*
X167276447Y-123429763D01*
X167271101Y-123430585D01*
X167238656Y-123434856D01*
X167233279Y-123435445D01*
X166963285Y-123459066D01*
X166957888Y-123459420D01*
X166925189Y-123460848D01*
X166919779Y-123460966D01*
X166876221Y-123460966D01*
X166870811Y-123460848D01*
X166838112Y-123459420D01*
X166832714Y-123459066D01*
X166784500Y-123454847D01*
X165786500Y-123454847D01*
X165786500Y-123174445D01*
X165770114Y-123165916D01*
X165765369Y-123163312D01*
X165727646Y-123141532D01*
X165723019Y-123138724D01*
X165695418Y-123121139D01*
X165690922Y-123118135D01*
X165471511Y-122964500D01*
X164284500Y-122964500D01*
X164284500Y-124466500D01*
X163286500Y-124466500D01*
X163286500Y-122964500D01*
X162534500Y-122964500D01*
X162534500Y-124466500D01*
X161536500Y-124466500D01*
X161536500Y-121966500D01*
X162534500Y-121966500D01*
X163286500Y-121966500D01*
X164284500Y-121966500D01*
X164741514Y-121966500D01*
X164741381Y-121966158D01*
X164726482Y-121925228D01*
X164724742Y-121920104D01*
X164714893Y-121888870D01*
X164713378Y-121883673D01*
X164643227Y-121621866D01*
X164641941Y-121616610D01*
X164634856Y-121584651D01*
X164633800Y-121579343D01*
X164626237Y-121536447D01*
X164625415Y-121531101D01*
X164621144Y-121498656D01*
X164620555Y-121493279D01*
X164596934Y-121223285D01*
X164596580Y-121217888D01*
X164595152Y-121185189D01*
X164595034Y-121179779D01*
X164595034Y-121157997D01*
X165593034Y-121157997D01*
X165593034Y-121158002D01*
X165612858Y-121384599D01*
X165612860Y-121384610D01*
X165671730Y-121604317D01*
X165671735Y-121604331D01*
X165767863Y-121810478D01*
X165818974Y-121883472D01*
X166498000Y-121204446D01*
X166498000Y-121210661D01*
X166525259Y-121312394D01*
X166577920Y-121403606D01*
X166652394Y-121478080D01*
X166743606Y-121530741D01*
X166845339Y-121558000D01*
X166851553Y-121558000D01*
X166172526Y-122237025D01*
X166245513Y-122288132D01*
X166245521Y-122288136D01*
X166451668Y-122384264D01*
X166451682Y-122384269D01*
X166671389Y-122443139D01*
X166671400Y-122443141D01*
X166897998Y-122462966D01*
X166898002Y-122462966D01*
X167124599Y-122443141D01*
X167124610Y-122443139D01*
X167344317Y-122384269D01*
X167344331Y-122384264D01*
X167550478Y-122288136D01*
X167623471Y-122237024D01*
X166944447Y-121558000D01*
X166950661Y-121558000D01*
X167052394Y-121530741D01*
X167143606Y-121478080D01*
X167218080Y-121403606D01*
X167270741Y-121312394D01*
X167298000Y-121210661D01*
X167298000Y-121204447D01*
X167977024Y-121883471D01*
X168028134Y-121810481D01*
X168035340Y-121795028D01*
X168081511Y-121742587D01*
X168148704Y-121723433D01*
X168215585Y-121743646D01*
X168260105Y-121795022D01*
X168267430Y-121810730D01*
X168267432Y-121810734D01*
X168397954Y-121997141D01*
X168558858Y-122158045D01*
X168558861Y-122158047D01*
X168745266Y-122288568D01*
X168951504Y-122384739D01*
X169171308Y-122443635D01*
X169333230Y-122457801D01*
X169397998Y-122463468D01*
X169398000Y-122463468D01*
X169398002Y-122463468D01*
X169454673Y-122458509D01*
X169624692Y-122443635D01*
X169844496Y-122384739D01*
X170050734Y-122288568D01*
X170237139Y-122158047D01*
X170398047Y-121997139D01*
X170419500Y-121966500D01*
X171784500Y-121966500D01*
X173286500Y-121966500D01*
X174284500Y-121966500D01*
X175786500Y-121966500D01*
X176784500Y-121966500D01*
X178286500Y-121966500D01*
X179284500Y-121966500D01*
X180786500Y-121966500D01*
X181784500Y-121966500D01*
X183286500Y-121966500D01*
X184284500Y-121966500D01*
X185786500Y-121966500D01*
X186784500Y-121966500D01*
X188286500Y-121966500D01*
X188286500Y-120464500D01*
X186784500Y-120464500D01*
X186784500Y-121966500D01*
X185786500Y-121966500D01*
X185786500Y-120464500D01*
X184284500Y-120464500D01*
X184284500Y-121966500D01*
X183286500Y-121966500D01*
X183286500Y-120464500D01*
X181784500Y-120464500D01*
X181784500Y-121966500D01*
X180786500Y-121966500D01*
X180786500Y-120464500D01*
X179284500Y-120464500D01*
X179284500Y-121966500D01*
X178286500Y-121966500D01*
X178286500Y-120464500D01*
X176784500Y-120464500D01*
X176784500Y-121966500D01*
X175786500Y-121966500D01*
X175786500Y-120464500D01*
X174284500Y-120464500D01*
X174284500Y-121966500D01*
X173286500Y-121966500D01*
X173286500Y-120464500D01*
X171784500Y-120464500D01*
X171784500Y-121966500D01*
X170419500Y-121966500D01*
X170528568Y-121810734D01*
X170624739Y-121604496D01*
X170683635Y-121384692D01*
X170703468Y-121158000D01*
X170683635Y-120931308D01*
X170631479Y-120736657D01*
X170624741Y-120711511D01*
X170624738Y-120711502D01*
X170569277Y-120592566D01*
X170528568Y-120505266D01*
X170398047Y-120318861D01*
X170398045Y-120318858D01*
X170237141Y-120157954D01*
X170050734Y-120027432D01*
X170050732Y-120027431D01*
X169844497Y-119931261D01*
X169844488Y-119931258D01*
X169624697Y-119872366D01*
X169624693Y-119872365D01*
X169624692Y-119872365D01*
X169624691Y-119872364D01*
X169624686Y-119872364D01*
X169398002Y-119852532D01*
X169397998Y-119852532D01*
X169171313Y-119872364D01*
X169171302Y-119872366D01*
X168951511Y-119931258D01*
X168951502Y-119931261D01*
X168745267Y-120027431D01*
X168745265Y-120027432D01*
X168558858Y-120157954D01*
X168397954Y-120318858D01*
X168267432Y-120505265D01*
X168267429Y-120505270D01*
X168260104Y-120520979D01*
X168213929Y-120573417D01*
X168146735Y-120592566D01*
X168079855Y-120572347D01*
X168035341Y-120520973D01*
X168028133Y-120505515D01*
X168028132Y-120505513D01*
X167977025Y-120432526D01*
X167298000Y-121111551D01*
X167298000Y-121105339D01*
X167270741Y-121003606D01*
X167218080Y-120912394D01*
X167143606Y-120837920D01*
X167052394Y-120785259D01*
X166950661Y-120758000D01*
X166944448Y-120758000D01*
X167623472Y-120078974D01*
X167550478Y-120027863D01*
X167344331Y-119931735D01*
X167344317Y-119931730D01*
X167124610Y-119872860D01*
X167124599Y-119872858D01*
X166898002Y-119853034D01*
X166897998Y-119853034D01*
X166671400Y-119872858D01*
X166671389Y-119872860D01*
X166451682Y-119931730D01*
X166451673Y-119931734D01*
X166245516Y-120027866D01*
X166245512Y-120027868D01*
X166172526Y-120078973D01*
X166172526Y-120078974D01*
X166851553Y-120758000D01*
X166845339Y-120758000D01*
X166743606Y-120785259D01*
X166652394Y-120837920D01*
X166577920Y-120912394D01*
X166525259Y-121003606D01*
X166498000Y-121105339D01*
X166498000Y-121111552D01*
X165818974Y-120432526D01*
X165818973Y-120432526D01*
X165767868Y-120505512D01*
X165767866Y-120505516D01*
X165671734Y-120711673D01*
X165671730Y-120711682D01*
X165612860Y-120931389D01*
X165612858Y-120931400D01*
X165593034Y-121157997D01*
X164595034Y-121157997D01*
X164595034Y-121136221D01*
X164595152Y-121130811D01*
X164596580Y-121098112D01*
X164596934Y-121092715D01*
X164620555Y-120822721D01*
X164621144Y-120817344D01*
X164625415Y-120784899D01*
X164626237Y-120779553D01*
X164633800Y-120736657D01*
X164634856Y-120731349D01*
X164641941Y-120699390D01*
X164643227Y-120694134D01*
X164704757Y-120464500D01*
X164284500Y-120464500D01*
X164284500Y-121966500D01*
X163286500Y-121966500D01*
X163286500Y-120464500D01*
X162534500Y-120464500D01*
X162534500Y-121966500D01*
X161536500Y-121966500D01*
X161536500Y-119466500D01*
X162534500Y-119466500D01*
X163286500Y-119466500D01*
X164284500Y-119466500D01*
X165358945Y-119466500D01*
X165380269Y-119429566D01*
X165416533Y-119389992D01*
X165690935Y-119197855D01*
X165695437Y-119194847D01*
X165723050Y-119177257D01*
X165727674Y-119174451D01*
X165765397Y-119152673D01*
X165770140Y-119150071D01*
X165786500Y-119141555D01*
X165786500Y-118861152D01*
X166784500Y-118861152D01*
X166832715Y-118856934D01*
X166838112Y-118856580D01*
X166870811Y-118855152D01*
X166876221Y-118855034D01*
X166919779Y-118855034D01*
X166925189Y-118855152D01*
X166957888Y-118856580D01*
X166963285Y-118856934D01*
X167233279Y-118880555D01*
X167238656Y-118881144D01*
X167271101Y-118885415D01*
X167276447Y-118886237D01*
X167319343Y-118893800D01*
X167324651Y-118894856D01*
X167356610Y-118901941D01*
X167361866Y-118903227D01*
X167623673Y-118973378D01*
X167628870Y-118974893D01*
X167660104Y-118984742D01*
X167665228Y-118986482D01*
X167706158Y-119001381D01*
X167711200Y-119003342D01*
X167741420Y-119015861D01*
X167746367Y-119018038D01*
X167991996Y-119132576D01*
X167996848Y-119134968D01*
X168025886Y-119150084D01*
X168030633Y-119152688D01*
X168068355Y-119174468D01*
X168072978Y-119177274D01*
X168100579Y-119194858D01*
X168105077Y-119197863D01*
X168147565Y-119227613D01*
X168190679Y-119197426D01*
X168195175Y-119194422D01*
X168222772Y-119176840D01*
X168227399Y-119174032D01*
X168265120Y-119152254D01*
X168269861Y-119149653D01*
X168286500Y-119140990D01*
X168286500Y-118860650D01*
X169284500Y-118860650D01*
X169332714Y-118856432D01*
X169338111Y-118856078D01*
X169370811Y-118854650D01*
X169376221Y-118854532D01*
X169419779Y-118854532D01*
X169425189Y-118854650D01*
X169457889Y-118856078D01*
X169463286Y-118856432D01*
X169733367Y-118880061D01*
X169738744Y-118880650D01*
X169771188Y-118884921D01*
X169776535Y-118885744D01*
X169819430Y-118893307D01*
X169824737Y-118894362D01*
X169856696Y-118901447D01*
X169861951Y-118902733D01*
X170123841Y-118972905D01*
X170129038Y-118974420D01*
X170160273Y-118984269D01*
X170165401Y-118986010D01*
X170206333Y-119000911D01*
X170211371Y-119002870D01*
X170241592Y-119015389D01*
X170246541Y-119017567D01*
X170492249Y-119132143D01*
X170497103Y-119134537D01*
X170526139Y-119149653D01*
X170530880Y-119152254D01*
X170568601Y-119174032D01*
X170573228Y-119176840D01*
X170595250Y-119190870D01*
X169368880Y-117964500D01*
X169284500Y-117964500D01*
X169284500Y-118860650D01*
X168286500Y-118860650D01*
X168286500Y-117964500D01*
X166784500Y-117964500D01*
X166784500Y-118861152D01*
X165786500Y-118861152D01*
X165786500Y-117964500D01*
X164284500Y-117964500D01*
X164284500Y-119466500D01*
X163286500Y-119466500D01*
X163286500Y-117964500D01*
X162534500Y-117964500D01*
X162534500Y-119466500D01*
X161536500Y-119466500D01*
X161536500Y-116966500D01*
X162534500Y-116966500D01*
X163286500Y-116966500D01*
X164284500Y-116966500D01*
X165786500Y-116966500D01*
X165786500Y-115464500D01*
X164284500Y-115464500D01*
X164284500Y-116966500D01*
X163286500Y-116966500D01*
X163286500Y-115464500D01*
X162534500Y-115464500D01*
X162534500Y-116966500D01*
X161536500Y-116966500D01*
X161536500Y-114466500D01*
X162534500Y-114466500D01*
X163286500Y-114466500D01*
X164284500Y-114466500D01*
X165786500Y-114466500D01*
X165786500Y-113689135D01*
X166949000Y-113689135D01*
X166949000Y-115784870D01*
X166949001Y-115784876D01*
X166955408Y-115844483D01*
X167005702Y-115979328D01*
X167005706Y-115979335D01*
X167091952Y-116094544D01*
X167091955Y-116094547D01*
X167207164Y-116180793D01*
X167207171Y-116180797D01*
X167342017Y-116231091D01*
X167342016Y-116231091D01*
X167348944Y-116231835D01*
X167401627Y-116237500D01*
X169001901Y-116237499D01*
X169068940Y-116257184D01*
X169089582Y-116273818D01*
X172152284Y-119336520D01*
X172152286Y-119336521D01*
X172152290Y-119336524D01*
X172244901Y-119389992D01*
X172289216Y-119415577D01*
X172441943Y-119456501D01*
X172441945Y-119456501D01*
X172607654Y-119456501D01*
X172607670Y-119456500D01*
X185349331Y-119456500D01*
X185349347Y-119456501D01*
X185356943Y-119456501D01*
X185515054Y-119456501D01*
X185515057Y-119456501D01*
X185667785Y-119415577D01*
X185717904Y-119386639D01*
X185804716Y-119336520D01*
X185916520Y-119224716D01*
X185916521Y-119224713D01*
X186076321Y-119064912D01*
X186137641Y-119031431D01*
X186186784Y-119030708D01*
X186324757Y-119056500D01*
X186324759Y-119056500D01*
X186547241Y-119056500D01*
X186547243Y-119056500D01*
X186765940Y-119015618D01*
X186973401Y-118935247D01*
X187162562Y-118818124D01*
X187326981Y-118668236D01*
X187461058Y-118490689D01*
X187560229Y-118291528D01*
X187621115Y-118077536D01*
X187641643Y-117856000D01*
X187621115Y-117634464D01*
X187560229Y-117420472D01*
X187560224Y-117420461D01*
X187461061Y-117221316D01*
X187461056Y-117221308D01*
X187326979Y-117043761D01*
X187162562Y-116893876D01*
X187162560Y-116893874D01*
X186973404Y-116776754D01*
X186973398Y-116776752D01*
X186765940Y-116696382D01*
X186547243Y-116655500D01*
X186324757Y-116655500D01*
X186106060Y-116696382D01*
X185974864Y-116747207D01*
X185898601Y-116776752D01*
X185898595Y-116776754D01*
X185709439Y-116893874D01*
X185709437Y-116893876D01*
X185545020Y-117043761D01*
X185410943Y-117221308D01*
X185410938Y-117221316D01*
X185311775Y-117420461D01*
X185311769Y-117420476D01*
X185250885Y-117634462D01*
X185250884Y-117634464D01*
X185230357Y-117855999D01*
X185230357Y-117856000D01*
X185250885Y-118077537D01*
X185256270Y-118096463D01*
X185255683Y-118166330D01*
X185224725Y-118218038D01*
X185223623Y-118219141D01*
X185162315Y-118252654D01*
X185135902Y-118255500D01*
X180114682Y-118255500D01*
X180047643Y-118235815D01*
X180001888Y-118183011D01*
X179991944Y-118113853D01*
X179995416Y-118097565D01*
X179995730Y-118096463D01*
X180001115Y-118077536D01*
X180021643Y-117856000D01*
X180001115Y-117634464D01*
X179940229Y-117420472D01*
X179940224Y-117420461D01*
X179841061Y-117221316D01*
X179841056Y-117221308D01*
X179706979Y-117043761D01*
X179622227Y-116966500D01*
X181784500Y-116966500D01*
X183286500Y-116966500D01*
X184284500Y-116966500D01*
X184422941Y-116966500D01*
X184527851Y-116755815D01*
X184530523Y-116750747D01*
X184547391Y-116720464D01*
X184550293Y-116715525D01*
X184574573Y-116676313D01*
X184577700Y-116671514D01*
X184597281Y-116642930D01*
X184600626Y-116638281D01*
X184762494Y-116423933D01*
X184766050Y-116419443D01*
X184788188Y-116392783D01*
X184791948Y-116388463D01*
X184823019Y-116354379D01*
X184826976Y-116350235D01*
X184851484Y-116325727D01*
X184855627Y-116321771D01*
X185054129Y-116140812D01*
X185058451Y-116137051D01*
X185085109Y-116114915D01*
X185089596Y-116111361D01*
X185126402Y-116083565D01*
X185131053Y-116080218D01*
X185159650Y-116060628D01*
X185164451Y-116057500D01*
X185392821Y-115916100D01*
X185397757Y-115913199D01*
X185428016Y-115896344D01*
X185433080Y-115893674D01*
X185468988Y-115875791D01*
X185418451Y-115844500D01*
X185413650Y-115841372D01*
X185385053Y-115821782D01*
X185380402Y-115818435D01*
X185343596Y-115790639D01*
X185339109Y-115787085D01*
X185312451Y-115764949D01*
X185308129Y-115761188D01*
X185109627Y-115580229D01*
X185105484Y-115576273D01*
X185080976Y-115551765D01*
X185077019Y-115547621D01*
X185045948Y-115513537D01*
X185042188Y-115509217D01*
X185020050Y-115482557D01*
X185016494Y-115478067D01*
X185006249Y-115464500D01*
X184284500Y-115464500D01*
X184284500Y-116966500D01*
X183286500Y-116966500D01*
X183286500Y-115464500D01*
X181784500Y-115464500D01*
X181784500Y-116966500D01*
X179622227Y-116966500D01*
X179542562Y-116893876D01*
X179542560Y-116893874D01*
X179353404Y-116776754D01*
X179353398Y-116776752D01*
X179145940Y-116696382D01*
X178927243Y-116655500D01*
X178704757Y-116655500D01*
X178486060Y-116696382D01*
X178354864Y-116747207D01*
X178278601Y-116776752D01*
X178278595Y-116776754D01*
X178089439Y-116893874D01*
X178089437Y-116893876D01*
X177925020Y-117043761D01*
X177790943Y-117221308D01*
X177790938Y-117221316D01*
X177691775Y-117420461D01*
X177691769Y-117420476D01*
X177630885Y-117634462D01*
X177630884Y-117634464D01*
X177610357Y-117855999D01*
X177610357Y-117856000D01*
X177630884Y-118077535D01*
X177636584Y-118097565D01*
X177635998Y-118167433D01*
X177597731Y-118225891D01*
X177533934Y-118254382D01*
X177517318Y-118255500D01*
X177457927Y-118255500D01*
X177390888Y-118235815D01*
X177345133Y-118183011D01*
X177334707Y-118117615D01*
X177335565Y-118110000D01*
X177335565Y-118109996D01*
X177315369Y-117930750D01*
X177315368Y-117930745D01*
X177255789Y-117760478D01*
X177159816Y-117607738D01*
X177032262Y-117480184D01*
X177021117Y-117473181D01*
X176879523Y-117384211D01*
X176709254Y-117324631D01*
X176709249Y-117324630D01*
X176530004Y-117304435D01*
X176529996Y-117304435D01*
X176350750Y-117324630D01*
X176350745Y-117324631D01*
X176180476Y-117384211D01*
X176027736Y-117480185D01*
X176024903Y-117482445D01*
X176022724Y-117483334D01*
X176021842Y-117483889D01*
X176021744Y-117483734D01*
X175960217Y-117508855D01*
X175947588Y-117509500D01*
X174615097Y-117509500D01*
X174548058Y-117489815D01*
X174527416Y-117473181D01*
X173503416Y-116449181D01*
X173469931Y-116387858D01*
X173474155Y-116328794D01*
X176784500Y-116328794D01*
X176848820Y-116336042D01*
X176855707Y-116337014D01*
X176897191Y-116344062D01*
X176904011Y-116345418D01*
X176958621Y-116357881D01*
X176965358Y-116359619D01*
X177005807Y-116371272D01*
X177012434Y-116373384D01*
X177145619Y-116419986D01*
X177146050Y-116419443D01*
X177168188Y-116392783D01*
X177171948Y-116388463D01*
X177203019Y-116354379D01*
X177206976Y-116350235D01*
X177231484Y-116325727D01*
X177235627Y-116321771D01*
X177434129Y-116140812D01*
X177438451Y-116137051D01*
X177465109Y-116114915D01*
X177469596Y-116111361D01*
X177506402Y-116083565D01*
X177511053Y-116080218D01*
X177539650Y-116060628D01*
X177544451Y-116057500D01*
X177595493Y-116025896D01*
X180036507Y-116025896D01*
X180087549Y-116057500D01*
X180092350Y-116060628D01*
X180120947Y-116080218D01*
X180125598Y-116083565D01*
X180162404Y-116111361D01*
X180166891Y-116114915D01*
X180193549Y-116137051D01*
X180197871Y-116140812D01*
X180396373Y-116321771D01*
X180400516Y-116325727D01*
X180425024Y-116350235D01*
X180428981Y-116354379D01*
X180460052Y-116388463D01*
X180463812Y-116392783D01*
X180485950Y-116419443D01*
X180489506Y-116423933D01*
X180651374Y-116638281D01*
X180654719Y-116642930D01*
X180674300Y-116671514D01*
X180677427Y-116676313D01*
X180701707Y-116715525D01*
X180704609Y-116720464D01*
X180721477Y-116750747D01*
X180724149Y-116755815D01*
X180786500Y-116881031D01*
X180786500Y-115464500D01*
X180753118Y-115464500D01*
X180743158Y-115477688D01*
X180703287Y-115511980D01*
X180591987Y-115572295D01*
X180485181Y-115740427D01*
X180445792Y-115779363D01*
X180112958Y-115985449D01*
X180108020Y-115988352D01*
X180077744Y-116005216D01*
X180072676Y-116007887D01*
X180036507Y-116025896D01*
X177595493Y-116025896D01*
X177772821Y-115916100D01*
X177777757Y-115913199D01*
X177808016Y-115896344D01*
X177813080Y-115893674D01*
X177849515Y-115875529D01*
X177694208Y-115779366D01*
X177654820Y-115740430D01*
X177548009Y-115572294D01*
X177436689Y-115511963D01*
X177396818Y-115477670D01*
X177386873Y-115464500D01*
X176784500Y-115464500D01*
X176784500Y-116328794D01*
X173474155Y-116328794D01*
X173474915Y-116318166D01*
X173516787Y-116262233D01*
X173582251Y-116237816D01*
X173591097Y-116237500D01*
X173596353Y-116237500D01*
X173596354Y-116237500D01*
X173822245Y-116201722D01*
X173822248Y-116201721D01*
X173822249Y-116201721D01*
X174039755Y-116131049D01*
X174039755Y-116131048D01*
X174039758Y-116131048D01*
X174243538Y-116027217D01*
X174428566Y-115892786D01*
X174590286Y-115731066D01*
X174724717Y-115546038D01*
X174828548Y-115342258D01*
X174873102Y-115205134D01*
X174899221Y-115124749D01*
X174899221Y-115124748D01*
X174899222Y-115124745D01*
X174910605Y-115052879D01*
X178416672Y-115052879D01*
X178416672Y-115052880D01*
X178532821Y-115124797D01*
X178532822Y-115124798D01*
X178740195Y-115205134D01*
X178958807Y-115246000D01*
X179181193Y-115246000D01*
X179399809Y-115205133D01*
X179607168Y-115124801D01*
X179607181Y-115124795D01*
X179723326Y-115052879D01*
X179070001Y-114399553D01*
X179070000Y-114399553D01*
X178416672Y-115052879D01*
X174910605Y-115052879D01*
X174935000Y-114898854D01*
X174935000Y-114575146D01*
X174899222Y-114349255D01*
X174899221Y-114349251D01*
X174899221Y-114349250D01*
X174828549Y-114131744D01*
X174784860Y-114045999D01*
X177864859Y-114045999D01*
X177864859Y-114046000D01*
X177885378Y-114267439D01*
X177946240Y-114481350D01*
X178045369Y-114680428D01*
X178061137Y-114701308D01*
X178061138Y-114701308D01*
X178716447Y-114046000D01*
X178670369Y-113999922D01*
X178720000Y-113999922D01*
X178720000Y-114092078D01*
X178743852Y-114181095D01*
X178789930Y-114260905D01*
X178855095Y-114326070D01*
X178934905Y-114372148D01*
X179023922Y-114396000D01*
X179116078Y-114396000D01*
X179205095Y-114372148D01*
X179284905Y-114326070D01*
X179350070Y-114260905D01*
X179396148Y-114181095D01*
X179420000Y-114092078D01*
X179420000Y-114045999D01*
X179423553Y-114045999D01*
X179423553Y-114046000D01*
X180078861Y-114701308D01*
X180094631Y-114680425D01*
X180094633Y-114680422D01*
X180193759Y-114481350D01*
X180197984Y-114466500D01*
X181784500Y-114466500D01*
X183286500Y-114466500D01*
X184284500Y-114466500D01*
X184526791Y-114466500D01*
X184519643Y-114428266D01*
X184518720Y-114422609D01*
X184513931Y-114388276D01*
X184513271Y-114382587D01*
X184488486Y-114115121D01*
X184488089Y-114109404D01*
X184486489Y-114074786D01*
X184486357Y-114069061D01*
X184486357Y-114045999D01*
X185484357Y-114045999D01*
X185484357Y-114046000D01*
X185504884Y-114267535D01*
X185504885Y-114267537D01*
X185565769Y-114481523D01*
X185565775Y-114481538D01*
X185664938Y-114680683D01*
X185664943Y-114680691D01*
X185799020Y-114858238D01*
X185963437Y-115008123D01*
X185963439Y-115008125D01*
X186152595Y-115125245D01*
X186152596Y-115125245D01*
X186152599Y-115125247D01*
X186360060Y-115205618D01*
X186578757Y-115246500D01*
X186578759Y-115246500D01*
X186801241Y-115246500D01*
X186801243Y-115246500D01*
X187019940Y-115205618D01*
X187227401Y-115125247D01*
X187416562Y-115008124D01*
X187580981Y-114858236D01*
X187715058Y-114680689D01*
X187814229Y-114481528D01*
X187875115Y-114267536D01*
X187895643Y-114046000D01*
X187875115Y-113824464D01*
X187814229Y-113610472D01*
X187802631Y-113587180D01*
X187715061Y-113411316D01*
X187715056Y-113411308D01*
X187580979Y-113233761D01*
X187416562Y-113083876D01*
X187416560Y-113083874D01*
X187227404Y-112966754D01*
X187227398Y-112966752D01*
X187221585Y-112964500D01*
X187019940Y-112886382D01*
X186801243Y-112845500D01*
X186578757Y-112845500D01*
X186360060Y-112886382D01*
X186228864Y-112937207D01*
X186152601Y-112966752D01*
X186152595Y-112966754D01*
X185963439Y-113083874D01*
X185963437Y-113083876D01*
X185799020Y-113233761D01*
X185664943Y-113411308D01*
X185664938Y-113411316D01*
X185565775Y-113610461D01*
X185565769Y-113610476D01*
X185504885Y-113824462D01*
X185504884Y-113824464D01*
X185484357Y-114045999D01*
X184486357Y-114045999D01*
X184486357Y-114022939D01*
X184486489Y-114017214D01*
X184488089Y-113982596D01*
X184488486Y-113976879D01*
X184513271Y-113709413D01*
X184513931Y-113703724D01*
X184518720Y-113669391D01*
X184519643Y-113663734D01*
X184528119Y-113618398D01*
X184529301Y-113612795D01*
X184537234Y-113579067D01*
X184538674Y-113573524D01*
X184612176Y-113315192D01*
X184613869Y-113309723D01*
X184624871Y-113276895D01*
X184626813Y-113271515D01*
X184643470Y-113228506D01*
X184645664Y-113223208D01*
X184659675Y-113191472D01*
X184662112Y-113186281D01*
X184772547Y-112964500D01*
X184284500Y-112964500D01*
X184284500Y-114466500D01*
X183286500Y-114466500D01*
X183286500Y-112964500D01*
X181784500Y-112964500D01*
X181784500Y-114466500D01*
X180197984Y-114466500D01*
X180254621Y-114267439D01*
X180275141Y-114046000D01*
X180275141Y-114045999D01*
X180254621Y-113824560D01*
X180193759Y-113610649D01*
X180094635Y-113411580D01*
X180094630Y-113411572D01*
X180078860Y-113390690D01*
X179423553Y-114045999D01*
X179420000Y-114045999D01*
X179420000Y-113999922D01*
X179396148Y-113910905D01*
X179350070Y-113831095D01*
X179284905Y-113765930D01*
X179205095Y-113719852D01*
X179116078Y-113696000D01*
X179023922Y-113696000D01*
X178934905Y-113719852D01*
X178855095Y-113765930D01*
X178789930Y-113831095D01*
X178743852Y-113910905D01*
X178720000Y-113999922D01*
X178670369Y-113999922D01*
X178061138Y-113390691D01*
X178061137Y-113390691D01*
X178045368Y-113411574D01*
X177946240Y-113610649D01*
X177885378Y-113824560D01*
X177864859Y-114045999D01*
X174784860Y-114045999D01*
X174724716Y-113927961D01*
X174712324Y-113910905D01*
X174590286Y-113742934D01*
X174428566Y-113581214D01*
X174243538Y-113446783D01*
X174174448Y-113411580D01*
X174039755Y-113342950D01*
X173822248Y-113272278D01*
X173636812Y-113242908D01*
X173596354Y-113236500D01*
X173367646Y-113236500D01*
X173327188Y-113242908D01*
X173141751Y-113272278D01*
X173006278Y-113316295D01*
X172936437Y-113318290D01*
X172880280Y-113286045D01*
X172633354Y-113039119D01*
X178416671Y-113039119D01*
X179070000Y-113692447D01*
X179070001Y-113692447D01*
X179723327Y-113039119D01*
X179607178Y-112967202D01*
X179607177Y-112967201D01*
X179399804Y-112886865D01*
X179181193Y-112846000D01*
X178958807Y-112846000D01*
X178740195Y-112886865D01*
X178532824Y-112967200D01*
X178532823Y-112967201D01*
X178416671Y-113039119D01*
X172633354Y-113039119D01*
X170412234Y-110817999D01*
X171823618Y-110817999D01*
X172972119Y-111966500D01*
X173286500Y-111966500D01*
X173286500Y-110817999D01*
X172721454Y-110817999D01*
X172673999Y-110808559D01*
X172672001Y-110807731D01*
X172670004Y-110808559D01*
X172622549Y-110817999D01*
X171823618Y-110817999D01*
X170412234Y-110817999D01*
X170297271Y-110703036D01*
X174284500Y-110703036D01*
X174284500Y-111966500D01*
X175786500Y-111966500D01*
X176784500Y-111966500D01*
X178286500Y-111966500D01*
X178286500Y-111853297D01*
X179284500Y-111853297D01*
X179296250Y-111854386D01*
X179301938Y-111855046D01*
X179336256Y-111859833D01*
X179341910Y-111860755D01*
X179605840Y-111910092D01*
X179611440Y-111911274D01*
X179645154Y-111919202D01*
X179650696Y-111920640D01*
X179695058Y-111933259D01*
X179700534Y-111934955D01*
X179733416Y-111945975D01*
X179738807Y-111947921D01*
X179786765Y-111966500D01*
X180786500Y-111966500D01*
X181784500Y-111966500D01*
X183286500Y-111966500D01*
X184284500Y-111966500D01*
X185786500Y-111966500D01*
X185786500Y-111847500D01*
X186784500Y-111847500D01*
X186824305Y-111847500D01*
X186830033Y-111847632D01*
X186864654Y-111849233D01*
X186870368Y-111849630D01*
X186916294Y-111853886D01*
X186921984Y-111854546D01*
X186956307Y-111859334D01*
X186961960Y-111860256D01*
X187225996Y-111909613D01*
X187231604Y-111910796D01*
X187265346Y-111918733D01*
X187270888Y-111920173D01*
X187315248Y-111932795D01*
X187320722Y-111934490D01*
X187353572Y-111945501D01*
X187358956Y-111947445D01*
X187408143Y-111966500D01*
X188286500Y-111966500D01*
X188286500Y-110464500D01*
X186784500Y-110464500D01*
X186784500Y-111847500D01*
X185786500Y-111847500D01*
X185786500Y-110464500D01*
X184284500Y-110464500D01*
X184284500Y-111966500D01*
X183286500Y-111966500D01*
X183286500Y-110464500D01*
X181784500Y-110464500D01*
X181784500Y-111966500D01*
X180786500Y-111966500D01*
X180786500Y-110464500D01*
X179284500Y-110464500D01*
X179284500Y-111853297D01*
X178286500Y-111853297D01*
X178286500Y-110464500D01*
X176784500Y-110464500D01*
X176784500Y-111966500D01*
X175786500Y-111966500D01*
X175786500Y-110464500D01*
X174794246Y-110464500D01*
X174628802Y-110561586D01*
X174624208Y-110564152D01*
X174596086Y-110579088D01*
X174591386Y-110581458D01*
X174553147Y-110599731D01*
X174548348Y-110601901D01*
X174519055Y-110614400D01*
X174514172Y-110616362D01*
X174284500Y-110703036D01*
X170297271Y-110703036D01*
X168508819Y-108914584D01*
X168475334Y-108853261D01*
X168472500Y-108826903D01*
X168472500Y-106601421D01*
X170422000Y-106601421D01*
X170422000Y-107320000D01*
X171238988Y-107320000D01*
X171206075Y-107377007D01*
X171172000Y-107504174D01*
X171172000Y-107635826D01*
X171206075Y-107762993D01*
X171238988Y-107820000D01*
X170422001Y-107820000D01*
X170422001Y-108538588D01*
X170424794Y-108591191D01*
X170469237Y-108820987D01*
X170551879Y-109039975D01*
X170670339Y-109241841D01*
X170670344Y-109241848D01*
X170821211Y-109420786D01*
X170821213Y-109420788D01*
X171000151Y-109571655D01*
X171000158Y-109571660D01*
X171202024Y-109690120D01*
X171421012Y-109772762D01*
X171650809Y-109817205D01*
X171703382Y-109819998D01*
X171703421Y-109819999D01*
X172421999Y-109819999D01*
X172422000Y-109819998D01*
X172422000Y-108070000D01*
X172922000Y-108070000D01*
X172922000Y-109819999D01*
X173640576Y-109819999D01*
X173640588Y-109819998D01*
X173693191Y-109817205D01*
X173922987Y-109772762D01*
X174141975Y-109690120D01*
X174343841Y-109571660D01*
X174343848Y-109571655D01*
X174468569Y-109466500D01*
X176784500Y-109466500D01*
X178286500Y-109466500D01*
X179284500Y-109466500D01*
X180786500Y-109466500D01*
X181784500Y-109466500D01*
X183286500Y-109466500D01*
X184284500Y-109466500D01*
X185786500Y-109466500D01*
X186784500Y-109466500D01*
X188286500Y-109466500D01*
X188286500Y-107964500D01*
X186784500Y-107964500D01*
X186784500Y-109466500D01*
X185786500Y-109466500D01*
X185786500Y-107964500D01*
X184284500Y-107964500D01*
X184284500Y-109466500D01*
X183286500Y-109466500D01*
X183286500Y-107964500D01*
X181784500Y-107964500D01*
X181784500Y-109466500D01*
X180786500Y-109466500D01*
X180786500Y-107964500D01*
X179284500Y-107964500D01*
X179284500Y-109466500D01*
X178286500Y-109466500D01*
X178286500Y-107964500D01*
X176784500Y-107964500D01*
X176784500Y-109466500D01*
X174468569Y-109466500D01*
X174522786Y-109420788D01*
X174522788Y-109420786D01*
X174673655Y-109241848D01*
X174673660Y-109241841D01*
X174792120Y-109039975D01*
X174874762Y-108820987D01*
X174919205Y-108591191D01*
X174919205Y-108591190D01*
X174921998Y-108538617D01*
X174922000Y-108538578D01*
X174922000Y-107820000D01*
X174105012Y-107820000D01*
X174137925Y-107762993D01*
X174172000Y-107635826D01*
X174172000Y-107504174D01*
X174137925Y-107377007D01*
X174105012Y-107320000D01*
X174921999Y-107320000D01*
X174921999Y-106601423D01*
X174921998Y-106601411D01*
X174919205Y-106548808D01*
X174874762Y-106319012D01*
X174799092Y-106118499D01*
X176784500Y-106118499D01*
X176784500Y-106966500D01*
X178286500Y-106966500D01*
X179284500Y-106966500D01*
X180786500Y-106966500D01*
X186784500Y-106966500D01*
X188286500Y-106966500D01*
X188286500Y-105464500D01*
X186784500Y-105464500D01*
X186784500Y-106966500D01*
X180786500Y-106966500D01*
X180786500Y-105464500D01*
X179284500Y-105464500D01*
X179284500Y-106966500D01*
X178286500Y-106966500D01*
X178286500Y-105844701D01*
X178233874Y-105884098D01*
X178226604Y-105889146D01*
X178181537Y-105918110D01*
X178173923Y-105922628D01*
X178111333Y-105956805D01*
X178103419Y-105960767D01*
X178054682Y-105983025D01*
X178046502Y-105986413D01*
X177849018Y-106060069D01*
X177841679Y-106062548D01*
X177796828Y-106076153D01*
X177789352Y-106078168D01*
X177728637Y-106092516D01*
X177721045Y-106094061D01*
X177674840Y-106101972D01*
X177667167Y-106103041D01*
X177563244Y-106114212D01*
X177559939Y-106114522D01*
X177539899Y-106116135D01*
X177536578Y-106116358D01*
X177509895Y-106117786D01*
X177506582Y-106117919D01*
X177486534Y-106118455D01*
X177483220Y-106118499D01*
X176784500Y-106118499D01*
X174799092Y-106118499D01*
X174792120Y-106100024D01*
X174673660Y-105898158D01*
X174673655Y-105898151D01*
X174522788Y-105719213D01*
X174522786Y-105719211D01*
X174343848Y-105568344D01*
X174343841Y-105568339D01*
X174141975Y-105449879D01*
X173922984Y-105367236D01*
X173917840Y-105366241D01*
X173855760Y-105334180D01*
X173820869Y-105273646D01*
X173824244Y-105203858D01*
X173864814Y-105146973D01*
X173929697Y-105121052D01*
X173941374Y-105120499D01*
X177469872Y-105120499D01*
X177529483Y-105114091D01*
X177664331Y-105063796D01*
X177779546Y-104977546D01*
X177865796Y-104862331D01*
X177916091Y-104727483D01*
X177922500Y-104667873D01*
X177922500Y-104466500D01*
X179284500Y-104466500D01*
X180786500Y-104466500D01*
X180786500Y-102964500D01*
X179284500Y-102964500D01*
X179284500Y-104466500D01*
X177922500Y-104466500D01*
X177922499Y-102361993D01*
X182490700Y-102361993D01*
X182490700Y-102362006D01*
X182509864Y-102593297D01*
X182509866Y-102593308D01*
X182566842Y-102818300D01*
X182660075Y-103030848D01*
X182787018Y-103225150D01*
X182882167Y-103328510D01*
X182913089Y-103391164D01*
X182905228Y-103460590D01*
X182861081Y-103514746D01*
X182834271Y-103528674D01*
X182753911Y-103558646D01*
X182753906Y-103558649D01*
X182638812Y-103644809D01*
X182638809Y-103644812D01*
X182552649Y-103759906D01*
X182552645Y-103759913D01*
X182502403Y-103894620D01*
X182502401Y-103894627D01*
X182496000Y-103954155D01*
X182496000Y-104652000D01*
X183520722Y-104652000D01*
X183476667Y-104728306D01*
X183446000Y-104842756D01*
X183446000Y-104961244D01*
X183476667Y-105075694D01*
X183520722Y-105152000D01*
X182496000Y-105152000D01*
X182496000Y-105849844D01*
X182502401Y-105909372D01*
X182502403Y-105909379D01*
X182552645Y-106044086D01*
X182552649Y-106044093D01*
X182638809Y-106159187D01*
X182638812Y-106159190D01*
X182753906Y-106245350D01*
X182753913Y-106245354D01*
X182888620Y-106295596D01*
X182888627Y-106295598D01*
X182948155Y-106301999D01*
X182948172Y-106302000D01*
X183646000Y-106302000D01*
X183646000Y-105277277D01*
X183722306Y-105321333D01*
X183836756Y-105352000D01*
X183955244Y-105352000D01*
X184069694Y-105321333D01*
X184146000Y-105277277D01*
X184146000Y-106302000D01*
X184843828Y-106302000D01*
X184843844Y-106301999D01*
X184903372Y-106295598D01*
X184903379Y-106295596D01*
X185038086Y-106245354D01*
X185038093Y-106245350D01*
X185153187Y-106159190D01*
X185153190Y-106159187D01*
X185239350Y-106044093D01*
X185239354Y-106044086D01*
X185289596Y-105909379D01*
X185289598Y-105909372D01*
X185295999Y-105849844D01*
X185296000Y-105849827D01*
X185296000Y-105152000D01*
X184271278Y-105152000D01*
X184315333Y-105075694D01*
X184346000Y-104961244D01*
X184346000Y-104842756D01*
X184315333Y-104728306D01*
X184271278Y-104652000D01*
X185296000Y-104652000D01*
X185296000Y-104466500D01*
X186784500Y-104466500D01*
X188286500Y-104466500D01*
X188286500Y-102964500D01*
X186784500Y-102964500D01*
X186784500Y-104466500D01*
X185296000Y-104466500D01*
X185296000Y-103954172D01*
X185295999Y-103954155D01*
X185289598Y-103894627D01*
X185289596Y-103894620D01*
X185239354Y-103759913D01*
X185239350Y-103759906D01*
X185153190Y-103644812D01*
X185153187Y-103644809D01*
X185038093Y-103558649D01*
X185038086Y-103558645D01*
X184957729Y-103528674D01*
X184901795Y-103486803D01*
X184877378Y-103421338D01*
X184892230Y-103353065D01*
X184909826Y-103328516D01*
X185004979Y-103225153D01*
X185131924Y-103030849D01*
X185225157Y-102818300D01*
X185282134Y-102593305D01*
X185301300Y-102362000D01*
X185301300Y-102361993D01*
X185282135Y-102130702D01*
X185282133Y-102130691D01*
X185240554Y-101966500D01*
X186784500Y-101966500D01*
X188286500Y-101966500D01*
X188286500Y-100464500D01*
X186784500Y-100464500D01*
X186784500Y-101966500D01*
X185240554Y-101966500D01*
X185225157Y-101905699D01*
X185131924Y-101693151D01*
X185004983Y-101498852D01*
X185004980Y-101498849D01*
X185004979Y-101498847D01*
X184847784Y-101328087D01*
X184847779Y-101328083D01*
X184847777Y-101328081D01*
X184664634Y-101185535D01*
X184664628Y-101185531D01*
X184460504Y-101075064D01*
X184460495Y-101075061D01*
X184240984Y-100999702D01*
X184069282Y-100971050D01*
X184012049Y-100961500D01*
X183779951Y-100961500D01*
X183734164Y-100969140D01*
X183551015Y-100999702D01*
X183331504Y-101075061D01*
X183331495Y-101075064D01*
X183127371Y-101185531D01*
X183127365Y-101185535D01*
X182944222Y-101328081D01*
X182944219Y-101328084D01*
X182787016Y-101498852D01*
X182660075Y-101693151D01*
X182566842Y-101905699D01*
X182509866Y-102130691D01*
X182509864Y-102130702D01*
X182490700Y-102361993D01*
X177922499Y-102361993D01*
X177922499Y-101966500D01*
X179284500Y-101966500D01*
X180786500Y-101966500D01*
X180786500Y-100464500D01*
X179284500Y-100464500D01*
X179284500Y-101966500D01*
X177922499Y-101966500D01*
X177922499Y-101072128D01*
X177916091Y-101012517D01*
X177911311Y-100999702D01*
X177865797Y-100877671D01*
X177865793Y-100877664D01*
X177779547Y-100762455D01*
X177779544Y-100762452D01*
X177664335Y-100676206D01*
X177664328Y-100676202D01*
X177529482Y-100625908D01*
X177529483Y-100625908D01*
X177469883Y-100619501D01*
X177469881Y-100619500D01*
X177469873Y-100619500D01*
X177469864Y-100619500D01*
X173874129Y-100619500D01*
X173874123Y-100619501D01*
X173814516Y-100625908D01*
X173679671Y-100676202D01*
X173679664Y-100676206D01*
X173564455Y-100762452D01*
X173564452Y-100762455D01*
X173478206Y-100877664D01*
X173478202Y-100877671D01*
X173427908Y-101012517D01*
X173421501Y-101072116D01*
X173421501Y-101072123D01*
X173421500Y-101072135D01*
X173421500Y-104667870D01*
X173421501Y-104667876D01*
X173427908Y-104727483D01*
X173478202Y-104862328D01*
X173478206Y-104862335D01*
X173564452Y-104977544D01*
X173564455Y-104977547D01*
X173679664Y-105063793D01*
X173679673Y-105063798D01*
X173728506Y-105082011D01*
X173784440Y-105123881D01*
X173808858Y-105189345D01*
X173794007Y-105257618D01*
X173744603Y-105307024D01*
X173678598Y-105322018D01*
X173640625Y-105320001D01*
X173640579Y-105320000D01*
X172922000Y-105320000D01*
X172922000Y-107070000D01*
X172422000Y-107070000D01*
X172422000Y-105320000D01*
X171703423Y-105320000D01*
X171703411Y-105320001D01*
X171650808Y-105322794D01*
X171421012Y-105367237D01*
X171202024Y-105449879D01*
X171000158Y-105568339D01*
X171000151Y-105568344D01*
X170821213Y-105719211D01*
X170821211Y-105719213D01*
X170670344Y-105898151D01*
X170670339Y-105898158D01*
X170551879Y-106100024D01*
X170469237Y-106319012D01*
X170424794Y-106548808D01*
X170424794Y-106548809D01*
X170422001Y-106601382D01*
X170422000Y-106601421D01*
X168472500Y-106601421D01*
X168472500Y-105204929D01*
X168492185Y-105137890D01*
X168544989Y-105092135D01*
X168614147Y-105082191D01*
X168626798Y-105084687D01*
X168725667Y-105109599D01*
X168857810Y-105119999D01*
X169421999Y-105119999D01*
X169422000Y-105119998D01*
X169422000Y-104303012D01*
X169479007Y-104335925D01*
X169606174Y-104370000D01*
X169737826Y-104370000D01*
X169864993Y-104335925D01*
X169922000Y-104303012D01*
X169922000Y-105119999D01*
X170486182Y-105119999D01*
X170486197Y-105119998D01*
X170618332Y-105109599D01*
X170836519Y-105054622D01*
X171041374Y-104961571D01*
X171041380Y-104961568D01*
X171226323Y-104833440D01*
X171226335Y-104833430D01*
X171385430Y-104674335D01*
X171385440Y-104674323D01*
X171513568Y-104489380D01*
X171513571Y-104489374D01*
X171606622Y-104284519D01*
X171661599Y-104066332D01*
X171671999Y-103934196D01*
X171672000Y-103934184D01*
X171672000Y-103120000D01*
X170172000Y-103120000D01*
X170172000Y-102620000D01*
X171671999Y-102620000D01*
X171671999Y-101805817D01*
X171671998Y-101805802D01*
X171661599Y-101673667D01*
X171606622Y-101455480D01*
X171513571Y-101250625D01*
X171513568Y-101250619D01*
X171385440Y-101065676D01*
X171385430Y-101065664D01*
X171226335Y-100906569D01*
X171226323Y-100906559D01*
X171041380Y-100778431D01*
X171041374Y-100778428D01*
X170836519Y-100685377D01*
X170618332Y-100630400D01*
X170486196Y-100620000D01*
X169922000Y-100620000D01*
X169922000Y-101436988D01*
X169864993Y-101404075D01*
X169737826Y-101370000D01*
X169606174Y-101370000D01*
X169479007Y-101404075D01*
X169422000Y-101436988D01*
X169422000Y-100620000D01*
X168857817Y-100620000D01*
X168857802Y-100620001D01*
X168725665Y-100630400D01*
X168626797Y-100655312D01*
X168556980Y-100652604D01*
X168499710Y-100612579D01*
X168473170Y-100547946D01*
X168472500Y-100535070D01*
X168472500Y-100144096D01*
X168492185Y-100077057D01*
X168508814Y-100056420D01*
X170373116Y-98192118D01*
X171784500Y-98192118D01*
X171784500Y-99466500D01*
X173286500Y-99466500D01*
X174284500Y-99466500D01*
X175786500Y-99466500D01*
X176784500Y-99466500D01*
X178286500Y-99466500D01*
X179284500Y-99466500D01*
X180786500Y-99466500D01*
X181784500Y-99466500D01*
X183286500Y-99466500D01*
X184284500Y-99466500D01*
X185786500Y-99466500D01*
X186784500Y-99466500D01*
X188286500Y-99466500D01*
X188286500Y-97964500D01*
X186784500Y-97964500D01*
X186784500Y-99466500D01*
X185786500Y-99466500D01*
X185786500Y-97964500D01*
X184284500Y-97964500D01*
X184284500Y-99466500D01*
X183286500Y-99466500D01*
X183286500Y-97964500D01*
X181784500Y-97964500D01*
X181784500Y-99466500D01*
X180786500Y-99466500D01*
X180786500Y-97964500D01*
X179284500Y-97964500D01*
X179284500Y-99466500D01*
X178286500Y-99466500D01*
X178286500Y-97964500D01*
X176784500Y-97964500D01*
X176784500Y-99466500D01*
X175786500Y-99466500D01*
X175786500Y-97964500D01*
X174284500Y-97964500D01*
X174284500Y-99466500D01*
X173286500Y-99466500D01*
X173286500Y-97964500D01*
X172012118Y-97964500D01*
X171784500Y-98192118D01*
X170373116Y-98192118D01*
X172340734Y-96224499D01*
X174284500Y-96224499D01*
X174284500Y-96966500D01*
X175786500Y-96966500D01*
X176784500Y-96966500D01*
X178286500Y-96966500D01*
X181988407Y-96966500D01*
X183286500Y-96966500D01*
X184284500Y-96966500D01*
X185786500Y-96966500D01*
X185786500Y-95864693D01*
X185783931Y-95846276D01*
X185783271Y-95840587D01*
X185758486Y-95573121D01*
X185758089Y-95567404D01*
X185756489Y-95532786D01*
X185756357Y-95527061D01*
X185756357Y-95503999D01*
X186754357Y-95503999D01*
X186754357Y-95504000D01*
X186774884Y-95725535D01*
X186774885Y-95725537D01*
X186835769Y-95939523D01*
X186835775Y-95939538D01*
X186934938Y-96138683D01*
X186934943Y-96138691D01*
X187069020Y-96316238D01*
X187233437Y-96466123D01*
X187233439Y-96466125D01*
X187422595Y-96583245D01*
X187422596Y-96583245D01*
X187422599Y-96583247D01*
X187630060Y-96663618D01*
X187848757Y-96704500D01*
X187848759Y-96704500D01*
X188071241Y-96704500D01*
X188071243Y-96704500D01*
X188289940Y-96663618D01*
X188497401Y-96583247D01*
X188686562Y-96466124D01*
X188850981Y-96316236D01*
X188985058Y-96138689D01*
X189084229Y-95939528D01*
X189145115Y-95725536D01*
X189165643Y-95504000D01*
X189158897Y-95431203D01*
X189145115Y-95282464D01*
X189145114Y-95282462D01*
X189129191Y-95226499D01*
X189084229Y-95068472D01*
X189058209Y-95016217D01*
X188985061Y-94869316D01*
X188985056Y-94869308D01*
X188850979Y-94691761D01*
X188686562Y-94541876D01*
X188686560Y-94541874D01*
X188497404Y-94424754D01*
X188497398Y-94424752D01*
X188289940Y-94344382D01*
X188071243Y-94303500D01*
X187848757Y-94303500D01*
X187630060Y-94344382D01*
X187498864Y-94395207D01*
X187422601Y-94424752D01*
X187422595Y-94424754D01*
X187233439Y-94541874D01*
X187233437Y-94541876D01*
X187069020Y-94691761D01*
X186934943Y-94869308D01*
X186934938Y-94869316D01*
X186835775Y-95068461D01*
X186835769Y-95068476D01*
X186774885Y-95282462D01*
X186774884Y-95282464D01*
X186754357Y-95503999D01*
X185756357Y-95503999D01*
X185756357Y-95480939D01*
X185756489Y-95475214D01*
X185756984Y-95464500D01*
X184284500Y-95464500D01*
X184284500Y-96966500D01*
X183286500Y-96966500D01*
X183286500Y-95464500D01*
X182543016Y-95464500D01*
X182543511Y-95475214D01*
X182543643Y-95480939D01*
X182543643Y-95527061D01*
X182543511Y-95532786D01*
X182541911Y-95567404D01*
X182541514Y-95573121D01*
X182516729Y-95840587D01*
X182516069Y-95846276D01*
X182511280Y-95880609D01*
X182510357Y-95886266D01*
X182501881Y-95931602D01*
X182500699Y-95937205D01*
X182492766Y-95970933D01*
X182491326Y-95976476D01*
X182417824Y-96234808D01*
X182416131Y-96240277D01*
X182405129Y-96273105D01*
X182403187Y-96278485D01*
X182386530Y-96321494D01*
X182384336Y-96326792D01*
X182370325Y-96358528D01*
X182367888Y-96363719D01*
X182248149Y-96604185D01*
X182245477Y-96609253D01*
X182228609Y-96639536D01*
X182225707Y-96644475D01*
X182201427Y-96683687D01*
X182198300Y-96688486D01*
X182178719Y-96717070D01*
X182175374Y-96721719D01*
X182013506Y-96936067D01*
X182009950Y-96940557D01*
X181988407Y-96966500D01*
X178286500Y-96966500D01*
X178286500Y-96303497D01*
X178276813Y-96278485D01*
X178274871Y-96273105D01*
X178263869Y-96240277D01*
X178262176Y-96234808D01*
X178188674Y-95976476D01*
X178187234Y-95970933D01*
X178179301Y-95937205D01*
X178178119Y-95931602D01*
X178169643Y-95886266D01*
X178168720Y-95880609D01*
X178163931Y-95846276D01*
X178163271Y-95840587D01*
X178138486Y-95573121D01*
X178138089Y-95567404D01*
X178136489Y-95532786D01*
X178136357Y-95527061D01*
X178136357Y-95503999D01*
X179134357Y-95503999D01*
X179134357Y-95504000D01*
X179154884Y-95725535D01*
X179154885Y-95725537D01*
X179215769Y-95939523D01*
X179215775Y-95939538D01*
X179314938Y-96138683D01*
X179314943Y-96138691D01*
X179449020Y-96316238D01*
X179613437Y-96466123D01*
X179613439Y-96466125D01*
X179802595Y-96583245D01*
X179802596Y-96583245D01*
X179802599Y-96583247D01*
X180010060Y-96663618D01*
X180228757Y-96704500D01*
X180228759Y-96704500D01*
X180451241Y-96704500D01*
X180451243Y-96704500D01*
X180669940Y-96663618D01*
X180877401Y-96583247D01*
X181066562Y-96466124D01*
X181230981Y-96316236D01*
X181365058Y-96138689D01*
X181464229Y-95939528D01*
X181525115Y-95725536D01*
X181545643Y-95504000D01*
X181538897Y-95431203D01*
X181525115Y-95282464D01*
X181525114Y-95282462D01*
X181509191Y-95226499D01*
X181464229Y-95068472D01*
X181438209Y-95016217D01*
X181365061Y-94869316D01*
X181365056Y-94869308D01*
X181230979Y-94691761D01*
X181066562Y-94541876D01*
X181066560Y-94541874D01*
X180877404Y-94424754D01*
X180877398Y-94424752D01*
X180669940Y-94344382D01*
X180451243Y-94303500D01*
X180228757Y-94303500D01*
X180010060Y-94344382D01*
X179878864Y-94395207D01*
X179802601Y-94424752D01*
X179802595Y-94424754D01*
X179613439Y-94541874D01*
X179613437Y-94541876D01*
X179449020Y-94691761D01*
X179314943Y-94869308D01*
X179314938Y-94869316D01*
X179215775Y-95068461D01*
X179215769Y-95068476D01*
X179154885Y-95282462D01*
X179154884Y-95282464D01*
X179134357Y-95503999D01*
X178136357Y-95503999D01*
X178136357Y-95480939D01*
X178136489Y-95475214D01*
X178136984Y-95464500D01*
X176784500Y-95464500D01*
X176784500Y-96966500D01*
X175786500Y-96966500D01*
X175786500Y-95966048D01*
X175754374Y-95990098D01*
X175747104Y-95995146D01*
X175702037Y-96024110D01*
X175694423Y-96028628D01*
X175631833Y-96062805D01*
X175623919Y-96066767D01*
X175575182Y-96089025D01*
X175567002Y-96092413D01*
X175369518Y-96166069D01*
X175362179Y-96168548D01*
X175317328Y-96182153D01*
X175309852Y-96184168D01*
X175249137Y-96198516D01*
X175241545Y-96200061D01*
X175195340Y-96207972D01*
X175187667Y-96209041D01*
X175083744Y-96220212D01*
X175080439Y-96220522D01*
X175060399Y-96222135D01*
X175057078Y-96222358D01*
X175030395Y-96223786D01*
X175027082Y-96223919D01*
X175007034Y-96224455D01*
X175003720Y-96224499D01*
X174284500Y-96224499D01*
X172340734Y-96224499D01*
X173302416Y-95262817D01*
X173363739Y-95229333D01*
X173390097Y-95226499D01*
X174990371Y-95226499D01*
X174990372Y-95226499D01*
X175049983Y-95220091D01*
X175184831Y-95169796D01*
X175300046Y-95083546D01*
X175386296Y-94968331D01*
X175436591Y-94833483D01*
X175443000Y-94773873D01*
X175443000Y-94466500D01*
X176784500Y-94466500D01*
X178286500Y-94466500D01*
X178286500Y-93845904D01*
X181784500Y-93845904D01*
X181920374Y-93969771D01*
X181924516Y-93973727D01*
X181949024Y-93998235D01*
X181952981Y-94002379D01*
X181984052Y-94036463D01*
X181987812Y-94040783D01*
X182009950Y-94067443D01*
X182013506Y-94071933D01*
X182175374Y-94286281D01*
X182178719Y-94290930D01*
X182198300Y-94319514D01*
X182201427Y-94324313D01*
X182225707Y-94363525D01*
X182228609Y-94368464D01*
X182245477Y-94398747D01*
X182248149Y-94403815D01*
X182279363Y-94466500D01*
X183286500Y-94466500D01*
X184284500Y-94466500D01*
X185786500Y-94466500D01*
X185786500Y-93126499D01*
X186784500Y-93126499D01*
X186784500Y-93646029D01*
X186916821Y-93564100D01*
X186921757Y-93561199D01*
X186952016Y-93544344D01*
X186957080Y-93541674D01*
X186998365Y-93521114D01*
X187003553Y-93518679D01*
X187035274Y-93504672D01*
X187040569Y-93502478D01*
X187291043Y-93405445D01*
X187296428Y-93403501D01*
X187329278Y-93392490D01*
X187334752Y-93390795D01*
X187379112Y-93378173D01*
X187384654Y-93376733D01*
X187418396Y-93368796D01*
X187424004Y-93367613D01*
X187688040Y-93318256D01*
X187693693Y-93317334D01*
X187728016Y-93312546D01*
X187733706Y-93311886D01*
X187779632Y-93307630D01*
X187785346Y-93307233D01*
X187819967Y-93305632D01*
X187825695Y-93305500D01*
X188094305Y-93305500D01*
X188100033Y-93305632D01*
X188134654Y-93307233D01*
X188140368Y-93307630D01*
X188186294Y-93311886D01*
X188191984Y-93312546D01*
X188226307Y-93317334D01*
X188231960Y-93318256D01*
X188286500Y-93328451D01*
X188286500Y-92964500D01*
X187527893Y-92964500D01*
X187527334Y-92964805D01*
X187519419Y-92968767D01*
X187470682Y-92991025D01*
X187462502Y-92994413D01*
X187265018Y-93068069D01*
X187257679Y-93070548D01*
X187212828Y-93084153D01*
X187205352Y-93086168D01*
X187144637Y-93100516D01*
X187137045Y-93102061D01*
X187090840Y-93109972D01*
X187083167Y-93111041D01*
X186979244Y-93122212D01*
X186975939Y-93122522D01*
X186955899Y-93124135D01*
X186952578Y-93124358D01*
X186925895Y-93125786D01*
X186922582Y-93125919D01*
X186902534Y-93126455D01*
X186899220Y-93126499D01*
X186784500Y-93126499D01*
X185786500Y-93126499D01*
X184876752Y-93126500D01*
X184873428Y-93126455D01*
X184853326Y-93125916D01*
X184850006Y-93125783D01*
X184823320Y-93124351D01*
X184820011Y-93124129D01*
X184800018Y-93122519D01*
X184796715Y-93122208D01*
X184692825Y-93111038D01*
X184685157Y-93109971D01*
X184638971Y-93102064D01*
X184631381Y-93100519D01*
X184570670Y-93086174D01*
X184563191Y-93084158D01*
X184518328Y-93070550D01*
X184510988Y-93068071D01*
X184313498Y-92994413D01*
X184305318Y-92991025D01*
X184284500Y-92981517D01*
X184284500Y-94466500D01*
X183286500Y-94466500D01*
X183286500Y-93126500D01*
X183247176Y-93126500D01*
X183242053Y-93126394D01*
X183211073Y-93125113D01*
X183205955Y-93124795D01*
X183164832Y-93121387D01*
X183159736Y-93120859D01*
X183128967Y-93117024D01*
X183123894Y-93116285D01*
X182846090Y-93069928D01*
X182841053Y-93068980D01*
X182810711Y-93062618D01*
X182805720Y-93061463D01*
X182765718Y-93051334D01*
X182760775Y-93049973D01*
X182731051Y-93041124D01*
X182726169Y-93039560D01*
X182507529Y-92964500D01*
X181784500Y-92964500D01*
X181784500Y-93845904D01*
X178286500Y-93845904D01*
X178286500Y-93571728D01*
X179284500Y-93571728D01*
X179296821Y-93564100D01*
X179301757Y-93561199D01*
X179332016Y-93544344D01*
X179337080Y-93541674D01*
X179378365Y-93521114D01*
X179383553Y-93518679D01*
X179415274Y-93504672D01*
X179420569Y-93502478D01*
X179671043Y-93405445D01*
X179676428Y-93403501D01*
X179709278Y-93392490D01*
X179714752Y-93390795D01*
X179759112Y-93378173D01*
X179764654Y-93376733D01*
X179798396Y-93368796D01*
X179804004Y-93367613D01*
X180068040Y-93318256D01*
X180073693Y-93317334D01*
X180108016Y-93312546D01*
X180113706Y-93311886D01*
X180159632Y-93307630D01*
X180165346Y-93307233D01*
X180199967Y-93305632D01*
X180205695Y-93305500D01*
X180474305Y-93305500D01*
X180480033Y-93305632D01*
X180514654Y-93307233D01*
X180520368Y-93307630D01*
X180566294Y-93311886D01*
X180571984Y-93312546D01*
X180606307Y-93317334D01*
X180611960Y-93318256D01*
X180786500Y-93350883D01*
X180786500Y-93126500D01*
X180747176Y-93126500D01*
X180742053Y-93126394D01*
X180711073Y-93125113D01*
X180705955Y-93124795D01*
X180664832Y-93121387D01*
X180659736Y-93120859D01*
X180628967Y-93117024D01*
X180623894Y-93116285D01*
X180346090Y-93069928D01*
X180341053Y-93068980D01*
X180310711Y-93062618D01*
X180305720Y-93061463D01*
X180265718Y-93051334D01*
X180260775Y-93049973D01*
X180231051Y-93041124D01*
X180226169Y-93039560D01*
X180007529Y-92964500D01*
X179284500Y-92964500D01*
X179284500Y-93571728D01*
X178286500Y-93571728D01*
X178286500Y-92964500D01*
X176784500Y-92964500D01*
X176784500Y-94466500D01*
X175443000Y-94466500D01*
X175442999Y-92678128D01*
X175436591Y-92618517D01*
X175426841Y-92592377D01*
X175386297Y-92483671D01*
X175386293Y-92483664D01*
X175300047Y-92368455D01*
X175300044Y-92368452D01*
X175184835Y-92282206D01*
X175184828Y-92282202D01*
X175049982Y-92231908D01*
X175049983Y-92231908D01*
X174990383Y-92225501D01*
X174990381Y-92225500D01*
X174990373Y-92225500D01*
X174990364Y-92225500D01*
X172989629Y-92225500D01*
X172989623Y-92225501D01*
X172930016Y-92231908D01*
X172795171Y-92282202D01*
X172795164Y-92282206D01*
X172679955Y-92368452D01*
X172679952Y-92368455D01*
X172593706Y-92483664D01*
X172593702Y-92483671D01*
X172583127Y-92512026D01*
X172541256Y-92567960D01*
X172475791Y-92592377D01*
X172407518Y-92577525D01*
X172394060Y-92569011D01*
X172211279Y-92436213D01*
X172007568Y-92332417D01*
X171790124Y-92261765D01*
X171700000Y-92247490D01*
X171700000Y-93235252D01*
X171662292Y-93213482D01*
X171522409Y-93176000D01*
X171377591Y-93176000D01*
X171237708Y-93213482D01*
X171200000Y-93235252D01*
X171200000Y-92247490D01*
X171199999Y-92247490D01*
X171109875Y-92261765D01*
X170892431Y-92332417D01*
X170688723Y-92436211D01*
X170503757Y-92570597D01*
X170342097Y-92732257D01*
X170280627Y-92816864D01*
X170225297Y-92859529D01*
X170155684Y-92865508D01*
X170093889Y-92832902D01*
X170079991Y-92816864D01*
X170018286Y-92731934D01*
X169856566Y-92570214D01*
X169671538Y-92435783D01*
X169467755Y-92331950D01*
X169250248Y-92261278D01*
X169064812Y-92231908D01*
X169024354Y-92225500D01*
X168795646Y-92225500D01*
X168755188Y-92231908D01*
X168569753Y-92261278D01*
X168569750Y-92261278D01*
X168352244Y-92331950D01*
X168148461Y-92435783D01*
X168082550Y-92483671D01*
X167963434Y-92570214D01*
X167963432Y-92570216D01*
X167963431Y-92570216D01*
X167801716Y-92731931D01*
X167801716Y-92731932D01*
X167801714Y-92731934D01*
X167743980Y-92811396D01*
X167667283Y-92916961D01*
X167563450Y-93120744D01*
X167492778Y-93338250D01*
X167492778Y-93338253D01*
X167457000Y-93564146D01*
X167457000Y-93887853D01*
X167492778Y-94113746D01*
X167492778Y-94113749D01*
X167563450Y-94331255D01*
X167632361Y-94466500D01*
X167667283Y-94535038D01*
X167801714Y-94720066D01*
X167963434Y-94881786D01*
X168148462Y-95016217D01*
X168280599Y-95083544D01*
X168352244Y-95120049D01*
X168569751Y-95190721D01*
X168569752Y-95190721D01*
X168569755Y-95190722D01*
X168795646Y-95226500D01*
X168795647Y-95226500D01*
X169024353Y-95226500D01*
X169024354Y-95226500D01*
X169250245Y-95190722D01*
X169250248Y-95190721D01*
X169250249Y-95190721D01*
X169467755Y-95120049D01*
X169467755Y-95120048D01*
X169467758Y-95120048D01*
X169671538Y-95016217D01*
X169856566Y-94881786D01*
X170018286Y-94720066D01*
X170079992Y-94635134D01*
X170135319Y-94592470D01*
X170204932Y-94586491D01*
X170266727Y-94619096D01*
X170280626Y-94635135D01*
X170342097Y-94719741D01*
X170342097Y-94719742D01*
X170503757Y-94881402D01*
X170688723Y-95015788D01*
X170892431Y-95119582D01*
X171109875Y-95190234D01*
X171335687Y-95226000D01*
X171341400Y-95226000D01*
X171408439Y-95245685D01*
X171454194Y-95298489D01*
X171464138Y-95367647D01*
X171435113Y-95431203D01*
X171429081Y-95437681D01*
X167503286Y-99363478D01*
X167391481Y-99475282D01*
X167391479Y-99475285D01*
X167341361Y-99562094D01*
X167341359Y-99562096D01*
X167312425Y-99612209D01*
X167312424Y-99612210D01*
X167312423Y-99612215D01*
X167271499Y-99764943D01*
X167271499Y-99764945D01*
X167271499Y-99933046D01*
X167271500Y-99933059D01*
X167271500Y-109040330D01*
X167271499Y-109040348D01*
X167271499Y-109206054D01*
X167271498Y-109206054D01*
X167312423Y-109358785D01*
X167341358Y-109408900D01*
X167341359Y-109408904D01*
X167341360Y-109408904D01*
X167374612Y-109466500D01*
X167391479Y-109495714D01*
X167391481Y-109495717D01*
X167510349Y-109614585D01*
X167510355Y-109614590D01*
X170920584Y-113024819D01*
X170954069Y-113086142D01*
X170949085Y-113155834D01*
X170907213Y-113211767D01*
X170841749Y-113236184D01*
X170832903Y-113236500D01*
X170827646Y-113236500D01*
X170787188Y-113242908D01*
X170601753Y-113272278D01*
X170601750Y-113272278D01*
X170384244Y-113342950D01*
X170180461Y-113446783D01*
X170076194Y-113522538D01*
X170006019Y-113573524D01*
X169997759Y-113579525D01*
X169931952Y-113603005D01*
X169863898Y-113587180D01*
X169815203Y-113537074D01*
X169808690Y-113522538D01*
X169798296Y-113494669D01*
X169798293Y-113494664D01*
X169712047Y-113379455D01*
X169712044Y-113379452D01*
X169596835Y-113293206D01*
X169596828Y-113293202D01*
X169461982Y-113242908D01*
X169461983Y-113242908D01*
X169402383Y-113236501D01*
X169402381Y-113236500D01*
X169402373Y-113236500D01*
X169402364Y-113236500D01*
X167401629Y-113236500D01*
X167401623Y-113236501D01*
X167342016Y-113242908D01*
X167207171Y-113293202D01*
X167207164Y-113293206D01*
X167091955Y-113379452D01*
X167091952Y-113379455D01*
X167005706Y-113494664D01*
X167005702Y-113494671D01*
X166955408Y-113629517D01*
X166949001Y-113689116D01*
X166949000Y-113689135D01*
X165786500Y-113689135D01*
X165786500Y-112964500D01*
X164284500Y-112964500D01*
X164284500Y-114466500D01*
X163286500Y-114466500D01*
X163286500Y-112964500D01*
X162534500Y-112964500D01*
X162534500Y-114466500D01*
X161536500Y-114466500D01*
X161536500Y-111966500D01*
X162534500Y-111966500D01*
X163286500Y-111966500D01*
X164284500Y-111966500D01*
X165786500Y-111966500D01*
X166784500Y-111966500D01*
X168286500Y-111966500D01*
X168286500Y-111802119D01*
X166948881Y-110464500D01*
X166784500Y-110464500D01*
X166784500Y-111966500D01*
X165786500Y-111966500D01*
X165786500Y-110464500D01*
X164284500Y-110464500D01*
X164284500Y-111966500D01*
X163286500Y-111966500D01*
X163286500Y-110464500D01*
X162534500Y-110464500D01*
X162534500Y-111966500D01*
X161536500Y-111966500D01*
X161536500Y-109466500D01*
X162534500Y-109466500D01*
X163286500Y-109466500D01*
X164284500Y-109466500D01*
X165786500Y-109466500D01*
X165786500Y-107964500D01*
X164284500Y-107964500D01*
X164284500Y-109466500D01*
X163286500Y-109466500D01*
X163286500Y-107964500D01*
X162534500Y-107964500D01*
X162534500Y-109466500D01*
X161536500Y-109466500D01*
X161536500Y-106966500D01*
X162534500Y-106966500D01*
X163286500Y-106966500D01*
X164284500Y-106966500D01*
X165786500Y-106966500D01*
X165786500Y-105464500D01*
X164284500Y-105464500D01*
X164284500Y-106966500D01*
X163286500Y-106966500D01*
X163286500Y-105464500D01*
X162534500Y-105464500D01*
X162534500Y-106966500D01*
X161536500Y-106966500D01*
X161536500Y-104466500D01*
X162534500Y-104466500D01*
X163286500Y-104466500D01*
X164284500Y-104466500D01*
X165786500Y-104466500D01*
X165786500Y-102964500D01*
X164284500Y-102964500D01*
X164284500Y-104466500D01*
X163286500Y-104466500D01*
X163286500Y-102964500D01*
X162534500Y-102964500D01*
X162534500Y-104466500D01*
X161536500Y-104466500D01*
X161536500Y-101966500D01*
X162534500Y-101966500D01*
X163286500Y-101966500D01*
X164284500Y-101966500D01*
X165786500Y-101966500D01*
X165786500Y-100464500D01*
X164284500Y-100464500D01*
X164284500Y-101966500D01*
X163286500Y-101966500D01*
X163286500Y-100464500D01*
X162534500Y-100464500D01*
X162534500Y-101966500D01*
X161536500Y-101966500D01*
X161536500Y-99466500D01*
X162534500Y-99466500D01*
X163286500Y-99466500D01*
X164284500Y-99466500D01*
X165786500Y-99466500D01*
X165786500Y-97964500D01*
X164284500Y-97964500D01*
X164284500Y-99466500D01*
X163286500Y-99466500D01*
X163286500Y-97964500D01*
X162534500Y-97964500D01*
X162534500Y-99466500D01*
X161536500Y-99466500D01*
X161536500Y-96966500D01*
X162534500Y-96966500D01*
X163286500Y-96966500D01*
X164284500Y-96966500D01*
X165786500Y-96966500D01*
X166784500Y-96966500D01*
X168286500Y-96966500D01*
X168286500Y-96147867D01*
X168284674Y-96147353D01*
X168280010Y-96145938D01*
X168025198Y-96063145D01*
X168020595Y-96061549D01*
X167992951Y-96051350D01*
X167988417Y-96049575D01*
X167952201Y-96034573D01*
X167947740Y-96032622D01*
X167920998Y-96020293D01*
X167916619Y-96018169D01*
X167677917Y-95896544D01*
X167673624Y-95894249D01*
X167647928Y-95879859D01*
X167643727Y-95877397D01*
X167610303Y-95856915D01*
X167606202Y-95854290D01*
X167581705Y-95837922D01*
X167577709Y-95835137D01*
X167360964Y-95677662D01*
X167357081Y-95674722D01*
X167333947Y-95656484D01*
X167330184Y-95653396D01*
X167300377Y-95627938D01*
X167296737Y-95624703D01*
X167275109Y-95604710D01*
X167271600Y-95601336D01*
X167134764Y-95464500D01*
X166784500Y-95464500D01*
X166784500Y-96966500D01*
X165786500Y-96966500D01*
X165786500Y-95464500D01*
X164284500Y-95464500D01*
X164284500Y-96966500D01*
X163286500Y-96966500D01*
X163286500Y-95464500D01*
X162534500Y-95464500D01*
X162534500Y-96966500D01*
X161536500Y-96966500D01*
X161536500Y-94466500D01*
X162534500Y-94466500D01*
X163286500Y-94466500D01*
X164284500Y-94466500D01*
X165786500Y-94466500D01*
X165786500Y-92964500D01*
X164284500Y-92964500D01*
X164284500Y-94466500D01*
X163286500Y-94466500D01*
X163286500Y-92964500D01*
X162534500Y-92964500D01*
X162534500Y-94466500D01*
X161536500Y-94466500D01*
X161536500Y-91966500D01*
X162534500Y-91966500D01*
X163286500Y-91966500D01*
X164284500Y-91966500D01*
X165786500Y-91966500D01*
X166784500Y-91966500D01*
X167155764Y-91966500D01*
X176784500Y-91966500D01*
X178286500Y-91966500D01*
X178286500Y-90677994D01*
X179432529Y-90677994D01*
X179432529Y-90678005D01*
X179452379Y-90917559D01*
X179511389Y-91150589D01*
X179607951Y-91370729D01*
X179725256Y-91550276D01*
X179739429Y-91571969D01*
X179902236Y-91748825D01*
X179902239Y-91748827D01*
X179902242Y-91748830D01*
X180091924Y-91896466D01*
X180091930Y-91896470D01*
X180091933Y-91896472D01*
X180303344Y-92010882D01*
X180303347Y-92010883D01*
X180530699Y-92088933D01*
X180530701Y-92088933D01*
X180530703Y-92088934D01*
X180767808Y-92128500D01*
X180767809Y-92128500D01*
X181008191Y-92128500D01*
X181008192Y-92128500D01*
X181245297Y-92088934D01*
X181472656Y-92010882D01*
X181684067Y-91896472D01*
X181728627Y-91861790D01*
X181831620Y-91781627D01*
X181873764Y-91748825D01*
X182036571Y-91571969D01*
X182036577Y-91571959D01*
X182039717Y-91567926D01*
X182041549Y-91569352D01*
X182087262Y-91530287D01*
X182156487Y-91520817D01*
X182219842Y-91550276D01*
X182235597Y-91568459D01*
X182236283Y-91567926D01*
X182239427Y-91571966D01*
X182239429Y-91571969D01*
X182402236Y-91748825D01*
X182402239Y-91748827D01*
X182402242Y-91748830D01*
X182591924Y-91896466D01*
X182591930Y-91896470D01*
X182591933Y-91896472D01*
X182803344Y-92010882D01*
X182803347Y-92010883D01*
X183030699Y-92088933D01*
X183030701Y-92088933D01*
X183030703Y-92088934D01*
X183267808Y-92128500D01*
X183267809Y-92128500D01*
X183508191Y-92128500D01*
X183508192Y-92128500D01*
X183745297Y-92088934D01*
X183972656Y-92010882D01*
X184184067Y-91896472D01*
X184298674Y-91807269D01*
X184363667Y-91781627D01*
X184432207Y-91795193D01*
X184482532Y-91843661D01*
X184491018Y-91861790D01*
X184494202Y-91870328D01*
X184494206Y-91870335D01*
X184580452Y-91985544D01*
X184580455Y-91985547D01*
X184695664Y-92071793D01*
X184695671Y-92071797D01*
X184830517Y-92122091D01*
X184830516Y-92122091D01*
X184837444Y-92122835D01*
X184890127Y-92128500D01*
X186885872Y-92128499D01*
X186945483Y-92122091D01*
X187080331Y-92071796D01*
X187195546Y-91985546D01*
X187281796Y-91870331D01*
X187332091Y-91735483D01*
X187338500Y-91675873D01*
X187338499Y-89680128D01*
X187332091Y-89620517D01*
X187309410Y-89559707D01*
X187281797Y-89485671D01*
X187281793Y-89485664D01*
X187195547Y-89370455D01*
X187195544Y-89370452D01*
X187080335Y-89284206D01*
X187080328Y-89284202D01*
X186945482Y-89233908D01*
X186945483Y-89233908D01*
X186885883Y-89227501D01*
X186885881Y-89227500D01*
X186885873Y-89227500D01*
X186885864Y-89227500D01*
X184890129Y-89227500D01*
X184890123Y-89227501D01*
X184830516Y-89233908D01*
X184695671Y-89284202D01*
X184695664Y-89284206D01*
X184580455Y-89370452D01*
X184580452Y-89370455D01*
X184494206Y-89485664D01*
X184494201Y-89485674D01*
X184491017Y-89494211D01*
X184449145Y-89550144D01*
X184383680Y-89574560D01*
X184315408Y-89559707D01*
X184298674Y-89548729D01*
X184184075Y-89459533D01*
X184184069Y-89459529D01*
X183972657Y-89345118D01*
X183972652Y-89345116D01*
X183745300Y-89267066D01*
X183546593Y-89233908D01*
X183508192Y-89227500D01*
X183267808Y-89227500D01*
X183229407Y-89233908D01*
X183030699Y-89267066D01*
X182803347Y-89345116D01*
X182803342Y-89345118D01*
X182591930Y-89459529D01*
X182591924Y-89459533D01*
X182402242Y-89607169D01*
X182402239Y-89607172D01*
X182239430Y-89784029D01*
X182236283Y-89788074D01*
X182234464Y-89786658D01*
X182188659Y-89825748D01*
X182119427Y-89835169D01*
X182056093Y-89805666D01*
X182040392Y-89787547D01*
X182039717Y-89788074D01*
X182036569Y-89784029D01*
X181873764Y-89607175D01*
X181873759Y-89607171D01*
X181873757Y-89607169D01*
X181684075Y-89459533D01*
X181684069Y-89459529D01*
X181472657Y-89345118D01*
X181472652Y-89345116D01*
X181245300Y-89267066D01*
X181046593Y-89233908D01*
X181008192Y-89227500D01*
X180767808Y-89227500D01*
X180729407Y-89233908D01*
X180530699Y-89267066D01*
X180303347Y-89345116D01*
X180303342Y-89345118D01*
X180091930Y-89459529D01*
X180091924Y-89459533D01*
X179902242Y-89607169D01*
X179902239Y-89607172D01*
X179739430Y-89784029D01*
X179739427Y-89784033D01*
X179607951Y-89985270D01*
X179511389Y-90205410D01*
X179452379Y-90438440D01*
X179432529Y-90677994D01*
X178286500Y-90677994D01*
X178286500Y-90464500D01*
X176784500Y-90464500D01*
X176784500Y-91966500D01*
X167155764Y-91966500D01*
X167271600Y-91850664D01*
X167275109Y-91847290D01*
X167296737Y-91827297D01*
X167300377Y-91824062D01*
X167330184Y-91798604D01*
X167333947Y-91795516D01*
X167357081Y-91777278D01*
X167360964Y-91774338D01*
X167577709Y-91616863D01*
X167581705Y-91614078D01*
X167606202Y-91597710D01*
X167610303Y-91595085D01*
X167643727Y-91574603D01*
X167647928Y-91572141D01*
X167673624Y-91557751D01*
X167677917Y-91555456D01*
X167916619Y-91433831D01*
X167920998Y-91431707D01*
X167947740Y-91419378D01*
X167952201Y-91417427D01*
X167988417Y-91402425D01*
X167992951Y-91400650D01*
X168020595Y-91390451D01*
X168025198Y-91388855D01*
X168280010Y-91306062D01*
X168284674Y-91304647D01*
X168286500Y-91304132D01*
X168286500Y-91256263D01*
X169284500Y-91256263D01*
X169425712Y-91278630D01*
X169430500Y-91279485D01*
X169459363Y-91285225D01*
X169464114Y-91286267D01*
X169502232Y-91295415D01*
X169506949Y-91296645D01*
X169535326Y-91304647D01*
X169539990Y-91306062D01*
X169794802Y-91388855D01*
X169799405Y-91390451D01*
X169827049Y-91400650D01*
X169831583Y-91402425D01*
X169867799Y-91417427D01*
X169872260Y-91419378D01*
X169899002Y-91431707D01*
X169903381Y-91433831D01*
X170142083Y-91555456D01*
X170146376Y-91557751D01*
X170172072Y-91572141D01*
X170176273Y-91574603D01*
X170180480Y-91577181D01*
X170183991Y-91575030D01*
X170188189Y-91572569D01*
X170213886Y-91558178D01*
X170218180Y-91555883D01*
X170456827Y-91434287D01*
X170461210Y-91432162D01*
X170487985Y-91419819D01*
X170492454Y-91417864D01*
X170528671Y-91402866D01*
X170533200Y-91401094D01*
X170560811Y-91390909D01*
X170565407Y-91389315D01*
X170786500Y-91317477D01*
X170786500Y-91250432D01*
X171784500Y-91250432D01*
X171965625Y-91279122D01*
X171970423Y-91279979D01*
X171999328Y-91285730D01*
X172004083Y-91286773D01*
X172042197Y-91295925D01*
X172046906Y-91297154D01*
X172075238Y-91305145D01*
X172079895Y-91306558D01*
X172334593Y-91389315D01*
X172339189Y-91390909D01*
X172342673Y-91392194D01*
X172348167Y-91389195D01*
X172356081Y-91385233D01*
X172404818Y-91362975D01*
X172412998Y-91359587D01*
X172610482Y-91285931D01*
X172617821Y-91283452D01*
X172662672Y-91269847D01*
X172670148Y-91267832D01*
X172730863Y-91253484D01*
X172738455Y-91251939D01*
X172784660Y-91244028D01*
X172792333Y-91242959D01*
X172896256Y-91231788D01*
X172899561Y-91231478D01*
X172919601Y-91229865D01*
X172922922Y-91229642D01*
X172949605Y-91228214D01*
X172952918Y-91228081D01*
X172972966Y-91227545D01*
X172976280Y-91227501D01*
X173286500Y-91227500D01*
X174284500Y-91227500D01*
X175003748Y-91227500D01*
X175007072Y-91227545D01*
X175027174Y-91228084D01*
X175030494Y-91228217D01*
X175057180Y-91229649D01*
X175060489Y-91229871D01*
X175080482Y-91231481D01*
X175083785Y-91231792D01*
X175187675Y-91242962D01*
X175195343Y-91244029D01*
X175241529Y-91251936D01*
X175249119Y-91253481D01*
X175309830Y-91267826D01*
X175317309Y-91269842D01*
X175362172Y-91283450D01*
X175369512Y-91285929D01*
X175567002Y-91359587D01*
X175575182Y-91362975D01*
X175623919Y-91385233D01*
X175631833Y-91389195D01*
X175694423Y-91423372D01*
X175702037Y-91427890D01*
X175747104Y-91456854D01*
X175754374Y-91461902D01*
X175786500Y-91485951D01*
X175786500Y-90464500D01*
X174284500Y-90464500D01*
X174284500Y-91227500D01*
X173286500Y-91227500D01*
X173286500Y-90464500D01*
X171784500Y-90464500D01*
X171784500Y-91250432D01*
X170786500Y-91250432D01*
X170786500Y-90464500D01*
X169284500Y-90464500D01*
X169284500Y-91256263D01*
X168286500Y-91256263D01*
X168286500Y-90464500D01*
X166784500Y-90464500D01*
X166784500Y-91966500D01*
X165786500Y-91966500D01*
X165786500Y-90464500D01*
X164284500Y-90464500D01*
X164284500Y-91966500D01*
X163286500Y-91966500D01*
X163286500Y-90464500D01*
X162534500Y-90464500D01*
X162534500Y-91966500D01*
X161536500Y-91966500D01*
X161536500Y-89466500D01*
X162534500Y-89466500D01*
X163286500Y-89466500D01*
X164284500Y-89466500D01*
X165786500Y-89466500D01*
X165786500Y-89428785D01*
X176784500Y-89428785D01*
X176784500Y-89466500D01*
X178286500Y-89466500D01*
X178286500Y-88823311D01*
X179284500Y-88823311D01*
X179495231Y-88659292D01*
X179499341Y-88656228D01*
X179524581Y-88638207D01*
X179528815Y-88635313D01*
X179563360Y-88612745D01*
X179567705Y-88610034D01*
X179594338Y-88594164D01*
X179598794Y-88591631D01*
X179846502Y-88457578D01*
X179851062Y-88455231D01*
X179878936Y-88441605D01*
X179883589Y-88439449D01*
X179921379Y-88422875D01*
X179926114Y-88420914D01*
X179954982Y-88409651D01*
X179959789Y-88407889D01*
X179991502Y-88397002D01*
X181784500Y-88397002D01*
X181816211Y-88407889D01*
X181821018Y-88409651D01*
X181849886Y-88420914D01*
X181854621Y-88422875D01*
X181892411Y-88439449D01*
X181897064Y-88441605D01*
X181924938Y-88455231D01*
X181929498Y-88457578D01*
X182138000Y-88570413D01*
X182346502Y-88457578D01*
X182351062Y-88455231D01*
X182378936Y-88441605D01*
X182383589Y-88439449D01*
X182421379Y-88422875D01*
X182426114Y-88420914D01*
X182454982Y-88409651D01*
X182459789Y-88407889D01*
X182557100Y-88374482D01*
X184284500Y-88374482D01*
X184305318Y-88364975D01*
X184313498Y-88361587D01*
X184510982Y-88287931D01*
X184518321Y-88285452D01*
X184563172Y-88271847D01*
X184570648Y-88269832D01*
X184631363Y-88255484D01*
X184638955Y-88253939D01*
X184685160Y-88246028D01*
X184692833Y-88244959D01*
X184796756Y-88233788D01*
X184800061Y-88233478D01*
X184820101Y-88231865D01*
X184823422Y-88231642D01*
X184850105Y-88230214D01*
X184853418Y-88230081D01*
X184873466Y-88229545D01*
X184876780Y-88229501D01*
X185786500Y-88229500D01*
X186784500Y-88229500D01*
X186899248Y-88229500D01*
X186902572Y-88229545D01*
X186922674Y-88230084D01*
X186925994Y-88230217D01*
X186952680Y-88231649D01*
X186955989Y-88231871D01*
X186975982Y-88233481D01*
X186979285Y-88233792D01*
X187083175Y-88244962D01*
X187090843Y-88246029D01*
X187137029Y-88253936D01*
X187144619Y-88255481D01*
X187205330Y-88269826D01*
X187212809Y-88271842D01*
X187257672Y-88285450D01*
X187265012Y-88287929D01*
X187462502Y-88361587D01*
X187470682Y-88364975D01*
X187519419Y-88387233D01*
X187527333Y-88391195D01*
X187589923Y-88425372D01*
X187597537Y-88429890D01*
X187642604Y-88458854D01*
X187649874Y-88463902D01*
X187822173Y-88592886D01*
X187829064Y-88598439D01*
X187869549Y-88633519D01*
X187876028Y-88639551D01*
X187926449Y-88689972D01*
X187932481Y-88696451D01*
X187967561Y-88736936D01*
X187973114Y-88743827D01*
X188102098Y-88916126D01*
X188107146Y-88923396D01*
X188136110Y-88968463D01*
X188140628Y-88976077D01*
X188174805Y-89038667D01*
X188178767Y-89046581D01*
X188201025Y-89095318D01*
X188204413Y-89103498D01*
X188278069Y-89300982D01*
X188280548Y-89308321D01*
X188286500Y-89327942D01*
X188286500Y-87964500D01*
X186784500Y-87964500D01*
X186784500Y-88229500D01*
X185786500Y-88229500D01*
X185786500Y-87964500D01*
X184284500Y-87964500D01*
X184284500Y-88374482D01*
X182557100Y-88374482D01*
X182726169Y-88316440D01*
X182731051Y-88314876D01*
X182760775Y-88306027D01*
X182765718Y-88304666D01*
X182805720Y-88294537D01*
X182810711Y-88293382D01*
X182841053Y-88287020D01*
X182846090Y-88286072D01*
X183123894Y-88239715D01*
X183128967Y-88238976D01*
X183159736Y-88235141D01*
X183164832Y-88234613D01*
X183205955Y-88231205D01*
X183211073Y-88230887D01*
X183242053Y-88229606D01*
X183247176Y-88229500D01*
X183286500Y-88229500D01*
X183286500Y-87964500D01*
X181784500Y-87964500D01*
X181784500Y-88397002D01*
X179991502Y-88397002D01*
X180226169Y-88316440D01*
X180231051Y-88314876D01*
X180260775Y-88306027D01*
X180265718Y-88304666D01*
X180305720Y-88294537D01*
X180310711Y-88293382D01*
X180341053Y-88287020D01*
X180346090Y-88286072D01*
X180623894Y-88239715D01*
X180628967Y-88238976D01*
X180659736Y-88235141D01*
X180664832Y-88234613D01*
X180705955Y-88231205D01*
X180711073Y-88230887D01*
X180742053Y-88229606D01*
X180747176Y-88229500D01*
X180786500Y-88229500D01*
X180786500Y-87964500D01*
X179284500Y-87964500D01*
X179284500Y-88823311D01*
X178286500Y-88823311D01*
X178286500Y-87964500D01*
X177969895Y-87964500D01*
X177933095Y-88101841D01*
X177931580Y-88107038D01*
X177921731Y-88138273D01*
X177919990Y-88143401D01*
X177905089Y-88184333D01*
X177903130Y-88189371D01*
X177890611Y-88219592D01*
X177888433Y-88224541D01*
X177773857Y-88470249D01*
X177771463Y-88475103D01*
X177756347Y-88504139D01*
X177753746Y-88508880D01*
X177731968Y-88546601D01*
X177729160Y-88551228D01*
X177711578Y-88578825D01*
X177708574Y-88583321D01*
X177553074Y-88805401D01*
X177549877Y-88809761D01*
X177529957Y-88835723D01*
X177526570Y-88839944D01*
X177498571Y-88873313D01*
X177495003Y-88877381D01*
X177472885Y-88901519D01*
X177469143Y-88905428D01*
X177277428Y-89097143D01*
X177273519Y-89100885D01*
X177249381Y-89123003D01*
X177245313Y-89126571D01*
X177211944Y-89154570D01*
X177207723Y-89157957D01*
X177181761Y-89177877D01*
X177177401Y-89181074D01*
X176955321Y-89336574D01*
X176950825Y-89339578D01*
X176923228Y-89357160D01*
X176918601Y-89359968D01*
X176880880Y-89381746D01*
X176876139Y-89384347D01*
X176847103Y-89399463D01*
X176842249Y-89401857D01*
X176784500Y-89428785D01*
X165786500Y-89428785D01*
X165786500Y-89392445D01*
X165770114Y-89383916D01*
X165765369Y-89381312D01*
X165727646Y-89359532D01*
X165723019Y-89356724D01*
X165695418Y-89339139D01*
X165690922Y-89336135D01*
X165416527Y-89143999D01*
X165380264Y-89104424D01*
X165303147Y-88970852D01*
X165169572Y-88893733D01*
X165129997Y-88857470D01*
X164937863Y-88583077D01*
X164934858Y-88578579D01*
X164917274Y-88550978D01*
X164914468Y-88546355D01*
X164892688Y-88508633D01*
X164890084Y-88503886D01*
X164874968Y-88474848D01*
X164872576Y-88469996D01*
X164758038Y-88224367D01*
X164755861Y-88219420D01*
X164743342Y-88189200D01*
X164741381Y-88184158D01*
X164726482Y-88143228D01*
X164724742Y-88138104D01*
X164714893Y-88106870D01*
X164713378Y-88101673D01*
X164676622Y-87964500D01*
X164284500Y-87964500D01*
X164284500Y-89466500D01*
X163286500Y-89466500D01*
X163286500Y-87964500D01*
X162534500Y-87964500D01*
X162534500Y-89466500D01*
X161536500Y-89466500D01*
X161536500Y-87375997D01*
X165593034Y-87375997D01*
X165593034Y-87376002D01*
X165612858Y-87602599D01*
X165612860Y-87602610D01*
X165671730Y-87822317D01*
X165671735Y-87822331D01*
X165767863Y-88028478D01*
X165818974Y-88101472D01*
X166498000Y-87422446D01*
X166498000Y-87428661D01*
X166525259Y-87530394D01*
X166577920Y-87621606D01*
X166652394Y-87696080D01*
X166743606Y-87748741D01*
X166845339Y-87776000D01*
X166851553Y-87776000D01*
X166172526Y-88455025D01*
X166245513Y-88506132D01*
X166245521Y-88506136D01*
X166451668Y-88602264D01*
X166451682Y-88602269D01*
X166671389Y-88661139D01*
X166671400Y-88661141D01*
X166897998Y-88680966D01*
X166898002Y-88680966D01*
X167124599Y-88661141D01*
X167124610Y-88661139D01*
X167344317Y-88602269D01*
X167344331Y-88602264D01*
X167550478Y-88506136D01*
X167623471Y-88455024D01*
X166944447Y-87776000D01*
X166950661Y-87776000D01*
X167052394Y-87748741D01*
X167143606Y-87696080D01*
X167218080Y-87621606D01*
X167270741Y-87530394D01*
X167298000Y-87428661D01*
X167298000Y-87422447D01*
X167977024Y-88101471D01*
X168028134Y-88028481D01*
X168035340Y-88013028D01*
X168081511Y-87960587D01*
X168148704Y-87941433D01*
X168215585Y-87961646D01*
X168260105Y-88013022D01*
X168267430Y-88028730D01*
X168267432Y-88028734D01*
X168397954Y-88215141D01*
X168558858Y-88376045D01*
X168605693Y-88408839D01*
X168745266Y-88506568D01*
X168951504Y-88602739D01*
X169171308Y-88661635D01*
X169333230Y-88675801D01*
X169397998Y-88681468D01*
X169398000Y-88681468D01*
X169398002Y-88681468D01*
X169454673Y-88676509D01*
X169624692Y-88661635D01*
X169844496Y-88602739D01*
X170050734Y-88506568D01*
X170237139Y-88376047D01*
X170398047Y-88215139D01*
X170528568Y-88028734D01*
X170624739Y-87822496D01*
X170683635Y-87602692D01*
X170703468Y-87376000D01*
X170703468Y-87375997D01*
X171943034Y-87375997D01*
X171943034Y-87376002D01*
X171962858Y-87602599D01*
X171962860Y-87602610D01*
X172021730Y-87822317D01*
X172021735Y-87822331D01*
X172117863Y-88028478D01*
X172168974Y-88101472D01*
X172848000Y-87422446D01*
X172848000Y-87428661D01*
X172875259Y-87530394D01*
X172927920Y-87621606D01*
X173002394Y-87696080D01*
X173093606Y-87748741D01*
X173195339Y-87776000D01*
X173201553Y-87776000D01*
X172522526Y-88455025D01*
X172595513Y-88506132D01*
X172595521Y-88506136D01*
X172801668Y-88602264D01*
X172801682Y-88602269D01*
X173021389Y-88661139D01*
X173021400Y-88661141D01*
X173247998Y-88680966D01*
X173248002Y-88680966D01*
X173474599Y-88661141D01*
X173474610Y-88661139D01*
X173694317Y-88602269D01*
X173694331Y-88602264D01*
X173900478Y-88506136D01*
X173973471Y-88455024D01*
X173294447Y-87776000D01*
X173300661Y-87776000D01*
X173402394Y-87748741D01*
X173493606Y-87696080D01*
X173568080Y-87621606D01*
X173620741Y-87530394D01*
X173648000Y-87428661D01*
X173648000Y-87422447D01*
X174327024Y-88101471D01*
X174378134Y-88028481D01*
X174385340Y-88013028D01*
X174431511Y-87960587D01*
X174498704Y-87941433D01*
X174565585Y-87961646D01*
X174610105Y-88013022D01*
X174617430Y-88028730D01*
X174617432Y-88028734D01*
X174747954Y-88215141D01*
X174908858Y-88376045D01*
X174955693Y-88408839D01*
X175095266Y-88506568D01*
X175301504Y-88602739D01*
X175521308Y-88661635D01*
X175683230Y-88675801D01*
X175747998Y-88681468D01*
X175748000Y-88681468D01*
X175748002Y-88681468D01*
X175804673Y-88676509D01*
X175974692Y-88661635D01*
X176194496Y-88602739D01*
X176400734Y-88506568D01*
X176587139Y-88376047D01*
X176748047Y-88215139D01*
X176878568Y-88028734D01*
X176974739Y-87822496D01*
X177033635Y-87602692D01*
X177053468Y-87376000D01*
X177033635Y-87149308D01*
X176981455Y-86954570D01*
X176974741Y-86929511D01*
X176974738Y-86929502D01*
X176966639Y-86912134D01*
X176878568Y-86723266D01*
X176748047Y-86536861D01*
X176748045Y-86536858D01*
X176587141Y-86375954D01*
X176400734Y-86245432D01*
X176400732Y-86245431D01*
X176194497Y-86149261D01*
X176194488Y-86149258D01*
X175974697Y-86090366D01*
X175974693Y-86090365D01*
X175974692Y-86090365D01*
X175974691Y-86090364D01*
X175974686Y-86090364D01*
X175748002Y-86070532D01*
X175747998Y-86070532D01*
X175521313Y-86090364D01*
X175521302Y-86090366D01*
X175301511Y-86149258D01*
X175301502Y-86149261D01*
X175095267Y-86245431D01*
X175095265Y-86245432D01*
X174908858Y-86375954D01*
X174747954Y-86536858D01*
X174617432Y-86723265D01*
X174617429Y-86723270D01*
X174610104Y-86738979D01*
X174563929Y-86791417D01*
X174496735Y-86810566D01*
X174429855Y-86790347D01*
X174385341Y-86738973D01*
X174378133Y-86723515D01*
X174378132Y-86723513D01*
X174327025Y-86650526D01*
X173648000Y-87329551D01*
X173648000Y-87323339D01*
X173620741Y-87221606D01*
X173568080Y-87130394D01*
X173493606Y-87055920D01*
X173402394Y-87003259D01*
X173300661Y-86976000D01*
X173294448Y-86976000D01*
X173973472Y-86296974D01*
X173900478Y-86245863D01*
X173694331Y-86149735D01*
X173694317Y-86149730D01*
X173474610Y-86090860D01*
X173474599Y-86090858D01*
X173248002Y-86071034D01*
X173247998Y-86071034D01*
X173021400Y-86090858D01*
X173021389Y-86090860D01*
X172801682Y-86149730D01*
X172801673Y-86149734D01*
X172595516Y-86245866D01*
X172595512Y-86245868D01*
X172522526Y-86296973D01*
X172522526Y-86296974D01*
X173201553Y-86976000D01*
X173195339Y-86976000D01*
X173093606Y-87003259D01*
X173002394Y-87055920D01*
X172927920Y-87130394D01*
X172875259Y-87221606D01*
X172848000Y-87323339D01*
X172848000Y-87329552D01*
X172168974Y-86650526D01*
X172168973Y-86650526D01*
X172117868Y-86723512D01*
X172117866Y-86723516D01*
X172021734Y-86929673D01*
X172021730Y-86929682D01*
X171962860Y-87149389D01*
X171962858Y-87149400D01*
X171943034Y-87375997D01*
X170703468Y-87375997D01*
X170683635Y-87149308D01*
X170631455Y-86954570D01*
X170624741Y-86929511D01*
X170624738Y-86929502D01*
X170616639Y-86912134D01*
X170528568Y-86723266D01*
X170398047Y-86536861D01*
X170398045Y-86536858D01*
X170237141Y-86375954D01*
X170050734Y-86245432D01*
X170050732Y-86245431D01*
X169844497Y-86149261D01*
X169844488Y-86149258D01*
X169624697Y-86090366D01*
X169624693Y-86090365D01*
X169624692Y-86090365D01*
X169624691Y-86090364D01*
X169624686Y-86090364D01*
X169398002Y-86070532D01*
X169397998Y-86070532D01*
X169171313Y-86090364D01*
X169171302Y-86090366D01*
X168951511Y-86149258D01*
X168951502Y-86149261D01*
X168745267Y-86245431D01*
X168745265Y-86245432D01*
X168558858Y-86375954D01*
X168397954Y-86536858D01*
X168267432Y-86723265D01*
X168267429Y-86723270D01*
X168260104Y-86738979D01*
X168213929Y-86791417D01*
X168146735Y-86810566D01*
X168079855Y-86790347D01*
X168035341Y-86738973D01*
X168028133Y-86723515D01*
X168028132Y-86723513D01*
X167977025Y-86650526D01*
X167298000Y-87329551D01*
X167298000Y-87323339D01*
X167270741Y-87221606D01*
X167218080Y-87130394D01*
X167143606Y-87055920D01*
X167052394Y-87003259D01*
X166950661Y-86976000D01*
X166944448Y-86976000D01*
X167623472Y-86296974D01*
X167550478Y-86245863D01*
X167344331Y-86149735D01*
X167344317Y-86149730D01*
X167124610Y-86090860D01*
X167124599Y-86090858D01*
X166898002Y-86071034D01*
X166897998Y-86071034D01*
X166671400Y-86090858D01*
X166671389Y-86090860D01*
X166451682Y-86149730D01*
X166451673Y-86149734D01*
X166245516Y-86245866D01*
X166245512Y-86245868D01*
X166172526Y-86296973D01*
X166172526Y-86296974D01*
X166851553Y-86976000D01*
X166845339Y-86976000D01*
X166743606Y-87003259D01*
X166652394Y-87055920D01*
X166577920Y-87130394D01*
X166525259Y-87221606D01*
X166498000Y-87323339D01*
X166498000Y-87329552D01*
X165818974Y-86650526D01*
X165818973Y-86650526D01*
X165767868Y-86723512D01*
X165767866Y-86723516D01*
X165671734Y-86929673D01*
X165671730Y-86929682D01*
X165612860Y-87149389D01*
X165612858Y-87149400D01*
X165593034Y-87375997D01*
X161536500Y-87375997D01*
X161536500Y-86966500D01*
X162534500Y-86966500D01*
X163286500Y-86966500D01*
X164284500Y-86966500D01*
X164631712Y-86966500D01*
X164633800Y-86954657D01*
X164634856Y-86949349D01*
X164641941Y-86917390D01*
X164643227Y-86912134D01*
X164713378Y-86650327D01*
X164714893Y-86645130D01*
X164724742Y-86613896D01*
X164726482Y-86608771D01*
X164741382Y-86567840D01*
X164743342Y-86562802D01*
X164755860Y-86532582D01*
X164758038Y-86527631D01*
X164872573Y-86282011D01*
X164874964Y-86277162D01*
X164890071Y-86248140D01*
X164892673Y-86243397D01*
X164914451Y-86205674D01*
X164917257Y-86201050D01*
X164934847Y-86173437D01*
X164937855Y-86168935D01*
X165129992Y-85894533D01*
X165169566Y-85858269D01*
X165303145Y-85781145D01*
X165380269Y-85647566D01*
X165416533Y-85607992D01*
X165621462Y-85464500D01*
X177025407Y-85464500D01*
X177177401Y-85570926D01*
X177181761Y-85574123D01*
X177207723Y-85594043D01*
X177211944Y-85597430D01*
X177245313Y-85625429D01*
X177249381Y-85628997D01*
X177273519Y-85651115D01*
X177277428Y-85654857D01*
X177469143Y-85846572D01*
X177472885Y-85850481D01*
X177495003Y-85874619D01*
X177498571Y-85878687D01*
X177526570Y-85912056D01*
X177529957Y-85916277D01*
X177549877Y-85942239D01*
X177553074Y-85946599D01*
X177708574Y-86168679D01*
X177711578Y-86173175D01*
X177729160Y-86200772D01*
X177731968Y-86205399D01*
X177753746Y-86243120D01*
X177756347Y-86247861D01*
X177771463Y-86276897D01*
X177773857Y-86281751D01*
X177888433Y-86527459D01*
X177890611Y-86532408D01*
X177903130Y-86562629D01*
X177905089Y-86567667D01*
X177919990Y-86608599D01*
X177921731Y-86613727D01*
X177931580Y-86644962D01*
X177933095Y-86650159D01*
X178003267Y-86912049D01*
X178004553Y-86917304D01*
X178011638Y-86949263D01*
X178012693Y-86954570D01*
X178014796Y-86966500D01*
X178286500Y-86966500D01*
X179284500Y-86966500D01*
X180786500Y-86966500D01*
X181784500Y-86966500D01*
X183286500Y-86966500D01*
X184284500Y-86966500D01*
X185786500Y-86966500D01*
X186784500Y-86966500D01*
X188286500Y-86966500D01*
X188286500Y-85464500D01*
X186784500Y-85464500D01*
X186784500Y-86966500D01*
X185786500Y-86966500D01*
X185786500Y-85464500D01*
X184284500Y-85464500D01*
X184284500Y-86966500D01*
X183286500Y-86966500D01*
X183286500Y-85464500D01*
X181784500Y-85464500D01*
X181784500Y-86966500D01*
X180786500Y-86966500D01*
X180786500Y-85464500D01*
X179284500Y-85464500D01*
X179284500Y-86966500D01*
X178286500Y-86966500D01*
X178286500Y-85464500D01*
X177025407Y-85464500D01*
X165621462Y-85464500D01*
X164284500Y-85464500D01*
X164284500Y-86966500D01*
X163286500Y-86966500D01*
X163286500Y-85464500D01*
X162534500Y-85464500D01*
X162534500Y-86966500D01*
X161536500Y-86966500D01*
X161536500Y-84466500D01*
X162534500Y-84466500D01*
X163286500Y-84466500D01*
X164284500Y-84466500D01*
X165786500Y-84466500D01*
X166784500Y-84466500D01*
X168286500Y-84466500D01*
X169284500Y-84466500D01*
X170786500Y-84466500D01*
X171784500Y-84466500D01*
X173286500Y-84466500D01*
X174284500Y-84466500D01*
X175786500Y-84466500D01*
X176784500Y-84466500D01*
X178286500Y-84466500D01*
X178286500Y-84320083D01*
X186784500Y-84320083D01*
X186784500Y-84466500D01*
X188286500Y-84466500D01*
X188286500Y-83006228D01*
X188228606Y-83112253D01*
X188226414Y-83116102D01*
X188212740Y-83139147D01*
X188210411Y-83142917D01*
X188191144Y-83172893D01*
X188188687Y-83176570D01*
X188173425Y-83198550D01*
X188170838Y-83202137D01*
X187978005Y-83459732D01*
X187975293Y-83463224D01*
X187958499Y-83484066D01*
X187955660Y-83487463D01*
X187932325Y-83514395D01*
X187929363Y-83517692D01*
X187911108Y-83537299D01*
X187908035Y-83540484D01*
X187680484Y-83768035D01*
X187677299Y-83771108D01*
X187657692Y-83789363D01*
X187654395Y-83792325D01*
X187627463Y-83815660D01*
X187624066Y-83818499D01*
X187603224Y-83835293D01*
X187599732Y-83838005D01*
X187342137Y-84030838D01*
X187338550Y-84033425D01*
X187316570Y-84048687D01*
X187312893Y-84051144D01*
X187282917Y-84070411D01*
X187279147Y-84072740D01*
X187256102Y-84086414D01*
X187252253Y-84088606D01*
X186969806Y-84242834D01*
X186965882Y-84244887D01*
X186941918Y-84256882D01*
X186937921Y-84258794D01*
X186905505Y-84273596D01*
X186901449Y-84275361D01*
X186876728Y-84285600D01*
X186872611Y-84287220D01*
X186784500Y-84320083D01*
X178286500Y-84320083D01*
X178286500Y-84300524D01*
X178282368Y-84297655D01*
X178110184Y-84168757D01*
X178103293Y-84163204D01*
X178062808Y-84128124D01*
X178056329Y-84122092D01*
X178005908Y-84071671D01*
X177999876Y-84065192D01*
X177964796Y-84024707D01*
X177959243Y-84017816D01*
X177830345Y-83845632D01*
X177825297Y-83838362D01*
X177796333Y-83793295D01*
X177791815Y-83785681D01*
X177757638Y-83723091D01*
X177753677Y-83715177D01*
X177731419Y-83666441D01*
X177728030Y-83658261D01*
X177654421Y-83460904D01*
X177651942Y-83453564D01*
X177638332Y-83408695D01*
X177636315Y-83401212D01*
X177621972Y-83340501D01*
X177620428Y-83332916D01*
X177612522Y-83286738D01*
X177611455Y-83279069D01*
X177600289Y-83175217D01*
X177599977Y-83171905D01*
X177598364Y-83151856D01*
X177598142Y-83148542D01*
X177596713Y-83121855D01*
X177596580Y-83118539D01*
X177596044Y-83098491D01*
X177596000Y-83095177D01*
X177596000Y-82964500D01*
X176784500Y-82964500D01*
X176784500Y-84466500D01*
X175786500Y-84466500D01*
X175786500Y-82964500D01*
X174284500Y-82964500D01*
X174284500Y-84466500D01*
X173286500Y-84466500D01*
X173286500Y-82964500D01*
X171784500Y-82964500D01*
X171784500Y-84466500D01*
X170786500Y-84466500D01*
X170786500Y-82964500D01*
X169284500Y-82964500D01*
X169284500Y-84466500D01*
X168286500Y-84466500D01*
X168286500Y-82964500D01*
X166784500Y-82964500D01*
X166784500Y-84466500D01*
X165786500Y-84466500D01*
X165786500Y-82964500D01*
X164284500Y-82964500D01*
X164284500Y-84466500D01*
X163286500Y-84466500D01*
X163286500Y-82964500D01*
X162534500Y-82964500D01*
X162534500Y-84466500D01*
X161536500Y-84466500D01*
X161536500Y-81966500D01*
X162534500Y-81966500D01*
X163286500Y-81966500D01*
X164284500Y-81966500D01*
X165786500Y-81966500D01*
X166784500Y-81966500D01*
X168286500Y-81966500D01*
X169284500Y-81966500D01*
X170786500Y-81966500D01*
X170786500Y-81596499D01*
X169522752Y-81596500D01*
X169519428Y-81596455D01*
X169499327Y-81595916D01*
X169496007Y-81595783D01*
X169469320Y-81594351D01*
X169466011Y-81594129D01*
X169446018Y-81592519D01*
X169442715Y-81592208D01*
X169338825Y-81581038D01*
X169331157Y-81579971D01*
X169284971Y-81572064D01*
X169284500Y-81571968D01*
X169284500Y-81966500D01*
X168286500Y-81966500D01*
X168286500Y-81510662D01*
X171784500Y-81510662D01*
X171784500Y-81966500D01*
X173286500Y-81966500D01*
X174284500Y-81966500D01*
X175786500Y-81966500D01*
X175786500Y-81581629D01*
X175579287Y-81599759D01*
X175573890Y-81600113D01*
X175541190Y-81601541D01*
X175535780Y-81601659D01*
X175492220Y-81601659D01*
X175486810Y-81601541D01*
X175454110Y-81600113D01*
X175448713Y-81599759D01*
X175169916Y-81575367D01*
X175164539Y-81574778D01*
X175132096Y-81570507D01*
X175126749Y-81569684D01*
X175083854Y-81562121D01*
X175078546Y-81561066D01*
X175046588Y-81553981D01*
X175041334Y-81552695D01*
X174770992Y-81480259D01*
X174765795Y-81478744D01*
X174734560Y-81468895D01*
X174729432Y-81467154D01*
X174688500Y-81452253D01*
X174683465Y-81450295D01*
X174653244Y-81437777D01*
X174648292Y-81435598D01*
X174394663Y-81317328D01*
X174389812Y-81314936D01*
X174360791Y-81299829D01*
X174356051Y-81297229D01*
X174318327Y-81275451D01*
X174313698Y-81272642D01*
X174286084Y-81255050D01*
X174284500Y-81253991D01*
X174284500Y-81966500D01*
X173286500Y-81966500D01*
X173286500Y-81578130D01*
X173039287Y-81599759D01*
X173033890Y-81600113D01*
X173001190Y-81601541D01*
X172995780Y-81601659D01*
X172952220Y-81601659D01*
X172946810Y-81601541D01*
X172914110Y-81600113D01*
X172908713Y-81599759D01*
X172629916Y-81575367D01*
X172624539Y-81574778D01*
X172592096Y-81570507D01*
X172586749Y-81569684D01*
X172543854Y-81562121D01*
X172538546Y-81561066D01*
X172506588Y-81553981D01*
X172501334Y-81552695D01*
X172230992Y-81480259D01*
X172225795Y-81478744D01*
X172194560Y-81468895D01*
X172189432Y-81467154D01*
X172148500Y-81452253D01*
X172143465Y-81450295D01*
X172113244Y-81437777D01*
X172108292Y-81435598D01*
X172034714Y-81401287D01*
X171973333Y-81434805D01*
X171965419Y-81438767D01*
X171916682Y-81461025D01*
X171908502Y-81464413D01*
X171784500Y-81510662D01*
X168286500Y-81510662D01*
X168286500Y-81225376D01*
X176784500Y-81225376D01*
X176784500Y-81966500D01*
X177596000Y-81966500D01*
X177596000Y-81583454D01*
X177605439Y-81536002D01*
X177606268Y-81534000D01*
X177605439Y-81531998D01*
X177596000Y-81484546D01*
X177596000Y-80464500D01*
X177528323Y-80464500D01*
X177521050Y-80475916D01*
X177518044Y-80480415D01*
X177357512Y-80709678D01*
X177354311Y-80714042D01*
X177334375Y-80740022D01*
X177330987Y-80744244D01*
X177302986Y-80777611D01*
X177299423Y-80781674D01*
X177277323Y-80805792D01*
X177273581Y-80809700D01*
X177075700Y-81007581D01*
X177071792Y-81011323D01*
X177047674Y-81033423D01*
X177043611Y-81036986D01*
X177010244Y-81064987D01*
X177006022Y-81068375D01*
X176980042Y-81088311D01*
X176975678Y-81091512D01*
X176784500Y-81225376D01*
X168286500Y-81225376D01*
X168286500Y-80858486D01*
X168285891Y-80857539D01*
X168281372Y-80849923D01*
X168247195Y-80787333D01*
X168243233Y-80779419D01*
X168220975Y-80730682D01*
X168217587Y-80722502D01*
X168143931Y-80525018D01*
X168141452Y-80517679D01*
X168127847Y-80472828D01*
X168125832Y-80465352D01*
X168125631Y-80464500D01*
X166784500Y-80464500D01*
X166784500Y-81966500D01*
X165786500Y-81966500D01*
X165786500Y-80464500D01*
X164284500Y-80464500D01*
X164284500Y-81966500D01*
X163286500Y-81966500D01*
X163286500Y-80464500D01*
X162534500Y-80464500D01*
X162534500Y-81966500D01*
X161536500Y-81966500D01*
X161536500Y-79466500D01*
X162534500Y-79466500D01*
X163286500Y-79466500D01*
X164284500Y-79466500D01*
X165786500Y-79466500D01*
X166784500Y-79466500D01*
X168085501Y-79466500D01*
X168085500Y-78714500D01*
X166784500Y-78714500D01*
X166784500Y-79466500D01*
X165786500Y-79466500D01*
X165786500Y-78714500D01*
X164284500Y-78714500D01*
X164284500Y-79466500D01*
X163286500Y-79466500D01*
X163286500Y-78714500D01*
X162534500Y-78714500D01*
X162534500Y-79466500D01*
X161536500Y-79466500D01*
X161536500Y-78238961D01*
X161537280Y-78225078D01*
X161538094Y-78217852D01*
X161547861Y-78131166D01*
X161554036Y-78104109D01*
X161582938Y-78021514D01*
X161594978Y-77996511D01*
X161641537Y-77922414D01*
X161658843Y-77900713D01*
X161720713Y-77838843D01*
X161742414Y-77821537D01*
X161816511Y-77774978D01*
X161841514Y-77762938D01*
X161924109Y-77734036D01*
X161951166Y-77727861D01*
X162037852Y-77718094D01*
X162045078Y-77717280D01*
X162058961Y-77716500D01*
X162117892Y-77716500D01*
X169291691Y-77716500D01*
X169358730Y-77736185D01*
G37*
%TD.AperFunction*%
%TD*%
M02*
