M48
; DRILL file {KiCad 8.0.6} date 2025-06-17T20:59:07+0530
; FORMAT={-:-/ absolute / inch / decimal}
; #@! TF.CreationDate,2025-06-17T20:59:07+05:30
; #@! TF.GenerationSoftware,Kicad,Pcbnew,8.0.6
; #@! TF.FileFunction,Plated,1,2,PTH
FMAT,2
INCH
; #@! TA.AperFunction,Plated,PTH,ViaDrill
T1C0.0118
; #@! TA.AperFunction,Plated,PTH,ComponentDrill
T2C0.0276
; #@! TA.AperFunction,Plated,PTH,ComponentDrill
T3C0.0315
; #@! TA.AperFunction,Plated,PTH,ComponentDrill
T4C0.0354
; #@! TA.AperFunction,Plated,PTH,ComponentDrill
T5C0.0394
; #@! TA.AperFunction,Plated,PTH,ComponentDrill
T6C0.0433
; #@! TA.AperFunction,Plated,PTH,ComponentDrill
T7C0.0598
%
G90
G05
T1
X6.95Y-4.65
T2
X7.04Y-4.64
X7.05Y-4.49
X7.1Y-3.76
X7.34Y-4.64
X7.35Y-4.49
X7.4Y-3.76
T3
X6.5708Y-3.44
X6.5708Y-4.77
X6.6692Y-3.44
X6.6692Y-4.77
X6.8208Y-3.44
X6.9192Y-3.44
T4
X7.1216Y-3.57
X7.22Y-3.57
X7.24Y-4.03
X7.24Y-4.13
X7.3184Y-3.57
T5
X6.71Y-3.12
X6.72Y-5.07
X6.81Y-3.12
X6.82Y-5.07
X6.91Y-3.12
X6.92Y-5.07
X7.625Y-3.125
X7.625Y-3.225
X7.625Y-4.975
X7.625Y-5.075
T6
X6.63Y-4.5172
X6.65Y-3.69
X6.73Y-4.5172
X6.75Y-3.69
X6.83Y-4.5172
X6.85Y-3.69
T7
X7.11Y-3.21
X7.12Y-4.99
X7.31Y-3.21
X7.32Y-4.99
T5
G00X6.68Y-4.0106
M15
G01X6.68Y-4.0894
M16
G05
G00X6.7587Y-4.235
M15
G01X6.8375Y-4.235
M16
G05
G00X6.9162Y-4.0106
M15
G01X6.9162Y-4.0894
M16
G05
M30
